ISO-10303-21;
HEADER;
/* Generated by software containing ST-Developer
 * from STEP Tools, Inc. (www.steptools.com) 
 */
/* OPTION: using custom renumber hook */

FILE_DESCRIPTION(
/* description */ ('STEP AP242 Edition 2',
'CAx-IF Rec.Pracs.---Representation and Presentation of Product Manufa
cturing Information (PMI)---4.0---2014-10-13',
'CAx-IF Rec.Pracs.---3D Tessellated Geometry---0.4---2014-09-14','2;1',
'CAx-IF Rec.Pracs.---User Defined Attributes---1.5---2016-08-15'),
/* implementation_level */ '2;1');

FILE_NAME(
/* name */ 
'(Cat-Aclysm) Antweight MK3 (Seperate Weapoon Struts) motor mounts V2 
- Left Wheel Spike',
/* time_stamp */ '2026-09-09T11:51:15Z',
/* author */ (''),
/* organization */ (''),
/* preprocessor_version */ 'ST-DEVELOPER v20',
/* originating_system */ 'ONSHAPE BY PTC INC, 1.220',
/* authorisation */ '  ');

FILE_SCHEMA (('AP242_MANAGED_MODEL_BASED_3D_ENGINEERING_MIM_LF { 1 0 10303 442 3 1 4 }'));
ENDSEC;

DATA;
#10=SHAPE_REPRESENTATION_RELATIONSHIP('','',#374,#11);
#11=ADVANCED_BREP_SHAPE_REPRESENTATION('',(#372),#611);
#12=PLANE('',#379);
#13=PLANE('',#380);
#14=PLANE('',#384);
#15=PLANE('',#391);
#16=PLANE('',#392);
#17=PLANE('',#393);
#18=PLANE('',#394);
#19=PLANE('',#395);
#20=PLANE('',#396);
#21=PLANE('',#397);
#22=PLANE('',#398);
#23=PLANE('',#399);
#24=PLANE('',#400);
#25=PLANE('',#401);
#26=PLANE('',#402);
#27=PLANE('',#403);
#28=PLANE('',#404);
#29=PLANE('',#405);
#30=PLANE('',#406);
#31=PLANE('',#407);
#32=LINE('',#517,#70);
#33=LINE('',#521,#71);
#34=LINE('',#523,#72);
#35=LINE('',#526,#73);
#36=LINE('',#528,#74);
#37=LINE('',#530,#75);
#38=LINE('',#545,#76);
#39=LINE('',#548,#77);
#40=LINE('',#550,#78);
#41=LINE('',#552,#79);
#42=LINE('',#554,#80);
#43=LINE('',#556,#81);
#44=LINE('',#558,#82);
#45=LINE('',#560,#83);
#46=LINE('',#562,#84);
#47=LINE('',#564,#85);
#48=LINE('',#566,#86);
#49=LINE('',#568,#87);
#50=LINE('',#570,#88);
#51=LINE('',#572,#89);
#52=LINE('',#574,#90);
#53=LINE('',#576,#91);
#54=LINE('',#578,#92);
#55=LINE('',#580,#93);
#56=LINE('',#582,#94);
#57=LINE('',#584,#95);
#58=LINE('',#586,#96);
#59=LINE('',#588,#97);
#60=LINE('',#590,#98);
#61=LINE('',#592,#99);
#62=LINE('',#594,#100);
#63=LINE('',#596,#101);
#64=LINE('',#598,#102);
#65=LINE('',#600,#103);
#66=LINE('',#602,#104);
#67=LINE('',#604,#105);
#68=LINE('',#606,#106);
#69=LINE('',#608,#107);
#70=VECTOR('',#414,1.);
#71=VECTOR('',#417,1.);
#72=VECTOR('',#420,1.);
#73=VECTOR('',#421,1.);
#74=VECTOR('',#422,1.);
#75=VECTOR('',#423,1.);
#76=VECTOR('',#448,1.);
#77=VECTOR('',#449,1.);
#78=VECTOR('',#450,1.);
#79=VECTOR('',#453,1.);
#80=VECTOR('',#454,1.);
#81=VECTOR('',#457,1.);
#82=VECTOR('',#458,1.);
#83=VECTOR('',#461,1.);
#84=VECTOR('',#462,1.);
#85=VECTOR('',#465,1.);
#86=VECTOR('',#466,1.);
#87=VECTOR('',#469,1.);
#88=VECTOR('',#470,1.);
#89=VECTOR('',#473,1.);
#90=VECTOR('',#474,1.);
#91=VECTOR('',#477,1.);
#92=VECTOR('',#480,1.);
#93=VECTOR('',#481,1.);
#94=VECTOR('',#482,1.);
#95=VECTOR('',#485,1.);
#96=VECTOR('',#486,1.);
#97=VECTOR('',#489,1.);
#98=VECTOR('',#490,1.);
#99=VECTOR('',#493,1.);
#100=VECTOR('',#494,1.);
#101=VECTOR('',#497,1.);
#102=VECTOR('',#498,1.);
#103=VECTOR('',#501,1.);
#104=VECTOR('',#502,1.);
#105=VECTOR('',#505,1.);
#106=VECTOR('',#506,1.);
#107=VECTOR('',#509,1.);
#108=ORIENTED_EDGE('',*,*,#200,.T.);
#109=ORIENTED_EDGE('',*,*,#201,.T.);
#110=ORIENTED_EDGE('',*,*,#202,.T.);
#111=ORIENTED_EDGE('',*,*,#203,.T.);
#112=ORIENTED_EDGE('',*,*,#204,.F.);
#113=ORIENTED_EDGE('',*,*,#205,.F.);
#114=ORIENTED_EDGE('',*,*,#206,.F.);
#115=ORIENTED_EDGE('',*,*,#207,.F.);
#116=ORIENTED_EDGE('',*,*,#208,.F.);
#117=ORIENTED_EDGE('',*,*,#207,.T.);
#118=ORIENTED_EDGE('',*,*,#209,.F.);
#119=ORIENTED_EDGE('',*,*,#202,.F.);
#120=ORIENTED_EDGE('',*,*,#210,.T.);
#121=ORIENTED_EDGE('',*,*,#211,.F.);
#122=ORIENTED_EDGE('',*,*,#205,.T.);
#123=ORIENTED_EDGE('',*,*,#212,.F.);
#124=ORIENTED_EDGE('',*,*,#200,.F.);
#125=ORIENTED_EDGE('',*,*,#209,.T.);
#126=ORIENTED_EDGE('',*,*,#206,.T.);
#127=ORIENTED_EDGE('',*,*,#211,.T.);
#128=ORIENTED_EDGE('',*,*,#203,.F.);
#129=ORIENTED_EDGE('',*,*,#212,.T.);
#130=ORIENTED_EDGE('',*,*,#204,.T.);
#131=ORIENTED_EDGE('',*,*,#208,.T.);
#132=ORIENTED_EDGE('',*,*,#201,.F.);
#133=ORIENTED_EDGE('',*,*,#210,.F.);
#134=ORIENTED_EDGE('',*,*,#213,.T.);
#135=ORIENTED_EDGE('',*,*,#214,.F.);
#136=ORIENTED_EDGE('',*,*,#215,.T.);
#137=ORIENTED_EDGE('',*,*,#216,.T.);
#138=ORIENTED_EDGE('',*,*,#217,.T.);
#139=ORIENTED_EDGE('',*,*,#218,.F.);
#140=ORIENTED_EDGE('',*,*,#214,.T.);
#141=ORIENTED_EDGE('',*,*,#219,.F.);
#142=ORIENTED_EDGE('',*,*,#218,.T.);
#143=ORIENTED_EDGE('',*,*,#220,.T.);
#144=ORIENTED_EDGE('',*,*,#221,.F.);
#145=ORIENTED_EDGE('',*,*,#219,.T.);
#146=ORIENTED_EDGE('',*,*,#222,.T.);
#147=ORIENTED_EDGE('',*,*,#223,.F.);
#148=ORIENTED_EDGE('',*,*,#221,.T.);
#149=ORIENTED_EDGE('',*,*,#224,.T.);
#150=ORIENTED_EDGE('',*,*,#225,.F.);
#151=ORIENTED_EDGE('',*,*,#223,.T.);
#152=ORIENTED_EDGE('',*,*,#226,.T.);
#153=ORIENTED_EDGE('',*,*,#227,.F.);
#154=ORIENTED_EDGE('',*,*,#225,.T.);
#155=ORIENTED_EDGE('',*,*,#228,.T.);
#156=ORIENTED_EDGE('',*,*,#215,.F.);
#157=ORIENTED_EDGE('',*,*,#227,.T.);
#158=ORIENTED_EDGE('',*,*,#229,.T.);
#159=ORIENTED_EDGE('',*,*,#230,.F.);
#160=ORIENTED_EDGE('',*,*,#216,.F.);
#161=ORIENTED_EDGE('',*,*,#231,.T.);
#162=ORIENTED_EDGE('',*,*,#232,.T.);
#163=ORIENTED_EDGE('',*,*,#233,.F.);
#164=ORIENTED_EDGE('',*,*,#217,.F.);
#165=ORIENTED_EDGE('',*,*,#230,.T.);
#166=ORIENTED_EDGE('',*,*,#234,.T.);
#167=ORIENTED_EDGE('',*,*,#235,.F.);
#168=ORIENTED_EDGE('',*,*,#220,.F.);
#169=ORIENTED_EDGE('',*,*,#233,.T.);
#170=ORIENTED_EDGE('',*,*,#236,.T.);
#171=ORIENTED_EDGE('',*,*,#237,.F.);
#172=ORIENTED_EDGE('',*,*,#222,.F.);
#173=ORIENTED_EDGE('',*,*,#235,.T.);
#174=ORIENTED_EDGE('',*,*,#238,.T.);
#175=ORIENTED_EDGE('',*,*,#239,.F.);
#176=ORIENTED_EDGE('',*,*,#224,.F.);
#177=ORIENTED_EDGE('',*,*,#237,.T.);
#178=ORIENTED_EDGE('',*,*,#240,.T.);
#179=ORIENTED_EDGE('',*,*,#241,.F.);
#180=ORIENTED_EDGE('',*,*,#226,.F.);
#181=ORIENTED_EDGE('',*,*,#239,.T.);
#182=ORIENTED_EDGE('',*,*,#242,.T.);
#183=ORIENTED_EDGE('',*,*,#243,.T.);
#184=ORIENTED_EDGE('',*,*,#244,.F.);
#185=ORIENTED_EDGE('',*,*,#228,.F.);
#186=ORIENTED_EDGE('',*,*,#241,.T.);
#187=ORIENTED_EDGE('',*,*,#231,.F.);
#188=ORIENTED_EDGE('',*,*,#229,.F.);
#189=ORIENTED_EDGE('',*,*,#244,.T.);
#190=ORIENTED_EDGE('',*,*,#245,.T.);
#191=ORIENTED_EDGE('',*,*,#213,.F.);
#192=ORIENTED_EDGE('',*,*,#245,.F.);
#193=ORIENTED_EDGE('',*,*,#243,.F.);
#194=ORIENTED_EDGE('',*,*,#242,.F.);
#195=ORIENTED_EDGE('',*,*,#240,.F.);
#196=ORIENTED_EDGE('',*,*,#238,.F.);
#197=ORIENTED_EDGE('',*,*,#236,.F.);
#198=ORIENTED_EDGE('',*,*,#234,.F.);
#199=ORIENTED_EDGE('',*,*,#232,.F.);
#200=EDGE_CURVE('',#246,#247,#273,.T.);
#201=EDGE_CURVE('',#247,#248,#32,.T.);
#202=EDGE_CURVE('',#248,#249,#274,.T.);
#203=EDGE_CURVE('',#249,#246,#33,.F.);
#204=EDGE_CURVE('',#250,#251,#34,.T.);
#205=EDGE_CURVE('',#252,#250,#35,.T.);
#206=EDGE_CURVE('',#253,#252,#36,.F.);
#207=EDGE_CURVE('',#251,#253,#37,.T.);
#208=EDGE_CURVE('',#251,#248,#275,.F.);
#209=EDGE_CURVE('',#249,#253,#276,.F.);
#210=EDGE_CURVE('',#254,#254,#277,.T.);
#211=EDGE_CURVE('',#252,#246,#278,.T.);
#212=EDGE_CURVE('',#247,#250,#279,.T.);
#213=EDGE_CURVE('',#255,#255,#280,.F.);
#214=EDGE_CURVE('',#256,#257,#38,.T.);
#215=EDGE_CURVE('',#256,#258,#39,.T.);
#216=EDGE_CURVE('',#258,#257,#40,.F.);
#217=EDGE_CURVE('',#257,#259,#41,.F.);
#218=EDGE_CURVE('',#256,#259,#42,.T.);
#219=EDGE_CURVE('',#256,#260,#43,.T.);
#220=EDGE_CURVE('',#259,#260,#44,.F.);
#221=EDGE_CURVE('',#256,#261,#45,.T.);
#222=EDGE_CURVE('',#260,#261,#46,.F.);
#223=EDGE_CURVE('',#256,#262,#47,.T.);
#224=EDGE_CURVE('',#261,#262,#48,.F.);
#225=EDGE_CURVE('',#256,#263,#49,.T.);
#226=EDGE_CURVE('',#262,#263,#50,.F.);
#227=EDGE_CURVE('',#256,#264,#51,.T.);
#228=EDGE_CURVE('',#263,#264,#52,.F.);
#229=EDGE_CURVE('',#264,#258,#53,.F.);
#230=EDGE_CURVE('',#257,#265,#54,.T.);
#231=EDGE_CURVE('',#258,#266,#55,.T.);
#232=EDGE_CURVE('',#266,#265,#56,.F.);
#233=EDGE_CURVE('',#259,#267,#57,.T.);
#234=EDGE_CURVE('',#265,#267,#58,.F.);
#235=EDGE_CURVE('',#260,#268,#59,.T.);
#236=EDGE_CURVE('',#267,#268,#60,.F.);
#237=EDGE_CURVE('',#261,#269,#61,.T.);
#238=EDGE_CURVE('',#268,#269,#62,.F.);
#239=EDGE_CURVE('',#262,#270,#63,.T.);
#240=EDGE_CURVE('',#269,#270,#64,.F.);
#241=EDGE_CURVE('',#263,#271,#65,.T.);
#242=EDGE_CURVE('',#270,#271,#66,.F.);
#243=EDGE_CURVE('',#271,#272,#67,.F.);
#244=EDGE_CURVE('',#264,#272,#68,.T.);
#245=EDGE_CURVE('',#272,#266,#69,.F.);
#246=VERTEX_POINT('',#515);
#247=VERTEX_POINT('',#516);
#248=VERTEX_POINT('',#518);
#249=VERTEX_POINT('',#520);
#250=VERTEX_POINT('',#524);
#251=VERTEX_POINT('',#525);
#252=VERTEX_POINT('',#527);
#253=VERTEX_POINT('',#529);
#254=VERTEX_POINT('',#535);
#255=VERTEX_POINT('',#543);
#256=VERTEX_POINT('',#546);
#257=VERTEX_POINT('',#547);
#258=VERTEX_POINT('',#549);
#259=VERTEX_POINT('',#553);
#260=VERTEX_POINT('',#557);
#261=VERTEX_POINT('',#561);
#262=VERTEX_POINT('',#565);
#263=VERTEX_POINT('',#569);
#264=VERTEX_POINT('',#573);
#265=VERTEX_POINT('',#579);
#266=VERTEX_POINT('',#581);
#267=VERTEX_POINT('',#585);
#268=VERTEX_POINT('',#589);
#269=VERTEX_POINT('',#593);
#270=VERTEX_POINT('',#597);
#271=VERTEX_POINT('',#601);
#272=VERTEX_POINT('',#605);
#273=CIRCLE('',#377,0.0016);
#274=CIRCLE('',#378,0.0016);
#275=CIRCLE('',#381,0.00015);
#276=CIRCLE('',#382,0.00015);
#277=CIRCLE('',#383,0.0022);
#278=CIRCLE('',#385,0.00015);
#279=CIRCLE('',#386,0.00015);
#280=CIRCLE('',#390,0.0022);
#281=EDGE_LOOP('',(#108,#109,#110,#111));
#282=EDGE_LOOP('',(#112,#113,#114,#115));
#283=EDGE_LOOP('',(#116,#117,#118,#119));
#284=EDGE_LOOP('',(#120));
#285=EDGE_LOOP('',(#121,#122,#123,#124));
#286=EDGE_LOOP('',(#125,#126,#127,#128));
#287=EDGE_LOOP('',(#129,#130,#131,#132));
#288=EDGE_LOOP('',(#133));
#289=EDGE_LOOP('',(#134));
#290=EDGE_LOOP('',(#135,#136,#137));
#291=EDGE_LOOP('',(#138,#139,#140));
#292=EDGE_LOOP('',(#141,#142,#143));
#293=EDGE_LOOP('',(#144,#145,#146));
#294=EDGE_LOOP('',(#147,#148,#149));
#295=EDGE_LOOP('',(#150,#151,#152));
#296=EDGE_LOOP('',(#153,#154,#155));
#297=EDGE_LOOP('',(#156,#157,#158));
#298=EDGE_LOOP('',(#159,#160,#161,#162));
#299=EDGE_LOOP('',(#163,#164,#165,#166));
#300=EDGE_LOOP('',(#167,#168,#169,#170));
#301=EDGE_LOOP('',(#171,#172,#173,#174));
#302=EDGE_LOOP('',(#175,#176,#177,#178));
#303=EDGE_LOOP('',(#179,#180,#181,#182));
#304=EDGE_LOOP('',(#183,#184,#185,#186));
#305=EDGE_LOOP('',(#187,#188,#189,#190));
#306=EDGE_LOOP('',(#191));
#307=EDGE_LOOP('',(#192,#193,#194,#195,#196,#197,#198,#199));
#308=FACE_BOUND('',#281,.T.);
#309=FACE_BOUND('',#282,.T.);
#310=FACE_BOUND('',#283,.T.);
#311=FACE_BOUND('',#284,.T.);
#312=FACE_BOUND('',#285,.T.);
#313=FACE_BOUND('',#286,.T.);
#314=FACE_BOUND('',#287,.T.);
#315=FACE_BOUND('',#288,.T.);
#316=FACE_BOUND('',#289,.T.);
#317=FACE_BOUND('',#290,.T.);
#318=FACE_BOUND('',#291,.T.);
#319=FACE_BOUND('',#292,.T.);
#320=FACE_BOUND('',#293,.T.);
#321=FACE_BOUND('',#294,.T.);
#322=FACE_BOUND('',#295,.T.);
#323=FACE_BOUND('',#296,.T.);
#324=FACE_BOUND('',#297,.T.);
#325=FACE_BOUND('',#298,.T.);
#326=FACE_BOUND('',#299,.T.);
#327=FACE_BOUND('',#300,.T.);
#328=FACE_BOUND('',#301,.T.);
#329=FACE_BOUND('',#302,.T.);
#330=FACE_BOUND('',#303,.T.);
#331=FACE_BOUND('',#304,.T.);
#332=FACE_BOUND('',#305,.T.);
#333=FACE_BOUND('',#306,.T.);
#334=FACE_BOUND('',#307,.T.);
#335=CYLINDRICAL_SURFACE('',#376,0.0016);
#336=CYLINDRICAL_SURFACE('',#387,0.00015);
#337=CYLINDRICAL_SURFACE('',#388,0.00015);
#338=CYLINDRICAL_SURFACE('',#389,0.0022);
#339=ADVANCED_FACE('',(#308),#335,.F.);
#340=ADVANCED_FACE('',(#309),#12,.F.);
#341=ADVANCED_FACE('',(#310,#311),#13,.F.);
#342=ADVANCED_FACE('',(#312),#14,.F.);
#343=ADVANCED_FACE('',(#313),#336,.F.);
#344=ADVANCED_FACE('',(#314),#337,.F.);
#345=ADVANCED_FACE('',(#315,#316),#338,.T.);
#346=ADVANCED_FACE('',(#317),#15,.F.);
#347=ADVANCED_FACE('',(#318),#16,.F.);
#348=ADVANCED_FACE('',(#319),#17,.F.);
#349=ADVANCED_FACE('',(#320),#18,.F.);
#350=ADVANCED_FACE('',(#321),#19,.F.);
#351=ADVANCED_FACE('',(#322),#20,.F.);
#352=ADVANCED_FACE('',(#323),#21,.F.);
#353=ADVANCED_FACE('',(#324),#22,.F.);
#354=ADVANCED_FACE('',(#325),#23,.F.);
#355=ADVANCED_FACE('',(#326),#24,.F.);
#356=ADVANCED_FACE('',(#327),#25,.F.);
#357=ADVANCED_FACE('',(#328),#26,.F.);
#358=ADVANCED_FACE('',(#329),#27,.F.);
#359=ADVANCED_FACE('',(#330),#28,.F.);
#360=ADVANCED_FACE('',(#331),#29,.F.);
#361=ADVANCED_FACE('',(#332),#30,.F.);
#362=ADVANCED_FACE('',(#333,#334),#31,.F.);
#363=CLOSED_SHELL('',(#339,#340,#341,#342,#343,#344,#345,#346,#347,#348,
#349,#350,#351,#352,#353,#354,#355,#356,#357,#358,#359,#360,#361,#362));
#364=STYLED_ITEM('',(#365),#372);
#365=PRESENTATION_STYLE_ASSIGNMENT((#366));
#366=SURFACE_STYLE_USAGE(.BOTH.,#367);
#367=SURFACE_SIDE_STYLE('',(#368));
#368=SURFACE_STYLE_FILL_AREA(#369);
#369=FILL_AREA_STYLE('',(#370));
#370=FILL_AREA_STYLE_COLOUR('',#371);
#371=COLOUR_RGB('',0.768627450980392,0.886274509803922,0.952941176470588);
#372=MANIFOLD_SOLID_BREP('Left Wheel Spike',#363);
#373=SHAPE_DEFINITION_REPRESENTATION(#616,#374);
#374=SHAPE_REPRESENTATION('Left Wheel Spike',(#375),#611);
#375=AXIS2_PLACEMENT_3D('',#512,#408,#409);
#376=AXIS2_PLACEMENT_3D('',#513,#410,#411);
#377=AXIS2_PLACEMENT_3D('',#514,#412,#413);
#378=AXIS2_PLACEMENT_3D('',#519,#415,#416);
#379=AXIS2_PLACEMENT_3D('',#522,#418,#419);
#380=AXIS2_PLACEMENT_3D('',#531,#424,#425);
#381=AXIS2_PLACEMENT_3D('',#532,#426,#427);
#382=AXIS2_PLACEMENT_3D('',#533,#428,#429);
#383=AXIS2_PLACEMENT_3D('',#534,#430,#431);
#384=AXIS2_PLACEMENT_3D('',#536,#432,#433);
#385=AXIS2_PLACEMENT_3D('',#537,#434,#435);
#386=AXIS2_PLACEMENT_3D('',#538,#436,#437);
#387=AXIS2_PLACEMENT_3D('',#539,#438,#439);
#388=AXIS2_PLACEMENT_3D('',#540,#440,#441);
#389=AXIS2_PLACEMENT_3D('',#541,#442,#443);
#390=AXIS2_PLACEMENT_3D('',#542,#444,#445);
#391=AXIS2_PLACEMENT_3D('',#544,#446,#447);
#392=AXIS2_PLACEMENT_3D('',#551,#451,#452);
#393=AXIS2_PLACEMENT_3D('',#555,#455,#456);
#394=AXIS2_PLACEMENT_3D('',#559,#459,#460);
#395=AXIS2_PLACEMENT_3D('',#563,#463,#464);
#396=AXIS2_PLACEMENT_3D('',#567,#467,#468);
#397=AXIS2_PLACEMENT_3D('',#571,#471,#472);
#398=AXIS2_PLACEMENT_3D('',#575,#475,#476);
#399=AXIS2_PLACEMENT_3D('',#577,#478,#479);
#400=AXIS2_PLACEMENT_3D('',#583,#483,#484);
#401=AXIS2_PLACEMENT_3D('',#587,#487,#488);
#402=AXIS2_PLACEMENT_3D('',#591,#491,#492);
#403=AXIS2_PLACEMENT_3D('',#595,#495,#496);
#404=AXIS2_PLACEMENT_3D('',#599,#499,#500);
#405=AXIS2_PLACEMENT_3D('',#603,#503,#504);
#406=AXIS2_PLACEMENT_3D('',#607,#507,#508);
#407=AXIS2_PLACEMENT_3D('',#609,#510,#511);
#408=DIRECTION('',(0.,0.,1.));
#409=DIRECTION('',(1.,0.,0.));
#410=DIRECTION('',(-1.,0.,0.));
#411=DIRECTION('',(0.,0.,-1.));
#412=DIRECTION('',(1.,0.,0.));
#413=DIRECTION('',(0.,0.,-1.));
#414=DIRECTION('',(-1.,0.,0.));
#415=DIRECTION('',(-1.,0.,0.));
#416=DIRECTION('',(0.,0.,1.));
#417=DIRECTION('',(-1.,0.,0.));
#418=DIRECTION('',(0.,-1.,7.01801395951689E-16));
#419=DIRECTION('',(0.,-7.01801395951689E-16,-1.));
#420=DIRECTION('',(-1.,0.,0.));
#421=DIRECTION('',(0.,7.01801395951689E-16,1.));
#422=DIRECTION('',(-1.,0.,0.));
#423=DIRECTION('',(0.,-7.01801395951689E-16,-1.));
#424=DIRECTION('',(1.,0.,0.));
#425=DIRECTION('',(0.,-1.,0.));
#426=DIRECTION('',(1.,0.,0.));
#427=DIRECTION('',(0.,0.,-1.));
#428=DIRECTION('',(1.,0.,0.));
#429=DIRECTION('',(0.,0.,-1.));
#430=DIRECTION('',(-1.,0.,0.));
#431=DIRECTION('',(0.,0.,1.));
#432=DIRECTION('',(1.,0.,0.));
#433=DIRECTION('',(0.,-1.,0.));
#434=DIRECTION('',(1.,0.,0.));
#435=DIRECTION('',(0.,0.,-1.));
#436=DIRECTION('',(1.,0.,0.));
#437=DIRECTION('',(0.,0.,-1.));
#438=DIRECTION('',(-1.,0.,0.));
#439=DIRECTION('',(0.,0.,1.));
#440=DIRECTION('',(-1.,0.,0.));
#441=DIRECTION('',(0.,0.,1.));
#442=DIRECTION('',(-1.,0.,0.));
#443=DIRECTION('',(0.,0.,1.));
#444=DIRECTION('',(1.,0.,0.));
#445=DIRECTION('',(0.,0.,-1.));
#446=DIRECTION('',(-0.344254649158423,1.78727608407878E-16,-0.938876315886609));
#447=DIRECTION('',(0.938876315886609,0.,-0.344254649158423));
#448=DIRECTION('',(-0.929474221750836,-0.141166970459304,0.340807214641973));
#449=DIRECTION('',(-0.929474221750836,0.141166970459304,0.340807214641973));
#450=DIRECTION('',(0.,1.,1.90363315575918E-16));
#451=DIRECTION('',(-0.344254649158423,0.663885809658864,-0.663885809658864));
#452=DIRECTION('',(0.,0.707106781186547,0.707106781186548));
#453=DIRECTION('',(0.,0.707106781186547,0.707106781186548));
#454=DIRECTION('',(-0.929474221750836,-0.340807214641973,0.141166970459304));
#455=DIRECTION('',(-0.344254649158423,0.938876315886609,1.78727608407878E-16));
#456=DIRECTION('',(0.938876315886609,0.344254649158424,0.));
#457=DIRECTION('',(-0.929474221750836,-0.340807214641973,-0.141166970459304));
#458=DIRECTION('',(0.,-1.90363315575918E-16,1.));
#459=DIRECTION('',(-0.344254649158423,0.663885809658864,0.663885809658864));
#460=DIRECTION('',(0.,-0.707106781186548,0.707106781186547));
#461=DIRECTION('',(-0.929474221750836,-0.141166970459304,-0.340807214641973));
#462=DIRECTION('',(0.,-0.707106781186548,0.707106781186547));
#463=DIRECTION('',(-0.344254649158423,-1.78727608407878E-16,0.938876315886609));
#464=DIRECTION('',(-0.938876315886609,0.,-0.344254649158424));
#465=DIRECTION('',(-0.929474221750836,0.141166970459304,-0.340807214641973));
#466=DIRECTION('',(0.,-1.,-1.90363315575918E-16));
#467=DIRECTION('',(-0.344254649158423,-0.663885809658864,0.663885809658864));
#468=DIRECTION('',(0.,-0.707106781186547,-0.707106781186548));
#469=DIRECTION('',(-0.929474221750836,0.340807214641973,-0.141166970459304));
#470=DIRECTION('',(0.,-0.707106781186548,-0.707106781186548));
#471=DIRECTION('',(-0.344254649158423,-0.938876315886609,0.));
#472=DIRECTION('',(-0.938876315886609,0.344254649158423,0.));
#473=DIRECTION('',(-0.929474221750836,0.340807214641973,0.141166970459304));
#474=DIRECTION('',(0.,0.,-1.));
#475=DIRECTION('',(-0.344254649158423,-0.663885809658864,-0.663885809658864));
#476=DIRECTION('',(0.,0.707106781186548,-0.707106781186547));
#477=DIRECTION('',(0.,0.707106781186548,-0.707106781186548));
#478=DIRECTION('',(0.554700196225229,1.58391852756071E-16,-0.832050294337844));
#479=DIRECTION('',(0.832050294337844,0.,0.554700196225229));
#480=DIRECTION('',(-0.810920653838994,0.223929555219046,-0.540613769225996));
#481=DIRECTION('',(-0.810920653838994,-0.223929555219046,-0.540613769225996));
#482=DIRECTION('',(0.,1.,2.99142353047872E-16));
#483=DIRECTION('',(0.554700196225229,0.588348405414552,-0.588348405414552));
#484=DIRECTION('',(0.,0.707106781186547,0.707106781186548));
#485=DIRECTION('',(-0.810920653838995,0.540613769225995,-0.223929555219047));
#486=DIRECTION('',(0.,0.707106781186547,0.707106781186548));
#487=DIRECTION('',(0.554700196225228,0.832050294337844,1.58391852756071E-16));
#488=DIRECTION('',(0.832050294337844,-0.554700196225228,0.));
#489=DIRECTION('',(-0.810920653838994,0.540613769225996,0.223929555219046));
#490=DIRECTION('',(0.,-2.99142353047872E-16,1.));
#491=DIRECTION('',(0.554700196225229,0.588348405414552,0.588348405414552));
#492=DIRECTION('',(0.,-0.707106781186548,0.707106781186547));
#493=DIRECTION('',(-0.810920653838994,0.223929555219046,0.540613769225996));
#494=DIRECTION('',(0.,-0.707106781186548,0.707106781186547));
#495=DIRECTION('',(0.554700196225229,-1.58391852756071E-16,0.832050294337844));
#496=DIRECTION('',(-0.832050294337844,0.,0.554700196225229));
#497=DIRECTION('',(-0.810920653838994,-0.223929555219046,0.540613769225996));
#498=DIRECTION('',(0.,-1.,-2.99142353047872E-16));
#499=DIRECTION('',(0.554700196225229,-0.588348405414552,0.588348405414552));
#500=DIRECTION('',(0.,-0.707106781186548,-0.707106781186548));
#501=DIRECTION('',(-0.810920653838994,-0.540613769225996,0.223929555219046));
#502=DIRECTION('',(0.,-0.707106781186547,-0.707106781186548));
#503=DIRECTION('',(0.554700196225229,-0.832050294337844,0.));
#504=DIRECTION('',(-0.832050294337844,-0.554700196225229,0.));
#505=DIRECTION('',(0.,0.,-1.));
#506=DIRECTION('',(-0.810920653838994,-0.540613769225996,-0.223929555219046));
#507=DIRECTION('',(0.554700196225229,-0.588348405414552,-0.588348405414552));
#508=DIRECTION('',(0.,0.707106781186548,-0.707106781186548));
#509=DIRECTION('',(0.,0.707106781186548,-0.707106781186547));
#510=DIRECTION('',(1.,0.,0.));
#511=DIRECTION('',(0.,-1.,0.));
#512=CARTESIAN_POINT('',(0.,0.,0.));
#513=CARTESIAN_POINT('',(0.056002,0.0006,0.003));
#514=CARTESIAN_POINT('',(0.057,0.0006,0.003));
#515=CARTESIAN_POINT('',(0.057,-0.000473623738161471,0.00181368972487962));
#516=CARTESIAN_POINT('',(0.057,-0.00047362373816147,0.00418631027512038));
#517=CARTESIAN_POINT('',(0.003,-0.00047362373816147,0.00418631027512038));
#518=CARTESIAN_POINT('',(0.051,-0.000473623738161471,0.00418631027512038));
#519=CARTESIAN_POINT('',(0.051,0.0006,0.003));
#520=CARTESIAN_POINT('',(0.051,-0.000473623738161472,0.00181368972487962));
#521=CARTESIAN_POINT('',(0.003,-0.000473623738161471,0.00181368972487962));
#522=CARTESIAN_POINT('',(0.056002,-0.00058,0.00199668881751879));
#523=CARTESIAN_POINT('',(0.057002,-0.00058,0.00393055541273921));
#524=CARTESIAN_POINT('',(0.057,-0.00058,0.00393055541273921));
#525=CARTESIAN_POINT('',(0.051,-0.00058,0.00393055541273921));
#526=CARTESIAN_POINT('',(0.057,-0.00058,0.00199668881751879));
#527=CARTESIAN_POINT('',(0.057,-0.00058,0.00206944458726079));
#528=CARTESIAN_POINT('',(0.057002,-0.00058,0.00206944458726079));
#529=CARTESIAN_POINT('',(0.051,-0.00058,0.00206944458726079));
#530=CARTESIAN_POINT('',(0.051,-0.00058,0.00199668881751879));
#531=CARTESIAN_POINT('',(0.051,0.0006,0.003));
#532=CARTESIAN_POINT('',(0.051,-0.00058,0.00408055541273921));
#533=CARTESIAN_POINT('',(0.051,-0.00058,0.00191944458726079));
#534=CARTESIAN_POINT('',(0.051,0.0006,0.003));
#535=CARTESIAN_POINT('',(0.051,0.0006,0.0052));
#536=CARTESIAN_POINT('',(0.057,0.0006,0.003));
#537=CARTESIAN_POINT('',(0.057,-0.00058,0.00191944458726079));
#538=CARTESIAN_POINT('',(0.057,-0.00058,0.00408055541273921));
#539=CARTESIAN_POINT('',(0.057002,-0.00058,0.00191944458726079));
#540=CARTESIAN_POINT('',(0.057002,-0.00058,0.00408055541273921));
#541=CARTESIAN_POINT('',(0.075002,0.0006,0.003));
#542=CARTESIAN_POINT('',(0.057,0.0006,0.003));
#543=CARTESIAN_POINT('',(0.057,0.0006,0.0008));
#544=CARTESIAN_POINT('',(0.00888834476003918,-4.61458575955336E-18,0.0272409402546523));
#545=CARTESIAN_POINT('',(0.075,0.0006,0.003));
#546=CARTESIAN_POINT('',(0.075,0.0006,0.003));
#547=CARTESIAN_POINT('',(0.06,-0.00167817459305202,0.0085));
#548=CARTESIAN_POINT('',(0.075,0.0006,0.003));
#549=CARTESIAN_POINT('',(0.06,0.00287817459305203,0.0085));
#550=CARTESIAN_POINT('',(0.06,0.0006,0.0085));
#551=CARTESIAN_POINT('',(0.00875121729414796,-0.0168764866154428,0.0198764866154428));
#552=CARTESIAN_POINT('',(0.06,-0.00328908729652601,0.00688908729652601));
#553=CARTESIAN_POINT('',(0.06,-0.0049,0.00527817459305202));
#554=CARTESIAN_POINT('',(0.075,0.0006,0.003));
#555=CARTESIAN_POINT('',(0.00869441723800196,-0.0237120470127326,0.003));
#556=CARTESIAN_POINT('',(0.075,0.0006,0.003));
#557=CARTESIAN_POINT('',(0.06,-0.0049,0.000721825406947977));
#558=CARTESIAN_POINT('',(0.06,-0.0049,0.003));
#559=CARTESIAN_POINT('',(0.00875121729414796,-0.0168764866154428,-0.0138764866154428));
#560=CARTESIAN_POINT('',(0.075,0.0006,0.003));
#561=CARTESIAN_POINT('',(0.06,-0.00167817459305202,-0.0025));
#562=CARTESIAN_POINT('',(0.06,-0.00328908729652601,-0.000889087296526011));
#563=CARTESIAN_POINT('',(0.00888834476003918,4.61458575955336E-18,-0.0212409402546523));
#564=CARTESIAN_POINT('',(0.075,0.0006,0.003));
#565=CARTESIAN_POINT('',(0.06,0.00287817459305203,-0.0025));
#566=CARTESIAN_POINT('',(0.06,0.0006,-0.0025));
#567=CARTESIAN_POINT('',(0.0090254722259304,0.0174053798573625,-0.0144053798573624));
#568=CARTESIAN_POINT('',(0.075,0.0006,0.003));
#569=CARTESIAN_POINT('',(0.06,0.0061,0.000721825406947979));
#570=CARTESIAN_POINT('',(0.06,0.00448908729652601,-0.00088908729652601));
#571=CARTESIAN_POINT('',(0.0090822722820764,0.024769833496572,0.003));
#572=CARTESIAN_POINT('',(0.075,0.0006,0.003));
#573=CARTESIAN_POINT('',(0.06,0.0061,0.00527817459305202));
#574=CARTESIAN_POINT('',(0.06,0.0061,0.003));
#575=CARTESIAN_POINT('',(0.0090254722259304,0.0174053798573625,0.0204053798573624));
#576=CARTESIAN_POINT('',(0.06,0.00448908729652601,0.00688908729652601));
#577=CARTESIAN_POINT('',(0.0159230769230769,4.54675457587098E-18,-0.0208846153846154));
#578=CARTESIAN_POINT('',(0.06,-0.00167817459305202,0.0085));
#579=CARTESIAN_POINT('',(0.057,-0.000849747468305833,0.0065));
#580=CARTESIAN_POINT('',(0.06,0.00287817459305203,0.0085));
#581=CARTESIAN_POINT('',(0.057,0.00204974746830583,0.0065));
#582=CARTESIAN_POINT('',(0.057,0.0006,0.0065));
#583=CARTESIAN_POINT('',(0.0161188911086363,0.0170966658121863,-0.0140966658121864));
#584=CARTESIAN_POINT('',(0.06,-0.0049,0.00527817459305202));
#585=CARTESIAN_POINT('',(0.057,-0.0029,0.00444974746830583));
#586=CARTESIAN_POINT('',(0.057,-0.00187487373415292,0.00547487373415291));
#587=CARTESIAN_POINT('',(0.0162,0.0243,0.003));
#588=CARTESIAN_POINT('',(0.06,-0.0049,0.000721825406947977));
#589=CARTESIAN_POINT('',(0.057,-0.0029,0.00155025253169417));
#590=CARTESIAN_POINT('',(0.057,-0.0029,0.003));
#591=CARTESIAN_POINT('',(0.0161188911086363,0.0170966658121863,0.0200966658121864));
#592=CARTESIAN_POINT('',(0.06,-0.00167817459305202,-0.0025));
#593=CARTESIAN_POINT('',(0.057,-0.000849747468305832,-0.0005));
#594=CARTESIAN_POINT('',(0.057,-0.00187487373415292,0.000525126265847083));
#595=CARTESIAN_POINT('',(0.0159230769230769,-4.54675457587097E-18,0.0268846153846154));
#596=CARTESIAN_POINT('',(0.06,0.00287817459305203,-0.0025));
#597=CARTESIAN_POINT('',(0.057,0.00204974746830583,-0.0005));
#598=CARTESIAN_POINT('',(0.057,0.0006,-0.0005));
#599=CARTESIAN_POINT('',(0.0157272627375175,-0.0166812811968018,0.0196812811968018));
#600=CARTESIAN_POINT('',(0.06,0.0061,0.000721825406947979));
#601=CARTESIAN_POINT('',(0.057,0.0041,0.00155025253169417));
#602=CARTESIAN_POINT('',(0.057,0.00307487373415291,0.000525126265847085));
#603=CARTESIAN_POINT('',(0.0156461538461538,-0.0234692307692307,0.003));
#604=CARTESIAN_POINT('',(0.057,0.0041,0.003));
#605=CARTESIAN_POINT('',(0.057,0.0041,0.00444974746830584));
#606=CARTESIAN_POINT('',(0.06,0.0061,0.00527817459305202));
#607=CARTESIAN_POINT('',(0.0157272627375175,-0.0166812811968018,-0.0136812811968018));
#608=CARTESIAN_POINT('',(0.057,0.00307487373415291,0.00547487373415292));
#609=CARTESIAN_POINT('',(0.057,0.0006,0.003));
#610=MECHANICAL_DESIGN_GEOMETRIC_PRESENTATION_REPRESENTATION('',(#364),
#611);
#611=(
GEOMETRIC_REPRESENTATION_CONTEXT(3)
GLOBAL_UNCERTAINTY_ASSIGNED_CONTEXT((#612))
GLOBAL_UNIT_ASSIGNED_CONTEXT((#615,#614,#613))
REPRESENTATION_CONTEXT('Left Wheel Spike','TOP_LEVEL_ASSEMBLY_PART')
);
#612=UNCERTAINTY_MEASURE_WITH_UNIT(LENGTH_MEASURE(1.E-8),#615,
'DISTANCE_ACCURACY_VALUE','Maximum Tolerance applied to model');
#613=(
NAMED_UNIT(*)
SI_UNIT($,.STERADIAN.)
SOLID_ANGLE_UNIT()
);
#614=(
NAMED_UNIT(*)
PLANE_ANGLE_UNIT()
SI_UNIT($,.RADIAN.)
);
#615=(
LENGTH_UNIT()
NAMED_UNIT(*)
SI_UNIT($,.METRE.)
);
#616=PRODUCT_DEFINITION_SHAPE('','',#617);
#617=PRODUCT_DEFINITION('','',#619,#618);
#618=PRODUCT_DEFINITION_CONTEXT('',#625,'design');
#619=PRODUCT_DEFINITION_FORMATION_WITH_SPECIFIED_SOURCE('','',#621,
 .NOT_KNOWN.);
#620=PRODUCT_RELATED_PRODUCT_CATEGORY('','',(#621));
#621=PRODUCT('Left Wheel Spike','Left Wheel Spike','Left Wheel Spike',(#623));
#622=PRODUCT_CATEGORY('','');
#623=PRODUCT_CONTEXT('',#625,'mechanical');
#624=APPLICATION_PROTOCOL_DEFINITION('international standard',
'ap242_managed_model_based_3d_engineering',2020,#625);
#625=APPLICATION_CONTEXT('managed model based 3d engineering');
ENDSEC;
END-ISO-10303-21;
