ISO-10303-21;
HEADER;
/* Generated by software containing ST-Developer
 * from STEP Tools, Inc. (www.steptools.com) 
 */
/* OPTION: using custom renumber hook */

FILE_DESCRIPTION(
/* description */ ('STEP AP242 Edition 2',
'CAx-IF Rec.Pracs.---Representation and Presentation of Product Manufa
cturing Information (PMI)---4.0---2014-10-13',
'CAx-IF Rec.Pracs.---3D Tessellated Geometry---0.4---2014-09-14','2;1',
'CAx-IF Rec.Pracs.---User Defined Attributes---1.5---2016-08-15'),
/* implementation_level */ '2;1');

FILE_NAME(
/* name */ 
'(Cat-Aclysm) Antweight MK3 (Seperate Weapoon Struts) motor mounts V2 
- Right Wheel Spike',
/* time_stamp */ '2026-09-09T11:51:02Z',
/* author */ (''),
/* organization */ (''),
/* preprocessor_version */ 'ST-DEVELOPER v20',
/* originating_system */ 'ONSHAPE BY PTC INC, 1.220',
/* authorisation */ '  ');

FILE_SCHEMA (('AP242_MANAGED_MODEL_BASED_3D_ENGINEERING_MIM_LF { 1 0 10303 442 3 1 4 }'));
ENDSEC;

DATA;
#10=SHAPE_REPRESENTATION_RELATIONSHIP('','',#374,#11);
#11=ADVANCED_BREP_SHAPE_REPRESENTATION('',(#372),#611);
#12=CIRCLE('',#378,0.0016);
#13=CIRCLE('',#379,0.0016);
#14=CIRCLE('',#381,0.00015);
#15=CIRCLE('',#382,0.00015);
#16=CIRCLE('',#383,0.0022);
#17=CIRCLE('',#385,0.00015);
#18=CIRCLE('',#386,0.00015);
#19=CIRCLE('',#390,0.0022);
#20=CYLINDRICAL_SURFACE('',#377,0.0016);
#21=CYLINDRICAL_SURFACE('',#387,0.00015);
#22=CYLINDRICAL_SURFACE('',#388,0.00015);
#23=CYLINDRICAL_SURFACE('',#389,0.0022);
#24=ORIENTED_EDGE('',*,*,#116,.T.);
#25=ORIENTED_EDGE('',*,*,#117,.T.);
#26=ORIENTED_EDGE('',*,*,#118,.T.);
#27=ORIENTED_EDGE('',*,*,#119,.F.);
#28=ORIENTED_EDGE('',*,*,#120,.F.);
#29=ORIENTED_EDGE('',*,*,#121,.F.);
#30=ORIENTED_EDGE('',*,*,#122,.T.);
#31=ORIENTED_EDGE('',*,*,#123,.F.);
#32=ORIENTED_EDGE('',*,*,#118,.F.);
#33=ORIENTED_EDGE('',*,*,#124,.F.);
#34=ORIENTED_EDGE('',*,*,#123,.T.);
#35=ORIENTED_EDGE('',*,*,#125,.F.);
#36=ORIENTED_EDGE('',*,*,#126,.T.);
#37=ORIENTED_EDGE('',*,*,#121,.T.);
#38=ORIENTED_EDGE('',*,*,#127,.T.);
#39=ORIENTED_EDGE('',*,*,#116,.F.);
#40=ORIENTED_EDGE('',*,*,#128,.T.);
#41=ORIENTED_EDGE('',*,*,#119,.T.);
#42=ORIENTED_EDGE('',*,*,#125,.T.);
#43=ORIENTED_EDGE('',*,*,#122,.F.);
#44=ORIENTED_EDGE('',*,*,#128,.F.);
#45=ORIENTED_EDGE('',*,*,#120,.T.);
#46=ORIENTED_EDGE('',*,*,#124,.T.);
#47=ORIENTED_EDGE('',*,*,#117,.F.);
#48=ORIENTED_EDGE('',*,*,#127,.F.);
#49=ORIENTED_EDGE('',*,*,#126,.F.);
#50=ORIENTED_EDGE('',*,*,#129,.T.);
#51=ORIENTED_EDGE('',*,*,#130,.T.);
#52=ORIENTED_EDGE('',*,*,#131,.F.);
#53=ORIENTED_EDGE('',*,*,#132,.F.);
#54=ORIENTED_EDGE('',*,*,#132,.T.);
#55=ORIENTED_EDGE('',*,*,#133,.F.);
#56=ORIENTED_EDGE('',*,*,#134,.F.);
#57=ORIENTED_EDGE('',*,*,#134,.T.);
#58=ORIENTED_EDGE('',*,*,#135,.F.);
#59=ORIENTED_EDGE('',*,*,#136,.F.);
#60=ORIENTED_EDGE('',*,*,#136,.T.);
#61=ORIENTED_EDGE('',*,*,#137,.F.);
#62=ORIENTED_EDGE('',*,*,#138,.F.);
#63=ORIENTED_EDGE('',*,*,#138,.T.);
#64=ORIENTED_EDGE('',*,*,#139,.F.);
#65=ORIENTED_EDGE('',*,*,#140,.F.);
#66=ORIENTED_EDGE('',*,*,#141,.F.);
#67=ORIENTED_EDGE('',*,*,#142,.F.);
#68=ORIENTED_EDGE('',*,*,#140,.T.);
#69=ORIENTED_EDGE('',*,*,#142,.T.);
#70=ORIENTED_EDGE('',*,*,#143,.F.);
#71=ORIENTED_EDGE('',*,*,#144,.F.);
#72=ORIENTED_EDGE('',*,*,#144,.T.);
#73=ORIENTED_EDGE('',*,*,#145,.F.);
#74=ORIENTED_EDGE('',*,*,#130,.F.);
#75=ORIENTED_EDGE('',*,*,#146,.F.);
#76=ORIENTED_EDGE('',*,*,#147,.F.);
#77=ORIENTED_EDGE('',*,*,#131,.T.);
#78=ORIENTED_EDGE('',*,*,#148,.T.);
#79=ORIENTED_EDGE('',*,*,#147,.T.);
#80=ORIENTED_EDGE('',*,*,#149,.F.);
#81=ORIENTED_EDGE('',*,*,#150,.F.);
#82=ORIENTED_EDGE('',*,*,#133,.T.);
#83=ORIENTED_EDGE('',*,*,#150,.T.);
#84=ORIENTED_EDGE('',*,*,#151,.F.);
#85=ORIENTED_EDGE('',*,*,#152,.F.);
#86=ORIENTED_EDGE('',*,*,#135,.T.);
#87=ORIENTED_EDGE('',*,*,#152,.T.);
#88=ORIENTED_EDGE('',*,*,#153,.F.);
#89=ORIENTED_EDGE('',*,*,#154,.F.);
#90=ORIENTED_EDGE('',*,*,#137,.T.);
#91=ORIENTED_EDGE('',*,*,#154,.T.);
#92=ORIENTED_EDGE('',*,*,#155,.F.);
#93=ORIENTED_EDGE('',*,*,#156,.F.);
#94=ORIENTED_EDGE('',*,*,#139,.T.);
#95=ORIENTED_EDGE('',*,*,#156,.T.);
#96=ORIENTED_EDGE('',*,*,#157,.F.);
#97=ORIENTED_EDGE('',*,*,#158,.F.);
#98=ORIENTED_EDGE('',*,*,#141,.T.);
#99=ORIENTED_EDGE('',*,*,#158,.T.);
#100=ORIENTED_EDGE('',*,*,#159,.F.);
#101=ORIENTED_EDGE('',*,*,#160,.F.);
#102=ORIENTED_EDGE('',*,*,#143,.T.);
#103=ORIENTED_EDGE('',*,*,#160,.T.);
#104=ORIENTED_EDGE('',*,*,#161,.F.);
#105=ORIENTED_EDGE('',*,*,#148,.F.);
#106=ORIENTED_EDGE('',*,*,#145,.T.);
#107=ORIENTED_EDGE('',*,*,#129,.F.);
#108=ORIENTED_EDGE('',*,*,#161,.T.);
#109=ORIENTED_EDGE('',*,*,#159,.T.);
#110=ORIENTED_EDGE('',*,*,#157,.T.);
#111=ORIENTED_EDGE('',*,*,#155,.T.);
#112=ORIENTED_EDGE('',*,*,#153,.T.);
#113=ORIENTED_EDGE('',*,*,#151,.T.);
#114=ORIENTED_EDGE('',*,*,#149,.T.);
#115=ORIENTED_EDGE('',*,*,#146,.T.);
#116=EDGE_CURVE('',#162,#163,#189,.T.);
#117=EDGE_CURVE('',#163,#164,#190,.T.);
#118=EDGE_CURVE('',#164,#165,#191,.T.);
#119=EDGE_CURVE('',#162,#165,#192,.T.);
#120=EDGE_CURVE('',#166,#167,#193,.T.);
#121=EDGE_CURVE('',#168,#166,#12,.T.);
#122=EDGE_CURVE('',#168,#169,#194,.T.);
#123=EDGE_CURVE('',#167,#169,#13,.T.);
#124=EDGE_CURVE('',#167,#164,#14,.T.);
#125=EDGE_CURVE('',#165,#169,#15,.T.);
#126=EDGE_CURVE('',#170,#170,#16,.T.);
#127=EDGE_CURVE('',#166,#163,#17,.F.);
#128=EDGE_CURVE('',#162,#168,#18,.F.);
#129=EDGE_CURVE('',#171,#171,#19,.F.);
#130=EDGE_CURVE('',#172,#173,#195,.T.);
#131=EDGE_CURVE('',#174,#173,#196,.F.);
#132=EDGE_CURVE('',#172,#174,#197,.T.);
#133=EDGE_CURVE('',#175,#174,#198,.F.);
#134=EDGE_CURVE('',#172,#175,#199,.T.);
#135=EDGE_CURVE('',#176,#175,#200,.F.);
#136=EDGE_CURVE('',#172,#176,#201,.T.);
#137=EDGE_CURVE('',#177,#176,#202,.F.);
#138=EDGE_CURVE('',#172,#177,#203,.T.);
#139=EDGE_CURVE('',#178,#177,#204,.F.);
#140=EDGE_CURVE('',#172,#178,#205,.T.);
#141=EDGE_CURVE('',#179,#178,#206,.F.);
#142=EDGE_CURVE('',#172,#179,#207,.T.);
#143=EDGE_CURVE('',#180,#179,#208,.F.);
#144=EDGE_CURVE('',#172,#180,#209,.T.);
#145=EDGE_CURVE('',#173,#180,#210,.F.);
#146=EDGE_CURVE('',#181,#182,#211,.F.);
#147=EDGE_CURVE('',#174,#181,#212,.T.);
#148=EDGE_CURVE('',#173,#182,#213,.T.);
#149=EDGE_CURVE('',#183,#181,#214,.F.);
#150=EDGE_CURVE('',#175,#183,#215,.T.);
#151=EDGE_CURVE('',#184,#183,#216,.F.);
#152=EDGE_CURVE('',#176,#184,#217,.T.);
#153=EDGE_CURVE('',#185,#184,#218,.F.);
#154=EDGE_CURVE('',#177,#185,#219,.T.);
#155=EDGE_CURVE('',#186,#185,#220,.F.);
#156=EDGE_CURVE('',#178,#186,#221,.T.);
#157=EDGE_CURVE('',#187,#186,#222,.F.);
#158=EDGE_CURVE('',#179,#187,#223,.T.);
#159=EDGE_CURVE('',#188,#187,#224,.F.);
#160=EDGE_CURVE('',#180,#188,#225,.T.);
#161=EDGE_CURVE('',#182,#188,#226,.F.);
#162=VERTEX_POINT('',#515);
#163=VERTEX_POINT('',#516);
#164=VERTEX_POINT('',#518);
#165=VERTEX_POINT('',#520);
#166=VERTEX_POINT('',#524);
#167=VERTEX_POINT('',#525);
#168=VERTEX_POINT('',#527);
#169=VERTEX_POINT('',#529);
#170=VERTEX_POINT('',#535);
#171=VERTEX_POINT('',#543);
#172=VERTEX_POINT('',#546);
#173=VERTEX_POINT('',#547);
#174=VERTEX_POINT('',#549);
#175=VERTEX_POINT('',#553);
#176=VERTEX_POINT('',#557);
#177=VERTEX_POINT('',#561);
#178=VERTEX_POINT('',#565);
#179=VERTEX_POINT('',#569);
#180=VERTEX_POINT('',#573);
#181=VERTEX_POINT('',#579);
#182=VERTEX_POINT('',#580);
#183=VERTEX_POINT('',#585);
#184=VERTEX_POINT('',#589);
#185=VERTEX_POINT('',#593);
#186=VERTEX_POINT('',#597);
#187=VERTEX_POINT('',#601);
#188=VERTEX_POINT('',#605);
#189=LINE('',#514,#227);
#190=LINE('',#517,#228);
#191=LINE('',#519,#229);
#192=LINE('',#521,#230);
#193=LINE('',#523,#231);
#194=LINE('',#528,#232);
#195=LINE('',#545,#233);
#196=LINE('',#548,#234);
#197=LINE('',#550,#235);
#198=LINE('',#552,#236);
#199=LINE('',#554,#237);
#200=LINE('',#556,#238);
#201=LINE('',#558,#239);
#202=LINE('',#560,#240);
#203=LINE('',#562,#241);
#204=LINE('',#564,#242);
#205=LINE('',#566,#243);
#206=LINE('',#568,#244);
#207=LINE('',#570,#245);
#208=LINE('',#572,#246);
#209=LINE('',#574,#247);
#210=LINE('',#576,#248);
#211=LINE('',#578,#249);
#212=LINE('',#581,#250);
#213=LINE('',#582,#251);
#214=LINE('',#584,#252);
#215=LINE('',#586,#253);
#216=LINE('',#588,#254);
#217=LINE('',#590,#255);
#218=LINE('',#592,#256);
#219=LINE('',#594,#257);
#220=LINE('',#596,#258);
#221=LINE('',#598,#259);
#222=LINE('',#600,#260);
#223=LINE('',#602,#261);
#224=LINE('',#604,#262);
#225=LINE('',#606,#263);
#226=LINE('',#608,#264);
#227=VECTOR('',#412,1.);
#228=VECTOR('',#413,1.);
#229=VECTOR('',#414,1.);
#230=VECTOR('',#415,1.);
#231=VECTOR('',#418,1.);
#232=VECTOR('',#421,1.);
#233=VECTOR('',#448,1.);
#234=VECTOR('',#449,1.);
#235=VECTOR('',#450,1.);
#236=VECTOR('',#453,1.);
#237=VECTOR('',#454,1.);
#238=VECTOR('',#457,1.);
#239=VECTOR('',#458,1.);
#240=VECTOR('',#461,1.);
#241=VECTOR('',#462,1.);
#242=VECTOR('',#465,1.);
#243=VECTOR('',#466,1.);
#244=VECTOR('',#469,1.);
#245=VECTOR('',#470,1.);
#246=VECTOR('',#473,1.);
#247=VECTOR('',#474,1.);
#248=VECTOR('',#477,1.);
#249=VECTOR('',#480,1.);
#250=VECTOR('',#481,1.);
#251=VECTOR('',#482,1.);
#252=VECTOR('',#485,1.);
#253=VECTOR('',#486,1.);
#254=VECTOR('',#489,1.);
#255=VECTOR('',#490,1.);
#256=VECTOR('',#493,1.);
#257=VECTOR('',#494,1.);
#258=VECTOR('',#497,1.);
#259=VECTOR('',#498,1.);
#260=VECTOR('',#501,1.);
#261=VECTOR('',#502,1.);
#262=VECTOR('',#505,1.);
#263=VECTOR('',#506,1.);
#264=VECTOR('',#509,1.);
#265=EDGE_LOOP('',(#24,#25,#26,#27));
#266=EDGE_LOOP('',(#28,#29,#30,#31));
#267=EDGE_LOOP('',(#32,#33,#34,#35));
#268=EDGE_LOOP('',(#36));
#269=EDGE_LOOP('',(#37,#38,#39,#40));
#270=EDGE_LOOP('',(#41,#42,#43,#44));
#271=EDGE_LOOP('',(#45,#46,#47,#48));
#272=EDGE_LOOP('',(#49));
#273=EDGE_LOOP('',(#50));
#274=EDGE_LOOP('',(#51,#52,#53));
#275=EDGE_LOOP('',(#54,#55,#56));
#276=EDGE_LOOP('',(#57,#58,#59));
#277=EDGE_LOOP('',(#60,#61,#62));
#278=EDGE_LOOP('',(#63,#64,#65));
#279=EDGE_LOOP('',(#66,#67,#68));
#280=EDGE_LOOP('',(#69,#70,#71));
#281=EDGE_LOOP('',(#72,#73,#74));
#282=EDGE_LOOP('',(#75,#76,#77,#78));
#283=EDGE_LOOP('',(#79,#80,#81,#82));
#284=EDGE_LOOP('',(#83,#84,#85,#86));
#285=EDGE_LOOP('',(#87,#88,#89,#90));
#286=EDGE_LOOP('',(#91,#92,#93,#94));
#287=EDGE_LOOP('',(#95,#96,#97,#98));
#288=EDGE_LOOP('',(#99,#100,#101,#102));
#289=EDGE_LOOP('',(#103,#104,#105,#106));
#290=EDGE_LOOP('',(#107));
#291=EDGE_LOOP('',(#108,#109,#110,#111,#112,#113,#114,#115));
#292=FACE_BOUND('',#265,.T.);
#293=FACE_BOUND('',#266,.T.);
#294=FACE_BOUND('',#267,.T.);
#295=FACE_BOUND('',#268,.T.);
#296=FACE_BOUND('',#269,.T.);
#297=FACE_BOUND('',#270,.T.);
#298=FACE_BOUND('',#271,.T.);
#299=FACE_BOUND('',#272,.T.);
#300=FACE_BOUND('',#273,.T.);
#301=FACE_BOUND('',#274,.T.);
#302=FACE_BOUND('',#275,.T.);
#303=FACE_BOUND('',#276,.T.);
#304=FACE_BOUND('',#277,.T.);
#305=FACE_BOUND('',#278,.T.);
#306=FACE_BOUND('',#279,.T.);
#307=FACE_BOUND('',#280,.T.);
#308=FACE_BOUND('',#281,.T.);
#309=FACE_BOUND('',#282,.T.);
#310=FACE_BOUND('',#283,.T.);
#311=FACE_BOUND('',#284,.T.);
#312=FACE_BOUND('',#285,.T.);
#313=FACE_BOUND('',#286,.T.);
#314=FACE_BOUND('',#287,.T.);
#315=FACE_BOUND('',#288,.T.);
#316=FACE_BOUND('',#289,.T.);
#317=FACE_BOUND('',#290,.T.);
#318=FACE_BOUND('',#291,.T.);
#319=PLANE('',#376);
#320=PLANE('',#380);
#321=PLANE('',#384);
#322=PLANE('',#391);
#323=PLANE('',#392);
#324=PLANE('',#393);
#325=PLANE('',#394);
#326=PLANE('',#395);
#327=PLANE('',#396);
#328=PLANE('',#397);
#329=PLANE('',#398);
#330=PLANE('',#399);
#331=PLANE('',#400);
#332=PLANE('',#401);
#333=PLANE('',#402);
#334=PLANE('',#403);
#335=PLANE('',#404);
#336=PLANE('',#405);
#337=PLANE('',#406);
#338=PLANE('',#407);
#339=ADVANCED_FACE('',(#292),#319,.F.);
#340=ADVANCED_FACE('',(#293),#20,.F.);
#341=ADVANCED_FACE('',(#294,#295),#320,.F.);
#342=ADVANCED_FACE('',(#296),#321,.F.);
#343=ADVANCED_FACE('',(#297),#21,.F.);
#344=ADVANCED_FACE('',(#298),#22,.F.);
#345=ADVANCED_FACE('',(#299,#300),#23,.T.);
#346=ADVANCED_FACE('',(#301),#322,.F.);
#347=ADVANCED_FACE('',(#302),#323,.F.);
#348=ADVANCED_FACE('',(#303),#324,.F.);
#349=ADVANCED_FACE('',(#304),#325,.F.);
#350=ADVANCED_FACE('',(#305),#326,.F.);
#351=ADVANCED_FACE('',(#306),#327,.F.);
#352=ADVANCED_FACE('',(#307),#328,.F.);
#353=ADVANCED_FACE('',(#308),#329,.F.);
#354=ADVANCED_FACE('',(#309),#330,.F.);
#355=ADVANCED_FACE('',(#310),#331,.F.);
#356=ADVANCED_FACE('',(#311),#332,.F.);
#357=ADVANCED_FACE('',(#312),#333,.F.);
#358=ADVANCED_FACE('',(#313),#334,.F.);
#359=ADVANCED_FACE('',(#314),#335,.F.);
#360=ADVANCED_FACE('',(#315),#336,.F.);
#361=ADVANCED_FACE('',(#316),#337,.F.);
#362=ADVANCED_FACE('',(#317,#318),#338,.F.);
#363=CLOSED_SHELL('',(#339,#340,#341,#342,#343,#344,#345,#346,#347,#348,
#349,#350,#351,#352,#353,#354,#355,#356,#357,#358,#359,#360,#361,#362));
#364=STYLED_ITEM('',(#365),#372);
#365=PRESENTATION_STYLE_ASSIGNMENT((#366));
#366=SURFACE_STYLE_USAGE(.BOTH.,#367);
#367=SURFACE_SIDE_STYLE('',(#368));
#368=SURFACE_STYLE_FILL_AREA(#369);
#369=FILL_AREA_STYLE('',(#370));
#370=FILL_AREA_STYLE_COLOUR('',#371);
#371=COLOUR_RGB('',0.768627450980392,0.886274509803922,0.952941176470588);
#372=MANIFOLD_SOLID_BREP('Right Wheel Spike',#363);
#373=SHAPE_DEFINITION_REPRESENTATION(#616,#374);
#374=SHAPE_REPRESENTATION('Right Wheel Spike',(#375),#611);
#375=AXIS2_PLACEMENT_3D('',#512,#408,#409);
#376=AXIS2_PLACEMENT_3D('',#513,#410,#411);
#377=AXIS2_PLACEMENT_3D('',#522,#416,#417);
#378=AXIS2_PLACEMENT_3D('',#526,#419,#420);
#379=AXIS2_PLACEMENT_3D('',#530,#422,#423);
#380=AXIS2_PLACEMENT_3D('',#531,#424,#425);
#381=AXIS2_PLACEMENT_3D('',#532,#426,#427);
#382=AXIS2_PLACEMENT_3D('',#533,#428,#429);
#383=AXIS2_PLACEMENT_3D('',#534,#430,#431);
#384=AXIS2_PLACEMENT_3D('',#536,#432,#433);
#385=AXIS2_PLACEMENT_3D('',#537,#434,#435);
#386=AXIS2_PLACEMENT_3D('',#538,#436,#437);
#387=AXIS2_PLACEMENT_3D('',#539,#438,#439);
#388=AXIS2_PLACEMENT_3D('',#540,#440,#441);
#389=AXIS2_PLACEMENT_3D('',#541,#442,#443);
#390=AXIS2_PLACEMENT_3D('',#542,#444,#445);
#391=AXIS2_PLACEMENT_3D('',#544,#446,#447);
#392=AXIS2_PLACEMENT_3D('',#551,#451,#452);
#393=AXIS2_PLACEMENT_3D('',#555,#455,#456);
#394=AXIS2_PLACEMENT_3D('',#559,#459,#460);
#395=AXIS2_PLACEMENT_3D('',#563,#463,#464);
#396=AXIS2_PLACEMENT_3D('',#567,#467,#468);
#397=AXIS2_PLACEMENT_3D('',#571,#471,#472);
#398=AXIS2_PLACEMENT_3D('',#575,#475,#476);
#399=AXIS2_PLACEMENT_3D('',#577,#478,#479);
#400=AXIS2_PLACEMENT_3D('',#583,#483,#484);
#401=AXIS2_PLACEMENT_3D('',#587,#487,#488);
#402=AXIS2_PLACEMENT_3D('',#591,#491,#492);
#403=AXIS2_PLACEMENT_3D('',#595,#495,#496);
#404=AXIS2_PLACEMENT_3D('',#599,#499,#500);
#405=AXIS2_PLACEMENT_3D('',#603,#503,#504);
#406=AXIS2_PLACEMENT_3D('',#607,#507,#508);
#407=AXIS2_PLACEMENT_3D('',#609,#510,#511);
#408=DIRECTION('',(0.,0.,1.));
#409=DIRECTION('',(1.,0.,0.));
#410=DIRECTION('',(0.,-1.,7.01801395951689E-16));
#411=DIRECTION('',(0.,-7.01801395951689E-16,-1.));
#412=DIRECTION('',(0.,7.01801395951689E-16,1.));
#413=DIRECTION('',(1.,0.,0.));
#414=DIRECTION('',(0.,-7.01801395951689E-16,-1.));
#415=DIRECTION('',(1.,0.,0.));
#416=DIRECTION('',(1.,0.,0.));
#417=DIRECTION('',(0.,0.,-1.));
#418=DIRECTION('',(1.,0.,0.));
#419=DIRECTION('',(1.,0.,0.));
#420=DIRECTION('',(0.,0.,-1.));
#421=DIRECTION('',(1.,0.,0.));
#422=DIRECTION('',(-1.,0.,0.));
#423=DIRECTION('',(0.,0.,1.));
#424=DIRECTION('',(-1.,0.,0.));
#425=DIRECTION('',(0.,-1.,0.));
#426=DIRECTION('',(1.,0.,0.));
#427=DIRECTION('',(0.,0.,-1.));
#428=DIRECTION('',(1.,0.,0.));
#429=DIRECTION('',(0.,0.,-1.));
#430=DIRECTION('',(1.,0.,0.));
#431=DIRECTION('',(0.,0.,-1.));
#432=DIRECTION('',(-1.,0.,0.));
#433=DIRECTION('',(0.,-1.,0.));
#434=DIRECTION('',(-1.,0.,0.));
#435=DIRECTION('',(0.,0.,1.));
#436=DIRECTION('',(-1.,0.,0.));
#437=DIRECTION('',(0.,0.,1.));
#438=DIRECTION('',(1.,0.,0.));
#439=DIRECTION('',(0.,0.,-1.));
#440=DIRECTION('',(1.,0.,0.));
#441=DIRECTION('',(0.,0.,-1.));
#442=DIRECTION('',(1.,0.,0.));
#443=DIRECTION('',(0.,0.,-1.));
#444=DIRECTION('',(-1.,0.,0.));
#445=DIRECTION('',(0.,0.,1.));
#446=DIRECTION('',(0.344254649158423,-0.938876315886609,0.));
#447=DIRECTION('',(0.938876315886609,0.344254649158423,0.));
#448=DIRECTION('',(0.929474221750836,0.340807214641973,0.141166970459304));
#449=DIRECTION('',(0.,0.,-1.));
#450=DIRECTION('',(0.929474221750836,0.340807214641973,-0.141166970459304));
#451=DIRECTION('',(0.344254649158423,-0.663885809658864,0.663885809658864));
#452=DIRECTION('',(0.,-0.707106781186547,-0.707106781186548));
#453=DIRECTION('',(0.,-0.707106781186548,-0.707106781186548));
#454=DIRECTION('',(0.929474221750836,0.141166970459304,-0.340807214641973));
#455=DIRECTION('',(0.344254649158423,-1.78727608407878E-16,0.938876315886609));
#456=DIRECTION('',(0.938876315886609,0.,-0.344254649158424));
#457=DIRECTION('',(0.,-1.,-1.90363315575918E-16));
#458=DIRECTION('',(0.929474221750836,-0.141166970459304,-0.340807214641973));
#459=DIRECTION('',(0.344254649158423,0.663885809658864,0.663885809658864));
#460=DIRECTION('',(0.,-0.707106781186548,0.707106781186547));
#461=DIRECTION('',(0.,-0.707106781186548,0.707106781186547));
#462=DIRECTION('',(0.929474221750836,-0.340807214641973,-0.141166970459304));
#463=DIRECTION('',(0.344254649158423,0.938876315886609,1.78727608407878E-16));
#464=DIRECTION('',(-0.938876315886609,0.344254649158424,0.));
#465=DIRECTION('',(0.,-1.90363315575918E-16,1.));
#466=DIRECTION('',(0.929474221750836,-0.340807214641973,0.141166970459304));
#467=DIRECTION('',(0.344254649158423,0.663885809658864,-0.663885809658864));
#468=DIRECTION('',(0.,0.707106781186547,0.707106781186548));
#469=DIRECTION('',(0.,0.707106781186547,0.707106781186548));
#470=DIRECTION('',(0.929474221750836,-0.141166970459304,0.340807214641973));
#471=DIRECTION('',(0.344254649158423,1.78727608407878E-16,-0.938876315886609));
#472=DIRECTION('',(-0.938876315886609,0.,-0.344254649158423));
#473=DIRECTION('',(0.,1.,1.90363315575918E-16));
#474=DIRECTION('',(0.929474221750836,0.141166970459304,0.340807214641973));
#475=DIRECTION('',(0.344254649158423,-0.663885809658864,-0.663885809658864));
#476=DIRECTION('',(0.,0.707106781186548,-0.707106781186547));
#477=DIRECTION('',(0.,0.707106781186548,-0.707106781186548));
#478=DIRECTION('',(-0.554700196225229,-0.832050294337844,0.));
#479=DIRECTION('',(0.832050294337844,-0.554700196225229,0.));
#480=DIRECTION('',(0.,0.,-1.));
#481=DIRECTION('',(0.810920653838994,-0.540613769225996,0.223929555219046));
#482=DIRECTION('',(0.810920653838994,-0.540613769225996,-0.223929555219046));
#483=DIRECTION('',(-0.554700196225229,-0.588348405414552,0.588348405414552));
#484=DIRECTION('',(0.,-0.707106781186548,-0.707106781186548));
#485=DIRECTION('',(0.,-0.707106781186547,-0.707106781186548));
#486=DIRECTION('',(0.810920653838994,-0.223929555219046,0.540613769225996));
#487=DIRECTION('',(-0.554700196225229,-1.58391852756071E-16,0.832050294337844));
#488=DIRECTION('',(0.832050294337844,0.,0.554700196225229));
#489=DIRECTION('',(0.,-1.,-2.99142353047872E-16));
#490=DIRECTION('',(0.810920653838994,0.223929555219046,0.540613769225996));
#491=DIRECTION('',(-0.554700196225229,0.588348405414552,0.588348405414552));
#492=DIRECTION('',(0.,-0.707106781186548,0.707106781186547));
#493=DIRECTION('',(0.,-0.707106781186548,0.707106781186547));
#494=DIRECTION('',(0.810920653838994,0.540613769225996,0.223929555219046));
#495=DIRECTION('',(-0.554700196225228,0.832050294337844,1.58391852756071E-16));
#496=DIRECTION('',(-0.832050294337844,-0.554700196225228,0.));
#497=DIRECTION('',(0.,-2.99142353047872E-16,1.));
#498=DIRECTION('',(0.810920653838995,0.540613769225995,-0.223929555219047));
#499=DIRECTION('',(-0.554700196225229,0.588348405414552,-0.588348405414552));
#500=DIRECTION('',(0.,0.707106781186547,0.707106781186548));
#501=DIRECTION('',(0.,0.707106781186547,0.707106781186548));
#502=DIRECTION('',(0.810920653838994,0.223929555219046,-0.540613769225996));
#503=DIRECTION('',(-0.554700196225229,1.58391852756071E-16,-0.832050294337844));
#504=DIRECTION('',(-0.832050294337844,0.,0.554700196225229));
#505=DIRECTION('',(0.,1.,2.99142353047872E-16));
#506=DIRECTION('',(0.810920653838994,-0.223929555219046,-0.540613769225996));
#507=DIRECTION('',(-0.554700196225229,-0.588348405414552,-0.588348405414552));
#508=DIRECTION('',(0.,0.707106781186548,-0.707106781186548));
#509=DIRECTION('',(0.,0.707106781186548,-0.707106781186547));
#510=DIRECTION('',(-1.,0.,0.));
#511=DIRECTION('',(0.,-1.,0.));
#512=CARTESIAN_POINT('',(0.,0.,0.));
#513=CARTESIAN_POINT('',(-0.056002,-0.00058,0.00199668881751879));
#514=CARTESIAN_POINT('',(-0.057,-0.00058,0.00199668881751879));
#515=CARTESIAN_POINT('',(-0.057,-0.00058,0.00206944458726079));
#516=CARTESIAN_POINT('',(-0.057,-0.00058,0.00393055541273921));
#517=CARTESIAN_POINT('',(-0.057002,-0.00058,0.00393055541273921));
#518=CARTESIAN_POINT('',(-0.051,-0.00058,0.00393055541273921));
#519=CARTESIAN_POINT('',(-0.051,-0.00058,0.00199668881751879));
#520=CARTESIAN_POINT('',(-0.051,-0.00058,0.00206944458726079));
#521=CARTESIAN_POINT('',(-0.057002,-0.00058,0.00206944458726079));
#522=CARTESIAN_POINT('',(-0.056002,0.0006,0.003));
#523=CARTESIAN_POINT('',(-0.057002,-0.000473623738161471,0.00418631027512038));
#524=CARTESIAN_POINT('',(-0.057,-0.000473623738161471,0.00418631027512038));
#525=CARTESIAN_POINT('',(-0.051,-0.000473623738161471,0.00418631027512038));
#526=CARTESIAN_POINT('',(-0.057,0.0006,0.003));
#527=CARTESIAN_POINT('',(-0.057,-0.000473623738161472,0.00181368972487962));
#528=CARTESIAN_POINT('',(-0.057002,-0.000473623738161472,0.00181368972487962));
#529=CARTESIAN_POINT('',(-0.051,-0.000473623738161472,0.00181368972487962));
#530=CARTESIAN_POINT('',(-0.051,0.0006,0.003));
#531=CARTESIAN_POINT('',(-0.051,0.0006,0.003));
#532=CARTESIAN_POINT('',(-0.051,-0.00058,0.00408055541273921));
#533=CARTESIAN_POINT('',(-0.051,-0.00058,0.00191944458726079));
#534=CARTESIAN_POINT('',(-0.051,0.0006,0.003));
#535=CARTESIAN_POINT('',(-0.051,0.0006,0.0008));
#536=CARTESIAN_POINT('',(-0.057,0.0006,0.003));
#537=CARTESIAN_POINT('',(-0.057,-0.00058,0.00408055541273921));
#538=CARTESIAN_POINT('',(-0.057,-0.00058,0.00191944458726079));
#539=CARTESIAN_POINT('',(-0.057002,-0.00058,0.00191944458726079));
#540=CARTESIAN_POINT('',(-0.057002,-0.00058,0.00408055541273921));
#541=CARTESIAN_POINT('',(-0.075002,0.0006,0.003));
#542=CARTESIAN_POINT('',(-0.057,0.0006,0.003));
#543=CARTESIAN_POINT('',(-0.057,0.0006,0.0052));
#544=CARTESIAN_POINT('',(-0.0090822722820764,0.024769833496572,0.003));
#545=CARTESIAN_POINT('',(-0.075,0.0006,0.003));
#546=CARTESIAN_POINT('',(-0.075,0.0006,0.003));
#547=CARTESIAN_POINT('',(-0.06,0.0061,0.00527817459305202));
#548=CARTESIAN_POINT('',(-0.06,0.0061,0.003));
#549=CARTESIAN_POINT('',(-0.06,0.0061,0.000721825406947979));
#550=CARTESIAN_POINT('',(-0.075,0.0006,0.003));
#551=CARTESIAN_POINT('',(-0.0090254722259304,0.0174053798573625,-0.0144053798573624));
#552=CARTESIAN_POINT('',(-0.06,0.00448908729652601,-0.00088908729652601));
#553=CARTESIAN_POINT('',(-0.06,0.00287817459305203,-0.0025));
#554=CARTESIAN_POINT('',(-0.075,0.0006,0.003));
#555=CARTESIAN_POINT('',(-0.00888834476003918,4.61458575955336E-18,-0.0212409402546523));
#556=CARTESIAN_POINT('',(-0.06,0.0006,-0.0025));
#557=CARTESIAN_POINT('',(-0.06,-0.00167817459305202,-0.0025));
#558=CARTESIAN_POINT('',(-0.075,0.0006,0.003));
#559=CARTESIAN_POINT('',(-0.00875121729414796,-0.0168764866154428,-0.0138764866154428));
#560=CARTESIAN_POINT('',(-0.06,-0.00328908729652601,-0.000889087296526011));
#561=CARTESIAN_POINT('',(-0.06,-0.0049,0.000721825406947977));
#562=CARTESIAN_POINT('',(-0.075,0.0006,0.003));
#563=CARTESIAN_POINT('',(-0.00869441723800196,-0.0237120470127326,0.003));
#564=CARTESIAN_POINT('',(-0.06,-0.0049,0.003));
#565=CARTESIAN_POINT('',(-0.06,-0.0049,0.00527817459305202));
#566=CARTESIAN_POINT('',(-0.075,0.0006,0.003));
#567=CARTESIAN_POINT('',(-0.00875121729414796,-0.0168764866154428,0.0198764866154428));
#568=CARTESIAN_POINT('',(-0.06,-0.00328908729652601,0.00688908729652601));
#569=CARTESIAN_POINT('',(-0.06,-0.00167817459305202,0.0085));
#570=CARTESIAN_POINT('',(-0.075,0.0006,0.003));
#571=CARTESIAN_POINT('',(-0.00888834476003918,-4.61458575955336E-18,0.0272409402546523));
#572=CARTESIAN_POINT('',(-0.06,0.0006,0.0085));
#573=CARTESIAN_POINT('',(-0.06,0.00287817459305203,0.0085));
#574=CARTESIAN_POINT('',(-0.075,0.0006,0.003));
#575=CARTESIAN_POINT('',(-0.0090254722259304,0.0174053798573625,0.0204053798573624));
#576=CARTESIAN_POINT('',(-0.06,0.00448908729652601,0.00688908729652601));
#577=CARTESIAN_POINT('',(-0.0156461538461538,-0.0234692307692307,0.003));
#578=CARTESIAN_POINT('',(-0.057,0.0041,0.003));
#579=CARTESIAN_POINT('',(-0.057,0.0041,0.00155025253169417));
#580=CARTESIAN_POINT('',(-0.057,0.0041,0.00444974746830584));
#581=CARTESIAN_POINT('',(-0.06,0.0061,0.000721825406947979));
#582=CARTESIAN_POINT('',(-0.06,0.0061,0.00527817459305202));
#583=CARTESIAN_POINT('',(-0.0157272627375175,-0.0166812811968018,0.0196812811968018));
#584=CARTESIAN_POINT('',(-0.057,0.00307487373415291,0.000525126265847085));
#585=CARTESIAN_POINT('',(-0.057,0.00204974746830583,-0.0005));
#586=CARTESIAN_POINT('',(-0.06,0.00287817459305203,-0.0025));
#587=CARTESIAN_POINT('',(-0.0159230769230769,-4.54675457587097E-18,0.0268846153846154));
#588=CARTESIAN_POINT('',(-0.057,0.0006,-0.0005));
#589=CARTESIAN_POINT('',(-0.057,-0.000849747468305832,-0.0005));
#590=CARTESIAN_POINT('',(-0.06,-0.00167817459305202,-0.0025));
#591=CARTESIAN_POINT('',(-0.0161188911086363,0.0170966658121863,0.0200966658121864));
#592=CARTESIAN_POINT('',(-0.057,-0.00187487373415292,0.000525126265847083));
#593=CARTESIAN_POINT('',(-0.057,-0.0029,0.00155025253169417));
#594=CARTESIAN_POINT('',(-0.06,-0.0049,0.000721825406947977));
#595=CARTESIAN_POINT('',(-0.0162,0.0243,0.003));
#596=CARTESIAN_POINT('',(-0.057,-0.0029,0.003));
#597=CARTESIAN_POINT('',(-0.057,-0.0029,0.00444974746830583));
#598=CARTESIAN_POINT('',(-0.06,-0.0049,0.00527817459305202));
#599=CARTESIAN_POINT('',(-0.0161188911086363,0.0170966658121863,-0.0140966658121864));
#600=CARTESIAN_POINT('',(-0.057,-0.00187487373415292,0.00547487373415291));
#601=CARTESIAN_POINT('',(-0.057,-0.000849747468305833,0.0065));
#602=CARTESIAN_POINT('',(-0.06,-0.00167817459305202,0.0085));
#603=CARTESIAN_POINT('',(-0.0159230769230769,4.54675457587098E-18,-0.0208846153846154));
#604=CARTESIAN_POINT('',(-0.057,0.0006,0.0065));
#605=CARTESIAN_POINT('',(-0.057,0.00204974746830583,0.0065));
#606=CARTESIAN_POINT('',(-0.06,0.00287817459305203,0.0085));
#607=CARTESIAN_POINT('',(-0.0157272627375175,-0.0166812811968018,-0.0136812811968018));
#608=CARTESIAN_POINT('',(-0.057,0.00307487373415291,0.00547487373415292));
#609=CARTESIAN_POINT('',(-0.057,0.0006,0.003));
#610=MECHANICAL_DESIGN_GEOMETRIC_PRESENTATION_REPRESENTATION('',(#364),
#611);
#611=(
GEOMETRIC_REPRESENTATION_CONTEXT(3)
GLOBAL_UNCERTAINTY_ASSIGNED_CONTEXT((#612))
GLOBAL_UNIT_ASSIGNED_CONTEXT((#615,#614,#613))
REPRESENTATION_CONTEXT('Right Wheel Spike','TOP_LEVEL_ASSEMBLY_PART')
);
#612=UNCERTAINTY_MEASURE_WITH_UNIT(LENGTH_MEASURE(1.E-8),#615,
'DISTANCE_ACCURACY_VALUE','Maximum Tolerance applied to model');
#613=(
NAMED_UNIT(*)
SI_UNIT($,.STERADIAN.)
SOLID_ANGLE_UNIT()
);
#614=(
NAMED_UNIT(*)
PLANE_ANGLE_UNIT()
SI_UNIT($,.RADIAN.)
);
#615=(
LENGTH_UNIT()
NAMED_UNIT(*)
SI_UNIT($,.METRE.)
);
#616=PRODUCT_DEFINITION_SHAPE('','',#617);
#617=PRODUCT_DEFINITION('','',#619,#618);
#618=PRODUCT_DEFINITION_CONTEXT('',#625,'design');
#619=PRODUCT_DEFINITION_FORMATION_WITH_SPECIFIED_SOURCE('','',#621,
 .NOT_KNOWN.);
#620=PRODUCT_RELATED_PRODUCT_CATEGORY('','',(#621));
#621=PRODUCT('Right Wheel Spike','Right Wheel Spike',
'Right Wheel Spike',(#623));
#622=PRODUCT_CATEGORY('','');
#623=PRODUCT_CONTEXT('',#625,'mechanical');
#624=APPLICATION_PROTOCOL_DEFINITION('international standard',
'ap242_managed_model_based_3d_engineering',2020,#625);
#625=APPLICATION_CONTEXT('managed model based 3d engineering');
ENDSEC;
END-ISO-10303-21;
