ISO-10303-21;
HEADER;
/* Generated by software containing ST-Developer
 * from STEP Tools, Inc. (www.steptools.com) 
 */
/* OPTION: using custom renumber hook */

FILE_DESCRIPTION(
/* description */ ('STEP AP242 Edition 2',
'CAx-IF Rec.Pracs.---Representation and Presentation of Product Manufa
cturing Information (PMI)---4.0---2014-10-13',
'CAx-IF Rec.Pracs.---3D Tessellated Geometry---0.4---2014-09-14','2;1',
'CAx-IF Rec.Pracs.---User Defined Attributes---1.5---2016-08-15'),
/* implementation_level */ '2;1');

FILE_NAME(
/* name */ 
'(Cat-Aclysm) Antweight MK3 (Seperate Weapoon Struts) motor mounts V2 
- D.E.S Style Blade MK2 (Mineee)',
/* time_stamp */ '2026-09-13T05:00:30Z',
/* author */ (''),
/* organization */ (''),
/* preprocessor_version */ 'ST-DEVELOPER v20',
/* originating_system */ 'ONSHAPE BY PTC INC, 1.220',
/* authorisation */ '  ');

FILE_SCHEMA (('AP242_MANAGED_MODEL_BASED_3D_ENGINEERING_MIM_LF { 1 0 10303 442 3 1 4 }'));
ENDSEC;

DATA;
#10=SHAPE_REPRESENTATION_RELATIONSHIP('','',#455,#11);
#11=ADVANCED_BREP_SHAPE_REPRESENTATION('',(#453),#755);
#12=CIRCLE('',#466,0.0187);
#13=CIRCLE('',#467,0.0187);
#14=CIRCLE('',#469,0.0321250078671192);
#15=CIRCLE('',#470,0.0321250078671192);
#16=CIRCLE('',#472,0.00778757435208371);
#17=CIRCLE('',#473,0.00778757435208371);
#18=CIRCLE('',#476,0.01);
#19=CIRCLE('',#477,0.01);
#20=CIRCLE('',#480,0.0164567824785169);
#21=CIRCLE('',#481,0.0164567824785169);
#22=CIRCLE('',#484,0.002805);
#23=CIRCLE('',#485,0.002805);
#24=CIRCLE('',#487,0.004675);
#25=CIRCLE('',#488,0.004675);
#26=CIRCLE('',#491,0.0204554216343758);
#27=CIRCLE('',#492,0.0204554216343758);
#28=CIRCLE('',#494,0.01165);
#29=CIRCLE('',#496,0.01165);
#30=CYLINDRICAL_SURFACE('',#465,0.0187);
#31=CYLINDRICAL_SURFACE('',#468,0.0321250078671192);
#32=CYLINDRICAL_SURFACE('',#471,0.00778757435208371);
#33=CYLINDRICAL_SURFACE('',#475,0.01);
#34=CYLINDRICAL_SURFACE('',#479,0.0164567824785169);
#35=CYLINDRICAL_SURFACE('',#483,0.002805);
#36=CYLINDRICAL_SURFACE('',#486,0.004675);
#37=CYLINDRICAL_SURFACE('',#490,0.0204554216343758);
#38=CYLINDRICAL_SURFACE('',#495,0.01165);
#39=ORIENTED_EDGE('',*,*,#163,.F.);
#40=ORIENTED_EDGE('',*,*,#164,.T.);
#41=ORIENTED_EDGE('',*,*,#165,.F.);
#42=ORIENTED_EDGE('',*,*,#166,.T.);
#43=ORIENTED_EDGE('',*,*,#165,.T.);
#44=ORIENTED_EDGE('',*,*,#167,.T.);
#45=ORIENTED_EDGE('',*,*,#168,.F.);
#46=ORIENTED_EDGE('',*,*,#169,.F.);
#47=ORIENTED_EDGE('',*,*,#170,.T.);
#48=ORIENTED_EDGE('',*,*,#171,.T.);
#49=ORIENTED_EDGE('',*,*,#172,.F.);
#50=ORIENTED_EDGE('',*,*,#173,.F.);
#51=ORIENTED_EDGE('',*,*,#174,.T.);
#52=ORIENTED_EDGE('',*,*,#175,.T.);
#53=ORIENTED_EDGE('',*,*,#163,.T.);
#54=ORIENTED_EDGE('',*,*,#176,.F.);
#55=ORIENTED_EDGE('',*,*,#177,.T.);
#56=ORIENTED_EDGE('',*,*,#178,.T.);
#57=ORIENTED_EDGE('',*,*,#174,.F.);
#58=ORIENTED_EDGE('',*,*,#179,.F.);
#59=ORIENTED_EDGE('',*,*,#180,.F.);
#60=ORIENTED_EDGE('',*,*,#181,.T.);
#61=ORIENTED_EDGE('',*,*,#182,.F.);
#62=ORIENTED_EDGE('',*,*,#183,.F.);
#63=ORIENTED_EDGE('',*,*,#184,.T.);
#64=ORIENTED_EDGE('',*,*,#185,.T.);
#65=ORIENTED_EDGE('',*,*,#180,.T.);
#66=ORIENTED_EDGE('',*,*,#186,.F.);
#67=ORIENTED_EDGE('',*,*,#168,.T.);
#68=ORIENTED_EDGE('',*,*,#187,.T.);
#69=ORIENTED_EDGE('',*,*,#188,.F.);
#70=ORIENTED_EDGE('',*,*,#189,.F.);
#71=ORIENTED_EDGE('',*,*,#190,.T.);
#72=ORIENTED_EDGE('',*,*,#191,.T.);
#73=ORIENTED_EDGE('',*,*,#192,.T.);
#74=ORIENTED_EDGE('',*,*,#193,.T.);
#75=ORIENTED_EDGE('',*,*,#194,.T.);
#76=ORIENTED_EDGE('',*,*,#195,.T.);
#77=ORIENTED_EDGE('',*,*,#170,.F.);
#78=ORIENTED_EDGE('',*,*,#196,.F.);
#79=ORIENTED_EDGE('',*,*,#197,.T.);
#80=ORIENTED_EDGE('',*,*,#198,.T.);
#81=ORIENTED_EDGE('',*,*,#194,.F.);
#82=ORIENTED_EDGE('',*,*,#199,.F.);
#83=ORIENTED_EDGE('',*,*,#200,.F.);
#84=ORIENTED_EDGE('',*,*,#184,.F.);
#85=ORIENTED_EDGE('',*,*,#201,.T.);
#86=ORIENTED_EDGE('',*,*,#202,.F.);
#87=ORIENTED_EDGE('',*,*,#203,.T.);
#88=ORIENTED_EDGE('',*,*,#204,.F.);
#89=ORIENTED_EDGE('',*,*,#205,.T.);
#90=ORIENTED_EDGE('',*,*,#206,.T.);
#91=ORIENTED_EDGE('',*,*,#207,.T.);
#92=ORIENTED_EDGE('',*,*,#177,.F.);
#93=ORIENTED_EDGE('',*,*,#208,.F.);
#94=ORIENTED_EDGE('',*,*,#205,.F.);
#95=ORIENTED_EDGE('',*,*,#209,.T.);
#96=ORIENTED_EDGE('',*,*,#203,.F.);
#97=ORIENTED_EDGE('',*,*,#210,.F.);
#98=ORIENTED_EDGE('',*,*,#172,.T.);
#99=ORIENTED_EDGE('',*,*,#192,.F.);
#100=ORIENTED_EDGE('',*,*,#211,.F.);
#101=ORIENTED_EDGE('',*,*,#212,.F.);
#102=ORIENTED_EDGE('',*,*,#213,.F.);
#103=ORIENTED_EDGE('',*,*,#212,.T.);
#104=ORIENTED_EDGE('',*,*,#214,.T.);
#105=ORIENTED_EDGE('',*,*,#215,.T.);
#106=ORIENTED_EDGE('',*,*,#216,.T.);
#107=ORIENTED_EDGE('',*,*,#217,.T.);
#108=ORIENTED_EDGE('',*,*,#202,.T.);
#109=ORIENTED_EDGE('',*,*,#218,.T.);
#110=ORIENTED_EDGE('',*,*,#215,.F.);
#111=ORIENTED_EDGE('',*,*,#219,.F.);
#112=ORIENTED_EDGE('',*,*,#190,.F.);
#113=ORIENTED_EDGE('',*,*,#220,.F.);
#114=ORIENTED_EDGE('',*,*,#188,.T.);
#115=ORIENTED_EDGE('',*,*,#221,.F.);
#116=ORIENTED_EDGE('',*,*,#197,.F.);
#117=ORIENTED_EDGE('',*,*,#222,.F.);
#118=ORIENTED_EDGE('',*,*,#182,.T.);
#119=ORIENTED_EDGE('',*,*,#223,.T.);
#120=ORIENTED_EDGE('',*,*,#169,.T.);
#121=ORIENTED_EDGE('',*,*,#189,.T.);
#122=ORIENTED_EDGE('',*,*,#220,.T.);
#123=ORIENTED_EDGE('',*,*,#193,.F.);
#124=ORIENTED_EDGE('',*,*,#213,.T.);
#125=ORIENTED_EDGE('',*,*,#216,.F.);
#126=ORIENTED_EDGE('',*,*,#218,.F.);
#127=ORIENTED_EDGE('',*,*,#201,.F.);
#128=ORIENTED_EDGE('',*,*,#186,.T.);
#129=ORIENTED_EDGE('',*,*,#183,.T.);
#130=ORIENTED_EDGE('',*,*,#222,.T.);
#131=ORIENTED_EDGE('',*,*,#199,.T.);
#132=ORIENTED_EDGE('',*,*,#196,.T.);
#133=ORIENTED_EDGE('',*,*,#173,.T.);
#134=ORIENTED_EDGE('',*,*,#210,.T.);
#135=ORIENTED_EDGE('',*,*,#206,.F.);
#136=ORIENTED_EDGE('',*,*,#208,.T.);
#137=ORIENTED_EDGE('',*,*,#179,.T.);
#138=ORIENTED_EDGE('',*,*,#176,.T.);
#139=ORIENTED_EDGE('',*,*,#166,.F.);
#140=ORIENTED_EDGE('',*,*,#224,.T.);
#141=ORIENTED_EDGE('',*,*,#223,.F.);
#142=ORIENTED_EDGE('',*,*,#224,.F.);
#143=ORIENTED_EDGE('',*,*,#187,.F.);
#144=ORIENTED_EDGE('',*,*,#167,.F.);
#145=ORIENTED_EDGE('',*,*,#164,.F.);
#146=ORIENTED_EDGE('',*,*,#175,.F.);
#147=ORIENTED_EDGE('',*,*,#178,.F.);
#148=ORIENTED_EDGE('',*,*,#207,.F.);
#149=ORIENTED_EDGE('',*,*,#204,.T.);
#150=ORIENTED_EDGE('',*,*,#209,.F.);
#151=ORIENTED_EDGE('',*,*,#171,.F.);
#152=ORIENTED_EDGE('',*,*,#195,.F.);
#153=ORIENTED_EDGE('',*,*,#198,.F.);
#154=ORIENTED_EDGE('',*,*,#221,.T.);
#155=ORIENTED_EDGE('',*,*,#181,.F.);
#156=ORIENTED_EDGE('',*,*,#185,.F.);
#157=ORIENTED_EDGE('',*,*,#200,.T.);
#158=ORIENTED_EDGE('',*,*,#217,.F.);
#159=ORIENTED_EDGE('',*,*,#214,.F.);
#160=ORIENTED_EDGE('',*,*,#211,.T.);
#161=ORIENTED_EDGE('',*,*,#191,.F.);
#162=ORIENTED_EDGE('',*,*,#219,.T.);
#163=EDGE_CURVE('',#225,#226,#267,.F.);
#164=EDGE_CURVE('',#225,#227,#268,.F.);
#165=EDGE_CURVE('',#228,#227,#269,.T.);
#166=EDGE_CURVE('',#228,#226,#270,.T.);
#167=EDGE_CURVE('',#227,#229,#271,.F.);
#168=EDGE_CURVE('',#230,#229,#272,.T.);
#169=EDGE_CURVE('',#228,#230,#273,.T.);
#170=EDGE_CURVE('',#231,#232,#274,.T.);
#171=EDGE_CURVE('',#232,#233,#275,.F.);
#172=EDGE_CURVE('',#234,#233,#276,.T.);
#173=EDGE_CURVE('',#231,#234,#277,.T.);
#174=EDGE_CURVE('',#235,#236,#278,.T.);
#175=EDGE_CURVE('',#236,#225,#279,.F.);
#176=EDGE_CURVE('',#235,#226,#280,.T.);
#177=EDGE_CURVE('',#237,#238,#281,.T.);
#178=EDGE_CURVE('',#238,#236,#282,.F.);
#179=EDGE_CURVE('',#237,#235,#283,.T.);
#180=EDGE_CURVE('',#239,#240,#284,.T.);
#181=EDGE_CURVE('',#239,#241,#285,.T.);
#182=EDGE_CURVE('',#242,#241,#286,.T.);
#183=EDGE_CURVE('',#240,#242,#287,.T.);
#184=EDGE_CURVE('',#243,#244,#288,.F.);
#185=EDGE_CURVE('',#244,#239,#289,.T.);
#186=EDGE_CURVE('',#243,#240,#290,.T.);
#187=EDGE_CURVE('',#229,#245,#291,.T.);
#188=EDGE_CURVE('',#246,#245,#292,.T.);
#189=EDGE_CURVE('',#230,#246,#293,.T.);
#190=EDGE_CURVE('',#247,#248,#294,.T.);
#191=EDGE_CURVE('',#248,#249,#12,.F.);
#192=EDGE_CURVE('',#249,#250,#295,.F.);
#193=EDGE_CURVE('',#250,#247,#13,.T.);
#194=EDGE_CURVE('',#251,#252,#296,.T.);
#195=EDGE_CURVE('',#252,#232,#14,.F.);
#196=EDGE_CURVE('',#251,#231,#15,.F.);
#197=EDGE_CURVE('',#253,#254,#297,.T.);
#198=EDGE_CURVE('',#254,#252,#16,.F.);
#199=EDGE_CURVE('',#253,#251,#17,.F.);
#200=EDGE_CURVE('',#244,#255,#298,.T.);
#201=EDGE_CURVE('',#243,#256,#299,.T.);
#202=EDGE_CURVE('',#255,#256,#300,.F.);
#203=EDGE_CURVE('',#257,#258,#301,.F.);
#204=EDGE_CURVE('',#259,#258,#18,.T.);
#205=EDGE_CURVE('',#259,#260,#302,.T.);
#206=EDGE_CURVE('',#260,#257,#19,.T.);
#207=EDGE_CURVE('',#259,#238,#303,.F.);
#208=EDGE_CURVE('',#260,#237,#304,.T.);
#209=EDGE_CURVE('',#233,#258,#20,.F.);
#210=EDGE_CURVE('',#234,#257,#21,.F.);
#211=EDGE_CURVE('',#261,#249,#305,.T.);
#212=EDGE_CURVE('',#262,#261,#306,.T.);
#213=EDGE_CURVE('',#250,#262,#307,.T.);
#214=EDGE_CURVE('',#261,#263,#22,.T.);
#215=EDGE_CURVE('',#263,#264,#308,.F.);
#216=EDGE_CURVE('',#264,#262,#23,.F.);
#217=EDGE_CURVE('',#263,#255,#24,.F.);
#218=EDGE_CURVE('',#256,#264,#25,.T.);
#219=EDGE_CURVE('',#248,#245,#309,.T.);
#220=EDGE_CURVE('',#246,#247,#310,.T.);
#221=EDGE_CURVE('',#254,#241,#26,.T.);
#222=EDGE_CURVE('',#242,#253,#27,.F.);
#223=EDGE_CURVE('',#265,#265,#28,.F.);
#224=EDGE_CURVE('',#266,#266,#29,.T.);
#225=VERTEX_POINT('',#629);
#226=VERTEX_POINT('',#630);
#227=VERTEX_POINT('',#632);
#228=VERTEX_POINT('',#634);
#229=VERTEX_POINT('',#638);
#230=VERTEX_POINT('',#640);
#231=VERTEX_POINT('',#644);
#232=VERTEX_POINT('',#645);
#233=VERTEX_POINT('',#647);
#234=VERTEX_POINT('',#649);
#235=VERTEX_POINT('',#653);
#236=VERTEX_POINT('',#654);
#237=VERTEX_POINT('',#659);
#238=VERTEX_POINT('',#660);
#239=VERTEX_POINT('',#665);
#240=VERTEX_POINT('',#666);
#241=VERTEX_POINT('',#668);
#242=VERTEX_POINT('',#670);
#243=VERTEX_POINT('',#674);
#244=VERTEX_POINT('',#675);
#245=VERTEX_POINT('',#680);
#246=VERTEX_POINT('',#682);
#247=VERTEX_POINT('',#686);
#248=VERTEX_POINT('',#687);
#249=VERTEX_POINT('',#689);
#250=VERTEX_POINT('',#691);
#251=VERTEX_POINT('',#695);
#252=VERTEX_POINT('',#696);
#253=VERTEX_POINT('',#701);
#254=VERTEX_POINT('',#702);
#255=VERTEX_POINT('',#707);
#256=VERTEX_POINT('',#709);
#257=VERTEX_POINT('',#713);
#258=VERTEX_POINT('',#714);
#259=VERTEX_POINT('',#716);
#260=VERTEX_POINT('',#718);
#261=VERTEX_POINT('',#728);
#262=VERTEX_POINT('',#730);
#263=VERTEX_POINT('',#734);
#264=VERTEX_POINT('',#736);
#265=VERTEX_POINT('',#749);
#266=VERTEX_POINT('',#752);
#267=LINE('',#628,#311);
#268=LINE('',#631,#312);
#269=LINE('',#633,#313);
#270=LINE('',#635,#314);
#271=LINE('',#637,#315);
#272=LINE('',#639,#316);
#273=LINE('',#641,#317);
#274=LINE('',#643,#318);
#275=LINE('',#646,#319);
#276=LINE('',#648,#320);
#277=LINE('',#650,#321);
#278=LINE('',#652,#322);
#279=LINE('',#655,#323);
#280=LINE('',#656,#324);
#281=LINE('',#658,#325);
#282=LINE('',#661,#326);
#283=LINE('',#662,#327);
#284=LINE('',#664,#328);
#285=LINE('',#667,#329);
#286=LINE('',#669,#330);
#287=LINE('',#671,#331);
#288=LINE('',#673,#332);
#289=LINE('',#676,#333);
#290=LINE('',#677,#334);
#291=LINE('',#679,#335);
#292=LINE('',#681,#336);
#293=LINE('',#683,#337);
#294=LINE('',#685,#338);
#295=LINE('',#690,#339);
#296=LINE('',#694,#340);
#297=LINE('',#700,#341);
#298=LINE('',#706,#342);
#299=LINE('',#708,#343);
#300=LINE('',#710,#344);
#301=LINE('',#712,#345);
#302=LINE('',#717,#346);
#303=LINE('',#721,#347);
#304=LINE('',#722,#348);
#305=LINE('',#727,#349);
#306=LINE('',#729,#350);
#307=LINE('',#731,#351);
#308=LINE('',#735,#352);
#309=LINE('',#742,#353);
#310=LINE('',#743,#354);
#311=VECTOR('',#502,1.);
#312=VECTOR('',#503,1.);
#313=VECTOR('',#504,1.);
#314=VECTOR('',#505,1.);
#315=VECTOR('',#508,1.);
#316=VECTOR('',#509,1.);
#317=VECTOR('',#510,1.);
#318=VECTOR('',#513,1.);
#319=VECTOR('',#514,1.);
#320=VECTOR('',#515,1.);
#321=VECTOR('',#516,1.);
#322=VECTOR('',#519,1.);
#323=VECTOR('',#520,1.);
#324=VECTOR('',#521,1.);
#325=VECTOR('',#524,1.);
#326=VECTOR('',#525,1.);
#327=VECTOR('',#526,1.);
#328=VECTOR('',#529,1.);
#329=VECTOR('',#530,1.);
#330=VECTOR('',#531,1.);
#331=VECTOR('',#532,1.);
#332=VECTOR('',#535,1.);
#333=VECTOR('',#536,1.);
#334=VECTOR('',#537,1.);
#335=VECTOR('',#540,1.);
#336=VECTOR('',#541,1.);
#337=VECTOR('',#542,1.);
#338=VECTOR('',#545,1.);
#339=VECTOR('',#548,1.);
#340=VECTOR('',#553,1.);
#341=VECTOR('',#560,1.);
#342=VECTOR('',#567,1.);
#343=VECTOR('',#568,1.);
#344=VECTOR('',#569,1.);
#345=VECTOR('',#572,1.);
#346=VECTOR('',#575,1.);
#347=VECTOR('',#580,1.);
#348=VECTOR('',#581,1.);
#349=VECTOR('',#590,1.);
#350=VECTOR('',#591,1.);
#351=VECTOR('',#592,1.);
#352=VECTOR('',#597,1.);
#353=VECTOR('',#608,1.);
#354=VECTOR('',#609,1.);
#355=EDGE_LOOP('',(#39,#40,#41,#42));
#356=EDGE_LOOP('',(#43,#44,#45,#46));
#357=EDGE_LOOP('',(#47,#48,#49,#50));
#358=EDGE_LOOP('',(#51,#52,#53,#54));
#359=EDGE_LOOP('',(#55,#56,#57,#58));
#360=EDGE_LOOP('',(#59,#60,#61,#62));
#361=EDGE_LOOP('',(#63,#64,#65,#66));
#362=EDGE_LOOP('',(#67,#68,#69,#70));
#363=EDGE_LOOP('',(#71,#72,#73,#74));
#364=EDGE_LOOP('',(#75,#76,#77,#78));
#365=EDGE_LOOP('',(#79,#80,#81,#82));
#366=EDGE_LOOP('',(#83,#84,#85,#86));
#367=EDGE_LOOP('',(#87,#88,#89,#90));
#368=EDGE_LOOP('',(#91,#92,#93,#94));
#369=EDGE_LOOP('',(#95,#96,#97,#98));
#370=EDGE_LOOP('',(#99,#100,#101,#102));
#371=EDGE_LOOP('',(#103,#104,#105,#106));
#372=EDGE_LOOP('',(#107,#108,#109,#110));
#373=EDGE_LOOP('',(#111,#112,#113,#114));
#374=EDGE_LOOP('',(#115,#116,#117,#118));
#375=EDGE_LOOP('',(#119));
#376=EDGE_LOOP('',(#120,#121,#122,#123,#124,#125,#126,#127,#128,#129,#130,
#131,#132,#133,#134,#135,#136,#137,#138,#139));
#377=EDGE_LOOP('',(#140));
#378=EDGE_LOOP('',(#141));
#379=EDGE_LOOP('',(#142));
#380=EDGE_LOOP('',(#143,#144,#145,#146,#147,#148,#149,#150,#151,#152,#153,
#154,#155,#156,#157,#158,#159,#160,#161,#162));
#381=FACE_BOUND('',#355,.T.);
#382=FACE_BOUND('',#356,.T.);
#383=FACE_BOUND('',#357,.T.);
#384=FACE_BOUND('',#358,.T.);
#385=FACE_BOUND('',#359,.T.);
#386=FACE_BOUND('',#360,.T.);
#387=FACE_BOUND('',#361,.T.);
#388=FACE_BOUND('',#362,.T.);
#389=FACE_BOUND('',#363,.T.);
#390=FACE_BOUND('',#364,.T.);
#391=FACE_BOUND('',#365,.T.);
#392=FACE_BOUND('',#366,.T.);
#393=FACE_BOUND('',#367,.T.);
#394=FACE_BOUND('',#368,.T.);
#395=FACE_BOUND('',#369,.T.);
#396=FACE_BOUND('',#370,.T.);
#397=FACE_BOUND('',#371,.T.);
#398=FACE_BOUND('',#372,.T.);
#399=FACE_BOUND('',#373,.T.);
#400=FACE_BOUND('',#374,.T.);
#401=FACE_BOUND('',#375,.T.);
#402=FACE_BOUND('',#376,.T.);
#403=FACE_BOUND('',#377,.T.);
#404=FACE_BOUND('',#378,.T.);
#405=FACE_BOUND('',#379,.T.);
#406=FACE_BOUND('',#380,.T.);
#407=PLANE('',#457);
#408=PLANE('',#458);
#409=PLANE('',#459);
#410=PLANE('',#460);
#411=PLANE('',#461);
#412=PLANE('',#462);
#413=PLANE('',#463);
#414=PLANE('',#464);
#415=PLANE('',#474);
#416=PLANE('',#478);
#417=PLANE('',#482);
#418=PLANE('',#489);
#419=PLANE('',#493);
#420=PLANE('',#497);
#421=ADVANCED_FACE('',(#381),#407,.T.);
#422=ADVANCED_FACE('',(#382),#408,.T.);
#423=ADVANCED_FACE('',(#383),#409,.T.);
#424=ADVANCED_FACE('',(#384),#410,.T.);
#425=ADVANCED_FACE('',(#385),#411,.T.);
#426=ADVANCED_FACE('',(#386),#412,.T.);
#427=ADVANCED_FACE('',(#387),#413,.T.);
#428=ADVANCED_FACE('',(#388),#414,.T.);
#429=ADVANCED_FACE('',(#389),#30,.T.);
#430=ADVANCED_FACE('',(#390),#31,.T.);
#431=ADVANCED_FACE('',(#391),#32,.T.);
#432=ADVANCED_FACE('',(#392),#415,.T.);
#433=ADVANCED_FACE('',(#393),#33,.F.);
#434=ADVANCED_FACE('',(#394),#416,.T.);
#435=ADVANCED_FACE('',(#395),#34,.T.);
#436=ADVANCED_FACE('',(#396),#417,.F.);
#437=ADVANCED_FACE('',(#397),#35,.F.);
#438=ADVANCED_FACE('',(#398),#36,.T.);
#439=ADVANCED_FACE('',(#399),#418,.T.);
#440=ADVANCED_FACE('',(#400),#37,.T.);
#441=ADVANCED_FACE('',(#401,#402),#419,.T.);
#442=ADVANCED_FACE('',(#403,#404),#38,.F.);
#443=ADVANCED_FACE('',(#405,#406),#420,.F.);
#444=CLOSED_SHELL('',(#421,#422,#423,#424,#425,#426,#427,#428,#429,#430,
#431,#432,#433,#434,#435,#436,#437,#438,#439,#440,#441,#442,#443));
#445=STYLED_ITEM('',(#446),#453);
#446=PRESENTATION_STYLE_ASSIGNMENT((#447));
#447=SURFACE_STYLE_USAGE(.BOTH.,#448);
#448=SURFACE_SIDE_STYLE('',(#449));
#449=SURFACE_STYLE_FILL_AREA(#450);
#450=FILL_AREA_STYLE('',(#451));
#451=FILL_AREA_STYLE_COLOUR('',#452);
#452=COLOUR_RGB('',0.627450980392157,0.627450980392157,0.627450980392157);
#453=MANIFOLD_SOLID_BREP('D.E.S Style Blade MK2 (Mineee)',#444);
#454=SHAPE_DEFINITION_REPRESENTATION(#760,#455);
#455=SHAPE_REPRESENTATION('D.E.S Style Blade MK2 (Mineee)',(#456),#755);
#456=AXIS2_PLACEMENT_3D('',#626,#498,#499);
#457=AXIS2_PLACEMENT_3D('',#627,#500,#501);
#458=AXIS2_PLACEMENT_3D('',#636,#506,#507);
#459=AXIS2_PLACEMENT_3D('',#642,#511,#512);
#460=AXIS2_PLACEMENT_3D('',#651,#517,#518);
#461=AXIS2_PLACEMENT_3D('',#657,#522,#523);
#462=AXIS2_PLACEMENT_3D('',#663,#527,#528);
#463=AXIS2_PLACEMENT_3D('',#672,#533,#534);
#464=AXIS2_PLACEMENT_3D('',#678,#538,#539);
#465=AXIS2_PLACEMENT_3D('',#684,#543,#544);
#466=AXIS2_PLACEMENT_3D('',#688,#546,#547);
#467=AXIS2_PLACEMENT_3D('',#692,#549,#550);
#468=AXIS2_PLACEMENT_3D('',#693,#551,#552);
#469=AXIS2_PLACEMENT_3D('',#697,#554,#555);
#470=AXIS2_PLACEMENT_3D('',#698,#556,#557);
#471=AXIS2_PLACEMENT_3D('',#699,#558,#559);
#472=AXIS2_PLACEMENT_3D('',#703,#561,#562);
#473=AXIS2_PLACEMENT_3D('',#704,#563,#564);
#474=AXIS2_PLACEMENT_3D('',#705,#565,#566);
#475=AXIS2_PLACEMENT_3D('',#711,#570,#571);
#476=AXIS2_PLACEMENT_3D('',#715,#573,#574);
#477=AXIS2_PLACEMENT_3D('',#719,#576,#577);
#478=AXIS2_PLACEMENT_3D('',#720,#578,#579);
#479=AXIS2_PLACEMENT_3D('',#723,#582,#583);
#480=AXIS2_PLACEMENT_3D('',#724,#584,#585);
#481=AXIS2_PLACEMENT_3D('',#725,#586,#587);
#482=AXIS2_PLACEMENT_3D('',#726,#588,#589);
#483=AXIS2_PLACEMENT_3D('',#732,#593,#594);
#484=AXIS2_PLACEMENT_3D('',#733,#595,#596);
#485=AXIS2_PLACEMENT_3D('',#737,#598,#599);
#486=AXIS2_PLACEMENT_3D('',#738,#600,#601);
#487=AXIS2_PLACEMENT_3D('',#739,#602,#603);
#488=AXIS2_PLACEMENT_3D('',#740,#604,#605);
#489=AXIS2_PLACEMENT_3D('',#741,#606,#607);
#490=AXIS2_PLACEMENT_3D('',#744,#610,#611);
#491=AXIS2_PLACEMENT_3D('',#745,#612,#613);
#492=AXIS2_PLACEMENT_3D('',#746,#614,#615);
#493=AXIS2_PLACEMENT_3D('',#747,#616,#617);
#494=AXIS2_PLACEMENT_3D('',#748,#618,#619);
#495=AXIS2_PLACEMENT_3D('',#750,#620,#621);
#496=AXIS2_PLACEMENT_3D('',#751,#622,#623);
#497=AXIS2_PLACEMENT_3D('',#753,#624,#625);
#498=DIRECTION('',(0.,0.,1.));
#499=DIRECTION('',(1.,0.,0.));
#500=DIRECTION('',(1.13462837408476E-16,-0.926494377705254,-0.376308607502611));
#501=DIRECTION('',(-4.6084513166967E-17,0.376308607502611,-0.926494377705254));
#502=DIRECTION('',(1.,1.22464679914735E-16,-6.12323399573676E-17));
#503=DIRECTION('',(-4.6084513166967E-17,0.376308607502611,-0.926494377705254));
#504=DIRECTION('',(1.,1.22464679914735E-16,0.));
#505=DIRECTION('',(-4.6084513166967E-17,0.376308607502611,-0.926494377705254));
#506=DIRECTION('',(-2.3257530369394E-17,0.189912147613392,0.981801087893505));
#507=DIRECTION('',(1.20235955968817E-16,-0.981801087893505,0.189912147613392));
#508=DIRECTION('',(1.20235955968817E-16,-0.981801087893505,0.189912147613392));
#509=DIRECTION('',(1.,1.22464679914735E-16,0.));
#510=DIRECTION('',(-1.31864721153514E-16,0.981801087893505,-0.189912147613392));
#511=DIRECTION('',(8.1976727755256E-17,-0.66939078118141,0.742910480521942));
#512=DIRECTION('',(9.09802942024219E-17,-0.742910480521942,-0.66939078118141));
#513=DIRECTION('',(1.,1.22464679914735E-16,0.));
#514=DIRECTION('',(9.09802942024219E-17,-0.742910480521942,-0.66939078118141));
#515=DIRECTION('',(1.,1.22464679914735E-16,0.));
#516=DIRECTION('',(-9.09802942024219E-17,0.742910480521942,0.66939078118141));
#517=DIRECTION('',(-8.8318273034347E-17,0.9186775635905,0.39500827099622));
#518=DIRECTION('',(1.04627338356205E-16,-0.39500827099622,0.9186775635905));
#519=DIRECTION('',(1.,1.22464679914735E-16,-6.12323399573676E-17));
#520=DIRECTION('',(1.04627338356205E-16,-0.39500827099622,0.9186775635905));
#521=DIRECTION('',(-4.83745614711134E-17,0.395008270995308,-0.918677563590892));
#522=DIRECTION('',(3.68604476150113E-17,0.189912147613415,0.9818010878935));
#523=DIRECTION('',(1.31864721153515E-16,-0.9818010878935,0.189912147613415));
#524=DIRECTION('',(1.,1.22464679914735E-16,-6.12323399573677E-17));
#525=DIRECTION('',(1.31864721153515E-16,-0.9818010878935,0.189912147613415));
#526=DIRECTION('',(-1.20235955968817E-16,0.981801087893502,-0.189912147613408));
#527=DIRECTION('',(-1.29711109111048E-16,0.704141986440626,-0.710059196779711));
#528=DIRECTION('',(4.38409107621528E-17,-0.710059196779711,-0.704141986440626));
#529=DIRECTION('',(-1.,-1.22464679914735E-16,6.12323399573677E-17));
#530=DIRECTION('',(4.38409107621528E-17,-0.710059196779711,-0.704141986440626));
#531=DIRECTION('',(1.,1.22464679914735E-16,0.));
#532=DIRECTION('',(8.6957172254141E-17,-0.710059196779708,-0.704141986440629));
#533=DIRECTION('',(-1.3209514843697E-16,0.98058067569092,-0.196116135138184));
#534=DIRECTION('',(-3.6025949573719E-17,-0.196116135138184,-0.98058067569092));
#535=DIRECTION('',(-1.,-1.22464679914735E-16,6.12323399573677E-17));
#536=DIRECTION('',(-3.6025949573719E-17,-0.196116135138184,-0.98058067569092));
#537=DIRECTION('',(-6.05083002280461E-16,-0.196116135138199,-0.980580675690917));
#538=DIRECTION('',(-8.50205131607293E-17,0.905943971228689,0.42339759209801));
#539=DIRECTION('',(-5.18512505929525E-17,0.42339759209801,-0.905943971228689));
#540=DIRECTION('',(-1.07324319821555E-16,0.42339759209801,-0.905943971228689));
#541=DIRECTION('',(1.,1.22464679914735E-16,0.));
#542=DIRECTION('',(-1.07324319821555E-16,0.42339759209801,-0.905943971228689));
#543=DIRECTION('',(1.,1.22464679914735E-16,-6.12323399573677E-17));
#544=DIRECTION('',(-1.00458317802588E-16,0.960112100658483,0.279615368263541));
#545=DIRECTION('',(1.,1.22464679914735E-16,-6.12323399573677E-17));
#546=DIRECTION('',(1.,1.22464679914735E-16,-6.12323399573677E-17));
#547=DIRECTION('',(6.12323399573677E-17,7.49879891330929E-33,1.));
#548=DIRECTION('',(1.,1.22464679914735E-16,-6.12323399573677E-17));
#549=DIRECTION('',(1.,1.22464679914735E-16,-6.12323399573677E-17));
#550=DIRECTION('',(6.12323399573677E-17,7.49879891330929E-33,1.));
#551=DIRECTION('',(1.,1.22464679914735E-16,0.));
#552=DIRECTION('',(1.22109609506205E-16,-0.99710063008553,-0.0760942408007222));
#553=DIRECTION('',(1.,1.22464679914735E-16,0.));
#554=DIRECTION('',(1.,1.22464679914735E-16,0.));
#555=DIRECTION('',(0.,0.,1.));
#556=DIRECTION('',(1.,1.22464679914735E-16,0.));
#557=DIRECTION('',(0.,0.,1.));
#558=DIRECTION('',(1.,1.22464679914735E-16,0.));
#559=DIRECTION('',(1.2189477359887E-16,-0.995346361773352,-0.0963619224826465));
#560=DIRECTION('',(1.,1.22464679914735E-16,0.));
#561=DIRECTION('',(1.,1.22464679914735E-16,0.));
#562=DIRECTION('',(0.,0.,1.));
#563=DIRECTION('',(1.,1.22464679914735E-16,0.));
#564=DIRECTION('',(0.,0.,1.));
#565=DIRECTION('',(6.26103520961495E-17,-0.0112841570987921,0.99993633187247));
#566=DIRECTION('',(1.21765927474271E-16,-0.99993633187247,-0.0112841570987921));
#567=DIRECTION('',(1.22456882817877E-16,-0.99993633187247,-0.0112841570987538));
#568=DIRECTION('',(1.21765927474271E-16,-0.99993633187247,-0.0112841570987921));
#569=DIRECTION('',(1.,1.22464679914735E-16,-6.12323399573677E-17));
#570=DIRECTION('',(-1.,-1.22464679914735E-16,0.));
#571=DIRECTION('',(1.18717027013619E-16,-0.969398091729585,-0.245494072741154));
#572=DIRECTION('',(-1.,-1.22464679914735E-16,0.));
#573=DIRECTION('',(-1.,-1.22464679914735E-16,0.));
#574=DIRECTION('',(0.,0.,-1.));
#575=DIRECTION('',(-1.,-1.22464679914735E-16,0.));
#576=DIRECTION('',(-1.,-1.22464679914735E-16,0.));
#577=DIRECTION('',(0.,0.,-1.));
#578=DIRECTION('',(1.18717027013619E-16,-0.969398091729585,-0.245494072741155));
#579=DIRECTION('',(-3.00643530392103E-17,0.245494072741155,-0.969398091729585));
#580=DIRECTION('',(-3.00643530392103E-17,0.245494072741155,-0.969398091729585));
#581=DIRECTION('',(3.00643530392111E-17,-0.245494072741162,0.969398091729583));
#582=DIRECTION('',(1.,1.22464679914735E-16,0.));
#583=DIRECTION('',(1.22464679914735E-16,-1.,0.));
#584=DIRECTION('',(1.,1.22464679914735E-16,0.));
#585=DIRECTION('',(0.,0.,1.));
#586=DIRECTION('',(1.,1.22464679914735E-16,0.));
#587=DIRECTION('',(0.,0.,1.));
#588=DIRECTION('',(1.11088238694168E-16,-0.987113903442345,-0.160019191445329));
#589=DIRECTION('',(-8.00399931727929E-17,0.160019191445329,-0.987113903442345));
#590=DIRECTION('',(1.95966990605676E-17,-0.160019191445334,0.987113903442344));
#591=DIRECTION('',(1.,1.22464679914735E-16,-6.12323399573677E-17));
#592=DIRECTION('',(-1.95966990605676E-17,0.160019191445334,-0.987113903442344));
#593=DIRECTION('',(1.,1.22464679914735E-16,-6.12323399573677E-17));
#594=DIRECTION('',(5.53127972291209E-18,-0.482981581955775,-0.875630510827197));
#595=DIRECTION('',(1.,1.22464679914735E-16,-6.12323399573677E-17));
#596=DIRECTION('',(6.12323399573677E-17,7.49879891330929E-33,1.));
#597=DIRECTION('',(1.,1.22464679914735E-16,-6.12323399573677E-17));
#598=DIRECTION('',(1.,1.22464679914735E-16,-6.12323399573677E-17));
#599=DIRECTION('',(6.12323399573677E-17,7.49879891330929E-33,1.));
#600=DIRECTION('',(1.,1.22464679914735E-16,-6.12323399573677E-17));
#601=DIRECTION('',(8.15835866011367E-17,-0.173789092250769,0.984782895573767));
#602=DIRECTION('',(1.,1.22464679914735E-16,-6.12323399573677E-17));
#603=DIRECTION('',(6.12323399573677E-17,7.49879891330929E-33,1.));
#604=DIRECTION('',(1.,1.22464679914735E-16,-6.12323399573677E-17));
#605=DIRECTION('',(6.12323399573677E-17,7.49879891330929E-33,1.));
#606=DIRECTION('',(-1.09826229250286E-16,0.896799218572667,0.442437748804794));
#607=DIRECTION('',(5.41829972895752E-17,-0.442437748804794,0.896799218572667));
#608=DIRECTION('',(5.41829972895761E-17,-0.442437748804802,0.896799218572663));
#609=DIRECTION('',(-5.4182997289576E-17,0.442437748804801,-0.896799218572663));
#610=DIRECTION('',(1.,1.22464679914735E-16,0.));
#611=DIRECTION('',(-8.62325229839774E-17,0.704141986440628,-0.710059196779709));
#612=DIRECTION('',(1.,1.22464679914735E-16,0.));
#613=DIRECTION('',(0.,0.,1.));
#614=DIRECTION('',(1.,1.22464679914735E-16,0.));
#615=DIRECTION('',(0.,0.,1.));
#616=DIRECTION('',(-1.,-1.22464679914735E-16,6.12323399573677E-17));
#617=DIRECTION('',(-6.12323399573677E-17,-7.49879891330929E-33,-1.));
#618=DIRECTION('',(-1.,-1.22464679914735E-16,6.12323399573677E-17));
#619=DIRECTION('',(1.22464679914735E-16,-1.,0.));
#620=DIRECTION('',(1.,1.22464679914735E-16,-6.12323399573677E-17));
#621=DIRECTION('',(-1.22464679914735E-16,1.,0.));
#622=DIRECTION('',(1.,1.22464679914735E-16,-6.12323399573677E-17));
#623=DIRECTION('',(-1.22464679914735E-16,1.,0.));
#624=DIRECTION('',(-1.,-1.22464679914735E-16,6.12323399573677E-17));
#625=DIRECTION('',(-6.12323399573677E-17,-7.49879891330929E-33,-1.));
#626=CARTESIAN_POINT('',(0.,0.,0.));
#627=CARTESIAN_POINT('',(-0.0091875,0.050691990984589,0.0574498433504608));
#628=CARTESIAN_POINT('',(-0.002125,0.0507012754956482,0.0574269843269767));
#629=CARTESIAN_POINT('',(0.004355,0.0507012754956477,0.057426984326978));
#630=CARTESIAN_POINT('',(-0.0086875,0.0507012754956488,0.0574269843269755));
#631=CARTESIAN_POINT('',(0.004355,0.050691990984589,0.0574498433504608));
#632=CARTESIAN_POINT('',(0.004355,0.0506919873014264,0.0574498524186281));
#633=CARTESIAN_POINT('',(-0.0091875,0.0506919873014264,0.0574498524186281));
#634=CARTESIAN_POINT('',(-0.0086875,0.0506919873014264,0.0574498524186281));
#635=CARTESIAN_POINT('',(-0.0086875,0.050691990984589,0.0574498433504608));
#636=CARTESIAN_POINT('',(-0.0091875,0.0512257669431905,0.0573466021377212));
#637=CARTESIAN_POINT('',(0.004355,0.0512257669431905,0.0573466021377212));
#638=CARTESIAN_POINT('',(0.004355,0.0512257669431906,0.0573466021377212));
#639=CARTESIAN_POINT('',(-0.0091875,0.0512257669431906,0.0573466021377212));
#640=CARTESIAN_POINT('',(-0.0086875,0.0512257669431906,0.0573466021377212));
#641=CARTESIAN_POINT('',(-0.0086875,0.0528999976611413,0.0570227516600969));
#642=CARTESIAN_POINT('',(-0.0091875,0.0363027213704278,0.0377619182796338));
#643=CARTESIAN_POINT('',(-0.0091875,0.0292385489584737,0.0313968285235761));
#644=CARTESIAN_POINT('',(-0.0086875,0.0292385489584737,0.0313968285235761));
#645=CARTESIAN_POINT('',(0.004355,0.0292385489584737,0.0313968285235761));
#646=CARTESIAN_POINT('',(0.004355,0.0363027213704278,0.0377619182796338));
#647=CARTESIAN_POINT('',(0.004355,0.0363027213704279,0.0377619182796339));
#648=CARTESIAN_POINT('',(-0.0091875,0.0363027213704278,0.0377619182796338));
#649=CARTESIAN_POINT('',(-0.0086875,0.0363027213704278,0.0377619182796338));
#650=CARTESIAN_POINT('',(-0.0086875,0.0292385489584737,0.0313968285235761));
#651=CARTESIAN_POINT('',(-0.002125,0.0614794528293567,0.032359991000722));
#652=CARTESIAN_POINT('',(-0.002125,0.050691393394948,0.0574499672993878));
#653=CARTESIAN_POINT('',(-0.0086875,0.050691393394948,0.0574499672993878));
#654=CARTESIAN_POINT('',(0.004355,0.050691393394948,0.0574499672993878));
#655=CARTESIAN_POINT('',(0.004355,0.0614794528293567,0.032359991000722));
#656=CARTESIAN_POINT('',(-0.0086875,0.050691393394948,0.0574499672993878));
#657=CARTESIAN_POINT('',(-0.002125,0.0521384804583191,0.0571700537656006));
#658=CARTESIAN_POINT('',(-0.002125,0.0445122708176565,0.0586452098525793));
#659=CARTESIAN_POINT('',(-0.0086875,0.0445122708176565,0.0586452098525792));
#660=CARTESIAN_POINT('',(0.004355,0.0445122708176565,0.0586452098525793));
#661=CARTESIAN_POINT('',(0.004355,0.0521384804583191,0.0571700537656006));
#662=CARTESIAN_POINT('',(-0.0086875,0.0445122708176565,0.0586452098525792));
#663=CARTESIAN_POINT('',(0.00138625,0.0702449530255956,0.0182666862794609));
#664=CARTESIAN_POINT('',(0.00138625,0.0714292165296414,0.0194410808369707));
#665=CARTESIAN_POINT('',(0.004355,0.0714292165296414,0.0194410808369707));
#666=CARTESIAN_POINT('',(-0.0086875,0.0714292165296413,0.0194410808369707));
#667=CARTESIAN_POINT('',(0.004355,0.0702449530255956,0.0182666862794609));
#668=CARTESIAN_POINT('',(0.004355,0.0636058988669414,0.0116829580430501));
#669=CARTESIAN_POINT('',(-0.0091875,0.0636058988669414,0.0116829580430501));
#670=CARTESIAN_POINT('',(-0.0086875,0.0636058988669414,0.0116829580430501));
#671=CARTESIAN_POINT('',(-0.0086875,0.0714292165296413,0.0194410808369707));
#672=CARTESIAN_POINT('',(0.00138625,0.0719700003483146,0.022144999930337));
#673=CARTESIAN_POINT('',(0.00138625,0.0719700003483146,0.022144999930337));
#674=CARTESIAN_POINT('',(-0.0086875,0.0719700003483146,0.022144999930337));
#675=CARTESIAN_POINT('',(0.004355,0.0719700003483146,0.022144999930337));
#676=CARTESIAN_POINT('',(0.004355,0.0719700003483146,0.022144999930337));
#677=CARTESIAN_POINT('',(-0.0086875,0.0719700003483146,0.022144999930337));
#678=CARTESIAN_POINT('',(0.0158125,0.0555658712380172,0.0480600795079662));
#679=CARTESIAN_POINT('',(0.004355,0.0596945103860836,0.0392260289243632));
#680=CARTESIAN_POINT('',(0.004355,0.0599059755328439,0.0387735568782112));
#681=CARTESIAN_POINT('',(-0.0091875,0.0599059755328439,0.0387735568782112));
#682=CARTESIAN_POINT('',(-0.0086875,0.0599059755328439,0.0387735568782112));
#683=CARTESIAN_POINT('',(-0.0086875,0.0555658712380172,0.0480600795079662));
#684=CARTESIAN_POINT('',(-0.00141875,0.0453925129526197,0.0259834428285536));
#685=CARTESIAN_POINT('',(-0.00141875,0.0625717833917621,0.0333700974961829));
#686=CARTESIAN_POINT('',(-0.0086875,0.062571783391762,0.0333700974961831));
#687=CARTESIAN_POINT('',(0.004355,0.062571783391762,0.0333700974961832));
#688=CARTESIAN_POINT('',(0.004355,0.0453925129526197,0.0259834428285536));
#689=CARTESIAN_POINT('',(0.004355,0.0638515429469916,0.0289758017085813));
#690=CARTESIAN_POINT('',(-0.00141875,0.0638515429469916,0.0289758017085813));
#691=CARTESIAN_POINT('',(-0.0086875,0.0638515429469916,0.0289758017085813));
#692=CARTESIAN_POINT('',(-0.0086875,0.0453925129526197,0.0259834428285536));
#693=CARTESIAN_POINT('',(-0.0091875,0.0610077003407705,0.0266284796572302));
#694=CARTESIAN_POINT('',(-0.0091875,0.0289758347549633,0.0241839515728645));
#695=CARTESIAN_POINT('',(-0.0086875,0.0289758347549633,0.0241839515728646));
#696=CARTESIAN_POINT('',(0.004355,0.0289758347549633,0.0241839515728647));
#697=CARTESIAN_POINT('',(0.004355,0.0610077003407705,0.0266284796572302));
#698=CARTESIAN_POINT('',(-0.0086875,0.0610077003407705,0.0266284796572302));
#699=CARTESIAN_POINT('',(-0.0091875,0.0367513328000082,0.02375042597877));
#700=CARTESIAN_POINT('',(-0.0091875,0.0289999990016222,0.0230000003427266));
#701=CARTESIAN_POINT('',(-0.0086875,0.0289999990016222,0.0230000003427266));
#702=CARTESIAN_POINT('',(0.004355,0.0289999990016222,0.0230000003427266));
#703=CARTESIAN_POINT('',(0.004355,0.0367513328000082,0.02375042597877));
#704=CARTESIAN_POINT('',(-0.0086875,0.0367513328000082,0.02375042597877));
#705=CARTESIAN_POINT('',(-0.00141875,0.0719700003483146,0.022144999930337));
#706=CARTESIAN_POINT('',(0.004355,0.0719700003483146,0.022144999930337));
#707=CARTESIAN_POINT('',(0.004355,0.0703190836302128,0.0221263695405709));
#708=CARTESIAN_POINT('',(-0.0086875,0.0719700003483146,0.022144999930337));
#709=CARTESIAN_POINT('',(-0.0086875,0.0703190836302129,0.0221263695405709));
#710=CARTESIAN_POINT('',(-0.00141875,0.0703190836302128,0.0221263695405709));
#711=CARTESIAN_POINT('',(-0.0091875,0.0363207882671374,0.0502572580617362));
#712=CARTESIAN_POINT('',(-0.0091875,0.0409601323532255,0.0413985625341272));
#713=CARTESIAN_POINT('',(-0.0086875,0.0409601323532255,0.0413985625341272));
#714=CARTESIAN_POINT('',(0.004355,0.0409601323532255,0.0413985625341272));
#715=CARTESIAN_POINT('',(0.004355,0.0363207882671374,0.0502572580617362));
#716=CARTESIAN_POINT('',(0.004355,0.0460147691844332,0.0527121987891477));
#717=CARTESIAN_POINT('',(-0.0091875,0.0460147691844333,0.0527121987891477));
#718=CARTESIAN_POINT('',(-0.0086875,0.0460147691844332,0.0527121987891478));
#719=CARTESIAN_POINT('',(-0.0086875,0.0363207882671374,0.0502572580617362));
#720=CARTESIAN_POINT('',(-0.0091875,0.0445122708176565,0.0586452098525792));
#721=CARTESIAN_POINT('',(0.004355,0.0445122708176565,0.0586452098525792));
#722=CARTESIAN_POINT('',(-0.0086875,0.0460147691844332,0.0527121987891477));
#723=CARTESIAN_POINT('',(-0.0091875,0.048595,0.02682));
#724=CARTESIAN_POINT('',(0.004355,0.048595,0.02682));
#725=CARTESIAN_POINT('',(-0.0086875,0.048595,0.02682));
#726=CARTESIAN_POINT('',(-0.00141875,0.0631653858843903,0.033208513862175));
#727=CARTESIAN_POINT('',(0.004355,0.0646765457121992,0.023886589017533));
#728=CARTESIAN_POINT('',(0.004355,0.0646765457121992,0.023886589017533));
#729=CARTESIAN_POINT('',(-0.00141875,0.0646765457121992,0.023886589017533));
#730=CARTESIAN_POINT('',(-0.0086875,0.0646765457121992,0.023886589017533));
#731=CARTESIAN_POINT('',(-0.0086875,0.0638515429469916,0.0289758017085813));
#732=CARTESIAN_POINT('',(-0.00141875,0.067445400211355,0.0243354428495371));
#733=CARTESIAN_POINT('',(0.004355,0.067445400211355,0.0243354428495371));
#734=CARTESIAN_POINT('',(0.004355,0.0685428140313406,0.0217540269768609));
#735=CARTESIAN_POINT('',(-0.00141875,0.0685428140313406,0.0217540269768609));
#736=CARTESIAN_POINT('',(-0.0086875,0.0685428140313406,0.0217540269768609));
#737=CARTESIAN_POINT('',(-0.0086875,0.067445400211355,0.0243354428495371));
#738=CARTESIAN_POINT('',(-0.00141875,0.0703718370646498,0.0174516671890671));
#739=CARTESIAN_POINT('',(0.004355,0.0703718370646498,0.0174516671890671));
#740=CARTESIAN_POINT('',(-0.0086875,0.0703718370646498,0.0174516671890671));
#741=CARTESIAN_POINT('',(-0.0091875,0.0559277687797143,0.0468371832689629));
#742=CARTESIAN_POINT('',(0.004355,0.0625717833917621,0.0333700974961829));
#743=CARTESIAN_POINT('',(-0.0086875,0.0599059755328438,0.0387735568782112));
#744=CARTESIAN_POINT('',(-0.0091875,0.0492023776438314,0.0262075182985453));
#745=CARTESIAN_POINT('',(0.004355,0.0492023776438314,0.0262075182985453));
#746=CARTESIAN_POINT('',(-0.0086875,0.0492023776438314,0.0262075182985453));
#747=CARTESIAN_POINT('',(-0.0086875,0.0484401194116263,0.0339662311990667));
#748=CARTESIAN_POINT('',(-0.0086875,0.048595,0.02682));
#749=CARTESIAN_POINT('',(-0.0086875,0.036945,0.02682));
#750=CARTESIAN_POINT('',(-0.0086895,0.048595,0.02682));
#751=CARTESIAN_POINT('',(0.004355,0.048595,0.02682));
#752=CARTESIAN_POINT('',(0.004355,0.060245,0.02682));
#753=CARTESIAN_POINT('',(0.004355,0.0484401194116263,0.0339662311990667));
#754=MECHANICAL_DESIGN_GEOMETRIC_PRESENTATION_REPRESENTATION('',(#445),
#755);
#755=(
GEOMETRIC_REPRESENTATION_CONTEXT(3)
GLOBAL_UNCERTAINTY_ASSIGNED_CONTEXT((#756))
GLOBAL_UNIT_ASSIGNED_CONTEXT((#759,#758,#757))
REPRESENTATION_CONTEXT('D.E.S Style Blade MK2 (Mineee)',
'TOP_LEVEL_ASSEMBLY_PART')
);
#756=UNCERTAINTY_MEASURE_WITH_UNIT(LENGTH_MEASURE(1.E-8),#759,
'DISTANCE_ACCURACY_VALUE','Maximum Tolerance applied to model');
#757=(
NAMED_UNIT(*)
SI_UNIT($,.STERADIAN.)
SOLID_ANGLE_UNIT()
);
#758=(
NAMED_UNIT(*)
PLANE_ANGLE_UNIT()
SI_UNIT($,.RADIAN.)
);
#759=(
LENGTH_UNIT()
NAMED_UNIT(*)
SI_UNIT($,.METRE.)
);
#760=PRODUCT_DEFINITION_SHAPE('','',#761);
#761=PRODUCT_DEFINITION('','',#763,#762);
#762=PRODUCT_DEFINITION_CONTEXT('',#769,'design');
#763=PRODUCT_DEFINITION_FORMATION_WITH_SPECIFIED_SOURCE('','',#765,
 .NOT_KNOWN.);
#764=PRODUCT_RELATED_PRODUCT_CATEGORY('','',(#765));
#765=PRODUCT('D.E.S Style Blade MK2 (Mineee)',
'D.E.S Style Blade MK2 (Mineee)','D.E.S Style Blade MK2 (Mineee)',(#767));
#766=PRODUCT_CATEGORY('','');
#767=PRODUCT_CONTEXT('',#769,'mechanical');
#768=APPLICATION_PROTOCOL_DEFINITION('international standard',
'ap242_managed_model_based_3d_engineering',2020,#769);
#769=APPLICATION_CONTEXT('managed model based 3d engineering');
ENDSEC;
END-ISO-10303-21;
