ISO-10303-21;
HEADER;
/* Generated by software containing ST-Developer
 * from STEP Tools, Inc. (www.steptools.com) 
 */
/* OPTION: using custom renumber hook */

FILE_DESCRIPTION(
/* description */ ('STEP AP242 Edition 2',
'CAx-IF Rec.Pracs.---Representation and Presentation of Product Manufa
cturing Information (PMI)---4.0---2014-10-13',
'CAx-IF Rec.Pracs.---3D Tessellated Geometry---0.4---2014-09-14','2;1',
'CAx-IF Rec.Pracs.---User Defined Attributes---1.5---2016-08-15'),
/* implementation_level */ '2;1');

FILE_NAME(
/* name */ 
'(Cat-Aclysm) Antweight MK3 (Seperate Weapoon Struts) motor mounts V2 
- Chassis Front Floor Bumpers',
/* time_stamp */ '2026-09-09T10:22:34Z',
/* author */ (''),
/* organization */ (''),
/* preprocessor_version */ 'ST-DEVELOPER v20',
/* originating_system */ 'ONSHAPE BY PTC INC, 1.220',
/* authorisation */ '  ');

FILE_SCHEMA (('AP242_MANAGED_MODEL_BASED_3D_ENGINEERING_MIM_LF { 1 0 10303 442 3 1 4 }'));
ENDSEC;

DATA;
#10=SHAPE_REPRESENTATION_RELATIONSHIP('','',#226,#11);
#11=ADVANCED_BREP_SHAPE_REPRESENTATION('',(#224),#352);
#12=ORIENTED_EDGE('',*,*,#66,.F.);
#13=ORIENTED_EDGE('',*,*,#67,.F.);
#14=ORIENTED_EDGE('',*,*,#68,.T.);
#15=ORIENTED_EDGE('',*,*,#69,.T.);
#16=ORIENTED_EDGE('',*,*,#70,.F.);
#17=ORIENTED_EDGE('',*,*,#71,.T.);
#18=ORIENTED_EDGE('',*,*,#72,.F.);
#19=ORIENTED_EDGE('',*,*,#73,.F.);
#20=ORIENTED_EDGE('',*,*,#74,.F.);
#21=ORIENTED_EDGE('',*,*,#75,.T.);
#22=ORIENTED_EDGE('',*,*,#72,.T.);
#23=ORIENTED_EDGE('',*,*,#76,.F.);
#24=ORIENTED_EDGE('',*,*,#77,.F.);
#25=ORIENTED_EDGE('',*,*,#70,.T.);
#26=ORIENTED_EDGE('',*,*,#78,.T.);
#27=ORIENTED_EDGE('',*,*,#79,.F.);
#28=ORIENTED_EDGE('',*,*,#80,.T.);
#29=ORIENTED_EDGE('',*,*,#71,.F.);
#30=ORIENTED_EDGE('',*,*,#80,.F.);
#31=ORIENTED_EDGE('',*,*,#81,.F.);
#32=ORIENTED_EDGE('',*,*,#76,.T.);
#33=ORIENTED_EDGE('',*,*,#82,.T.);
#34=ORIENTED_EDGE('',*,*,#83,.T.);
#35=ORIENTED_EDGE('',*,*,#74,.T.);
#36=ORIENTED_EDGE('',*,*,#82,.F.);
#37=ORIENTED_EDGE('',*,*,#73,.T.);
#38=ORIENTED_EDGE('',*,*,#77,.T.);
#39=ORIENTED_EDGE('',*,*,#81,.T.);
#40=ORIENTED_EDGE('',*,*,#79,.T.);
#41=ORIENTED_EDGE('',*,*,#84,.T.);
#42=ORIENTED_EDGE('',*,*,#75,.F.);
#43=ORIENTED_EDGE('',*,*,#83,.F.);
#44=ORIENTED_EDGE('',*,*,#84,.F.);
#45=ORIENTED_EDGE('',*,*,#78,.F.);
#46=ORIENTED_EDGE('',*,*,#66,.T.);
#47=ORIENTED_EDGE('',*,*,#85,.F.);
#48=ORIENTED_EDGE('',*,*,#86,.F.);
#49=ORIENTED_EDGE('',*,*,#87,.T.);
#50=ORIENTED_EDGE('',*,*,#67,.T.);
#51=ORIENTED_EDGE('',*,*,#87,.F.);
#52=ORIENTED_EDGE('',*,*,#88,.F.);
#53=ORIENTED_EDGE('',*,*,#89,.T.);
#54=ORIENTED_EDGE('',*,*,#68,.F.);
#55=ORIENTED_EDGE('',*,*,#89,.F.);
#56=ORIENTED_EDGE('',*,*,#90,.T.);
#57=ORIENTED_EDGE('',*,*,#91,.T.);
#58=ORIENTED_EDGE('',*,*,#69,.F.);
#59=ORIENTED_EDGE('',*,*,#91,.F.);
#60=ORIENTED_EDGE('',*,*,#92,.T.);
#61=ORIENTED_EDGE('',*,*,#85,.T.);
#62=ORIENTED_EDGE('',*,*,#86,.T.);
#63=ORIENTED_EDGE('',*,*,#92,.F.);
#64=ORIENTED_EDGE('',*,*,#90,.F.);
#65=ORIENTED_EDGE('',*,*,#88,.T.);
#66=EDGE_CURVE('',#93,#94,#111,.T.);
#67=EDGE_CURVE('',#95,#93,#112,.T.);
#68=EDGE_CURVE('',#95,#96,#113,.T.);
#69=EDGE_CURVE('',#96,#94,#114,.T.);
#70=EDGE_CURVE('',#97,#98,#115,.T.);
#71=EDGE_CURVE('',#97,#99,#116,.T.);
#72=EDGE_CURVE('',#100,#99,#117,.T.);
#73=EDGE_CURVE('',#101,#100,#118,.T.);
#74=EDGE_CURVE('',#102,#101,#119,.T.);
#75=EDGE_CURVE('',#102,#98,#120,.T.);
#76=EDGE_CURVE('',#103,#99,#121,.T.);
#77=EDGE_CURVE('',#100,#103,#122,.T.);
#78=EDGE_CURVE('',#98,#104,#123,.T.);
#79=EDGE_CURVE('',#105,#104,#124,.T.);
#80=EDGE_CURVE('',#105,#97,#125,.T.);
#81=EDGE_CURVE('',#103,#105,#126,.T.);
#82=EDGE_CURVE('',#101,#106,#127,.T.);
#83=EDGE_CURVE('',#106,#102,#128,.T.);
#84=EDGE_CURVE('',#104,#106,#129,.T.);
#85=EDGE_CURVE('',#107,#94,#130,.T.);
#86=EDGE_CURVE('',#108,#107,#131,.T.);
#87=EDGE_CURVE('',#108,#93,#132,.T.);
#88=EDGE_CURVE('',#109,#108,#133,.T.);
#89=EDGE_CURVE('',#109,#95,#134,.T.);
#90=EDGE_CURVE('',#109,#110,#135,.T.);
#91=EDGE_CURVE('',#110,#96,#136,.T.);
#92=EDGE_CURVE('',#110,#107,#137,.T.);
#93=VERTEX_POINT('',#296);
#94=VERTEX_POINT('',#297);
#95=VERTEX_POINT('',#299);
#96=VERTEX_POINT('',#301);
#97=VERTEX_POINT('',#304);
#98=VERTEX_POINT('',#305);
#99=VERTEX_POINT('',#307);
#100=VERTEX_POINT('',#309);
#101=VERTEX_POINT('',#311);
#102=VERTEX_POINT('',#313);
#103=VERTEX_POINT('',#317);
#104=VERTEX_POINT('',#321);
#105=VERTEX_POINT('',#323);
#106=VERTEX_POINT('',#329);
#107=VERTEX_POINT('',#336);
#108=VERTEX_POINT('',#338);
#109=VERTEX_POINT('',#342);
#110=VERTEX_POINT('',#346);
#111=LINE('',#295,#138);
#112=LINE('',#298,#139);
#113=LINE('',#300,#140);
#114=LINE('',#302,#141);
#115=LINE('',#303,#142);
#116=LINE('',#306,#143);
#117=LINE('',#308,#144);
#118=LINE('',#310,#145);
#119=LINE('',#312,#146);
#120=LINE('',#314,#147);
#121=LINE('',#316,#148);
#122=LINE('',#318,#149);
#123=LINE('',#320,#150);
#124=LINE('',#322,#151);
#125=LINE('',#324,#152);
#126=LINE('',#326,#153);
#127=LINE('',#328,#154);
#128=LINE('',#330,#155);
#129=LINE('',#332,#156);
#130=LINE('',#335,#157);
#131=LINE('',#337,#158);
#132=LINE('',#339,#159);
#133=LINE('',#341,#160);
#134=LINE('',#343,#161);
#135=LINE('',#345,#162);
#136=LINE('',#347,#163);
#137=LINE('',#349,#164);
#138=VECTOR('',#244,1.);
#139=VECTOR('',#245,1.);
#140=VECTOR('',#246,1.);
#141=VECTOR('',#247,1.);
#142=VECTOR('',#248,1.);
#143=VECTOR('',#249,1.);
#144=VECTOR('',#250,1.);
#145=VECTOR('',#251,1.);
#146=VECTOR('',#252,1.);
#147=VECTOR('',#253,1.);
#148=VECTOR('',#256,1.);
#149=VECTOR('',#257,1.);
#150=VECTOR('',#260,1.);
#151=VECTOR('',#261,1.);
#152=VECTOR('',#262,1.);
#153=VECTOR('',#265,1.);
#154=VECTOR('',#268,1.);
#155=VECTOR('',#269,1.);
#156=VECTOR('',#272,1.);
#157=VECTOR('',#277,1.);
#158=VECTOR('',#278,1.);
#159=VECTOR('',#279,1.);
#160=VECTOR('',#282,1.);
#161=VECTOR('',#283,1.);
#162=VECTOR('',#286,1.);
#163=VECTOR('',#287,1.);
#164=VECTOR('',#290,1.);
#165=EDGE_LOOP('',(#12,#13,#14,#15));
#166=EDGE_LOOP('',(#16,#17,#18,#19,#20,#21));
#167=EDGE_LOOP('',(#22,#23,#24));
#168=EDGE_LOOP('',(#25,#26,#27,#28));
#169=EDGE_LOOP('',(#29,#30,#31,#32));
#170=EDGE_LOOP('',(#33,#34,#35));
#171=EDGE_LOOP('',(#36,#37,#38,#39,#40,#41));
#172=EDGE_LOOP('',(#42,#43,#44,#45));
#173=EDGE_LOOP('',(#46,#47,#48,#49));
#174=EDGE_LOOP('',(#50,#51,#52,#53));
#175=EDGE_LOOP('',(#54,#55,#56,#57));
#176=EDGE_LOOP('',(#58,#59,#60,#61));
#177=EDGE_LOOP('',(#62,#63,#64,#65));
#178=FACE_BOUND('',#165,.T.);
#179=FACE_BOUND('',#166,.T.);
#180=FACE_BOUND('',#167,.T.);
#181=FACE_BOUND('',#168,.T.);
#182=FACE_BOUND('',#169,.T.);
#183=FACE_BOUND('',#170,.T.);
#184=FACE_BOUND('',#171,.T.);
#185=FACE_BOUND('',#172,.T.);
#186=FACE_BOUND('',#173,.T.);
#187=FACE_BOUND('',#174,.T.);
#188=FACE_BOUND('',#175,.T.);
#189=FACE_BOUND('',#176,.T.);
#190=FACE_BOUND('',#177,.T.);
#191=PLANE('',#228);
#192=PLANE('',#229);
#193=PLANE('',#230);
#194=PLANE('',#231);
#195=PLANE('',#232);
#196=PLANE('',#233);
#197=PLANE('',#234);
#198=PLANE('',#235);
#199=PLANE('',#236);
#200=PLANE('',#237);
#201=PLANE('',#238);
#202=PLANE('',#239);
#203=ADVANCED_FACE('',(#178,#179),#191,.T.);
#204=ADVANCED_FACE('',(#180),#192,.F.);
#205=ADVANCED_FACE('',(#181),#193,.F.);
#206=ADVANCED_FACE('',(#182),#194,.F.);
#207=ADVANCED_FACE('',(#183),#195,.T.);
#208=ADVANCED_FACE('',(#184),#196,.F.);
#209=ADVANCED_FACE('',(#185),#197,.F.);
#210=ADVANCED_FACE('',(#186),#198,.F.);
#211=ADVANCED_FACE('',(#187),#199,.F.);
#212=ADVANCED_FACE('',(#188),#200,.T.);
#213=ADVANCED_FACE('',(#189),#201,.T.);
#214=ADVANCED_FACE('',(#190),#202,.F.);
#215=CLOSED_SHELL('',(#203,#204,#205,#206,#207,#208,#209,#210,#211,#212,
#213,#214));
#216=STYLED_ITEM('',(#217),#224);
#217=PRESENTATION_STYLE_ASSIGNMENT((#218));
#218=SURFACE_STYLE_USAGE(.BOTH.,#219);
#219=SURFACE_SIDE_STYLE('',(#220));
#220=SURFACE_STYLE_FILL_AREA(#221);
#221=FILL_AREA_STYLE('',(#222));
#222=FILL_AREA_STYLE_COLOUR('',#223);
#223=COLOUR_RGB('',0.647058823529412,0.647058823529412,0.647058823529412);
#224=MANIFOLD_SOLID_BREP('Chassis Front Floor Bumpers',#215);
#225=SHAPE_DEFINITION_REPRESENTATION(#357,#226);
#226=SHAPE_REPRESENTATION('Chassis Front Floor Bumpers',(#227),#352);
#227=AXIS2_PLACEMENT_3D('',#293,#240,#241);
#228=AXIS2_PLACEMENT_3D('',#294,#242,#243);
#229=AXIS2_PLACEMENT_3D('',#315,#254,#255);
#230=AXIS2_PLACEMENT_3D('',#319,#258,#259);
#231=AXIS2_PLACEMENT_3D('',#325,#263,#264);
#232=AXIS2_PLACEMENT_3D('',#327,#266,#267);
#233=AXIS2_PLACEMENT_3D('',#331,#270,#271);
#234=AXIS2_PLACEMENT_3D('',#333,#273,#274);
#235=AXIS2_PLACEMENT_3D('',#334,#275,#276);
#236=AXIS2_PLACEMENT_3D('',#340,#280,#281);
#237=AXIS2_PLACEMENT_3D('',#344,#284,#285);
#238=AXIS2_PLACEMENT_3D('',#348,#288,#289);
#239=AXIS2_PLACEMENT_3D('',#350,#291,#292);
#240=DIRECTION('',(0.,0.,1.));
#241=DIRECTION('',(1.,0.,0.));
#242=DIRECTION('',(0.,0.,1.));
#243=DIRECTION('',(1.,0.,0.));
#244=DIRECTION('',(0.,-1.,0.));
#245=DIRECTION('',(-1.,0.,0.));
#246=DIRECTION('',(0.,-1.,0.));
#247=DIRECTION('',(-1.,0.,0.));
#248=DIRECTION('',(-1.,0.,0.));
#249=DIRECTION('',(-0.0854011413464361,0.996346649041751,0.));
#250=DIRECTION('',(0.424147567370151,-0.905593088033463,0.));
#251=DIRECTION('',(1.,0.,0.));
#252=DIRECTION('',(0.722363623797373,0.691513409135591,0.));
#253=DIRECTION('',(-0.514495755427526,-0.857492925712544,0.));
#254=DIRECTION('',(-0.905593088033463,-0.424147567370151,0.));
#255=DIRECTION('',(0.424147567370151,-0.905593088033463,0.));
#256=DIRECTION('',(0.,0.,1.));
#257=DIRECTION('',(0.423020949149019,-0.903187657111777,-0.0728377142832079));
#258=DIRECTION('',(0.,0.15065401430631,0.988586550572783));
#259=DIRECTION('',(0.,-0.988586550572783,0.15065401430631));
#260=DIRECTION('',(0.510158391333619,0.850263985556032,-0.129574575508721));
#261=DIRECTION('',(-1.,0.,0.));
#262=DIRECTION('',(0.0844334083528382,-0.98505643078311,0.150116047532446));
#263=DIRECTION('',(-0.996346649041751,-0.085401141346436,0.));
#264=DIRECTION('',(0.0854011413464361,-0.996346649041751,0.));
#265=DIRECTION('',(0.0851267853142541,-0.993145828666294,-0.0800924055376045));
#266=DIRECTION('',(-0.691513409135591,0.722363623797373,0.));
#267=DIRECTION('',(-0.722363623797373,-0.691513409135591,0.));
#268=DIRECTION('',(-0.721242968188762,-0.690440613725014,-0.0556806946552431));
#269=DIRECTION('',(0.,0.,1.));
#270=DIRECTION('',(0.,-0.0803841899203102,0.996763955011845));
#271=DIRECTION('',(0.,-0.996763955011845,-0.0803841899203102));
#272=DIRECTION('',(0.513269967614849,0.855449946024749,0.0689878988729637));
#273=DIRECTION('',(0.857492925712544,-0.514495755427526,0.));
#274=DIRECTION('',(-0.514495755427526,-0.857492925712544,0.));
#275=DIRECTION('',(1.,0.,0.));
#276=DIRECTION('',(0.,0.,-1.));
#277=DIRECTION('',(0.,0.,-1.));
#278=DIRECTION('',(0.,-1.,0.));
#279=DIRECTION('',(0.,0.,-1.));
#280=DIRECTION('',(0.,-1.,0.));
#281=DIRECTION('',(0.,0.,-1.));
#282=DIRECTION('',(-1.,0.,0.));
#283=DIRECTION('',(0.,0.,-1.));
#284=DIRECTION('',(1.,0.,0.));
#285=DIRECTION('',(0.,0.,-1.));
#286=DIRECTION('',(0.,-1.,0.));
#287=DIRECTION('',(0.,0.,-1.));
#288=DIRECTION('',(0.,-1.,0.));
#289=DIRECTION('',(0.,0.,-1.));
#290=DIRECTION('',(-1.,0.,0.));
#291=DIRECTION('',(0.,0.,-1.));
#292=DIRECTION('',(1.,0.,0.));
#293=CARTESIAN_POINT('',(0.,0.,0.));
#294=CARTESIAN_POINT('',(0.,0.0275,-0.008));
#295=CARTESIAN_POINT('',(0.0246662033440284,0.0606963463378882,-0.008));
#296=CARTESIAN_POINT('',(0.0246662033440284,0.0635463463378882,-0.008));
#297=CARTESIAN_POINT('',(0.0246662033440284,0.0597463463378882,-0.008));
#298=CARTESIAN_POINT('',(0.0265662033440284,0.0635463463378882,-0.008));
#299=CARTESIAN_POINT('',(0.0284662033440284,0.0635463463378882,-0.008));
#300=CARTESIAN_POINT('',(0.0284662033440284,0.0606963463378882,-0.008));
#301=CARTESIAN_POINT('',(0.0284662033440284,0.0597463463378882,-0.008));
#302=CARTESIAN_POINT('',(0.0265662033440284,0.0597463463378882,-0.008));
#303=CARTESIAN_POINT('',(0.0391065425067076,0.0504470040884115,-0.008));
#304=CARTESIAN_POINT('',(0.0391045425067076,0.0504470040884115,-0.008));
#305=CARTESIAN_POINT('',(0.00826820245304689,0.0504470040884115,-0.008));
#306=CARTESIAN_POINT('',(0.0385,0.0575,-0.008));
#307=CARTESIAN_POINT('',(0.0375884573348517,0.0681346644267301,-0.008));
#308=CARTESIAN_POINT('',(0.0353280119742974,0.0729609179570463,-0.008));
#309=CARTESIAN_POINT('',(0.0343729785275813,0.075,-0.008));
#310=CARTESIAN_POINT('',(0.031,0.075,-0.008));
#311=CARTESIAN_POINT('',(0.0259821533828104,0.075,-0.008));
#312=CARTESIAN_POINT('',(0.0427570533800954,0.0910584889699333,-0.008));
#313=CARTESIAN_POINT('',(0.0189756156054658,0.0682926926757764,-0.008));
#314=CARTESIAN_POINT('',(0.017,0.065,-0.008));
#315=CARTESIAN_POINT('',(0.0353280119742974,0.0729609179570463,-0.033));
#316=CARTESIAN_POINT('',(0.0375884573348517,0.0681346644267301,-0.033));
#317=CARTESIAN_POINT('',(0.0375884573348517,0.0681346644267301,-0.00855365609461854));
#318=CARTESIAN_POINT('',(0.0383072575169981,0.0665999615857707,-0.00867742245276043));
#319=CARTESIAN_POINT('',(0.0391065425067076,0.0546954013185967,-0.0086474274778717));
#320=CARTESIAN_POINT('',(0.0139884655265329,0.0599807758775549,-0.00945288340275571));
#321=CARTESIAN_POINT('',(0.0133662791292692,0.058943798548782,-0.00929485495574339));
#322=CARTESIAN_POINT('',(0.0391065425067076,0.058943798548782,-0.00929485495574339));
#323=CARTESIAN_POINT('',(0.0383762458386758,0.058943798548782,-0.00929485495574339));
#324=CARTESIAN_POINT('',(0.0387430044443283,0.0546649481495039,-0.00864278661747406));
#325=CARTESIAN_POINT('',(0.0385,0.0575,-0.008));
#326=CARTESIAN_POINT('',(0.0376984015955685,0.0668519813850342,-0.00865709827540047));
#327=CARTESIAN_POINT('',(0.0427570533800954,0.0910584889699333,-0.033));
#328=CARTESIAN_POINT('',(0.0287855507744082,0.0776836718012387,-0.00778357485473881));
#329=CARTESIAN_POINT('',(0.0189756156054658,0.0682926926757763,-0.00854091188098578));
#330=CARTESIAN_POINT('',(0.0189756156054658,0.0682926926757763,-0.033));
#331=CARTESIAN_POINT('',(0.0391065425067076,0.066971899274391,-0.00864742747787169));
#332=CARTESIAN_POINT('',(0.0194526493583607,0.0690877489306011,-0.00847679444108056));
#333=CARTESIAN_POINT('',(0.017,0.065,-0.008));
#334=CARTESIAN_POINT('',(0.0246662033440284,0.0606963463378882,-0.0067));
#335=CARTESIAN_POINT('',(0.0246662033440284,0.0597463463378882,-0.0067));
#336=CARTESIAN_POINT('',(0.0246662033440284,0.0597463463378882,-0.0067));
#337=CARTESIAN_POINT('',(0.0246662033440284,0.0606963463378882,-0.0067));
#338=CARTESIAN_POINT('',(0.0246662033440284,0.0635463463378882,-0.0067));
#339=CARTESIAN_POINT('',(0.0246662033440284,0.0635463463378882,-0.0067));
#340=CARTESIAN_POINT('',(0.0265662033440284,0.0635463463378882,-0.0067));
#341=CARTESIAN_POINT('',(0.0265662033440284,0.0635463463378882,-0.0067));
#342=CARTESIAN_POINT('',(0.0284662033440284,0.0635463463378882,-0.0067));
#343=CARTESIAN_POINT('',(0.0284662033440284,0.0635463463378882,-0.0067));
#344=CARTESIAN_POINT('',(0.0284662033440284,0.0606963463378882,-0.0067));
#345=CARTESIAN_POINT('',(0.0284662033440284,0.0606963463378882,-0.0067));
#346=CARTESIAN_POINT('',(0.0284662033440284,0.0597463463378882,-0.0067));
#347=CARTESIAN_POINT('',(0.0284662033440284,0.0597463463378882,-0.0067));
#348=CARTESIAN_POINT('',(0.0265662033440284,0.0597463463378882,-0.0067));
#349=CARTESIAN_POINT('',(0.0265662033440284,0.0597463463378882,-0.0067));
#350=CARTESIAN_POINT('',(6.93889390390723E-18,0.0305885170215877,-0.0067));
#351=MECHANICAL_DESIGN_GEOMETRIC_PRESENTATION_REPRESENTATION('',(#216),
#352);
#352=(
GEOMETRIC_REPRESENTATION_CONTEXT(3)
GLOBAL_UNCERTAINTY_ASSIGNED_CONTEXT((#353))
GLOBAL_UNIT_ASSIGNED_CONTEXT((#356,#355,#354))
REPRESENTATION_CONTEXT('Chassis Front Floor Bumpers',
'TOP_LEVEL_ASSEMBLY_PART')
);
#353=UNCERTAINTY_MEASURE_WITH_UNIT(LENGTH_MEASURE(1.E-8),#356,
'DISTANCE_ACCURACY_VALUE','Maximum Tolerance applied to model');
#354=(
NAMED_UNIT(*)
SI_UNIT($,.STERADIAN.)
SOLID_ANGLE_UNIT()
);
#355=(
NAMED_UNIT(*)
PLANE_ANGLE_UNIT()
SI_UNIT($,.RADIAN.)
);
#356=(
LENGTH_UNIT()
NAMED_UNIT(*)
SI_UNIT($,.METRE.)
);
#357=PRODUCT_DEFINITION_SHAPE('','',#358);
#358=PRODUCT_DEFINITION('','',#360,#359);
#359=PRODUCT_DEFINITION_CONTEXT('',#366,'design');
#360=PRODUCT_DEFINITION_FORMATION_WITH_SPECIFIED_SOURCE('','',#362,
 .NOT_KNOWN.);
#361=PRODUCT_RELATED_PRODUCT_CATEGORY('','',(#362));
#362=PRODUCT('Chassis Front Floor Bumpers',
'Chassis Front Floor Bumpers','Chassis Front Floor Bumpers',(#364));
#363=PRODUCT_CATEGORY('','');
#364=PRODUCT_CONTEXT('',#366,'mechanical');
#365=APPLICATION_PROTOCOL_DEFINITION('international standard',
'ap242_managed_model_based_3d_engineering',2020,#366);
#366=APPLICATION_CONTEXT('managed model based 3d engineering');
ENDSEC;
END-ISO-10303-21;
