ISO-10303-21;
HEADER;
/* Generated by software containing ST-Developer
 * from STEP Tools, Inc. (www.steptools.com) 
 */
/* OPTION: using custom renumber hook */

FILE_DESCRIPTION(
/* description */ ('STEP AP242 Edition 2',
'CAx-IF Rec.Pracs.---Representation and Presentation of Product Manufa
cturing Information (PMI)---4.0---2014-10-13',
'CAx-IF Rec.Pracs.---3D Tessellated Geometry---0.4---2014-09-14','2;1',
'CAx-IF Rec.Pracs.---User Defined Attributes---1.5---2016-08-15'),
/* implementation_level */ '2;1');

FILE_NAME(
/* name */ 
'(Cat-Aclysm) Antweight MK3 (Seperate Weapoon Struts) motor mounts V2 
- Right Weapon Strut',
/* time_stamp */ '2026-09-10T06:53:29Z',
/* author */ (''),
/* organization */ (''),
/* preprocessor_version */ 'ST-DEVELOPER v20',
/* originating_system */ 'ONSHAPE BY PTC INC, 1.220',
/* authorisation */ '  ');

FILE_SCHEMA (('AP242_MANAGED_MODEL_BASED_3D_ENGINEERING_MIM_LF { 1 0 10303 442 3 1 4 }'));
ENDSEC;

DATA;
#10=SHAPE_REPRESENTATION_RELATIONSHIP('','',#1189,#11);
#11=ADVANCED_BREP_SHAPE_REPRESENTATION('',(#1187),#1953);
#12=CONICAL_SURFACE('',#1256,0.008,0.982793723247329);
#13=CONICAL_SURFACE('',#1276,0.008,0.982793723247328);
#14=CONICAL_SURFACE('',#1286,0.0014,0.576375220591184);
#15=CONICAL_SURFACE('',#1287,0.0014,0.576375220591185);
#16=B_SPLINE_CURVE_WITH_KNOTS('',3,(#1730,#1731,#1732,#1733,#1734),
 .UNSPECIFIED.,.F.,.F.,(4,1,4),(9.94056518513952E-7,0.00289524114815369,
0.00578948823978886),.UNSPECIFIED.);
#17=CYLINDRICAL_SURFACE('',#1198,0.005);
#18=CYLINDRICAL_SURFACE('',#1205,0.002);
#19=CYLINDRICAL_SURFACE('',#1215,0.0205586579649686);
#20=CYLINDRICAL_SURFACE('',#1224,0.002);
#21=CYLINDRICAL_SURFACE('',#1227,0.002);
#22=CYLINDRICAL_SURFACE('',#1252,0.002);
#23=CYLINDRICAL_SURFACE('',#1263,0.02);
#24=CYLINDRICAL_SURFACE('',#1272,0.005);
#25=CYLINDRICAL_SURFACE('',#1277,0.00656);
#26=CYLINDRICAL_SURFACE('',#1282,0.0014);
#27=CYLINDRICAL_SURFACE('',#1284,0.0014);
#28=CYLINDRICAL_SURFACE('',#1288,0.001);
#29=CYLINDRICAL_SURFACE('',#1289,0.001);
#30=ELLIPSE('',#1197,0.00214408662092195,0.002);
#31=ELLIPSE('',#1206,0.00554940066591565,0.002);
#32=ELLIPSE('',#1225,0.00216478440058479,0.002);
#33=ELLIPSE('',#1226,0.00202376768051274,0.002);
#34=ELLIPSE('',#1228,0.00244131112314674,0.002);
#35=ELLIPSE('',#1229,0.00216478440058479,0.002);
#36=ELLIPSE('',#1242,0.00122065556157337,0.001);
#37=ELLIPSE('',#1247,0.00122065556157337,0.001);
#38=ELLIPSE('',#1253,0.00282842712474619,0.002);
#39=ELLIPSE('',#1254,0.0021097895935556,0.002);
#40=LINE('',#1623,#167);
#41=LINE('',#1626,#168);
#42=LINE('',#1628,#169);
#43=LINE('',#1630,#170);
#44=LINE('',#1632,#171);
#45=LINE('',#1638,#172);
#46=LINE('',#1640,#173);
#47=LINE('',#1642,#174);
#48=LINE('',#1644,#175);
#49=LINE('',#1646,#176);
#50=LINE('',#1650,#177);
#51=LINE('',#1652,#178);
#52=LINE('',#1654,#179);
#53=LINE('',#1658,#180);
#54=LINE('',#1662,#181);
#55=LINE('',#1664,#182);
#56=LINE('',#1666,#183);
#57=LINE('',#1668,#184);
#58=LINE('',#1670,#185);
#59=LINE('',#1672,#186);
#60=LINE('',#1674,#187);
#61=LINE('',#1676,#188);
#62=LINE('',#1678,#189);
#63=LINE('',#1680,#190);
#64=LINE('',#1682,#191);
#65=LINE('',#1686,#192);
#66=LINE('',#1688,#193);
#67=LINE('',#1690,#194);
#68=LINE('',#1692,#195);
#69=LINE('',#1694,#196);
#70=LINE('',#1696,#197);
#71=LINE('',#1704,#198);
#72=LINE('',#1708,#199);
#73=LINE('',#1710,#200);
#74=LINE('',#1712,#201);
#75=LINE('',#1714,#202);
#76=LINE('',#1716,#203);
#77=LINE('',#1718,#204);
#78=LINE('',#1720,#205);
#79=LINE('',#1722,#206);
#80=LINE('',#1726,#207);
#81=LINE('',#1736,#208);
#82=LINE('',#1739,#209);
#83=LINE('',#1741,#210);
#84=LINE('',#1743,#211);
#85=LINE('',#1745,#212);
#86=LINE('',#1747,#213);
#87=LINE('',#1749,#214);
#88=LINE('',#1751,#215);
#89=LINE('',#1753,#216);
#90=LINE('',#1755,#217);
#91=LINE('',#1757,#218);
#92=LINE('',#1759,#219);
#93=LINE('',#1760,#220);
#94=LINE('',#1762,#221);
#95=LINE('',#1764,#222);
#96=LINE('',#1766,#223);
#97=LINE('',#1768,#224);
#98=LINE('',#1773,#225);
#99=LINE('',#1775,#226);
#100=LINE('',#1777,#227);
#101=LINE('',#1779,#228);
#102=LINE('',#1786,#229);
#103=LINE('',#1790,#230);
#104=LINE('',#1792,#231);
#105=LINE('',#1794,#232);
#106=LINE('',#1796,#233);
#107=LINE('',#1798,#234);
#108=LINE('',#1800,#235);
#109=LINE('',#1802,#236);
#110=LINE('',#1804,#237);
#111=LINE('',#1806,#238);
#112=LINE('',#1808,#239);
#113=LINE('',#1810,#240);
#114=LINE('',#1811,#241);
#115=LINE('',#1814,#242);
#116=LINE('',#1816,#243);
#117=LINE('',#1821,#244);
#118=LINE('',#1823,#245);
#119=LINE('',#1825,#246);
#120=LINE('',#1829,#247);
#121=LINE('',#1831,#248);
#122=LINE('',#1833,#249);
#123=LINE('',#1835,#250);
#124=LINE('',#1837,#251);
#125=LINE('',#1839,#252);
#126=LINE('',#1842,#253);
#127=LINE('',#1844,#254);
#128=LINE('',#1846,#255);
#129=LINE('',#1848,#256);
#130=LINE('',#1850,#257);
#131=LINE('',#1852,#258);
#132=LINE('',#1854,#259);
#133=LINE('',#1856,#260);
#134=LINE('',#1859,#261);
#135=LINE('',#1861,#262);
#136=LINE('',#1863,#263);
#137=LINE('',#1865,#264);
#138=LINE('',#1867,#265);
#139=LINE('',#1869,#266);
#140=LINE('',#1872,#267);
#141=LINE('',#1874,#268);
#142=LINE('',#1876,#269);
#143=LINE('',#1879,#270);
#144=LINE('',#1880,#271);
#145=LINE('',#1885,#272);
#146=LINE('',#1887,#273);
#147=LINE('',#1889,#274);
#148=LINE('',#1891,#275);
#149=LINE('',#1895,#276);
#150=LINE('',#1899,#277);
#151=LINE('',#1901,#278);
#152=LINE('',#1902,#279);
#153=LINE('',#1904,#280);
#154=LINE('',#1906,#281);
#155=LINE('',#1907,#282);
#156=LINE('',#1909,#283);
#157=LINE('',#1911,#284);
#158=LINE('',#1913,#285);
#159=LINE('',#1915,#286);
#160=LINE('',#1917,#287);
#161=LINE('',#1919,#288);
#162=LINE('',#1921,#289);
#163=LINE('',#1923,#290);
#164=LINE('',#1925,#291);
#165=LINE('',#1927,#292);
#166=LINE('',#1929,#293);
#167=VECTOR('',#1298,1.);
#168=VECTOR('',#1299,1.);
#169=VECTOR('',#1300,1.);
#170=VECTOR('',#1301,1.);
#171=VECTOR('',#1302,1.);
#172=VECTOR('',#1307,1.);
#173=VECTOR('',#1310,1.);
#174=VECTOR('',#1311,1.);
#175=VECTOR('',#1312,1.);
#176=VECTOR('',#1313,1.);
#177=VECTOR('',#1316,1.);
#178=VECTOR('',#1319,1.);
#179=VECTOR('',#1320,1.);
#180=VECTOR('',#1323,1.);
#181=VECTOR('',#1328,1.);
#182=VECTOR('',#1329,1.);
#183=VECTOR('',#1332,1.);
#184=VECTOR('',#1333,1.);
#185=VECTOR('',#1334,1.);
#186=VECTOR('',#1335,1.);
#187=VECTOR('',#1336,1.);
#188=VECTOR('',#1339,1.);
#189=VECTOR('',#1342,1.);
#190=VECTOR('',#1343,1.);
#191=VECTOR('',#1346,1.);
#192=VECTOR('',#1351,1.);
#193=VECTOR('',#1354,1.);
#194=VECTOR('',#1355,1.);
#195=VECTOR('',#1356,1.);
#196=VECTOR('',#1357,1.);
#197=VECTOR('',#1358,1.);
#198=VECTOR('',#1367,1.);
#199=VECTOR('',#1370,1.);
#200=VECTOR('',#1371,1.);
#201=VECTOR('',#1372,1.);
#202=VECTOR('',#1373,1.);
#203=VECTOR('',#1374,1.);
#204=VECTOR('',#1375,1.);
#205=VECTOR('',#1376,1.);
#206=VECTOR('',#1377,1.);
#207=VECTOR('',#1380,1.);
#208=VECTOR('',#1387,1.);
#209=VECTOR('',#1388,1.);
#210=VECTOR('',#1389,1.);
#211=VECTOR('',#1390,1.);
#212=VECTOR('',#1391,1.);
#213=VECTOR('',#1394,1.);
#214=VECTOR('',#1395,1.);
#215=VECTOR('',#1396,1.);
#216=VECTOR('',#1399,1.);
#217=VECTOR('',#1400,1.);
#218=VECTOR('',#1401,1.);
#219=VECTOR('',#1404,1.);
#220=VECTOR('',#1405,1.);
#221=VECTOR('',#1408,1.);
#222=VECTOR('',#1409,1.);
#223=VECTOR('',#1410,1.);
#224=VECTOR('',#1413,1.);
#225=VECTOR('',#1416,1.);
#226=VECTOR('',#1417,1.);
#227=VECTOR('',#1418,1.);
#228=VECTOR('',#1419,1.);
#229=VECTOR('',#1430,1.);
#230=VECTOR('',#1433,1.);
#231=VECTOR('',#1436,1.);
#232=VECTOR('',#1437,1.);
#233=VECTOR('',#1440,1.);
#234=VECTOR('',#1441,1.);
#235=VECTOR('',#1442,1.);
#236=VECTOR('',#1443,1.);
#237=VECTOR('',#1446,1.);
#238=VECTOR('',#1447,1.);
#239=VECTOR('',#1450,1.);
#240=VECTOR('',#1451,1.);
#241=VECTOR('',#1452,1.);
#242=VECTOR('',#1457,1.);
#243=VECTOR('',#1460,1.);
#244=VECTOR('',#1465,1.);
#245=VECTOR('',#1466,1.);
#246=VECTOR('',#1467,1.);
#247=VECTOR('',#1470,1.);
#248=VECTOR('',#1471,1.);
#249=VECTOR('',#1472,1.);
#250=VECTOR('',#1475,1.);
#251=VECTOR('',#1476,1.);
#252=VECTOR('',#1477,1.);
#253=VECTOR('',#1482,1.);
#254=VECTOR('',#1483,1.);
#255=VECTOR('',#1486,1.);
#256=VECTOR('',#1487,1.);
#257=VECTOR('',#1490,1.);
#258=VECTOR('',#1491,1.);
#259=VECTOR('',#1494,1.);
#260=VECTOR('',#1495,1.);
#261=VECTOR('',#1500,1.);
#262=VECTOR('',#1501,1.);
#263=VECTOR('',#1504,1.);
#264=VECTOR('',#1505,1.);
#265=VECTOR('',#1508,1.);
#266=VECTOR('',#1511,1.);
#267=VECTOR('',#1512,1.);
#268=VECTOR('',#1513,1.);
#269=VECTOR('',#1516,1.);
#270=VECTOR('',#1517,1.);
#271=VECTOR('',#1518,1.);
#272=VECTOR('',#1527,1.);
#273=VECTOR('',#1528,1.);
#274=VECTOR('',#1529,1.);
#275=VECTOR('',#1530,1.);
#276=VECTOR('',#1535,1.);
#277=VECTOR('',#1540,1.);
#278=VECTOR('',#1541,1.);
#279=VECTOR('',#1542,1.);
#280=VECTOR('',#1545,1.);
#281=VECTOR('',#1548,1.);
#282=VECTOR('',#1549,1.);
#283=VECTOR('',#1552,1.);
#284=VECTOR('',#1555,1.);
#285=VECTOR('',#1558,1.);
#286=VECTOR('',#1561,1.);
#287=VECTOR('',#1564,1.);
#288=VECTOR('',#1567,1.);
#289=VECTOR('',#1570,1.);
#290=VECTOR('',#1573,1.);
#291=VECTOR('',#1576,1.);
#292=VECTOR('',#1579,1.);
#293=VECTOR('',#1582,1.);
#294=ORIENTED_EDGE('',*,*,#616,.F.);
#295=ORIENTED_EDGE('',*,*,#617,.F.);
#296=ORIENTED_EDGE('',*,*,#618,.T.);
#297=ORIENTED_EDGE('',*,*,#619,.T.);
#298=ORIENTED_EDGE('',*,*,#620,.F.);
#299=ORIENTED_EDGE('',*,*,#621,.T.);
#300=ORIENTED_EDGE('',*,*,#622,.T.);
#301=ORIENTED_EDGE('',*,*,#623,.F.);
#302=ORIENTED_EDGE('',*,*,#624,.F.);
#303=ORIENTED_EDGE('',*,*,#625,.T.);
#304=ORIENTED_EDGE('',*,*,#619,.F.);
#305=ORIENTED_EDGE('',*,*,#626,.T.);
#306=ORIENTED_EDGE('',*,*,#627,.F.);
#307=ORIENTED_EDGE('',*,*,#628,.F.);
#308=ORIENTED_EDGE('',*,*,#629,.F.);
#309=ORIENTED_EDGE('',*,*,#630,.T.);
#310=ORIENTED_EDGE('',*,*,#631,.F.);
#311=ORIENTED_EDGE('',*,*,#632,.F.);
#312=ORIENTED_EDGE('',*,*,#624,.T.);
#313=ORIENTED_EDGE('',*,*,#633,.F.);
#314=ORIENTED_EDGE('',*,*,#634,.F.);
#315=ORIENTED_EDGE('',*,*,#635,.F.);
#316=ORIENTED_EDGE('',*,*,#636,.F.);
#317=ORIENTED_EDGE('',*,*,#625,.F.);
#318=ORIENTED_EDGE('',*,*,#632,.T.);
#319=ORIENTED_EDGE('',*,*,#637,.T.);
#320=ORIENTED_EDGE('',*,*,#638,.F.);
#321=ORIENTED_EDGE('',*,*,#639,.F.);
#322=ORIENTED_EDGE('',*,*,#640,.F.);
#323=ORIENTED_EDGE('',*,*,#641,.F.);
#324=ORIENTED_EDGE('',*,*,#642,.T.);
#325=ORIENTED_EDGE('',*,*,#643,.T.);
#326=ORIENTED_EDGE('',*,*,#622,.F.);
#327=ORIENTED_EDGE('',*,*,#626,.F.);
#328=ORIENTED_EDGE('',*,*,#618,.F.);
#329=ORIENTED_EDGE('',*,*,#638,.T.);
#330=ORIENTED_EDGE('',*,*,#644,.F.);
#331=ORIENTED_EDGE('',*,*,#645,.F.);
#332=ORIENTED_EDGE('',*,*,#620,.T.);
#333=ORIENTED_EDGE('',*,*,#631,.T.);
#334=ORIENTED_EDGE('',*,*,#646,.T.);
#335=ORIENTED_EDGE('',*,*,#647,.F.);
#336=ORIENTED_EDGE('',*,*,#648,.T.);
#337=ORIENTED_EDGE('',*,*,#646,.F.);
#338=ORIENTED_EDGE('',*,*,#630,.F.);
#339=ORIENTED_EDGE('',*,*,#649,.F.);
#340=ORIENTED_EDGE('',*,*,#647,.T.);
#341=ORIENTED_EDGE('',*,*,#629,.T.);
#342=ORIENTED_EDGE('',*,*,#628,.T.);
#343=ORIENTED_EDGE('',*,*,#650,.F.);
#344=ORIENTED_EDGE('',*,*,#651,.T.);
#345=ORIENTED_EDGE('',*,*,#652,.F.);
#346=ORIENTED_EDGE('',*,*,#653,.F.);
#347=ORIENTED_EDGE('',*,*,#654,.T.);
#348=ORIENTED_EDGE('',*,*,#639,.T.);
#349=ORIENTED_EDGE('',*,*,#621,.F.);
#350=ORIENTED_EDGE('',*,*,#645,.T.);
#351=ORIENTED_EDGE('',*,*,#648,.F.);
#352=ORIENTED_EDGE('',*,*,#649,.T.);
#353=ORIENTED_EDGE('',*,*,#655,.T.);
#354=ORIENTED_EDGE('',*,*,#656,.T.);
#355=ORIENTED_EDGE('',*,*,#657,.F.);
#356=ORIENTED_EDGE('',*,*,#650,.T.);
#357=ORIENTED_EDGE('',*,*,#627,.T.);
#358=ORIENTED_EDGE('',*,*,#644,.T.);
#359=ORIENTED_EDGE('',*,*,#637,.F.);
#360=ORIENTED_EDGE('',*,*,#636,.T.);
#361=ORIENTED_EDGE('',*,*,#658,.T.);
#362=ORIENTED_EDGE('',*,*,#659,.T.);
#363=ORIENTED_EDGE('',*,*,#660,.T.);
#364=ORIENTED_EDGE('',*,*,#661,.T.);
#365=ORIENTED_EDGE('',*,*,#662,.F.);
#366=ORIENTED_EDGE('',*,*,#663,.F.);
#367=ORIENTED_EDGE('',*,*,#664,.F.);
#368=ORIENTED_EDGE('',*,*,#665,.F.);
#369=ORIENTED_EDGE('',*,*,#666,.F.);
#370=ORIENTED_EDGE('',*,*,#667,.T.);
#371=ORIENTED_EDGE('',*,*,#668,.T.);
#372=ORIENTED_EDGE('',*,*,#669,.T.);
#373=ORIENTED_EDGE('',*,*,#623,.T.);
#374=ORIENTED_EDGE('',*,*,#643,.F.);
#375=ORIENTED_EDGE('',*,*,#670,.F.);
#376=ORIENTED_EDGE('',*,*,#671,.F.);
#377=ORIENTED_EDGE('',*,*,#633,.T.);
#378=ORIENTED_EDGE('',*,*,#672,.F.);
#379=ORIENTED_EDGE('',*,*,#673,.T.);
#380=ORIENTED_EDGE('',*,*,#674,.T.);
#381=ORIENTED_EDGE('',*,*,#675,.T.);
#382=ORIENTED_EDGE('',*,*,#676,.T.);
#383=ORIENTED_EDGE('',*,*,#673,.F.);
#384=ORIENTED_EDGE('',*,*,#677,.F.);
#385=ORIENTED_EDGE('',*,*,#678,.T.);
#386=ORIENTED_EDGE('',*,*,#679,.T.);
#387=ORIENTED_EDGE('',*,*,#674,.F.);
#388=ORIENTED_EDGE('',*,*,#679,.F.);
#389=ORIENTED_EDGE('',*,*,#680,.F.);
#390=ORIENTED_EDGE('',*,*,#681,.T.);
#391=ORIENTED_EDGE('',*,*,#682,.F.);
#392=ORIENTED_EDGE('',*,*,#675,.F.);
#393=ORIENTED_EDGE('',*,*,#682,.T.);
#394=ORIENTED_EDGE('',*,*,#683,.T.);
#395=ORIENTED_EDGE('',*,*,#684,.T.);
#396=ORIENTED_EDGE('',*,*,#685,.F.);
#397=ORIENTED_EDGE('',*,*,#676,.F.);
#398=ORIENTED_EDGE('',*,*,#686,.T.);
#399=ORIENTED_EDGE('',*,*,#687,.F.);
#400=ORIENTED_EDGE('',*,*,#688,.F.);
#401=ORIENTED_EDGE('',*,*,#689,.T.);
#402=ORIENTED_EDGE('',*,*,#690,.T.);
#403=ORIENTED_EDGE('',*,*,#691,.F.);
#404=ORIENTED_EDGE('',*,*,#692,.F.);
#405=ORIENTED_EDGE('',*,*,#693,.F.);
#406=ORIENTED_EDGE('',*,*,#693,.T.);
#407=ORIENTED_EDGE('',*,*,#694,.T.);
#408=ORIENTED_EDGE('',*,*,#687,.T.);
#409=ORIENTED_EDGE('',*,*,#695,.T.);
#410=ORIENTED_EDGE('',*,*,#694,.F.);
#411=ORIENTED_EDGE('',*,*,#692,.T.);
#412=ORIENTED_EDGE('',*,*,#696,.F.);
#413=ORIENTED_EDGE('',*,*,#697,.T.);
#414=ORIENTED_EDGE('',*,*,#698,.T.);
#415=ORIENTED_EDGE('',*,*,#699,.T.);
#416=ORIENTED_EDGE('',*,*,#699,.F.);
#417=ORIENTED_EDGE('',*,*,#700,.F.);
#418=ORIENTED_EDGE('',*,*,#701,.F.);
#419=ORIENTED_EDGE('',*,*,#685,.T.);
#420=ORIENTED_EDGE('',*,*,#701,.T.);
#421=ORIENTED_EDGE('',*,*,#702,.F.);
#422=ORIENTED_EDGE('',*,*,#703,.T.);
#423=ORIENTED_EDGE('',*,*,#704,.T.);
#424=ORIENTED_EDGE('',*,*,#705,.T.);
#425=ORIENTED_EDGE('',*,*,#672,.T.);
#426=ORIENTED_EDGE('',*,*,#705,.F.);
#427=ORIENTED_EDGE('',*,*,#706,.F.);
#428=ORIENTED_EDGE('',*,*,#707,.T.);
#429=ORIENTED_EDGE('',*,*,#677,.T.);
#430=ORIENTED_EDGE('',*,*,#707,.F.);
#431=ORIENTED_EDGE('',*,*,#708,.F.);
#432=ORIENTED_EDGE('',*,*,#709,.T.);
#433=ORIENTED_EDGE('',*,*,#653,.T.);
#434=ORIENTED_EDGE('',*,*,#710,.F.);
#435=ORIENTED_EDGE('',*,*,#680,.T.);
#436=ORIENTED_EDGE('',*,*,#678,.F.);
#437=ORIENTED_EDGE('',*,*,#683,.F.);
#438=ORIENTED_EDGE('',*,*,#681,.F.);
#439=ORIENTED_EDGE('',*,*,#710,.T.);
#440=ORIENTED_EDGE('',*,*,#652,.T.);
#441=ORIENTED_EDGE('',*,*,#669,.F.);
#442=ORIENTED_EDGE('',*,*,#711,.T.);
#443=ORIENTED_EDGE('',*,*,#688,.T.);
#444=ORIENTED_EDGE('',*,*,#695,.F.);
#445=ORIENTED_EDGE('',*,*,#686,.F.);
#446=ORIENTED_EDGE('',*,*,#684,.F.);
#447=ORIENTED_EDGE('',*,*,#651,.F.);
#448=ORIENTED_EDGE('',*,*,#709,.F.);
#449=ORIENTED_EDGE('',*,*,#712,.T.);
#450=ORIENTED_EDGE('',*,*,#640,.T.);
#451=ORIENTED_EDGE('',*,*,#654,.F.);
#452=ORIENTED_EDGE('',*,*,#713,.F.);
#453=ORIENTED_EDGE('',*,*,#714,.F.);
#454=ORIENTED_EDGE('',*,*,#715,.F.);
#455=ORIENTED_EDGE('',*,*,#716,.F.);
#456=ORIENTED_EDGE('',*,*,#717,.F.);
#457=ORIENTED_EDGE('',*,*,#718,.F.);
#458=ORIENTED_EDGE('',*,*,#719,.F.);
#459=ORIENTED_EDGE('',*,*,#720,.F.);
#460=ORIENTED_EDGE('',*,*,#721,.F.);
#461=ORIENTED_EDGE('',*,*,#722,.T.);
#462=ORIENTED_EDGE('',*,*,#723,.F.);
#463=ORIENTED_EDGE('',*,*,#724,.F.);
#464=ORIENTED_EDGE('',*,*,#720,.T.);
#465=ORIENTED_EDGE('',*,*,#723,.T.);
#466=ORIENTED_EDGE('',*,*,#725,.T.);
#467=ORIENTED_EDGE('',*,*,#726,.F.);
#468=ORIENTED_EDGE('',*,*,#714,.T.);
#469=ORIENTED_EDGE('',*,*,#727,.F.);
#470=ORIENTED_EDGE('',*,*,#726,.T.);
#471=ORIENTED_EDGE('',*,*,#728,.F.);
#472=ORIENTED_EDGE('',*,*,#729,.F.);
#473=ORIENTED_EDGE('',*,*,#715,.T.);
#474=ORIENTED_EDGE('',*,*,#727,.T.);
#475=ORIENTED_EDGE('',*,*,#730,.T.);
#476=ORIENTED_EDGE('',*,*,#731,.T.);
#477=ORIENTED_EDGE('',*,*,#729,.T.);
#478=ORIENTED_EDGE('',*,*,#732,.F.);
#479=ORIENTED_EDGE('',*,*,#733,.F.);
#480=ORIENTED_EDGE('',*,*,#716,.T.);
#481=ORIENTED_EDGE('',*,*,#731,.F.);
#482=ORIENTED_EDGE('',*,*,#734,.T.);
#483=ORIENTED_EDGE('',*,*,#735,.T.);
#484=ORIENTED_EDGE('',*,*,#718,.T.);
#485=ORIENTED_EDGE('',*,*,#736,.F.);
#486=ORIENTED_EDGE('',*,*,#737,.T.);
#487=ORIENTED_EDGE('',*,*,#735,.F.);
#488=ORIENTED_EDGE('',*,*,#737,.F.);
#489=ORIENTED_EDGE('',*,*,#738,.T.);
#490=ORIENTED_EDGE('',*,*,#721,.T.);
#491=ORIENTED_EDGE('',*,*,#719,.T.);
#492=ORIENTED_EDGE('',*,*,#739,.F.);
#493=ORIENTED_EDGE('',*,*,#740,.T.);
#494=ORIENTED_EDGE('',*,*,#741,.F.);
#495=ORIENTED_EDGE('',*,*,#742,.F.);
#496=ORIENTED_EDGE('',*,*,#743,.F.);
#497=ORIENTED_EDGE('',*,*,#700,.T.);
#498=ORIENTED_EDGE('',*,*,#744,.F.);
#499=ORIENTED_EDGE('',*,*,#745,.T.);
#500=ORIENTED_EDGE('',*,*,#739,.T.);
#501=ORIENTED_EDGE('',*,*,#746,.T.);
#502=ORIENTED_EDGE('',*,*,#744,.T.);
#503=ORIENTED_EDGE('',*,*,#698,.F.);
#504=ORIENTED_EDGE('',*,*,#747,.F.);
#505=ORIENTED_EDGE('',*,*,#748,.T.);
#506=ORIENTED_EDGE('',*,*,#749,.T.);
#507=ORIENTED_EDGE('',*,*,#750,.T.);
#508=ORIENTED_EDGE('',*,*,#749,.F.);
#509=ORIENTED_EDGE('',*,*,#751,.T.);
#510=ORIENTED_EDGE('',*,*,#752,.T.);
#511=ORIENTED_EDGE('',*,*,#753,.T.);
#512=ORIENTED_EDGE('',*,*,#752,.F.);
#513=ORIENTED_EDGE('',*,*,#754,.T.);
#514=ORIENTED_EDGE('',*,*,#755,.T.);
#515=ORIENTED_EDGE('',*,*,#756,.T.);
#516=ORIENTED_EDGE('',*,*,#755,.F.);
#517=ORIENTED_EDGE('',*,*,#757,.T.);
#518=ORIENTED_EDGE('',*,*,#702,.T.);
#519=ORIENTED_EDGE('',*,*,#743,.T.);
#520=ORIENTED_EDGE('',*,*,#722,.F.);
#521=ORIENTED_EDGE('',*,*,#758,.T.);
#522=ORIENTED_EDGE('',*,*,#696,.T.);
#523=ORIENTED_EDGE('',*,*,#691,.T.);
#524=ORIENTED_EDGE('',*,*,#759,.T.);
#525=ORIENTED_EDGE('',*,*,#712,.F.);
#526=ORIENTED_EDGE('',*,*,#708,.T.);
#527=ORIENTED_EDGE('',*,*,#706,.T.);
#528=ORIENTED_EDGE('',*,*,#704,.F.);
#529=ORIENTED_EDGE('',*,*,#760,.T.);
#530=ORIENTED_EDGE('',*,*,#641,.T.);
#531=ORIENTED_EDGE('',*,*,#668,.F.);
#532=ORIENTED_EDGE('',*,*,#761,.F.);
#533=ORIENTED_EDGE('',*,*,#689,.F.);
#534=ORIENTED_EDGE('',*,*,#711,.F.);
#535=ORIENTED_EDGE('',*,*,#690,.F.);
#536=ORIENTED_EDGE('',*,*,#761,.T.);
#537=ORIENTED_EDGE('',*,*,#667,.F.);
#538=ORIENTED_EDGE('',*,*,#762,.F.);
#539=ORIENTED_EDGE('',*,*,#725,.F.);
#540=ORIENTED_EDGE('',*,*,#759,.F.);
#541=ORIENTED_EDGE('',*,*,#666,.T.);
#542=ORIENTED_EDGE('',*,*,#763,.T.);
#543=ORIENTED_EDGE('',*,*,#728,.T.);
#544=ORIENTED_EDGE('',*,*,#762,.T.);
#545=ORIENTED_EDGE('',*,*,#730,.F.);
#546=ORIENTED_EDGE('',*,*,#763,.F.);
#547=ORIENTED_EDGE('',*,*,#665,.T.);
#548=ORIENTED_EDGE('',*,*,#764,.F.);
#549=ORIENTED_EDGE('',*,*,#732,.T.);
#550=ORIENTED_EDGE('',*,*,#764,.T.);
#551=ORIENTED_EDGE('',*,*,#664,.T.);
#552=ORIENTED_EDGE('',*,*,#765,.T.);
#553=ORIENTED_EDGE('',*,*,#734,.F.);
#554=ORIENTED_EDGE('',*,*,#765,.F.);
#555=ORIENTED_EDGE('',*,*,#663,.T.);
#556=ORIENTED_EDGE('',*,*,#766,.F.);
#557=ORIENTED_EDGE('',*,*,#662,.T.);
#558=ORIENTED_EDGE('',*,*,#767,.T.);
#559=ORIENTED_EDGE('',*,*,#736,.T.);
#560=ORIENTED_EDGE('',*,*,#766,.T.);
#561=ORIENTED_EDGE('',*,*,#738,.F.);
#562=ORIENTED_EDGE('',*,*,#767,.F.);
#563=ORIENTED_EDGE('',*,*,#661,.F.);
#564=ORIENTED_EDGE('',*,*,#768,.T.);
#565=ORIENTED_EDGE('',*,*,#740,.F.);
#566=ORIENTED_EDGE('',*,*,#745,.F.);
#567=ORIENTED_EDGE('',*,*,#697,.F.);
#568=ORIENTED_EDGE('',*,*,#758,.F.);
#569=ORIENTED_EDGE('',*,*,#768,.F.);
#570=ORIENTED_EDGE('',*,*,#660,.F.);
#571=ORIENTED_EDGE('',*,*,#769,.T.);
#572=ORIENTED_EDGE('',*,*,#756,.F.);
#573=ORIENTED_EDGE('',*,*,#742,.T.);
#574=ORIENTED_EDGE('',*,*,#746,.F.);
#575=ORIENTED_EDGE('',*,*,#741,.T.);
#576=ORIENTED_EDGE('',*,*,#659,.F.);
#577=ORIENTED_EDGE('',*,*,#770,.F.);
#578=ORIENTED_EDGE('',*,*,#753,.F.);
#579=ORIENTED_EDGE('',*,*,#769,.F.);
#580=ORIENTED_EDGE('',*,*,#635,.T.);
#581=ORIENTED_EDGE('',*,*,#750,.F.);
#582=ORIENTED_EDGE('',*,*,#770,.T.);
#583=ORIENTED_EDGE('',*,*,#658,.F.);
#584=ORIENTED_EDGE('',*,*,#670,.T.);
#585=ORIENTED_EDGE('',*,*,#642,.F.);
#586=ORIENTED_EDGE('',*,*,#760,.F.);
#587=ORIENTED_EDGE('',*,*,#703,.F.);
#588=ORIENTED_EDGE('',*,*,#757,.F.);
#589=ORIENTED_EDGE('',*,*,#754,.F.);
#590=ORIENTED_EDGE('',*,*,#751,.F.);
#591=ORIENTED_EDGE('',*,*,#748,.F.);
#592=ORIENTED_EDGE('',*,*,#771,.F.);
#593=ORIENTED_EDGE('',*,*,#634,.T.);
#594=ORIENTED_EDGE('',*,*,#671,.T.);
#595=ORIENTED_EDGE('',*,*,#771,.T.);
#596=ORIENTED_EDGE('',*,*,#747,.T.);
#597=ORIENTED_EDGE('',*,*,#772,.F.);
#598=ORIENTED_EDGE('',*,*,#657,.T.);
#599=ORIENTED_EDGE('',*,*,#773,.F.);
#600=ORIENTED_EDGE('',*,*,#774,.F.);
#601=ORIENTED_EDGE('',*,*,#772,.T.);
#602=ORIENTED_EDGE('',*,*,#775,.T.);
#603=ORIENTED_EDGE('',*,*,#617,.T.);
#604=ORIENTED_EDGE('',*,*,#776,.T.);
#605=ORIENTED_EDGE('',*,*,#616,.T.);
#606=ORIENTED_EDGE('',*,*,#655,.F.);
#607=ORIENTED_EDGE('',*,*,#776,.F.);
#608=ORIENTED_EDGE('',*,*,#656,.F.);
#609=ORIENTED_EDGE('',*,*,#775,.F.);
#610=ORIENTED_EDGE('',*,*,#717,.T.);
#611=ORIENTED_EDGE('',*,*,#733,.T.);
#612=ORIENTED_EDGE('',*,*,#774,.T.);
#613=ORIENTED_EDGE('',*,*,#713,.T.);
#614=ORIENTED_EDGE('',*,*,#724,.T.);
#615=ORIENTED_EDGE('',*,*,#773,.T.);
#616=EDGE_CURVE('',#777,#777,#880,.F.);
#617=EDGE_CURVE('',#778,#778,#881,.F.);
#618=EDGE_CURVE('',#779,#780,#40,.T.);
#619=EDGE_CURVE('',#780,#781,#41,.T.);
#620=EDGE_CURVE('',#782,#781,#42,.T.);
#621=EDGE_CURVE('',#782,#783,#43,.T.);
#622=EDGE_CURVE('',#783,#784,#44,.T.);
#623=EDGE_CURVE('',#785,#784,#882,.F.);
#624=EDGE_CURVE('',#786,#785,#883,.F.);
#625=EDGE_CURVE('',#786,#779,#45,.T.);
#626=EDGE_CURVE('',#780,#787,#46,.T.);
#627=EDGE_CURVE('',#788,#787,#47,.T.);
#628=EDGE_CURVE('',#789,#788,#48,.T.);
#629=EDGE_CURVE('',#790,#789,#49,.T.);
#630=EDGE_CURVE('',#790,#791,#30,.T.);
#631=EDGE_CURVE('',#781,#791,#50,.T.);
#632=EDGE_CURVE('',#786,#792,#51,.T.);
#633=EDGE_CURVE('',#793,#785,#52,.T.);
#634=EDGE_CURVE('',#794,#793,#884,.T.);
#635=EDGE_CURVE('',#795,#794,#53,.F.);
#636=EDGE_CURVE('',#792,#795,#885,.T.);
#637=EDGE_CURVE('',#792,#796,#54,.T.);
#638=EDGE_CURVE('',#779,#796,#55,.T.);
#639=EDGE_CURVE('',#797,#783,#56,.T.);
#640=EDGE_CURVE('',#798,#797,#57,.T.);
#641=EDGE_CURVE('',#799,#798,#58,.T.);
#642=EDGE_CURVE('',#799,#800,#59,.T.);
#643=EDGE_CURVE('',#800,#784,#60,.T.);
#644=EDGE_CURVE('',#787,#796,#61,.T.);
#645=EDGE_CURVE('',#782,#801,#62,.T.);
#646=EDGE_CURVE('',#791,#801,#63,.T.);
#647=EDGE_CURVE('',#802,#790,#64,.F.);
#648=EDGE_CURVE('',#802,#801,#31,.F.);
#649=EDGE_CURVE('',#802,#789,#65,.T.);
#650=EDGE_CURVE('',#803,#788,#66,.T.);
#651=EDGE_CURVE('',#803,#804,#67,.T.);
#652=EDGE_CURVE('',#805,#804,#68,.T.);
#653=EDGE_CURVE('',#806,#805,#69,.T.);
#654=EDGE_CURVE('',#806,#797,#70,.T.);
#655=EDGE_CURVE('',#807,#807,#886,.T.);
#656=EDGE_CURVE('',#808,#808,#887,.T.);
#657=EDGE_CURVE('',#809,#809,#888,.T.);
#658=EDGE_CURVE('',#795,#810,#71,.T.);
#659=EDGE_CURVE('',#810,#811,#889,.T.);
#660=EDGE_CURVE('',#811,#812,#72,.T.);
#661=EDGE_CURVE('',#812,#813,#73,.T.);
#662=EDGE_CURVE('',#814,#813,#74,.T.);
#663=EDGE_CURVE('',#815,#814,#75,.T.);
#664=EDGE_CURVE('',#816,#815,#76,.F.);
#665=EDGE_CURVE('',#817,#816,#77,.T.);
#666=EDGE_CURVE('',#818,#817,#78,.T.);
#667=EDGE_CURVE('',#818,#819,#79,.T.);
#668=EDGE_CURVE('',#819,#820,#890,.T.);
#669=EDGE_CURVE('',#820,#803,#80,.T.);
#670=EDGE_CURVE('',#821,#800,#891,.F.);
#671=EDGE_CURVE('',#793,#821,#16,.T.);
#672=EDGE_CURVE('',#822,#823,#81,.T.);
#673=EDGE_CURVE('',#822,#824,#82,.T.);
#674=EDGE_CURVE('',#824,#825,#83,.T.);
#675=EDGE_CURVE('',#825,#826,#84,.F.);
#676=EDGE_CURVE('',#826,#823,#85,.T.);
#677=EDGE_CURVE('',#827,#822,#86,.T.);
#678=EDGE_CURVE('',#827,#828,#87,.T.);
#679=EDGE_CURVE('',#828,#824,#88,.T.);
#680=EDGE_CURVE('',#829,#828,#89,.T.);
#681=EDGE_CURVE('',#829,#830,#90,.T.);
#682=EDGE_CURVE('',#825,#830,#91,.T.);
#683=EDGE_CURVE('',#830,#804,#92,.T.);
#684=EDGE_CURVE('',#804,#826,#93,.T.);
#685=EDGE_CURVE('',#823,#831,#94,.T.);
#686=EDGE_CURVE('',#826,#832,#95,.T.);
#687=EDGE_CURVE('',#831,#832,#96,.T.);
#688=EDGE_CURVE('',#833,#834,#97,.T.);
#689=EDGE_CURVE('',#833,#835,#892,.T.);
#690=EDGE_CURVE('',#835,#836,#98,.T.);
#691=EDGE_CURVE('',#837,#836,#99,.F.);
#692=EDGE_CURVE('',#838,#837,#100,.F.);
#693=EDGE_CURVE('',#834,#838,#101,.F.);
#694=EDGE_CURVE('',#838,#831,#32,.T.);
#695=EDGE_CURVE('',#832,#834,#33,.T.);
#696=EDGE_CURVE('',#839,#837,#34,.T.);
#697=EDGE_CURVE('',#839,#840,#102,.F.);
#698=EDGE_CURVE('',#840,#841,#35,.T.);
#699=EDGE_CURVE('',#841,#831,#103,.T.);
#700=EDGE_CURVE('',#842,#841,#104,.T.);
#701=EDGE_CURVE('',#823,#842,#105,.T.);
#702=EDGE_CURVE('',#843,#842,#106,.T.);
#703=EDGE_CURVE('',#843,#844,#107,.T.);
#704=EDGE_CURVE('',#844,#845,#108,.T.);
#705=EDGE_CURVE('',#845,#822,#109,.T.);
#706=EDGE_CURVE('',#846,#845,#110,.T.);
#707=EDGE_CURVE('',#846,#827,#111,.T.);
#708=EDGE_CURVE('',#847,#846,#112,.T.);
#709=EDGE_CURVE('',#847,#806,#113,.T.);
#710=EDGE_CURVE('',#829,#805,#114,.T.);
#711=EDGE_CURVE('',#820,#833,#115,.T.);
#712=EDGE_CURVE('',#847,#798,#116,.T.);
#713=EDGE_CURVE('',#848,#849,#893,.T.);
#714=EDGE_CURVE('',#850,#848,#117,.T.);
#715=EDGE_CURVE('',#851,#850,#118,.T.);
#716=EDGE_CURVE('',#852,#851,#119,.T.);
#717=EDGE_CURVE('',#853,#852,#894,.T.);
#718=EDGE_CURVE('',#854,#853,#120,.T.);
#719=EDGE_CURVE('',#855,#854,#121,.T.);
#720=EDGE_CURVE('',#849,#855,#122,.T.);
#721=EDGE_CURVE('',#856,#855,#123,.F.);
#722=EDGE_CURVE('',#856,#857,#124,.T.);
#723=EDGE_CURVE('',#855,#857,#125,.F.);
#724=EDGE_CURVE('',#849,#848,#36,.F.);
#725=EDGE_CURVE('',#857,#858,#126,.T.);
#726=EDGE_CURVE('',#850,#858,#127,.T.);
#727=EDGE_CURVE('',#850,#859,#128,.T.);
#728=EDGE_CURVE('',#859,#858,#129,.T.);
#729=EDGE_CURVE('',#851,#860,#130,.F.);
#730=EDGE_CURVE('',#859,#860,#131,.T.);
#731=EDGE_CURVE('',#861,#851,#132,.F.);
#732=EDGE_CURVE('',#861,#860,#133,.F.);
#733=EDGE_CURVE('',#852,#853,#37,.T.);
#734=EDGE_CURVE('',#861,#862,#134,.T.);
#735=EDGE_CURVE('',#862,#854,#135,.T.);
#736=EDGE_CURVE('',#863,#862,#136,.T.);
#737=EDGE_CURVE('',#863,#854,#137,.T.);
#738=EDGE_CURVE('',#863,#856,#138,.T.);
#739=EDGE_CURVE('',#864,#865,#139,.T.);
#740=EDGE_CURVE('',#864,#866,#140,.T.);
#741=EDGE_CURVE('',#865,#866,#141,.T.);
#742=EDGE_CURVE('',#867,#868,#142,.T.);
#743=EDGE_CURVE('',#842,#867,#143,.T.);
#744=EDGE_CURVE('',#868,#841,#144,.F.);
#745=EDGE_CURVE('',#840,#864,#38,.F.);
#746=EDGE_CURVE('',#865,#868,#39,.T.);
#747=EDGE_CURVE('',#869,#794,#145,.T.);
#748=EDGE_CURVE('',#869,#870,#146,.T.);
#749=EDGE_CURVE('',#870,#871,#147,.T.);
#750=EDGE_CURVE('',#871,#794,#148,.F.);
#751=EDGE_CURVE('',#870,#872,#895,.F.);
#752=EDGE_CURVE('',#872,#873,#149,.T.);
#753=EDGE_CURVE('',#873,#871,#896,.T.);
#754=EDGE_CURVE('',#872,#874,#150,.T.);
#755=EDGE_CURVE('',#874,#867,#151,.T.);
#756=EDGE_CURVE('',#867,#873,#152,.T.);
#757=EDGE_CURVE('',#874,#843,#153,.T.);
#758=EDGE_CURVE('',#856,#839,#154,.T.);
#759=EDGE_CURVE('',#836,#857,#155,.T.);
#760=EDGE_CURVE('',#844,#799,#156,.T.);
#761=EDGE_CURVE('',#835,#819,#157,.T.);
#762=EDGE_CURVE('',#858,#818,#158,.T.);
#763=EDGE_CURVE('',#817,#859,#159,.T.);
#764=EDGE_CURVE('',#860,#816,#160,.T.);
#765=EDGE_CURVE('',#815,#861,#161,.T.);
#766=EDGE_CURVE('',#862,#814,#162,.T.);
#767=EDGE_CURVE('',#813,#863,#163,.T.);
#768=EDGE_CURVE('',#812,#866,#164,.T.);
#769=EDGE_CURVE('',#811,#873,#165,.T.);
#770=EDGE_CURVE('',#871,#810,#166,.F.);
#771=EDGE_CURVE('',#821,#869,#897,.F.);
#772=EDGE_CURVE('',#875,#875,#898,.T.);
#773=EDGE_CURVE('',#876,#876,#899,.T.);
#774=EDGE_CURVE('',#877,#877,#900,.T.);
#775=EDGE_CURVE('',#878,#878,#901,.F.);
#776=EDGE_CURVE('',#879,#879,#902,.F.);
#777=VERTEX_POINT('',#1620);
#778=VERTEX_POINT('',#1622);
#779=VERTEX_POINT('',#1624);
#780=VERTEX_POINT('',#1625);
#781=VERTEX_POINT('',#1627);
#782=VERTEX_POINT('',#1629);
#783=VERTEX_POINT('',#1631);
#784=VERTEX_POINT('',#1633);
#785=VERTEX_POINT('',#1635);
#786=VERTEX_POINT('',#1637);
#787=VERTEX_POINT('',#1641);
#788=VERTEX_POINT('',#1643);
#789=VERTEX_POINT('',#1645);
#790=VERTEX_POINT('',#1647);
#791=VERTEX_POINT('',#1649);
#792=VERTEX_POINT('',#1653);
#793=VERTEX_POINT('',#1655);
#794=VERTEX_POINT('',#1657);
#795=VERTEX_POINT('',#1659);
#796=VERTEX_POINT('',#1663);
#797=VERTEX_POINT('',#1667);
#798=VERTEX_POINT('',#1669);
#799=VERTEX_POINT('',#1671);
#800=VERTEX_POINT('',#1673);
#801=VERTEX_POINT('',#1679);
#802=VERTEX_POINT('',#1683);
#803=VERTEX_POINT('',#1689);
#804=VERTEX_POINT('',#1691);
#805=VERTEX_POINT('',#1693);
#806=VERTEX_POINT('',#1695);
#807=VERTEX_POINT('',#1699);
#808=VERTEX_POINT('',#1701);
#809=VERTEX_POINT('',#1703);
#810=VERTEX_POINT('',#1705);
#811=VERTEX_POINT('',#1707);
#812=VERTEX_POINT('',#1709);
#813=VERTEX_POINT('',#1711);
#814=VERTEX_POINT('',#1713);
#815=VERTEX_POINT('',#1715);
#816=VERTEX_POINT('',#1717);
#817=VERTEX_POINT('',#1719);
#818=VERTEX_POINT('',#1721);
#819=VERTEX_POINT('',#1723);
#820=VERTEX_POINT('',#1725);
#821=VERTEX_POINT('',#1729);
#822=VERTEX_POINT('',#1737);
#823=VERTEX_POINT('',#1738);
#824=VERTEX_POINT('',#1740);
#825=VERTEX_POINT('',#1742);
#826=VERTEX_POINT('',#1744);
#827=VERTEX_POINT('',#1748);
#828=VERTEX_POINT('',#1750);
#829=VERTEX_POINT('',#1754);
#830=VERTEX_POINT('',#1756);
#831=VERTEX_POINT('',#1763);
#832=VERTEX_POINT('',#1765);
#833=VERTEX_POINT('',#1769);
#834=VERTEX_POINT('',#1770);
#835=VERTEX_POINT('',#1772);
#836=VERTEX_POINT('',#1774);
#837=VERTEX_POINT('',#1776);
#838=VERTEX_POINT('',#1778);
#839=VERTEX_POINT('',#1785);
#840=VERTEX_POINT('',#1787);
#841=VERTEX_POINT('',#1789);
#842=VERTEX_POINT('',#1793);
#843=VERTEX_POINT('',#1797);
#844=VERTEX_POINT('',#1799);
#845=VERTEX_POINT('',#1801);
#846=VERTEX_POINT('',#1805);
#847=VERTEX_POINT('',#1809);
#848=VERTEX_POINT('',#1819);
#849=VERTEX_POINT('',#1820);
#850=VERTEX_POINT('',#1822);
#851=VERTEX_POINT('',#1824);
#852=VERTEX_POINT('',#1826);
#853=VERTEX_POINT('',#1828);
#854=VERTEX_POINT('',#1830);
#855=VERTEX_POINT('',#1832);
#856=VERTEX_POINT('',#1836);
#857=VERTEX_POINT('',#1838);
#858=VERTEX_POINT('',#1843);
#859=VERTEX_POINT('',#1847);
#860=VERTEX_POINT('',#1851);
#861=VERTEX_POINT('',#1855);
#862=VERTEX_POINT('',#1860);
#863=VERTEX_POINT('',#1864);
#864=VERTEX_POINT('',#1870);
#865=VERTEX_POINT('',#1871);
#866=VERTEX_POINT('',#1873);
#867=VERTEX_POINT('',#1877);
#868=VERTEX_POINT('',#1878);
#869=VERTEX_POINT('',#1886);
#870=VERTEX_POINT('',#1888);
#871=VERTEX_POINT('',#1890);
#872=VERTEX_POINT('',#1894);
#873=VERTEX_POINT('',#1896);
#874=VERTEX_POINT('',#1900);
#875=VERTEX_POINT('',#1936);
#876=VERTEX_POINT('',#1939);
#877=VERTEX_POINT('',#1941);
#878=VERTEX_POINT('',#1944);
#879=VERTEX_POINT('',#1947);
#880=CIRCLE('',#1192,0.0014);
#881=CIRCLE('',#1193,0.0014);
#882=CIRCLE('',#1194,0.0205586579649686);
#883=CIRCLE('',#1195,0.005);
#884=CIRCLE('',#1199,0.005);
#885=CIRCLE('',#1200,0.005);
#886=CIRCLE('',#1210,0.0027);
#887=CIRCLE('',#1211,0.0027);
#888=CIRCLE('',#1212,0.00656);
#889=CIRCLE('',#1213,0.005);
#890=CIRCLE('',#1214,0.02);
#891=CIRCLE('',#1216,0.0205586579649686);
#892=CIRCLE('',#1223,0.02);
#893=CIRCLE('',#1238,0.001);
#894=CIRCLE('',#1239,0.001);
#895=CIRCLE('',#1257,0.008);
#896=CIRCLE('',#1258,0.005);
#897=CIRCLE('',#1275,0.008);
#898=CIRCLE('',#1278,0.00656);
#899=CIRCLE('',#1280,0.001);
#900=CIRCLE('',#1281,0.001);
#901=CIRCLE('',#1283,0.0014);
#902=CIRCLE('',#1285,0.0014);
#903=EDGE_LOOP('',(#294));
#904=EDGE_LOOP('',(#295));
#905=EDGE_LOOP('',(#296,#297,#298,#299,#300,#301,#302,#303));
#906=EDGE_LOOP('',(#304,#305,#306,#307,#308,#309,#310));
#907=EDGE_LOOP('',(#311,#312,#313,#314,#315,#316));
#908=EDGE_LOOP('',(#317,#318,#319,#320));
#909=EDGE_LOOP('',(#321,#322,#323,#324,#325,#326));
#910=EDGE_LOOP('',(#327,#328,#329,#330));
#911=EDGE_LOOP('',(#331,#332,#333,#334));
#912=EDGE_LOOP('',(#335,#336,#337,#338));
#913=EDGE_LOOP('',(#339,#340,#341));
#914=EDGE_LOOP('',(#342,#343,#344,#345,#346,#347,#348,#349,#350,#351,#352));
#915=EDGE_LOOP('',(#353));
#916=EDGE_LOOP('',(#354));
#917=EDGE_LOOP('',(#355));
#918=EDGE_LOOP('',(#356,#357,#358,#359,#360,#361,#362,#363,#364,#365,#366,
#367,#368,#369,#370,#371,#372));
#919=EDGE_LOOP('',(#373,#374,#375,#376,#377));
#920=EDGE_LOOP('',(#378,#379,#380,#381,#382));
#921=EDGE_LOOP('',(#383,#384,#385,#386));
#922=EDGE_LOOP('',(#387,#388,#389,#390,#391));
#923=EDGE_LOOP('',(#392,#393,#394,#395));
#924=EDGE_LOOP('',(#396,#397,#398,#399));
#925=EDGE_LOOP('',(#400,#401,#402,#403,#404,#405));
#926=EDGE_LOOP('',(#406,#407,#408,#409));
#927=EDGE_LOOP('',(#410,#411,#412,#413,#414,#415));
#928=EDGE_LOOP('',(#416,#417,#418,#419));
#929=EDGE_LOOP('',(#420,#421,#422,#423,#424,#425));
#930=EDGE_LOOP('',(#426,#427,#428,#429));
#931=EDGE_LOOP('',(#430,#431,#432,#433,#434,#435,#436));
#932=EDGE_LOOP('',(#437,#438,#439,#440));
#933=EDGE_LOOP('',(#441,#442,#443,#444,#445,#446,#447));
#934=EDGE_LOOP('',(#448,#449,#450,#451));
#935=EDGE_LOOP('',(#452,#453,#454,#455,#456,#457,#458,#459));
#936=EDGE_LOOP('',(#460,#461,#462));
#937=EDGE_LOOP('',(#463,#464,#465,#466,#467,#468));
#938=EDGE_LOOP('',(#469,#470,#471));
#939=EDGE_LOOP('',(#472,#473,#474,#475));
#940=EDGE_LOOP('',(#476,#477,#478));
#941=EDGE_LOOP('',(#479,#480,#481,#482,#483,#484));
#942=EDGE_LOOP('',(#485,#486,#487));
#943=EDGE_LOOP('',(#488,#489,#490,#491));
#944=EDGE_LOOP('',(#492,#493,#494));
#945=EDGE_LOOP('',(#495,#496,#497,#498));
#946=EDGE_LOOP('',(#499,#500,#501,#502,#503));
#947=EDGE_LOOP('',(#504,#505,#506,#507));
#948=EDGE_LOOP('',(#508,#509,#510,#511));
#949=EDGE_LOOP('',(#512,#513,#514,#515));
#950=EDGE_LOOP('',(#516,#517,#518,#519));
#951=EDGE_LOOP('',(#520,#521,#522,#523,#524));
#952=EDGE_LOOP('',(#525,#526,#527,#528,#529,#530));
#953=EDGE_LOOP('',(#531,#532,#533,#534));
#954=EDGE_LOOP('',(#535,#536,#537,#538,#539,#540));
#955=EDGE_LOOP('',(#541,#542,#543,#544));
#956=EDGE_LOOP('',(#545,#546,#547,#548));
#957=EDGE_LOOP('',(#549,#550,#551,#552));
#958=EDGE_LOOP('',(#553,#554,#555,#556));
#959=EDGE_LOOP('',(#557,#558,#559,#560));
#960=EDGE_LOOP('',(#561,#562,#563,#564,#565,#566,#567,#568));
#961=EDGE_LOOP('',(#569,#570,#571,#572,#573,#574,#575));
#962=EDGE_LOOP('',(#576,#577,#578,#579));
#963=EDGE_LOOP('',(#580,#581,#582,#583));
#964=EDGE_LOOP('',(#584,#585,#586,#587,#588,#589,#590,#591,#592));
#965=EDGE_LOOP('',(#593,#594,#595,#596));
#966=EDGE_LOOP('',(#597));
#967=EDGE_LOOP('',(#598));
#968=EDGE_LOOP('',(#599));
#969=EDGE_LOOP('',(#600));
#970=EDGE_LOOP('',(#601));
#971=EDGE_LOOP('',(#602));
#972=EDGE_LOOP('',(#603));
#973=EDGE_LOOP('',(#604));
#974=EDGE_LOOP('',(#605));
#975=EDGE_LOOP('',(#606));
#976=EDGE_LOOP('',(#607));
#977=EDGE_LOOP('',(#608));
#978=EDGE_LOOP('',(#609));
#979=EDGE_LOOP('',(#610,#611));
#980=EDGE_LOOP('',(#612));
#981=EDGE_LOOP('',(#613,#614));
#982=EDGE_LOOP('',(#615));
#983=FACE_BOUND('',#903,.T.);
#984=FACE_BOUND('',#904,.T.);
#985=FACE_BOUND('',#905,.T.);
#986=FACE_BOUND('',#906,.T.);
#987=FACE_BOUND('',#907,.T.);
#988=FACE_BOUND('',#908,.T.);
#989=FACE_BOUND('',#909,.T.);
#990=FACE_BOUND('',#910,.T.);
#991=FACE_BOUND('',#911,.T.);
#992=FACE_BOUND('',#912,.T.);
#993=FACE_BOUND('',#913,.T.);
#994=FACE_BOUND('',#914,.T.);
#995=FACE_BOUND('',#915,.T.);
#996=FACE_BOUND('',#916,.T.);
#997=FACE_BOUND('',#917,.T.);
#998=FACE_BOUND('',#918,.T.);
#999=FACE_BOUND('',#919,.T.);
#1000=FACE_BOUND('',#920,.T.);
#1001=FACE_BOUND('',#921,.T.);
#1002=FACE_BOUND('',#922,.T.);
#1003=FACE_BOUND('',#923,.T.);
#1004=FACE_BOUND('',#924,.T.);
#1005=FACE_BOUND('',#925,.T.);
#1006=FACE_BOUND('',#926,.T.);
#1007=FACE_BOUND('',#927,.T.);
#1008=FACE_BOUND('',#928,.T.);
#1009=FACE_BOUND('',#929,.T.);
#1010=FACE_BOUND('',#930,.T.);
#1011=FACE_BOUND('',#931,.T.);
#1012=FACE_BOUND('',#932,.T.);
#1013=FACE_BOUND('',#933,.T.);
#1014=FACE_BOUND('',#934,.T.);
#1015=FACE_BOUND('',#935,.T.);
#1016=FACE_BOUND('',#936,.T.);
#1017=FACE_BOUND('',#937,.T.);
#1018=FACE_BOUND('',#938,.T.);
#1019=FACE_BOUND('',#939,.T.);
#1020=FACE_BOUND('',#940,.T.);
#1021=FACE_BOUND('',#941,.T.);
#1022=FACE_BOUND('',#942,.T.);
#1023=FACE_BOUND('',#943,.T.);
#1024=FACE_BOUND('',#944,.T.);
#1025=FACE_BOUND('',#945,.T.);
#1026=FACE_BOUND('',#946,.T.);
#1027=FACE_BOUND('',#947,.T.);
#1028=FACE_BOUND('',#948,.T.);
#1029=FACE_BOUND('',#949,.T.);
#1030=FACE_BOUND('',#950,.T.);
#1031=FACE_BOUND('',#951,.T.);
#1032=FACE_BOUND('',#952,.T.);
#1033=FACE_BOUND('',#953,.T.);
#1034=FACE_BOUND('',#954,.T.);
#1035=FACE_BOUND('',#955,.T.);
#1036=FACE_BOUND('',#956,.T.);
#1037=FACE_BOUND('',#957,.T.);
#1038=FACE_BOUND('',#958,.T.);
#1039=FACE_BOUND('',#959,.T.);
#1040=FACE_BOUND('',#960,.T.);
#1041=FACE_BOUND('',#961,.T.);
#1042=FACE_BOUND('',#962,.T.);
#1043=FACE_BOUND('',#963,.T.);
#1044=FACE_BOUND('',#964,.T.);
#1045=FACE_BOUND('',#965,.T.);
#1046=FACE_BOUND('',#966,.T.);
#1047=FACE_BOUND('',#967,.T.);
#1048=FACE_BOUND('',#968,.T.);
#1049=FACE_BOUND('',#969,.T.);
#1050=FACE_BOUND('',#970,.T.);
#1051=FACE_BOUND('',#971,.T.);
#1052=FACE_BOUND('',#972,.T.);
#1053=FACE_BOUND('',#973,.T.);
#1054=FACE_BOUND('',#974,.T.);
#1055=FACE_BOUND('',#975,.T.);
#1056=FACE_BOUND('',#976,.T.);
#1057=FACE_BOUND('',#977,.T.);
#1058=FACE_BOUND('',#978,.T.);
#1059=FACE_BOUND('',#979,.T.);
#1060=FACE_BOUND('',#980,.T.);
#1061=FACE_BOUND('',#981,.T.);
#1062=FACE_BOUND('',#982,.T.);
#1063=PLANE('',#1191);
#1064=PLANE('',#1196);
#1065=PLANE('',#1201);
#1066=PLANE('',#1202);
#1067=PLANE('',#1203);
#1068=PLANE('',#1204);
#1069=PLANE('',#1207);
#1070=PLANE('',#1208);
#1071=PLANE('',#1209);
#1072=PLANE('',#1217);
#1073=PLANE('',#1218);
#1074=PLANE('',#1219);
#1075=PLANE('',#1220);
#1076=PLANE('',#1221);
#1077=PLANE('',#1222);
#1078=PLANE('',#1230);
#1079=PLANE('',#1231);
#1080=PLANE('',#1232);
#1081=PLANE('',#1233);
#1082=PLANE('',#1234);
#1083=PLANE('',#1235);
#1084=PLANE('',#1236);
#1085=PLANE('',#1237);
#1086=PLANE('',#1240);
#1087=PLANE('',#1241);
#1088=PLANE('',#1243);
#1089=PLANE('',#1244);
#1090=PLANE('',#1245);
#1091=PLANE('',#1246);
#1092=PLANE('',#1248);
#1093=PLANE('',#1249);
#1094=PLANE('',#1250);
#1095=PLANE('',#1251);
#1096=PLANE('',#1255);
#1097=PLANE('',#1259);
#1098=PLANE('',#1260);
#1099=PLANE('',#1261);
#1100=PLANE('',#1262);
#1101=PLANE('',#1264);
#1102=PLANE('',#1265);
#1103=PLANE('',#1266);
#1104=PLANE('',#1267);
#1105=PLANE('',#1268);
#1106=PLANE('',#1269);
#1107=PLANE('',#1270);
#1108=PLANE('',#1271);
#1109=PLANE('',#1273);
#1110=PLANE('',#1274);
#1111=PLANE('',#1279);
#1112=ADVANCED_FACE('',(#983,#984,#985),#1063,.F.);
#1113=ADVANCED_FACE('',(#986),#1064,.F.);
#1114=ADVANCED_FACE('',(#987),#17,.F.);
#1115=ADVANCED_FACE('',(#988),#1065,.T.);
#1116=ADVANCED_FACE('',(#989),#1066,.T.);
#1117=ADVANCED_FACE('',(#990),#1067,.T.);
#1118=ADVANCED_FACE('',(#991),#1068,.T.);
#1119=ADVANCED_FACE('',(#992),#18,.F.);
#1120=ADVANCED_FACE('',(#993),#1069,.T.);
#1121=ADVANCED_FACE('',(#994),#1070,.F.);
#1122=ADVANCED_FACE('',(#995,#996,#997,#998),#1071,.F.);
#1123=ADVANCED_FACE('',(#999),#19,.T.);
#1124=ADVANCED_FACE('',(#1000),#1072,.T.);
#1125=ADVANCED_FACE('',(#1001),#1073,.T.);
#1126=ADVANCED_FACE('',(#1002),#1074,.T.);
#1127=ADVANCED_FACE('',(#1003),#1075,.T.);
#1128=ADVANCED_FACE('',(#1004),#1076,.F.);
#1129=ADVANCED_FACE('',(#1005),#1077,.F.);
#1130=ADVANCED_FACE('',(#1006),#20,.F.);
#1131=ADVANCED_FACE('',(#1007),#21,.F.);
#1132=ADVANCED_FACE('',(#1008),#1078,.F.);
#1133=ADVANCED_FACE('',(#1009),#1079,.T.);
#1134=ADVANCED_FACE('',(#1010),#1080,.T.);
#1135=ADVANCED_FACE('',(#1011),#1081,.F.);
#1136=ADVANCED_FACE('',(#1012),#1082,.T.);
#1137=ADVANCED_FACE('',(#1013),#1083,.T.);
#1138=ADVANCED_FACE('',(#1014),#1084,.T.);
#1139=ADVANCED_FACE('',(#1015),#1085,.T.);
#1140=ADVANCED_FACE('',(#1016),#1086,.T.);
#1141=ADVANCED_FACE('',(#1017),#1087,.F.);
#1142=ADVANCED_FACE('',(#1018),#1088,.T.);
#1143=ADVANCED_FACE('',(#1019),#1089,.T.);
#1144=ADVANCED_FACE('',(#1020),#1090,.T.);
#1145=ADVANCED_FACE('',(#1021),#1091,.T.);
#1146=ADVANCED_FACE('',(#1022),#1092,.T.);
#1147=ADVANCED_FACE('',(#1023),#1093,.F.);
#1148=ADVANCED_FACE('',(#1024),#1094,.F.);
#1149=ADVANCED_FACE('',(#1025),#1095,.T.);
#1150=ADVANCED_FACE('',(#1026),#22,.F.);
#1151=ADVANCED_FACE('',(#1027),#1096,.F.);
#1152=ADVANCED_FACE('',(#1028),#12,.F.);
#1153=ADVANCED_FACE('',(#1029),#1097,.T.);
#1154=ADVANCED_FACE('',(#1030),#1098,.F.);
#1155=ADVANCED_FACE('',(#1031),#1099,.F.);
#1156=ADVANCED_FACE('',(#1032),#1100,.T.);
#1157=ADVANCED_FACE('',(#1033),#23,.F.);
#1158=ADVANCED_FACE('',(#1034),#1101,.T.);
#1159=ADVANCED_FACE('',(#1035),#1102,.T.);
#1160=ADVANCED_FACE('',(#1036),#1103,.F.);
#1161=ADVANCED_FACE('',(#1037),#1104,.F.);
#1162=ADVANCED_FACE('',(#1038),#1105,.F.);
#1163=ADVANCED_FACE('',(#1039),#1106,.T.);
#1164=ADVANCED_FACE('',(#1040),#1107,.T.);
#1165=ADVANCED_FACE('',(#1041),#1108,.T.);
#1166=ADVANCED_FACE('',(#1042),#24,.F.);
#1167=ADVANCED_FACE('',(#1043),#1109,.F.);
#1168=ADVANCED_FACE('',(#1044),#1110,.T.);
#1169=ADVANCED_FACE('',(#1045),#13,.F.);
#1170=ADVANCED_FACE('',(#1046,#1047),#25,.F.);
#1171=ADVANCED_FACE('',(#1048,#1049,#1050),#1111,.T.);
#1172=ADVANCED_FACE('',(#1051,#1052),#26,.F.);
#1173=ADVANCED_FACE('',(#1053,#1054),#27,.F.);
#1174=ADVANCED_FACE('',(#1055,#1056),#14,.F.);
#1175=ADVANCED_FACE('',(#1057,#1058),#15,.F.);
#1176=ADVANCED_FACE('',(#1059,#1060),#28,.F.);
#1177=ADVANCED_FACE('',(#1061,#1062),#29,.F.);
#1178=CLOSED_SHELL('',(#1112,#1113,#1114,#1115,#1116,#1117,#1118,#1119,
#1120,#1121,#1122,#1123,#1124,#1125,#1126,#1127,#1128,#1129,#1130,#1131,
#1132,#1133,#1134,#1135,#1136,#1137,#1138,#1139,#1140,#1141,#1142,#1143,
#1144,#1145,#1146,#1147,#1148,#1149,#1150,#1151,#1152,#1153,#1154,#1155,
#1156,#1157,#1158,#1159,#1160,#1161,#1162,#1163,#1164,#1165,#1166,#1167,
#1168,#1169,#1170,#1171,#1172,#1173,#1174,#1175,#1176,#1177));
#1179=STYLED_ITEM('',(#1180),#1187);
#1180=PRESENTATION_STYLE_ASSIGNMENT((#1181));
#1181=SURFACE_STYLE_USAGE(.BOTH.,#1182);
#1182=SURFACE_SIDE_STYLE('',(#1183));
#1183=SURFACE_STYLE_FILL_AREA(#1184);
#1184=FILL_AREA_STYLE('',(#1185));
#1185=FILL_AREA_STYLE_COLOUR('',#1186);
#1186=COLOUR_RGB('',0.647058823529412,0.647058823529412,0.647058823529412);
#1187=MANIFOLD_SOLID_BREP('Right Weapon Strut',#1178);
#1188=SHAPE_DEFINITION_REPRESENTATION(#1958,#1189);
#1189=SHAPE_REPRESENTATION('Right Weapon Strut',(#1190),#1953);
#1190=AXIS2_PLACEMENT_3D('',#1617,#1290,#1291);
#1191=AXIS2_PLACEMENT_3D('',#1618,#1292,#1293);
#1192=AXIS2_PLACEMENT_3D('',#1619,#1294,#1295);
#1193=AXIS2_PLACEMENT_3D('',#1621,#1296,#1297);
#1194=AXIS2_PLACEMENT_3D('',#1634,#1303,#1304);
#1195=AXIS2_PLACEMENT_3D('',#1636,#1305,#1306);
#1196=AXIS2_PLACEMENT_3D('',#1639,#1308,#1309);
#1197=AXIS2_PLACEMENT_3D('',#1648,#1314,#1315);
#1198=AXIS2_PLACEMENT_3D('',#1651,#1317,#1318);
#1199=AXIS2_PLACEMENT_3D('',#1656,#1321,#1322);
#1200=AXIS2_PLACEMENT_3D('',#1660,#1324,#1325);
#1201=AXIS2_PLACEMENT_3D('',#1661,#1326,#1327);
#1202=AXIS2_PLACEMENT_3D('',#1665,#1330,#1331);
#1203=AXIS2_PLACEMENT_3D('',#1675,#1337,#1338);
#1204=AXIS2_PLACEMENT_3D('',#1677,#1340,#1341);
#1205=AXIS2_PLACEMENT_3D('',#1681,#1344,#1345);
#1206=AXIS2_PLACEMENT_3D('',#1684,#1347,#1348);
#1207=AXIS2_PLACEMENT_3D('',#1685,#1349,#1350);
#1208=AXIS2_PLACEMENT_3D('',#1687,#1352,#1353);
#1209=AXIS2_PLACEMENT_3D('',#1697,#1359,#1360);
#1210=AXIS2_PLACEMENT_3D('',#1698,#1361,#1362);
#1211=AXIS2_PLACEMENT_3D('',#1700,#1363,#1364);
#1212=AXIS2_PLACEMENT_3D('',#1702,#1365,#1366);
#1213=AXIS2_PLACEMENT_3D('',#1706,#1368,#1369);
#1214=AXIS2_PLACEMENT_3D('',#1724,#1378,#1379);
#1215=AXIS2_PLACEMENT_3D('',#1727,#1381,#1382);
#1216=AXIS2_PLACEMENT_3D('',#1728,#1383,#1384);
#1217=AXIS2_PLACEMENT_3D('',#1735,#1385,#1386);
#1218=AXIS2_PLACEMENT_3D('',#1746,#1392,#1393);
#1219=AXIS2_PLACEMENT_3D('',#1752,#1397,#1398);
#1220=AXIS2_PLACEMENT_3D('',#1758,#1402,#1403);
#1221=AXIS2_PLACEMENT_3D('',#1761,#1406,#1407);
#1222=AXIS2_PLACEMENT_3D('',#1767,#1411,#1412);
#1223=AXIS2_PLACEMENT_3D('',#1771,#1414,#1415);
#1224=AXIS2_PLACEMENT_3D('',#1780,#1420,#1421);
#1225=AXIS2_PLACEMENT_3D('',#1781,#1422,#1423);
#1226=AXIS2_PLACEMENT_3D('',#1782,#1424,#1425);
#1227=AXIS2_PLACEMENT_3D('',#1783,#1426,#1427);
#1228=AXIS2_PLACEMENT_3D('',#1784,#1428,#1429);
#1229=AXIS2_PLACEMENT_3D('',#1788,#1431,#1432);
#1230=AXIS2_PLACEMENT_3D('',#1791,#1434,#1435);
#1231=AXIS2_PLACEMENT_3D('',#1795,#1438,#1439);
#1232=AXIS2_PLACEMENT_3D('',#1803,#1444,#1445);
#1233=AXIS2_PLACEMENT_3D('',#1807,#1448,#1449);
#1234=AXIS2_PLACEMENT_3D('',#1812,#1453,#1454);
#1235=AXIS2_PLACEMENT_3D('',#1813,#1455,#1456);
#1236=AXIS2_PLACEMENT_3D('',#1815,#1458,#1459);
#1237=AXIS2_PLACEMENT_3D('',#1817,#1461,#1462);
#1238=AXIS2_PLACEMENT_3D('',#1818,#1463,#1464);
#1239=AXIS2_PLACEMENT_3D('',#1827,#1468,#1469);
#1240=AXIS2_PLACEMENT_3D('',#1834,#1473,#1474);
#1241=AXIS2_PLACEMENT_3D('',#1840,#1478,#1479);
#1242=AXIS2_PLACEMENT_3D('',#1841,#1480,#1481);
#1243=AXIS2_PLACEMENT_3D('',#1845,#1484,#1485);
#1244=AXIS2_PLACEMENT_3D('',#1849,#1488,#1489);
#1245=AXIS2_PLACEMENT_3D('',#1853,#1492,#1493);
#1246=AXIS2_PLACEMENT_3D('',#1857,#1496,#1497);
#1247=AXIS2_PLACEMENT_3D('',#1858,#1498,#1499);
#1248=AXIS2_PLACEMENT_3D('',#1862,#1502,#1503);
#1249=AXIS2_PLACEMENT_3D('',#1866,#1506,#1507);
#1250=AXIS2_PLACEMENT_3D('',#1868,#1509,#1510);
#1251=AXIS2_PLACEMENT_3D('',#1875,#1514,#1515);
#1252=AXIS2_PLACEMENT_3D('',#1881,#1519,#1520);
#1253=AXIS2_PLACEMENT_3D('',#1882,#1521,#1522);
#1254=AXIS2_PLACEMENT_3D('',#1883,#1523,#1524);
#1255=AXIS2_PLACEMENT_3D('',#1884,#1525,#1526);
#1256=AXIS2_PLACEMENT_3D('',#1892,#1531,#1532);
#1257=AXIS2_PLACEMENT_3D('',#1893,#1533,#1534);
#1258=AXIS2_PLACEMENT_3D('',#1897,#1536,#1537);
#1259=AXIS2_PLACEMENT_3D('',#1898,#1538,#1539);
#1260=AXIS2_PLACEMENT_3D('',#1903,#1543,#1544);
#1261=AXIS2_PLACEMENT_3D('',#1905,#1546,#1547);
#1262=AXIS2_PLACEMENT_3D('',#1908,#1550,#1551);
#1263=AXIS2_PLACEMENT_3D('',#1910,#1553,#1554);
#1264=AXIS2_PLACEMENT_3D('',#1912,#1556,#1557);
#1265=AXIS2_PLACEMENT_3D('',#1914,#1559,#1560);
#1266=AXIS2_PLACEMENT_3D('',#1916,#1562,#1563);
#1267=AXIS2_PLACEMENT_3D('',#1918,#1565,#1566);
#1268=AXIS2_PLACEMENT_3D('',#1920,#1568,#1569);
#1269=AXIS2_PLACEMENT_3D('',#1922,#1571,#1572);
#1270=AXIS2_PLACEMENT_3D('',#1924,#1574,#1575);
#1271=AXIS2_PLACEMENT_3D('',#1926,#1577,#1578);
#1272=AXIS2_PLACEMENT_3D('',#1928,#1580,#1581);
#1273=AXIS2_PLACEMENT_3D('',#1930,#1583,#1584);
#1274=AXIS2_PLACEMENT_3D('',#1931,#1585,#1586);
#1275=AXIS2_PLACEMENT_3D('',#1932,#1587,#1588);
#1276=AXIS2_PLACEMENT_3D('',#1933,#1589,#1590);
#1277=AXIS2_PLACEMENT_3D('',#1934,#1591,#1592);
#1278=AXIS2_PLACEMENT_3D('',#1935,#1593,#1594);
#1279=AXIS2_PLACEMENT_3D('',#1937,#1595,#1596);
#1280=AXIS2_PLACEMENT_3D('',#1938,#1597,#1598);
#1281=AXIS2_PLACEMENT_3D('',#1940,#1599,#1600);
#1282=AXIS2_PLACEMENT_3D('',#1942,#1601,#1602);
#1283=AXIS2_PLACEMENT_3D('',#1943,#1603,#1604);
#1284=AXIS2_PLACEMENT_3D('',#1945,#1605,#1606);
#1285=AXIS2_PLACEMENT_3D('',#1946,#1607,#1608);
#1286=AXIS2_PLACEMENT_3D('',#1948,#1609,#1610);
#1287=AXIS2_PLACEMENT_3D('',#1949,#1611,#1612);
#1288=AXIS2_PLACEMENT_3D('',#1950,#1613,#1614);
#1289=AXIS2_PLACEMENT_3D('',#1951,#1615,#1616);
#1290=DIRECTION('',(0.,0.,1.));
#1291=DIRECTION('',(1.,0.,0.));
#1292=DIRECTION('',(1.,0.,0.));
#1293=DIRECTION('',(0.,1.,0.));
#1294=DIRECTION('',(1.,0.,0.));
#1295=DIRECTION('',(0.,0.,-1.));
#1296=DIRECTION('',(1.,0.,0.));
#1297=DIRECTION('',(0.,0.,-1.));
#1298=DIRECTION('',(0.,0.,-1.));
#1299=DIRECTION('',(0.,-1.,0.));
#1300=DIRECTION('',(0.,0.360399279202163,-0.932798134405597));
#1301=DIRECTION('',(0.,0.,1.));
#1302=DIRECTION('',(0.,1.,0.));
#1303=DIRECTION('',(1.,0.,0.));
#1304=DIRECTION('',(0.,0.,-1.));
#1305=DIRECTION('',(1.,0.,0.));
#1306=DIRECTION('',(0.,0.,-1.));
#1307=DIRECTION('',(0.,0.952351796433673,-0.305001730863213));
#1308=DIRECTION('',(0.,0.,1.));
#1309=DIRECTION('',(1.,0.,0.));
#1310=DIRECTION('',(1.,0.,0.));
#1311=DIRECTION('',(-1.3695185336659E-16,1.,0.));
#1312=DIRECTION('',(1.,0.,0.));
#1313=DIRECTION('',(1.3695185336659E-16,-1.,0.));
#1314=DIRECTION('',(0.,0.,1.));
#1315=DIRECTION('',(-1.3695185336659E-16,1.,0.));
#1316=DIRECTION('',(1.,0.,0.));
#1317=DIRECTION('',(1.,0.,0.));
#1318=DIRECTION('',(0.,0.,-1.));
#1319=DIRECTION('',(1.,0.,0.));
#1320=DIRECTION('',(1.,0.,0.));
#1321=DIRECTION('',(1.,0.,0.));
#1322=DIRECTION('',(0.,0.,-1.));
#1323=DIRECTION('',(1.,0.,0.));
#1324=DIRECTION('',(-1.,-1.3695185336659E-16,0.));
#1325=DIRECTION('',(1.3695185336659E-16,-1.,0.));
#1326=DIRECTION('',(0.,0.305001730863213,0.952351796433673));
#1327=DIRECTION('',(0.,-0.952351796433673,0.305001730863213));
#1328=DIRECTION('',(-1.30426343578593E-16,0.952351796433673,-0.305001730863213));
#1329=DIRECTION('',(1.,0.,0.));
#1330=DIRECTION('',(0.,0.,1.));
#1331=DIRECTION('',(1.,0.,0.));
#1332=DIRECTION('',(-1.,-5.92327458161301E-16,0.));
#1333=DIRECTION('',(0.,-1.,0.));
#1334=DIRECTION('',(1.,0.,0.));
#1335=DIRECTION('',(0.,-1.,0.));
#1336=DIRECTION('',(1.,0.,0.));
#1337=DIRECTION('',(0.,1.,0.));
#1338=DIRECTION('',(0.,0.,1.));
#1339=DIRECTION('',(0.,0.,1.));
#1340=DIRECTION('',(0.,-0.932798134405597,-0.360399279202163));
#1341=DIRECTION('',(0.,0.360399279202163,-0.932798134405597));
#1342=DIRECTION('',(1.,5.92327458161301E-16,-1.53308283288807E-15));
#1343=DIRECTION('',(4.93573492387193E-17,-0.360399279202163,0.932798134405597));
#1344=DIRECTION('',(-4.93573492387193E-17,0.360399279202163,-0.932798134405597));
#1345=DIRECTION('',(0.,0.932798134405597,0.360399279202163));
#1346=DIRECTION('',(4.93573492387193E-17,-0.360399279202163,0.932798134405597));
#1347=DIRECTION('',(-5.92327458161301E-16,1.,0.));
#1348=DIRECTION('',(1.75940574579774E-16,1.04214433328277E-31,-1.));
#1349=DIRECTION('',(-1.,-1.3695185336659E-16,0.));
#1350=DIRECTION('',(1.3695185336659E-16,-1.,0.));
#1351=DIRECTION('',(0.,0.,-1.));
#1352=DIRECTION('',(0.,1.,0.));
#1353=DIRECTION('',(0.,0.,1.));
#1354=DIRECTION('',(0.,0.,-1.));
#1355=DIRECTION('',(-1.,-5.92327458161301E-16,-4.33680868994202E-16));
#1356=DIRECTION('',(0.,0.,1.));
#1357=DIRECTION('',(-1.,-5.92327458161301E-16,-4.33680868994202E-16));
#1358=DIRECTION('',(0.,0.,-1.));
#1359=DIRECTION('',(-1.,-1.3695185336659E-16,0.));
#1360=DIRECTION('',(1.3695185336659E-16,-1.,0.));
#1361=DIRECTION('',(-1.,-1.3695185336659E-16,0.));
#1362=DIRECTION('',(1.3695185336659E-16,-1.,0.));
#1363=DIRECTION('',(-1.,-1.3695185336659E-16,0.));
#1364=DIRECTION('',(1.3695185336659E-16,-1.,0.));
#1365=DIRECTION('',(1.,1.3695185336659E-16,0.));
#1366=DIRECTION('',(-1.3695185336659E-16,1.,0.));
#1367=DIRECTION('',(1.3269601303208E-17,-0.0968924551001747,0.995294856886471));
#1368=DIRECTION('',(-1.,-1.3695185336659E-16,0.));
#1369=DIRECTION('',(1.3695185336659E-16,-1.,0.));
#1370=DIRECTION('',(0.,0.445178750395652,0.89544172350643));
#1371=DIRECTION('',(1.3695185336659E-16,1.,0.));
#1372=DIRECTION('',(-7.85367308965074E-17,-0.573462344363328,-0.819231920519041));
#1373=DIRECTION('',(0.,0.,-1.));
#1374=DIRECTION('',(-7.85367308965074E-17,-0.573462344363328,0.819231920519041));
#1375=DIRECTION('',(1.3695185336659E-16,1.,0.));
#1376=DIRECTION('',(7.85367308965074E-17,0.573462344363328,0.819231920519041));
#1377=DIRECTION('',(0.,0.,-1.));
#1378=DIRECTION('',(-1.,-1.3695185336659E-16,0.));
#1379=DIRECTION('',(1.3695185336659E-16,-1.,0.));
#1380=DIRECTION('',(0.,-0.806854670758608,-0.590749981189181));
#1381=DIRECTION('',(1.,0.,0.));
#1382=DIRECTION('',(0.,0.,-1.));
#1383=DIRECTION('',(1.,0.,0.));
#1384=DIRECTION('',(0.,0.,-1.));
#1385=DIRECTION('',(-0.832050294337843,0.392232270276369,0.392232270276368));
#1386=DIRECTION('',(0.,0.707106781186547,-0.707106781186548));
#1387=DIRECTION('',(0.524427835967411,0.32583768321551,0.786641753951115));
#1388=DIRECTION('',(-0.426401432711222,-0.90453403373329,0.));
#1389=DIRECTION('',(0.,-0.707106781186547,0.707106781186548));
#1390=DIRECTION('',(-0.451592309217088,-0.0683710378336595,-0.889600914703625));
#1391=DIRECTION('',(0.,0.707106781186547,-0.707106781186548));
#1392=DIRECTION('',(-0.90453403373329,0.426401432711222,0.));
#1393=DIRECTION('',(-0.426401432711222,-0.904534033733291,0.));
#1394=DIRECTION('',(0.,0.,1.));
#1395=DIRECTION('',(-0.426401432711222,-0.90453403373329,0.));
#1396=DIRECTION('',(0.,0.,1.));
#1397=DIRECTION('',(-1.,0.,0.));
#1398=DIRECTION('',(0.,1.,0.));
#1399=DIRECTION('',(0.,1.,0.));
#1400=DIRECTION('',(0.,0.,1.));
#1401=DIRECTION('',(0.,-0.806854670758608,-0.590749981189181));
#1402=DIRECTION('',(-0.832050294337843,-0.327689130485689,0.447562444195043));
#1403=DIRECTION('',(0.,0.806854670758608,0.590749981189181));
#1404=DIRECTION('',(0.366439080618608,-0.930442045586607,0.));
#1405=DIRECTION('',(0.,0.806854670758608,0.590749981189181));
#1406=DIRECTION('',(0.,-0.707106781186548,-0.707106781186547));
#1407=DIRECTION('',(0.,0.707106781186547,-0.707106781186548));
#1408=DIRECTION('',(1.,0.,0.));
#1409=DIRECTION('',(1.,0.,0.));
#1410=DIRECTION('',(0.,-0.707106781186547,0.707106781186548));
#1411=DIRECTION('',(1.,0.,0.));
#1412=DIRECTION('',(0.,1.,0.));
#1413=DIRECTION('',(0.,-0.806854670758608,-0.590749981189181));
#1414=DIRECTION('',(1.,0.,0.));
#1415=DIRECTION('',(0.,0.,-1.));
#1416=DIRECTION('',(0.,0.,-1.));
#1417=DIRECTION('',(0.,0.573462344363328,-0.819231920519041));
#1418=DIRECTION('',(0.,-1.,0.));
#1419=DIRECTION('',(0.,-0.707106781186547,0.707106781186548));
#1420=DIRECTION('',(0.,-0.707106781186547,0.707106781186548));
#1421=DIRECTION('',(0.,-0.707106781186548,-0.707106781186547));
#1422=DIRECTION('',(0.,0.923879532511287,-0.38268343236509));
#1423=DIRECTION('',(0.,-0.382683432365091,-0.923879532511287));
#1424=DIRECTION('',(0.,-0.590749981189181,0.806854670758608));
#1425=DIRECTION('',(0.,-0.806854670758608,-0.590749981189181));
#1426=DIRECTION('',(0.,-1.,0.));
#1427=DIRECTION('',(0.,0.,-1.));
#1428=DIRECTION('',(0.,-0.819231920519041,-0.573462344363328));
#1429=DIRECTION('',(0.,-0.573462344363328,0.819231920519041));
#1430=DIRECTION('',(0.,-1.,0.));
#1431=DIRECTION('',(0.,0.923879532511287,-0.38268343236509));
#1432=DIRECTION('',(0.,-0.38268343236509,-0.923879532511287));
#1433=DIRECTION('',(0.,-1.,0.));
#1434=DIRECTION('',(0.,0.,-1.));
#1435=DIRECTION('',(1.,0.,0.));
#1436=DIRECTION('',(1.,0.,0.));
#1437=DIRECTION('',(0.,1.,0.));
#1438=DIRECTION('',(-0.832050294337843,0.,0.55470019622523));
#1439=DIRECTION('',(0.,1.,0.));
#1440=DIRECTION('',(0.524427835967411,0.325837683215511,0.786641753951115));
#1441=DIRECTION('',(0.,-1.,0.));
#1442=DIRECTION('',(0.55470019622523,0.,0.832050294337843));
#1443=DIRECTION('',(0.,-1.,0.));
#1444=DIRECTION('',(-1.,0.,0.));
#1445=DIRECTION('',(0.,0.,1.));
#1446=DIRECTION('',(0.,0.,1.));
#1447=DIRECTION('',(0.,-1.,0.));
#1448=DIRECTION('',(-4.33680868994202E-16,0.,1.));
#1449=DIRECTION('',(1.,0.,4.33680868994202E-16));
#1450=DIRECTION('',(-1.,0.,-4.33680868994202E-16));
#1451=DIRECTION('',(0.,-1.,0.));
#1452=DIRECTION('',(0.366439080618608,-0.930442045586607,0.));
#1453=DIRECTION('',(-0.930442045586607,-0.366439080618608,0.));
#1454=DIRECTION('',(0.366439080618608,-0.930442045586607,0.));
#1455=DIRECTION('',(0.,-0.590749981189181,0.806854670758608));
#1456=DIRECTION('',(0.,-0.806854670758608,-0.590749981189181));
#1457=DIRECTION('',(-1.,0.,0.));
#1458=DIRECTION('',(-1.,0.,0.));
#1459=DIRECTION('',(0.,0.,1.));
#1460=DIRECTION('',(0.,0.,-1.));
#1461=DIRECTION('',(-1.,0.,0.));
#1462=DIRECTION('',(0.,1.,0.));
#1463=DIRECTION('',(-1.,0.,0.));
#1464=DIRECTION('',(0.,0.,1.));
#1465=DIRECTION('',(0.,0.,-1.));
#1466=DIRECTION('',(0.,-1.,0.));
#1467=DIRECTION('',(0.,0.,1.));
#1468=DIRECTION('',(-1.,0.,0.));
#1469=DIRECTION('',(0.,0.,1.));
#1470=DIRECTION('',(0.,0.,1.));
#1471=DIRECTION('',(0.,1.,0.));
#1472=DIRECTION('',(0.,0.,-1.));
#1473=DIRECTION('',(-0.760263948640732,-0.532184764048512,-0.372529334833959));
#1474=DIRECTION('',(-0.573462344363328,0.819231920519041,0.));
#1475=DIRECTION('',(0.556890098923011,-0.23866718525272,-0.79555728417573));
#1476=DIRECTION('',(-4.52600544566712E-17,-0.573462344363328,0.819231920519041));
#1477=DIRECTION('',(-0.573462344363328,0.819231920519041,-2.77555756156289E-17));
#1478=DIRECTION('',(0.819231920519041,0.573462344363328,0.));
#1479=DIRECTION('',(0.,0.,-1.));
#1480=DIRECTION('',(0.819231920519041,0.573462344363328,0.));
#1481=DIRECTION('',(0.573462344363328,-0.819231920519041,0.));
#1482=DIRECTION('',(0.,0.,1.));
#1483=DIRECTION('',(0.573462344363328,-0.819231920519041,-1.56087533315051E-16));
#1484=DIRECTION('',(-0.760263948640732,-0.532184764048512,0.372529334833958));
#1485=DIRECTION('',(-0.573462344363328,0.819231920519041,0.));
#1486=DIRECTION('',(0.556890098923011,-0.23866718525272,0.79555728417573));
#1487=DIRECTION('',(-2.77555756156289E-17,-0.573462344363328,-0.819231920519041));
#1488=DIRECTION('',(-0.819231920519041,0.,0.573462344363328));
#1489=DIRECTION('',(0.,-1.,0.));
#1490=DIRECTION('',(-0.556890098923011,-0.23866718525272,-0.79555728417573));
#1491=DIRECTION('',(0.,1.,0.));
#1492=DIRECTION('',(-0.760263948640732,0.532184764048512,0.372529334833958));
#1493=DIRECTION('',(0.573462344363328,0.819231920519041,0.));
#1494=DIRECTION('',(0.573462344363328,0.819231920519041,-1.56087533315051E-16));
#1495=DIRECTION('',(-2.77555756156289E-17,0.573462344363328,-0.819231920519041));
#1496=DIRECTION('',(-0.819231920519041,0.573462344363328,0.));
#1497=DIRECTION('',(0.,0.,1.));
#1498=DIRECTION('',(-0.819231920519041,0.573462344363328,0.));
#1499=DIRECTION('',(0.573462344363328,0.819231920519041,0.));
#1500=DIRECTION('',(0.,0.,-1.));
#1501=DIRECTION('',(-0.573462344363328,-0.819231920519041,-8.81014048659048E-16));
#1502=DIRECTION('',(-0.760263948640732,0.532184764048513,-0.372529334833958));
#1503=DIRECTION('',(0.573462344363329,0.81923192051904,0.));
#1504=DIRECTION('',(2.77555756156289E-17,0.573462344363328,0.819231920519041));
#1505=DIRECTION('',(-0.556890098923011,-0.23866718525272,0.79555728417573));
#1506=DIRECTION('',(0.81923192051904,0.,0.573462344363329));
#1507=DIRECTION('',(0.,1.,0.));
#1508=DIRECTION('',(0.,-1.,0.));
#1509=DIRECTION('',(1.,0.,0.));
#1510=DIRECTION('',(0.,1.,0.));
#1511=DIRECTION('',(0.,0.707106781186547,-0.707106781186548));
#1512=DIRECTION('',(0.,1.,0.));
#1513=DIRECTION('',(0.,0.445178750395652,0.89544172350643));
#1514=DIRECTION('',(0.,0.707106781186548,0.707106781186547));
#1515=DIRECTION('',(0.,-0.707106781186547,0.707106781186548));
#1516=DIRECTION('',(1.,0.,0.));
#1517=DIRECTION('',(0.,0.707106781186547,-0.707106781186548));
#1518=DIRECTION('',(0.,0.707106781186547,-0.707106781186548));
#1519=DIRECTION('',(0.,-0.707106781186547,0.707106781186548));
#1520=DIRECTION('',(0.,-0.707106781186548,-0.707106781186547));
#1521=DIRECTION('',(0.,0.,-1.));
#1522=DIRECTION('',(0.,-1.,0.));
#1523=DIRECTION('',(0.,0.89544172350643,-0.445178750395652));
#1524=DIRECTION('',(0.,0.445178750395652,0.89544172350643));
#1525=DIRECTION('',(0.832050294337843,-0.552090252416889,-0.0537462638568113));
#1526=DIRECTION('',(0.,-0.0968924551001747,0.995294856886471));
#1527=DIRECTION('',(0.55470019622523,0.828135378625329,0.0806193957852166));
#1528=DIRECTION('',(0.,-0.0968924551001747,0.995294856886471));
#1529=DIRECTION('',(0.554700196225231,0.828135378625329,0.0806193957852165));
#1530=DIRECTION('',(0.,-0.0968924551001747,0.995294856886471));
#1531=DIRECTION('',(-1.,0.,0.));
#1532=DIRECTION('',(0.,0.,-1.));
#1533=DIRECTION('',(1.,0.,0.));
#1534=DIRECTION('',(0.,0.,-1.));
#1535=DIRECTION('',(0.554700196225229,0.745052549605911,-0.370411110299656));
#1536=DIRECTION('',(1.,0.,0.));
#1537=DIRECTION('',(0.,0.,-1.));
#1538=DIRECTION('',(-0.832050294337843,0.496701699737275,-0.246940740199771));
#1539=DIRECTION('',(0.,-0.445178750395652,-0.89544172350643));
#1540=DIRECTION('',(0.,0.445178750395652,0.89544172350643));
#1541=DIRECTION('',(0.476014050456891,0.867921186670039,0.141857102384389));
#1542=DIRECTION('',(0.,-0.445178750395652,-0.89544172350643));
#1543=DIRECTION('',(0.832050294337843,-0.392232270276368,-0.392232270276368));
#1544=DIRECTION('',(0.,0.707106781186547,-0.707106781186548));
#1545=DIRECTION('',(0.,-0.707106781186547,0.707106781186548));
#1546=DIRECTION('',(0.,0.819231920519041,0.573462344363328));
#1547=DIRECTION('',(1.,0.,0.));
#1548=DIRECTION('',(1.,0.,0.));
#1549=DIRECTION('',(-1.,0.,0.));
#1550=DIRECTION('',(0.,-1.,0.));
#1551=DIRECTION('',(1.,0.,0.));
#1552=DIRECTION('',(0.,0.,-1.));
#1553=DIRECTION('',(1.,0.,0.));
#1554=DIRECTION('',(0.,0.,-1.));
#1555=DIRECTION('',(1.,0.,0.));
#1556=DIRECTION('',(0.,-1.,0.));
#1557=DIRECTION('',(0.,0.,-1.));
#1558=DIRECTION('',(1.,0.,0.));
#1559=DIRECTION('',(0.,-0.819231920519041,0.573462344363328));
#1560=DIRECTION('',(1.,0.,0.));
#1561=DIRECTION('',(-1.,0.,0.));
#1562=DIRECTION('',(0.,0.,-1.));
#1563=DIRECTION('',(1.,0.,0.));
#1564=DIRECTION('',(1.,0.,0.));
#1565=DIRECTION('',(0.,-0.819231920519041,-0.573462344363328));
#1566=DIRECTION('',(-1.,0.,0.));
#1567=DIRECTION('',(-1.,0.,0.));
#1568=DIRECTION('',(0.,-1.,0.));
#1569=DIRECTION('',(0.,0.,-1.));
#1570=DIRECTION('',(1.,0.,0.));
#1571=DIRECTION('',(0.,0.819231920519041,-0.573462344363328));
#1572=DIRECTION('',(1.,0.,0.));
#1573=DIRECTION('',(-1.,0.,0.));
#1574=DIRECTION('',(0.,0.,-1.));
#1575=DIRECTION('',(1.,0.,0.));
#1576=DIRECTION('',(-1.,0.,0.));
#1577=DIRECTION('',(0.,0.89544172350643,-0.445178750395652));
#1578=DIRECTION('',(0.,0.445178750395652,0.89544172350643));
#1579=DIRECTION('',(-1.,0.,0.));
#1580=DIRECTION('',(-1.,0.,0.));
#1581=DIRECTION('',(0.,0.,1.));
#1582=DIRECTION('',(-1.,0.,0.));
#1583=DIRECTION('',(0.,-0.995294856886471,-0.0968924551001747));
#1584=DIRECTION('',(1.,0.,0.));
#1585=DIRECTION('',(-1.,0.,0.));
#1586=DIRECTION('',(0.,1.,0.));
#1587=DIRECTION('',(1.,0.,0.));
#1588=DIRECTION('',(0.,0.,-1.));
#1589=DIRECTION('',(-1.,0.,0.));
#1590=DIRECTION('',(0.,0.,-1.));
#1591=DIRECTION('',(1.,1.3695185336659E-16,0.));
#1592=DIRECTION('',(-1.3695185336659E-16,1.,0.));
#1593=DIRECTION('',(1.,1.3695185336659E-16,0.));
#1594=DIRECTION('',(-1.3695185336659E-16,1.,0.));
#1595=DIRECTION('',(1.,1.3695185336659E-16,0.));
#1596=DIRECTION('',(-1.3695185336659E-16,1.,0.));
#1597=DIRECTION('',(1.,1.3695185336659E-16,0.));
#1598=DIRECTION('',(-1.3695185336659E-16,1.,0.));
#1599=DIRECTION('',(1.,1.3695185336659E-16,0.));
#1600=DIRECTION('',(-1.3695185336659E-16,1.,0.));
#1601=DIRECTION('',(1.,0.,0.));
#1602=DIRECTION('',(0.,0.,-1.));
#1603=DIRECTION('',(-1.,0.,0.));
#1604=DIRECTION('',(0.,0.,1.));
#1605=DIRECTION('',(1.,0.,0.));
#1606=DIRECTION('',(0.,0.,-1.));
#1607=DIRECTION('',(-1.,0.,0.));
#1608=DIRECTION('',(0.,0.,1.));
#1609=DIRECTION('',(1.,0.,0.));
#1610=DIRECTION('',(0.,0.,-1.));
#1611=DIRECTION('',(1.,0.,0.));
#1612=DIRECTION('',(0.,0.,-1.));
#1613=DIRECTION('',(1.,1.3695185336659E-16,0.));
#1614=DIRECTION('',(-1.3695185336659E-16,1.,0.));
#1615=DIRECTION('',(1.,1.3695185336659E-16,0.));
#1616=DIRECTION('',(-1.3695185336659E-16,1.,0.));
#1617=CARTESIAN_POINT('',(0.,0.,0.));
#1618=CARTESIAN_POINT('',(-0.0165,0.03975,0.02565));
#1619=CARTESIAN_POINT('',(-0.0165,0.0471,-0.00089476756372235));
#1620=CARTESIAN_POINT('',(-0.0165,0.0471,-0.00229476756372235));
#1621=CARTESIAN_POINT('',(-0.0165,0.0409,0.000405232436277655));
#1622=CARTESIAN_POINT('',(-0.0165,0.0409,-0.000994767563722345));
#1623=CARTESIAN_POINT('',(-0.0165,0.055,-0.008));
#1624=CARTESIAN_POINT('',(-0.0165,0.055,0.000405232436277655));
#1625=CARTESIAN_POINT('',(-0.0165,0.055,-0.0062));
#1626=CARTESIAN_POINT('',(-0.0165,0.03975,-0.0062));
#1627=CARTESIAN_POINT('',(-0.0165,0.0253045454545455,-0.0062));
#1628=CARTESIAN_POINT('',(-0.0165,0.0216219827888822,0.00333133866406947));
#1629=CARTESIAN_POINT('',(-0.0165,0.0202316282571331,0.00692990333447904));
#1630=CARTESIAN_POINT('',(-0.0165,0.0202316282571331,0.02565));
#1631=CARTESIAN_POINT('',(-0.0165,0.0202316282571331,0.014));
#1632=CARTESIAN_POINT('',(-0.0165,0.0181329889849161,0.014));
#1633=CARTESIAN_POINT('',(-0.0165,0.035,0.014));
#1634=CARTESIAN_POINT('',(-0.0165,0.0537704262635402,0.022386269445085));
#1635=CARTESIAN_POINT('',(-0.0165,0.0495231888069885,0.00227111616930236));
#1636=CARTESIAN_POINT('',(-0.0165,0.0519934561612659,0.00661827376920501));
#1637=CARTESIAN_POINT('',(-0.0165,0.0504684475069498,0.00185651478703664));
#1638=CARTESIAN_POINT('',(-0.0165,0.06125,-0.00159640270005912));
#1639=CARTESIAN_POINT('',(0.,0.0275,-0.0062));
#1640=CARTESIAN_POINT('',(-0.0055,0.055,-0.0062));
#1641=CARTESIAN_POINT('',(-0.0095,0.055,-0.0062));
#1642=CARTESIAN_POINT('',(-0.0095,0.036,-0.0062));
#1643=CARTESIAN_POINT('',(-0.0095,0.0202316282571331,-0.0062));
#1644=CARTESIAN_POINT('',(0.0165,0.0202316282571331,-0.0062));
#1645=CARTESIAN_POINT('',(-0.0113,0.0202316282571331,-0.0062));
#1646=CARTESIAN_POINT('',(-0.0113,0.0275,-0.0062));
#1647=CARTESIAN_POINT('',(-0.0113,0.0231604588336235,-0.0062));
#1648=CARTESIAN_POINT('',(-0.0133,0.0231604588336235,-0.0062));
#1649=CARTESIAN_POINT('',(-0.0133,0.0253045454545455,-0.0062));
#1650=CARTESIAN_POINT('',(0.,0.0253045454545455,-0.0062));
#1651=CARTESIAN_POINT('',(-0.1,0.0519934561612659,0.00661827376920501));
#1652=CARTESIAN_POINT('',(-0.1,0.0504684475069498,0.00185651478703664));
#1653=CARTESIAN_POINT('',(-0.0095,0.0504684475069498,0.00185651478703664));
#1654=CARTESIAN_POINT('',(-2.77555756156289E-17,0.0495231888069885,0.00227111616930237));
#1655=CARTESIAN_POINT('',(-0.0205,0.0495231888069885,0.00227111616930236));
#1656=CARTESIAN_POINT('',(-0.0205,0.0519934561612659,0.00661827376920501));
#1657=CARTESIAN_POINT('',(-0.0205,0.0470169818768335,0.00613381149370414));
#1658=CARTESIAN_POINT('',(-0.1,0.0470169818768335,0.00613381149370414));
#1659=CARTESIAN_POINT('',(-0.0095,0.0470169818768335,0.00613381149370414));
#1660=CARTESIAN_POINT('',(-0.0095,0.0519934561612659,0.00661827376920501));
#1661=CARTESIAN_POINT('',(-0.1,0.06125,-0.00159640270005912));
#1662=CARTESIAN_POINT('',(-0.0095,0.0390470782847468,0.00551434101747456));
#1663=CARTESIAN_POINT('',(-0.0095,0.055,0.000405232436277653));
#1664=CARTESIAN_POINT('',(-0.0055,0.055,0.000405232436277653));
#1665=CARTESIAN_POINT('',(0.,0.0275,0.014));
#1666=CARTESIAN_POINT('',(4.30525615942377E-18,0.0202316282571331,0.014));
#1667=CARTESIAN_POINT('',(-0.0153,0.0202316282571331,0.014));
#1668=CARTESIAN_POINT('',(-0.0153,0.0352,0.014));
#1669=CARTESIAN_POINT('',(-0.0153,0.0352,0.014));
#1670=CARTESIAN_POINT('',(-0.0193,0.0352,0.014));
#1671=CARTESIAN_POINT('',(-0.0225,0.0352,0.014));
#1672=CARTESIAN_POINT('',(-0.0225,0.0335988364697003,0.014));
#1673=CARTESIAN_POINT('',(-0.0225,0.035,0.014));
#1674=CARTESIAN_POINT('',(-0.1,0.035,0.014));
#1675=CARTESIAN_POINT('',(-0.0055,0.055,-0.008));
#1676=CARTESIAN_POINT('',(-0.0095,0.055,-0.008));
#1677=CARTESIAN_POINT('',(-0.0165,0.0216219827888822,0.00333133866406947));
#1678=CARTESIAN_POINT('',(-0.0165,0.0202316282571331,0.00692990333447905));
#1679=CARTESIAN_POINT('',(-0.0133,0.0202316282571331,0.00692990333447905));
#1680=CARTESIAN_POINT('',(-0.0133,0.0175,0.014));
#1681=CARTESIAN_POINT('',(-0.0133,0.019756386520071,0.00261054010566515));
#1682=CARTESIAN_POINT('',(-0.0113,0.0234389491857342,-0.00692079855840433));
#1683=CARTESIAN_POINT('',(-0.0113,0.0202316282571331,0.00138050266856339));
#1684=CARTESIAN_POINT('',(-0.0133,0.0202316282571331,0.0013805026685634));
#1685=CARTESIAN_POINT('',(-0.0113,0.036,-0.004));
#1686=CARTESIAN_POINT('',(-0.0113,0.0202316282571331,-0.004));
#1687=CARTESIAN_POINT('',(0.0165,0.0202316282571331,0.0154));
#1688=CARTESIAN_POINT('',(-0.0095,0.0202316282571331,-0.004));
#1689=CARTESIAN_POINT('',(-0.0095,0.0202316282571331,0.016));
#1690=CARTESIAN_POINT('',(-0.0165,0.0202316282571331,0.016));
#1691=CARTESIAN_POINT('',(-0.0205,0.0202316282571331,0.016));
#1692=CARTESIAN_POINT('',(-0.0205,0.0202316282571331,0.0154));
#1693=CARTESIAN_POINT('',(-0.0205,0.0202316282571331,0.0154));
#1694=CARTESIAN_POINT('',(-0.0165,0.0202316282571331,0.0154));
#1695=CARTESIAN_POINT('',(-0.0153,0.0202316282571331,0.0154));
#1696=CARTESIAN_POINT('',(-0.0153,0.0202316282571331,0.015));
#1697=CARTESIAN_POINT('',(-0.0095,0.036,-0.004));
#1698=CARTESIAN_POINT('',(-0.0095,0.0471,-0.00089476756372235));
#1699=CARTESIAN_POINT('',(-0.0095,0.0444,-0.00089476756372235));
#1700=CARTESIAN_POINT('',(-0.0095,0.0409,0.000405232436277655));
#1701=CARTESIAN_POINT('',(-0.0095,0.0382,0.000405232436277655));
#1702=CARTESIAN_POINT('',(-0.0095,0.047,0.0268));
#1703=CARTESIAN_POINT('',(-0.0095,0.05356,0.0268));
#1704=CARTESIAN_POINT('',(-0.0095,0.0478908227648173,-0.00284242242098152));
#1705=CARTESIAN_POINT('',(-0.0095,0.0469272613170393,0.00705543549041155));
#1706=CARTESIAN_POINT('',(-0.0095,0.0519037356014716,0.00753989776591243));
#1707=CARTESIAN_POINT('',(-0.0095,0.0474265269839395,0.00976579151789068));
#1708=CARTESIAN_POINT('',(-0.0095,0.0502195188375851,0.0153836729575261));
#1709=CARTESIAN_POINT('',(-0.0095,0.0519179835883182,0.0188));
#1710=CARTESIAN_POINT('',(-0.0095,0.047,0.0188));
#1711=CARTESIAN_POINT('',(-0.0095,0.0529,0.0188));
#1712=CARTESIAN_POINT('',(-0.0095,0.0366308724832217,-0.00444161073825516));
#1713=CARTESIAN_POINT('',(-0.0095,0.055,0.0218));
#1714=CARTESIAN_POINT('',(-0.0095,0.055,0.0268));
#1715=CARTESIAN_POINT('',(-0.0095,0.055,0.0318));
#1716=CARTESIAN_POINT('',(-0.0095,0.0655704697986578,0.0166993288590605));
#1717=CARTESIAN_POINT('',(-0.0095,0.0529,0.0348));
#1718=CARTESIAN_POINT('',(-0.0095,0.047,0.0348));
#1719=CARTESIAN_POINT('',(-0.0095,0.0411,0.0348));
#1720=CARTESIAN_POINT('',(-0.0095,0.0211946308724834,0.0063637583892616));
#1721=CARTESIAN_POINT('',(-0.0095,0.039,0.0318));
#1722=CARTESIAN_POINT('',(-0.0095,0.039,0.0243630628046797));
#1723=CARTESIAN_POINT('',(-0.0095,0.039,0.0299261256093593));
#1724=CARTESIAN_POINT('',(-0.0095,0.0253072445946277,0.0445037951559173));
#1725=CARTESIAN_POINT('',(-0.0095,0.0371222442184113,0.0283667017407451));
#1726=CARTESIAN_POINT('',(-0.0095,0.02914446604939,0.022525659389401));
#1727=CARTESIAN_POINT('',(-0.1,0.0537704262635402,0.022386269445085));
#1728=CARTESIAN_POINT('',(-0.0225,0.0537704262635402,0.022386269445085));
#1729=CARTESIAN_POINT('',(-0.0225,0.0444052884940456,0.0040845588179619));
#1730=CARTESIAN_POINT('',(-0.0205,0.0495231888069885,0.00227111616930236));
#1731=CARTESIAN_POINT('',(-0.020694142885359,0.0485852290008148,0.00246916278455322));
#1732=CARTESIAN_POINT('',(-0.0213007324851635,0.0468249030090039,0.00297421183406928));
#1733=CARTESIAN_POINT('',(-0.0220886510405826,0.0451898508476479,0.00368309172671876));
#1734=CARTESIAN_POINT('',(-0.0225,0.0444052884940456,0.0040845588179619));
#1735=CARTESIAN_POINT('',(-0.0225,0.0339728761251033,0.0137893904005757));
#1736=CARTESIAN_POINT('',(-0.0218577996862565,0.0327155870571262,0.0164089920587371));
#1737=CARTESIAN_POINT('',(-0.022130461058748,0.0325461769994944,0.016));
#1738=CARTESIAN_POINT('',(-0.0205,0.0335592156246763,0.0184456915881219));
#1739=CARTESIAN_POINT('',(-0.0205922665536703,0.0358091802954673,0.016));
#1740=CARTESIAN_POINT('',(-0.0225,0.0317622665256789,0.016));
#1741=CARTESIAN_POINT('',(-0.0225,0.0272164194171522,0.0205458471085268));
#1742=CARTESIAN_POINT('',(-0.0225,0.0290349399280389,0.0187273265976401));
#1743=CARTESIAN_POINT('',(-0.0243312884324596,0.0287576830125766,0.0151198341064004));
#1744=CARTESIAN_POINT('',(-0.0205,0.0293377397607118,0.0226671674520865));
#1745=CARTESIAN_POINT('',(-0.0205,0.0335592156246763,0.0184456915881219));
#1746=CARTESIAN_POINT('',(-0.0205922665536703,0.0358091802954673,0.0154));
#1747=CARTESIAN_POINT('',(-0.022130461058748,0.0325461769994944,0.0154));
#1748=CARTESIAN_POINT('',(-0.022130461058748,0.0325461769994944,0.0154));
#1749=CARTESIAN_POINT('',(-0.0205922665536703,0.0358091802954673,0.0154));
#1750=CARTESIAN_POINT('',(-0.0225,0.0317622665256789,0.0154));
#1751=CARTESIAN_POINT('',(-0.0225,0.0317622665256789,0.0154));
#1752=CARTESIAN_POINT('',(-0.0225,0.0360748059227256,0.015891320198198));
#1753=CARTESIAN_POINT('',(-0.0225,0.0277158141285665,0.0154));
#1754=CARTESIAN_POINT('',(-0.0225,0.0253099187277667,0.0154));
#1755=CARTESIAN_POINT('',(-0.0225,0.0253099187277667,0.0154));
#1756=CARTESIAN_POINT('',(-0.0225,0.0253099187277667,0.016));
#1757=CARTESIAN_POINT('',(-0.0225,0.0220038782007007,0.0135794359877242));
#1758=CARTESIAN_POINT('',(-0.0225,0.0322662137886748,0.021093149144832));
#1759=CARTESIAN_POINT('',(-0.0254423381319034,0.0327809425760803,0.016));
#1760=CARTESIAN_POINT('',(-0.0205,0.0293377397607118,0.0226671674520865));
#1761=CARTESIAN_POINT('',(-0.0225,0.031448477692694,0.0205564295201042));
#1762=CARTESIAN_POINT('',(-0.0225,0.0335592156246763,0.0184456915881219));
#1763=CARTESIAN_POINT('',(-0.0185,0.0335592156246763,0.0184456915881219));
#1764=CARTESIAN_POINT('',(-0.0225,0.0293377397607118,0.0226671674520865));
#1765=CARTESIAN_POINT('',(-0.0185,0.0293377397607118,0.0226671674520865));
#1766=CARTESIAN_POINT('',(-0.0185,0.031448477692694,0.0205564295201042));
#1767=CARTESIAN_POINT('',(-0.0165,0.03975,0.02565));
#1768=CARTESIAN_POINT('',(-0.0165,0.02914446604939,0.022525659389401));
#1769=CARTESIAN_POINT('',(-0.0165,0.0371222442184113,0.0283667017407451));
#1770=CARTESIAN_POINT('',(-0.0165,0.0309706261662638,0.0238627081712806));
#1771=CARTESIAN_POINT('',(-0.0165,0.0253072445946277,0.0445037951559173));
#1772=CARTESIAN_POINT('',(-0.0165,0.039,0.0299261256093593));
#1773=CARTESIAN_POINT('',(-0.0165,0.039,0.0243630628046797));
#1774=CARTESIAN_POINT('',(-0.0165,0.039,0.0218));
#1775=CARTESIAN_POINT('',(-0.0165,0.0411,0.0188));
#1776=CARTESIAN_POINT('',(-0.0165,0.0399480158883148,0.0204456915881219));
#1777=CARTESIAN_POINT('',(-0.0165,0.03975,0.0204456915881219));
#1778=CARTESIAN_POINT('',(-0.0165,0.0343876427494225,0.0204456915881219));
#1779=CARTESIAN_POINT('',(-0.0165,0.0344666671687722,0.0203666671687722));
#1780=CARTESIAN_POINT('',(-0.0185,0.0328626912550672,0.0219706430824773));
#1781=CARTESIAN_POINT('',(-0.0185,0.0343876427494225,0.0204456915881219));
#1782=CARTESIAN_POINT('',(-0.0185,0.0309706261662638,0.0238627081712806));
#1783=CARTESIAN_POINT('',(-0.0185,0.0377728409537739,0.0204456915881219));
#1784=CARTESIAN_POINT('',(-0.0185,0.0399480158883148,0.0204456915881219));
#1785=CARTESIAN_POINT('',(-0.0173634705473308,0.0411,0.0188));
#1786=CARTESIAN_POINT('',(-0.0173634705473308,0.0377728409537739,0.0188));
#1787=CARTESIAN_POINT('',(-0.0173634705473308,0.0421332256323341,0.0188));
#1788=CARTESIAN_POINT('',(-0.0185,0.0428148934076176,0.0204456915881219));
#1789=CARTESIAN_POINT('',(-0.0185,0.0419864662828714,0.0184456915881219));
#1790=CARTESIAN_POINT('',(-0.0185,0.0377728409537739,0.0184456915881219));
#1791=CARTESIAN_POINT('',(-0.0225,0.0377728409537739,0.0184456915881219));
#1792=CARTESIAN_POINT('',(-0.0225,0.0419864662828714,0.0184456915881219));
#1793=CARTESIAN_POINT('',(-0.0205,0.0419864662828714,0.0184456915881219));
#1794=CARTESIAN_POINT('',(-0.0205,0.0419864662828714,0.0184456915881219));
#1795=CARTESIAN_POINT('',(-0.0225,0.0360748059227256,0.0154456915881219));
#1796=CARTESIAN_POINT('',(-0.0211041462040521,0.0416110979558095,0.0175394722820437));
#1797=CARTESIAN_POINT('',(-0.0225,0.0407438255957521,0.0154456915881219));
#1798=CARTESIAN_POINT('',(-0.0225,0.0335592156246763,0.0154456915881219));
#1799=CARTESIAN_POINT('',(-0.0225,0.0352,0.0154456915881219));
#1800=CARTESIAN_POINT('',(-0.0204441653483639,0.0352,0.018529443565576));
#1801=CARTESIAN_POINT('',(-0.022130461058748,0.0352,0.016));
#1802=CARTESIAN_POINT('',(-0.022130461058748,0.0352,0.016));
#1803=CARTESIAN_POINT('',(-0.022130461058748,0.0352,0.0154));
#1804=CARTESIAN_POINT('',(-0.022130461058748,0.0352,0.0154));
#1805=CARTESIAN_POINT('',(-0.022130461058748,0.0352,0.0154));
#1806=CARTESIAN_POINT('',(-0.022130461058748,0.0352,0.0154));
#1807=CARTESIAN_POINT('',(-0.0193,0.0352,0.0154));
#1808=CARTESIAN_POINT('',(-0.0193,0.0352,0.0154));
#1809=CARTESIAN_POINT('',(-0.0153,0.0352,0.0154));
#1810=CARTESIAN_POINT('',(-0.0153,0.0352,0.0154));
#1811=CARTESIAN_POINT('',(-0.0254423381319034,0.0327809425760803,0.0154));
#1812=CARTESIAN_POINT('',(-0.0254423381319034,0.0327809425760803,0.0154));
#1813=CARTESIAN_POINT('',(-0.0165,0.02914446604939,0.022525659389401));
#1814=CARTESIAN_POINT('',(-0.0165,0.0371222442184113,0.0283667017407451));
#1815=CARTESIAN_POINT('',(-0.0153,0.0352,0.015));
#1816=CARTESIAN_POINT('',(-0.0153,0.0352,0.015));
#1817=CARTESIAN_POINT('',(-0.0195,0.0373652667812701,0.0183282573935183));
#1818=CARTESIAN_POINT('',(-0.0195,0.04208,0.0268));
#1819=CARTESIAN_POINT('',(-0.0195,0.042,0.0277967948635501));
#1820=CARTESIAN_POINT('',(-0.0195,0.042,0.0258032051364498));
#1821=CARTESIAN_POINT('',(-0.0195,0.042,0.0183282573935183));
#1822=CARTESIAN_POINT('',(-0.0195,0.042,0.0318));
#1823=CARTESIAN_POINT('',(-0.0195,0.039,0.0318));
#1824=CARTESIAN_POINT('',(-0.0195,0.052,0.0318));
#1825=CARTESIAN_POINT('',(-0.0195,0.052,0.0348));
#1826=CARTESIAN_POINT('',(-0.0195,0.052,0.0277967948635501));
#1827=CARTESIAN_POINT('',(-0.0195,0.05192,0.0268));
#1828=CARTESIAN_POINT('',(-0.0195,0.052,0.0258032051364498));
#1829=CARTESIAN_POINT('',(-0.0195,0.052,0.0348));
#1830=CARTESIAN_POINT('',(-0.0195,0.052,0.0218));
#1831=CARTESIAN_POINT('',(-0.0195,0.0373652667812701,0.0218));
#1832=CARTESIAN_POINT('',(-0.0195,0.042,0.0218));
#1833=CARTESIAN_POINT('',(-0.0195,0.042,0.0183282573935183));
#1834=CARTESIAN_POINT('',(-0.0174,0.039,0.0218));
#1835=CARTESIAN_POINT('',(-0.01845,0.04155,0.0203));
#1836=CARTESIAN_POINT('',(-0.0174,0.0411,0.0188));
#1837=CARTESIAN_POINT('',(-0.0174,0.039,0.0218));
#1838=CARTESIAN_POINT('',(-0.0174,0.039,0.0218));
#1839=CARTESIAN_POINT('',(-0.0174,0.039,0.0218));
#1840=CARTESIAN_POINT('',(-0.0195,0.042,0.0183282573935183));
#1841=CARTESIAN_POINT('',(-0.019556,0.04208,0.0268));
#1842=CARTESIAN_POINT('',(-0.0174,0.039,0.0243630628046797));
#1843=CARTESIAN_POINT('',(-0.0174,0.039,0.0318));
#1844=CARTESIAN_POINT('',(-0.018386577181208,0.0404093959731546,0.0318));
#1845=CARTESIAN_POINT('',(-0.0174,0.0411,0.0348));
#1846=CARTESIAN_POINT('',(-0.0174,0.0411,0.0348));
#1847=CARTESIAN_POINT('',(-0.0174,0.0411,0.0348));
#1848=CARTESIAN_POINT('',(-0.0174,0.0411,0.0348));
#1849=CARTESIAN_POINT('',(-0.0174,0.047,0.0348));
#1850=CARTESIAN_POINT('',(-0.01845,0.05245,0.0333));
#1851=CARTESIAN_POINT('',(-0.0174,0.0529,0.0348));
#1852=CARTESIAN_POINT('',(-0.0174,0.055,0.0348));
#1853=CARTESIAN_POINT('',(-0.0174,0.055,0.0318));
#1854=CARTESIAN_POINT('',(-0.0174,0.055,0.0318));
#1855=CARTESIAN_POINT('',(-0.0174,0.055,0.0318));
#1856=CARTESIAN_POINT('',(-0.0174,0.055,0.0318));
#1857=CARTESIAN_POINT('',(-0.0174,0.055,0.0268));
#1858=CARTESIAN_POINT('',(-0.019556,0.05192,0.0268));
#1859=CARTESIAN_POINT('',(-0.0174,0.055,0.0188));
#1860=CARTESIAN_POINT('',(-0.0174,0.055,0.0218));
#1861=CARTESIAN_POINT('',(-0.018386577181208,0.0535906040268458,0.0218));
#1862=CARTESIAN_POINT('',(-0.0174,0.0529,0.0188));
#1863=CARTESIAN_POINT('',(-0.0174,0.0529,0.0188));
#1864=CARTESIAN_POINT('',(-0.0174,0.0529,0.0188));
#1865=CARTESIAN_POINT('',(-0.0174,0.0529,0.0188));
#1866=CARTESIAN_POINT('',(-0.0195,0.0373652667812701,0.0218));
#1867=CARTESIAN_POINT('',(-0.0174,0.047,0.0188));
#1868=CARTESIAN_POINT('',(-0.0165,0.03975,0.02565));
#1869=CARTESIAN_POINT('',(-0.0165,0.0499165913705571,0.0133439936251824));
#1870=CARTESIAN_POINT('',(-0.0165,0.0444605849957396,0.0188));
#1871=CARTESIAN_POINT('',(-0.0165,0.0494416113030409,0.0138189736926986));
#1872=CARTESIAN_POINT('',(-0.0165,0.047,0.0188));
#1873=CARTESIAN_POINT('',(-0.0165,0.0519179835883182,0.0188));
#1874=CARTESIAN_POINT('',(-0.0165,0.0502195188375851,0.0153836729575261));
#1875=CARTESIAN_POINT('',(-0.0225,0.0444864662828714,0.0159456915881219));
#1876=CARTESIAN_POINT('',(-0.0225,0.048502377808184,0.0119297800628093));
#1877=CARTESIAN_POINT('',(-0.0205,0.048502377808184,0.0119297800628093));
#1878=CARTESIAN_POINT('',(-0.0185,0.048502377808184,0.0119297800628093));
#1879=CARTESIAN_POINT('',(-0.0205,0.0444864662828714,0.0159456915881219));
#1880=CARTESIAN_POINT('',(-0.0185,0.0419864662828714,0.0184456915881219));
#1881=CARTESIAN_POINT('',(-0.0185,0.0386802924978698,0.0245802924978697));
#1882=CARTESIAN_POINT('',(-0.0185,0.0444605849957396,0.0188));
#1883=CARTESIAN_POINT('',(-0.0185,0.0494416113030409,0.0138189736926986));
#1884=CARTESIAN_POINT('',(-0.0225,0.0429873899450446,0.0165642637308351));
#1885=CARTESIAN_POINT('',(-0.0225,0.0440310973061741,0.00584313412840362));
#1886=CARTESIAN_POINT('',(-0.0225,0.0440310973061741,0.00584313412840362));
#1887=CARTESIAN_POINT('',(-0.0225,0.0439413767463799,0.00676475812511103));
#1888=CARTESIAN_POINT('',(-0.0225,0.0439413767463799,0.00676475812511103));
#1889=CARTESIAN_POINT('',(-0.0225,0.0439413767463799,0.00676475812511103));
#1890=CARTESIAN_POINT('',(-0.0205,0.0469272613170393,0.00705543549041155));
#1891=CARTESIAN_POINT('',(-0.0205,0.0470169818768335,0.00613381149370414));
#1892=CARTESIAN_POINT('',(-0.0225,0.0519037356014716,0.00753989776591243));
#1893=CARTESIAN_POINT('',(-0.0225,0.0519037356014716,0.00753989776591243));
#1894=CARTESIAN_POINT('',(-0.0225,0.0447402018134201,0.0111013277690776));
#1895=CARTESIAN_POINT('',(-0.0225,0.0447402018134201,0.0111013277690776));
#1896=CARTESIAN_POINT('',(-0.0205,0.0474265269839395,0.00976579151789068));
#1897=CARTESIAN_POINT('',(-0.0205,0.0519037356014716,0.00753989776591243));
#1898=CARTESIAN_POINT('',(-0.0225,0.0449323004339129,0.0114877188977295));
#1899=CARTESIAN_POINT('',(-0.0225,0.0458160526376647,0.0132653163139962));
#1900=CARTESIAN_POINT('',(-0.0225,0.0448557577731788,0.0113337594106952));
#1901=CARTESIAN_POINT('',(-0.022457980695743,0.0449323719915591,0.0113462815972575));
#1902=CARTESIAN_POINT('',(-0.0205,0.0474265269839395,0.00976579151789068));
#1903=CARTESIAN_POINT('',(-0.0205,0.0444864662828714,0.0159456915881219));
#1904=CARTESIAN_POINT('',(-0.0225,0.0381865014542008,0.0180030157296732));
#1905=CARTESIAN_POINT('',(-0.009498,0.0411,0.0188));
#1906=CARTESIAN_POINT('',(-0.009498,0.0411,0.0188));
#1907=CARTESIAN_POINT('',(-0.009498,0.039,0.0218));
#1908=CARTESIAN_POINT('',(1.04083408558608E-17,0.0352,0.0049));
#1909=CARTESIAN_POINT('',(-0.0225,0.0352,0.015));
#1910=CARTESIAN_POINT('',(-0.0165,0.0253072445946277,0.0445037951559173));
#1911=CARTESIAN_POINT('',(-0.0165,0.039,0.0299261256093593));
#1912=CARTESIAN_POINT('',(-0.009498,0.039,0.0243630628046797));
#1913=CARTESIAN_POINT('',(-0.0095,0.039,0.0318));
#1914=CARTESIAN_POINT('',(-0.009498,0.0411,0.0348));
#1915=CARTESIAN_POINT('',(-0.0195,0.0411,0.0348));
#1916=CARTESIAN_POINT('',(-0.009498,0.047,0.0348));
#1917=CARTESIAN_POINT('',(-0.009498,0.0529,0.0348));
#1918=CARTESIAN_POINT('',(-0.009498,0.055,0.0318));
#1919=CARTESIAN_POINT('',(-0.009498,0.055,0.0318));
#1920=CARTESIAN_POINT('',(-0.009498,0.055,0.0268));
#1921=CARTESIAN_POINT('',(-0.0095,0.055,0.0218));
#1922=CARTESIAN_POINT('',(-0.009498,0.0529,0.0188));
#1923=CARTESIAN_POINT('',(-0.0195,0.0529,0.0188));
#1924=CARTESIAN_POINT('',(-0.009498,0.047,0.0188));
#1925=CARTESIAN_POINT('',(-0.0165,0.0519179835883182,0.0188));
#1926=CARTESIAN_POINT('',(-0.0165,0.0502195188375851,0.0153836729575261));
#1927=CARTESIAN_POINT('',(-0.0165,0.0474265269839395,0.00976579151789068));
#1928=CARTESIAN_POINT('',(-0.0165,0.0519037356014716,0.00753989776591243));
#1929=CARTESIAN_POINT('',(-0.1,0.0469272613170393,0.00705543549041155));
#1930=CARTESIAN_POINT('',(-0.1,0.0473356308059026,0.00286059852859839));
#1931=CARTESIAN_POINT('',(-0.0225,0.0360748059227256,0.015891320198198));
#1932=CARTESIAN_POINT('',(-0.0225,0.0519934561612659,0.00661827376920501));
#1933=CARTESIAN_POINT('',(-0.0225,0.0519934561612659,0.00661827376920501));
#1934=CARTESIAN_POINT('',(-0.0135,0.047,0.0268));
#1935=CARTESIAN_POINT('',(-0.0135,0.047,0.0268));
#1936=CARTESIAN_POINT('',(-0.0135,0.05356,0.0268));
#1937=CARTESIAN_POINT('',(-0.0135,0.0376158141285666,0.0143));
#1938=CARTESIAN_POINT('',(-0.0135,0.04208,0.0268));
#1939=CARTESIAN_POINT('',(-0.0135,0.04308,0.0268));
#1940=CARTESIAN_POINT('',(-0.0135,0.05192,0.0268));
#1941=CARTESIAN_POINT('',(-0.0135,0.05292,0.0268));
#1942=CARTESIAN_POINT('',(-0.0215,0.0409,0.000405232436277655));
#1943=CARTESIAN_POINT('',(-0.0115,0.0409,0.000405232436277655));
#1944=CARTESIAN_POINT('',(-0.0115,0.0409,0.00180523243627765));
#1945=CARTESIAN_POINT('',(-0.0215,0.0471,-0.00089476756372235));
#1946=CARTESIAN_POINT('',(-0.0115,0.0471,-0.00089476756372235));
#1947=CARTESIAN_POINT('',(-0.0115,0.0471,0.00050523243627765));
#1948=CARTESIAN_POINT('',(-0.0115,0.0471,-0.00089476756372235));
#1949=CARTESIAN_POINT('',(-0.0115,0.0409,0.000405232436277655));
#1950=CARTESIAN_POINT('',(-0.0385,0.05192,0.0268));
#1951=CARTESIAN_POINT('',(-0.0385,0.04208,0.0268));
#1952=MECHANICAL_DESIGN_GEOMETRIC_PRESENTATION_REPRESENTATION('',(#1179),
#1953);
#1953=(
GEOMETRIC_REPRESENTATION_CONTEXT(3)
GLOBAL_UNCERTAINTY_ASSIGNED_CONTEXT((#1954))
GLOBAL_UNIT_ASSIGNED_CONTEXT((#1957,#1956,#1955))
REPRESENTATION_CONTEXT('Right Weapon Strut','TOP_LEVEL_ASSEMBLY_PART')
);
#1954=UNCERTAINTY_MEASURE_WITH_UNIT(LENGTH_MEASURE(2.E-5),#1957,
'DISTANCE_ACCURACY_VALUE','Maximum Tolerance applied to model');
#1955=(
NAMED_UNIT(*)
SI_UNIT($,.STERADIAN.)
SOLID_ANGLE_UNIT()
);
#1956=(
NAMED_UNIT(*)
PLANE_ANGLE_UNIT()
SI_UNIT($,.RADIAN.)
);
#1957=(
LENGTH_UNIT()
NAMED_UNIT(*)
SI_UNIT($,.METRE.)
);
#1958=PRODUCT_DEFINITION_SHAPE('','',#1959);
#1959=PRODUCT_DEFINITION('','',#1961,#1960);
#1960=PRODUCT_DEFINITION_CONTEXT('',#1967,'design');
#1961=PRODUCT_DEFINITION_FORMATION_WITH_SPECIFIED_SOURCE('','',#1963,
 .NOT_KNOWN.);
#1962=PRODUCT_RELATED_PRODUCT_CATEGORY('','',(#1963));
#1963=PRODUCT('Right Weapon Strut','Right Weapon Strut',
'Right Weapon Strut',(#1965));
#1964=PRODUCT_CATEGORY('','');
#1965=PRODUCT_CONTEXT('',#1967,'mechanical');
#1966=APPLICATION_PROTOCOL_DEFINITION('international standard',
'ap242_managed_model_based_3d_engineering',2020,#1967);
#1967=APPLICATION_CONTEXT('managed model based 3d engineering');
ENDSEC;
END-ISO-10303-21;
