ISO-10303-21;
HEADER;
/* Generated by software containing ST-Developer
 * from STEP Tools, Inc. (www.steptools.com) 
 */
/* OPTION: using custom renumber hook */

FILE_DESCRIPTION(
/* description */ ('STEP AP242 Edition 2',
'CAx-IF Rec.Pracs.---Representation and Presentation of Product Manufa
cturing Information (PMI)---4.0---2014-10-13',
'CAx-IF Rec.Pracs.---3D Tessellated Geometry---0.4---2014-09-14','2;1',
'CAx-IF Rec.Pracs.---User Defined Attributes---1.5---2016-08-15'),
/* implementation_level */ '2;1');

FILE_NAME(
/* name */ 
'UNSW Antweight Battle Bot With Protruding back wheels MK2 - D.E.S Sty
le Blade MK2 (Mineee)',
/* time_stamp */ '2026-08-11T09:45:47Z',
/* author */ (''),
/* organization */ (''),
/* preprocessor_version */ 'ST-DEVELOPER v20',
/* originating_system */ 'ONSHAPE BY PTC INC, 1.219',
/* authorisation */ '  ');

FILE_SCHEMA (('AP242_MANAGED_MODEL_BASED_3D_ENGINEERING_MIM_LF { 1 0 10303 442 3 1 4 }'));
ENDSEC;

DATA;
#10=SHAPE_REPRESENTATION_RELATIONSHIP('','',#474,#11);
#11=ADVANCED_BREP_SHAPE_REPRESENTATION('',(#472),#790);
#12=CIRCLE('',#479,0.0187);
#13=CIRCLE('',#480,0.0187);
#14=CIRCLE('',#482,0.01);
#15=CIRCLE('',#483,0.01);
#16=CIRCLE('',#486,0.0164567824785169);
#17=CIRCLE('',#487,0.0164567824785169);
#18=CIRCLE('',#489,0.0164567824785169);
#19=CIRCLE('',#490,0.0164567824785169);
#20=CIRCLE('',#493,0.01159);
#21=CIRCLE('',#494,0.01159);
#22=CIRCLE('',#497,0.002805);
#23=CIRCLE('',#498,0.002805);
#24=CIRCLE('',#500,0.004675);
#25=CIRCLE('',#501,0.004675);
#26=CIRCLE('',#510,0.0321250078671192);
#27=CIRCLE('',#511,0.0321250078671192);
#28=CIRCLE('',#513,0.00778757435208371);
#29=CIRCLE('',#514,0.00778757435208371);
#30=CIRCLE('',#516,0.0204554216343758);
#31=CIRCLE('',#517,0.0204554216343758);
#32=CYLINDRICAL_SURFACE('',#478,0.0187);
#33=CYLINDRICAL_SURFACE('',#481,0.01);
#34=CYLINDRICAL_SURFACE('',#485,0.0164567824785169);
#35=CYLINDRICAL_SURFACE('',#488,0.0164567824785169);
#36=CYLINDRICAL_SURFACE('',#492,0.01159);
#37=CYLINDRICAL_SURFACE('',#496,0.002805);
#38=CYLINDRICAL_SURFACE('',#499,0.004675);
#39=CYLINDRICAL_SURFACE('',#509,0.0321250078671192);
#40=CYLINDRICAL_SURFACE('',#512,0.00778757435208371);
#41=CYLINDRICAL_SURFACE('',#515,0.0204554216343758);
#42=ORIENTED_EDGE('',*,*,#172,.F.);
#43=ORIENTED_EDGE('',*,*,#173,.T.);
#44=ORIENTED_EDGE('',*,*,#174,.F.);
#45=ORIENTED_EDGE('',*,*,#175,.T.);
#46=ORIENTED_EDGE('',*,*,#176,.F.);
#47=ORIENTED_EDGE('',*,*,#177,.T.);
#48=ORIENTED_EDGE('',*,*,#178,.F.);
#49=ORIENTED_EDGE('',*,*,#179,.F.);
#50=ORIENTED_EDGE('',*,*,#180,.T.);
#51=ORIENTED_EDGE('',*,*,#181,.T.);
#52=ORIENTED_EDGE('',*,*,#182,.T.);
#53=ORIENTED_EDGE('',*,*,#183,.T.);
#54=ORIENTED_EDGE('',*,*,#184,.T.);
#55=ORIENTED_EDGE('',*,*,#185,.T.);
#56=ORIENTED_EDGE('',*,*,#186,.F.);
#57=ORIENTED_EDGE('',*,*,#187,.T.);
#58=ORIENTED_EDGE('',*,*,#188,.F.);
#59=ORIENTED_EDGE('',*,*,#189,.F.);
#60=ORIENTED_EDGE('',*,*,#187,.F.);
#61=ORIENTED_EDGE('',*,*,#190,.T.);
#62=ORIENTED_EDGE('',*,*,#185,.F.);
#63=ORIENTED_EDGE('',*,*,#191,.F.);
#64=ORIENTED_EDGE('',*,*,#192,.T.);
#65=ORIENTED_EDGE('',*,*,#193,.T.);
#66=ORIENTED_EDGE('',*,*,#194,.T.);
#67=ORIENTED_EDGE('',*,*,#195,.T.);
#68=ORIENTED_EDGE('',*,*,#196,.T.);
#69=ORIENTED_EDGE('',*,*,#197,.F.);
#70=ORIENTED_EDGE('',*,*,#182,.F.);
#71=ORIENTED_EDGE('',*,*,#198,.F.);
#72=ORIENTED_EDGE('',*,*,#197,.T.);
#73=ORIENTED_EDGE('',*,*,#199,.F.);
#74=ORIENTED_EDGE('',*,*,#200,.T.);
#75=ORIENTED_EDGE('',*,*,#201,.F.);
#76=ORIENTED_EDGE('',*,*,#202,.F.);
#77=ORIENTED_EDGE('',*,*,#180,.F.);
#78=ORIENTED_EDGE('',*,*,#203,.F.);
#79=ORIENTED_EDGE('',*,*,#204,.F.);
#80=ORIENTED_EDGE('',*,*,#205,.T.);
#81=ORIENTED_EDGE('',*,*,#204,.T.);
#82=ORIENTED_EDGE('',*,*,#206,.T.);
#83=ORIENTED_EDGE('',*,*,#207,.T.);
#84=ORIENTED_EDGE('',*,*,#178,.T.);
#85=ORIENTED_EDGE('',*,*,#208,.T.);
#86=ORIENTED_EDGE('',*,*,#207,.F.);
#87=ORIENTED_EDGE('',*,*,#209,.T.);
#88=ORIENTED_EDGE('',*,*,#210,.F.);
#89=ORIENTED_EDGE('',*,*,#172,.T.);
#90=ORIENTED_EDGE('',*,*,#211,.T.);
#91=ORIENTED_EDGE('',*,*,#212,.F.);
#92=ORIENTED_EDGE('',*,*,#213,.F.);
#93=ORIENTED_EDGE('',*,*,#212,.T.);
#94=ORIENTED_EDGE('',*,*,#214,.T.);
#95=ORIENTED_EDGE('',*,*,#195,.F.);
#96=ORIENTED_EDGE('',*,*,#215,.F.);
#97=ORIENTED_EDGE('',*,*,#216,.T.);
#98=ORIENTED_EDGE('',*,*,#217,.T.);
#99=ORIENTED_EDGE('',*,*,#192,.F.);
#100=ORIENTED_EDGE('',*,*,#218,.F.);
#101=ORIENTED_EDGE('',*,*,#219,.T.);
#102=ORIENTED_EDGE('',*,*,#220,.T.);
#103=ORIENTED_EDGE('',*,*,#174,.T.);
#104=ORIENTED_EDGE('',*,*,#221,.F.);
#105=ORIENTED_EDGE('',*,*,#188,.T.);
#106=ORIENTED_EDGE('',*,*,#222,.T.);
#107=ORIENTED_EDGE('',*,*,#219,.F.);
#108=ORIENTED_EDGE('',*,*,#223,.F.);
#109=ORIENTED_EDGE('',*,*,#224,.F.);
#110=ORIENTED_EDGE('',*,*,#225,.T.);
#111=ORIENTED_EDGE('',*,*,#226,.F.);
#112=ORIENTED_EDGE('',*,*,#227,.F.);
#113=ORIENTED_EDGE('',*,*,#176,.T.);
#114=ORIENTED_EDGE('',*,*,#228,.T.);
#115=ORIENTED_EDGE('',*,*,#224,.T.);
#116=ORIENTED_EDGE('',*,*,#229,.F.);
#117=ORIENTED_EDGE('',*,*,#230,.T.);
#118=ORIENTED_EDGE('',*,*,#231,.T.);
#119=ORIENTED_EDGE('',*,*,#216,.F.);
#120=ORIENTED_EDGE('',*,*,#232,.F.);
#121=ORIENTED_EDGE('',*,*,#233,.T.);
#122=ORIENTED_EDGE('',*,*,#234,.T.);
#123=ORIENTED_EDGE('',*,*,#230,.F.);
#124=ORIENTED_EDGE('',*,*,#235,.F.);
#125=ORIENTED_EDGE('',*,*,#226,.T.);
#126=ORIENTED_EDGE('',*,*,#236,.F.);
#127=ORIENTED_EDGE('',*,*,#233,.F.);
#128=ORIENTED_EDGE('',*,*,#236,.T.);
#129=ORIENTED_EDGE('',*,*,#225,.F.);
#130=ORIENTED_EDGE('',*,*,#228,.F.);
#131=ORIENTED_EDGE('',*,*,#179,.T.);
#132=ORIENTED_EDGE('',*,*,#209,.F.);
#133=ORIENTED_EDGE('',*,*,#206,.F.);
#134=ORIENTED_EDGE('',*,*,#203,.T.);
#135=ORIENTED_EDGE('',*,*,#183,.F.);
#136=ORIENTED_EDGE('',*,*,#199,.T.);
#137=ORIENTED_EDGE('',*,*,#196,.F.);
#138=ORIENTED_EDGE('',*,*,#214,.F.);
#139=ORIENTED_EDGE('',*,*,#211,.F.);
#140=ORIENTED_EDGE('',*,*,#175,.F.);
#141=ORIENTED_EDGE('',*,*,#220,.F.);
#142=ORIENTED_EDGE('',*,*,#222,.F.);
#143=ORIENTED_EDGE('',*,*,#190,.F.);
#144=ORIENTED_EDGE('',*,*,#186,.T.);
#145=ORIENTED_EDGE('',*,*,#193,.F.);
#146=ORIENTED_EDGE('',*,*,#217,.F.);
#147=ORIENTED_EDGE('',*,*,#231,.F.);
#148=ORIENTED_EDGE('',*,*,#234,.F.);
#149=ORIENTED_EDGE('',*,*,#200,.F.);
#150=ORIENTED_EDGE('',*,*,#189,.T.);
#151=ORIENTED_EDGE('',*,*,#221,.T.);
#152=ORIENTED_EDGE('',*,*,#218,.T.);
#153=ORIENTED_EDGE('',*,*,#173,.F.);
#154=ORIENTED_EDGE('',*,*,#210,.T.);
#155=ORIENTED_EDGE('',*,*,#213,.T.);
#156=ORIENTED_EDGE('',*,*,#194,.F.);
#157=ORIENTED_EDGE('',*,*,#198,.T.);
#158=ORIENTED_EDGE('',*,*,#181,.F.);
#159=ORIENTED_EDGE('',*,*,#202,.T.);
#160=ORIENTED_EDGE('',*,*,#205,.F.);
#161=ORIENTED_EDGE('',*,*,#208,.F.);
#162=ORIENTED_EDGE('',*,*,#177,.F.);
#163=ORIENTED_EDGE('',*,*,#227,.T.);
#164=ORIENTED_EDGE('',*,*,#223,.T.);
#165=ORIENTED_EDGE('',*,*,#235,.T.);
#166=ORIENTED_EDGE('',*,*,#232,.T.);
#167=ORIENTED_EDGE('',*,*,#229,.T.);
#168=ORIENTED_EDGE('',*,*,#215,.T.);
#169=ORIENTED_EDGE('',*,*,#191,.T.);
#170=ORIENTED_EDGE('',*,*,#184,.F.);
#171=ORIENTED_EDGE('',*,*,#201,.T.);
#172=EDGE_CURVE('',#237,#238,#281,.T.);
#173=EDGE_CURVE('',#237,#239,#282,.T.);
#174=EDGE_CURVE('',#240,#239,#283,.F.);
#175=EDGE_CURVE('',#240,#238,#284,.F.);
#176=EDGE_CURVE('',#241,#242,#285,.F.);
#177=EDGE_CURVE('',#241,#243,#286,.T.);
#178=EDGE_CURVE('',#244,#243,#287,.F.);
#179=EDGE_CURVE('',#242,#244,#288,.T.);
#180=EDGE_CURVE('',#245,#246,#289,.F.);
#181=EDGE_CURVE('',#246,#247,#12,.T.);
#182=EDGE_CURVE('',#247,#248,#290,.T.);
#183=EDGE_CURVE('',#248,#245,#13,.F.);
#184=EDGE_CURVE('',#249,#250,#14,.T.);
#185=EDGE_CURVE('',#250,#251,#291,.F.);
#186=EDGE_CURVE('',#252,#251,#15,.T.);
#187=EDGE_CURVE('',#252,#249,#292,.T.);
#188=EDGE_CURVE('',#253,#254,#293,.T.);
#189=EDGE_CURVE('',#249,#253,#294,.T.);
#190=EDGE_CURVE('',#252,#254,#295,.F.);
#191=EDGE_CURVE('',#255,#250,#16,.F.);
#192=EDGE_CURVE('',#255,#256,#296,.T.);
#193=EDGE_CURVE('',#256,#251,#17,.F.);
#194=EDGE_CURVE('',#257,#258,#18,.F.);
#195=EDGE_CURVE('',#258,#259,#297,.T.);
#196=EDGE_CURVE('',#259,#260,#19,.T.);
#197=EDGE_CURVE('',#257,#260,#298,.T.);
#198=EDGE_CURVE('',#257,#247,#299,.T.);
#199=EDGE_CURVE('',#248,#260,#300,.T.);
#200=EDGE_CURVE('',#261,#261,#20,.T.);
#201=EDGE_CURVE('',#262,#262,#21,.T.);
#202=EDGE_CURVE('',#246,#263,#301,.T.);
#203=EDGE_CURVE('',#264,#245,#302,.T.);
#204=EDGE_CURVE('',#263,#264,#303,.T.);
#205=EDGE_CURVE('',#265,#263,#22,.F.);
#206=EDGE_CURVE('',#264,#266,#23,.T.);
#207=EDGE_CURVE('',#266,#265,#304,.F.);
#208=EDGE_CURVE('',#243,#265,#24,.T.);
#209=EDGE_CURVE('',#266,#244,#25,.F.);
#210=EDGE_CURVE('',#237,#267,#305,.T.);
#211=EDGE_CURVE('',#238,#268,#306,.F.);
#212=EDGE_CURVE('',#267,#268,#307,.T.);
#213=EDGE_CURVE('',#267,#258,#308,.T.);
#214=EDGE_CURVE('',#268,#259,#309,.F.);
#215=EDGE_CURVE('',#269,#255,#310,.T.);
#216=EDGE_CURVE('',#269,#270,#311,.T.);
#217=EDGE_CURVE('',#270,#256,#312,.F.);
#218=EDGE_CURVE('',#271,#239,#313,.T.);
#219=EDGE_CURVE('',#271,#272,#314,.T.);
#220=EDGE_CURVE('',#272,#240,#315,.F.);
#221=EDGE_CURVE('',#253,#271,#316,.T.);
#222=EDGE_CURVE('',#254,#272,#317,.F.);
#223=EDGE_CURVE('',#273,#274,#318,.T.);
#224=EDGE_CURVE('',#275,#273,#319,.T.);
#225=EDGE_CURVE('',#275,#276,#320,.T.);
#226=EDGE_CURVE('',#274,#276,#321,.T.);
#227=EDGE_CURVE('',#241,#273,#322,.T.);
#228=EDGE_CURVE('',#242,#275,#323,.T.);
#229=EDGE_CURVE('',#277,#269,#26,.F.);
#230=EDGE_CURVE('',#277,#278,#324,.T.);
#231=EDGE_CURVE('',#278,#270,#27,.F.);
#232=EDGE_CURVE('',#279,#277,#28,.F.);
#233=EDGE_CURVE('',#279,#280,#325,.T.);
#234=EDGE_CURVE('',#280,#278,#29,.F.);
#235=EDGE_CURVE('',#274,#279,#30,.F.);
#236=EDGE_CURVE('',#280,#276,#31,.T.);
#237=VERTEX_POINT('',#658);
#238=VERTEX_POINT('',#659);
#239=VERTEX_POINT('',#661);
#240=VERTEX_POINT('',#663);
#241=VERTEX_POINT('',#667);
#242=VERTEX_POINT('',#668);
#243=VERTEX_POINT('',#670);
#244=VERTEX_POINT('',#672);
#245=VERTEX_POINT('',#676);
#246=VERTEX_POINT('',#677);
#247=VERTEX_POINT('',#679);
#248=VERTEX_POINT('',#681);
#249=VERTEX_POINT('',#685);
#250=VERTEX_POINT('',#686);
#251=VERTEX_POINT('',#688);
#252=VERTEX_POINT('',#690);
#253=VERTEX_POINT('',#694);
#254=VERTEX_POINT('',#695);
#255=VERTEX_POINT('',#700);
#256=VERTEX_POINT('',#702);
#257=VERTEX_POINT('',#706);
#258=VERTEX_POINT('',#707);
#259=VERTEX_POINT('',#709);
#260=VERTEX_POINT('',#711);
#261=VERTEX_POINT('',#718);
#262=VERTEX_POINT('',#720);
#263=VERTEX_POINT('',#723);
#264=VERTEX_POINT('',#725);
#265=VERTEX_POINT('',#729);
#266=VERTEX_POINT('',#731);
#267=VERTEX_POINT('',#738);
#268=VERTEX_POINT('',#740);
#269=VERTEX_POINT('',#747);
#270=VERTEX_POINT('',#749);
#271=VERTEX_POINT('',#753);
#272=VERTEX_POINT('',#755);
#273=VERTEX_POINT('',#762);
#274=VERTEX_POINT('',#763);
#275=VERTEX_POINT('',#765);
#276=VERTEX_POINT('',#767);
#277=VERTEX_POINT('',#774);
#278=VERTEX_POINT('',#776);
#279=VERTEX_POINT('',#780);
#280=VERTEX_POINT('',#782);
#281=LINE('',#657,#326);
#282=LINE('',#660,#327);
#283=LINE('',#662,#328);
#284=LINE('',#664,#329);
#285=LINE('',#666,#330);
#286=LINE('',#669,#331);
#287=LINE('',#671,#332);
#288=LINE('',#673,#333);
#289=LINE('',#675,#334);
#290=LINE('',#680,#335);
#291=LINE('',#687,#336);
#292=LINE('',#691,#337);
#293=LINE('',#693,#338);
#294=LINE('',#696,#339);
#295=LINE('',#697,#340);
#296=LINE('',#701,#341);
#297=LINE('',#708,#342);
#298=LINE('',#712,#343);
#299=LINE('',#714,#344);
#300=LINE('',#715,#345);
#301=LINE('',#722,#346);
#302=LINE('',#724,#347);
#303=LINE('',#726,#348);
#304=LINE('',#732,#349);
#305=LINE('',#737,#350);
#306=LINE('',#739,#351);
#307=LINE('',#741,#352);
#308=LINE('',#743,#353);
#309=LINE('',#744,#354);
#310=LINE('',#746,#355);
#311=LINE('',#748,#356);
#312=LINE('',#750,#357);
#313=LINE('',#752,#358);
#314=LINE('',#754,#359);
#315=LINE('',#756,#360);
#316=LINE('',#758,#361);
#317=LINE('',#759,#362);
#318=LINE('',#761,#363);
#319=LINE('',#764,#364);
#320=LINE('',#766,#365);
#321=LINE('',#768,#366);
#322=LINE('',#770,#367);
#323=LINE('',#771,#368);
#324=LINE('',#775,#369);
#325=LINE('',#781,#370);
#326=VECTOR('',#524,1.);
#327=VECTOR('',#525,1.);
#328=VECTOR('',#526,1.);
#329=VECTOR('',#527,1.);
#330=VECTOR('',#530,1.);
#331=VECTOR('',#531,1.);
#332=VECTOR('',#532,1.);
#333=VECTOR('',#533,1.);
#334=VECTOR('',#536,1.);
#335=VECTOR('',#539,1.);
#336=VECTOR('',#546,1.);
#337=VECTOR('',#549,1.);
#338=VECTOR('',#552,1.);
#339=VECTOR('',#553,1.);
#340=VECTOR('',#554,1.);
#341=VECTOR('',#559,1.);
#342=VECTOR('',#566,1.);
#343=VECTOR('',#569,1.);
#344=VECTOR('',#572,1.);
#345=VECTOR('',#573,1.);
#346=VECTOR('',#582,1.);
#347=VECTOR('',#583,1.);
#348=VECTOR('',#584,1.);
#349=VECTOR('',#591,1.);
#350=VECTOR('',#600,1.);
#351=VECTOR('',#601,1.);
#352=VECTOR('',#602,1.);
#353=VECTOR('',#605,1.);
#354=VECTOR('',#606,1.);
#355=VECTOR('',#609,1.);
#356=VECTOR('',#610,1.);
#357=VECTOR('',#611,1.);
#358=VECTOR('',#614,1.);
#359=VECTOR('',#615,1.);
#360=VECTOR('',#616,1.);
#361=VECTOR('',#619,1.);
#362=VECTOR('',#620,1.);
#363=VECTOR('',#623,1.);
#364=VECTOR('',#624,1.);
#365=VECTOR('',#625,1.);
#366=VECTOR('',#626,1.);
#367=VECTOR('',#629,1.);
#368=VECTOR('',#630,1.);
#369=VECTOR('',#635,1.);
#370=VECTOR('',#642,1.);
#371=EDGE_LOOP('',(#42,#43,#44,#45));
#372=EDGE_LOOP('',(#46,#47,#48,#49));
#373=EDGE_LOOP('',(#50,#51,#52,#53));
#374=EDGE_LOOP('',(#54,#55,#56,#57));
#375=EDGE_LOOP('',(#58,#59,#60,#61));
#376=EDGE_LOOP('',(#62,#63,#64,#65));
#377=EDGE_LOOP('',(#66,#67,#68,#69));
#378=EDGE_LOOP('',(#70,#71,#72,#73));
#379=EDGE_LOOP('',(#74));
#380=EDGE_LOOP('',(#75));
#381=EDGE_LOOP('',(#76,#77,#78,#79));
#382=EDGE_LOOP('',(#80,#81,#82,#83));
#383=EDGE_LOOP('',(#84,#85,#86,#87));
#384=EDGE_LOOP('',(#88,#89,#90,#91));
#385=EDGE_LOOP('',(#92,#93,#94,#95));
#386=EDGE_LOOP('',(#96,#97,#98,#99));
#387=EDGE_LOOP('',(#100,#101,#102,#103));
#388=EDGE_LOOP('',(#104,#105,#106,#107));
#389=EDGE_LOOP('',(#108,#109,#110,#111));
#390=EDGE_LOOP('',(#112,#113,#114,#115));
#391=EDGE_LOOP('',(#116,#117,#118,#119));
#392=EDGE_LOOP('',(#120,#121,#122,#123));
#393=EDGE_LOOP('',(#124,#125,#126,#127));
#394=EDGE_LOOP('',(#128,#129,#130,#131,#132,#133,#134,#135,#136,#137,#138,
#139,#140,#141,#142,#143,#144,#145,#146,#147,#148));
#395=EDGE_LOOP('',(#149));
#396=EDGE_LOOP('',(#150,#151,#152,#153,#154,#155,#156,#157,#158,#159,#160,
#161,#162,#163,#164,#165,#166,#167,#168,#169,#170));
#397=EDGE_LOOP('',(#171));
#398=FACE_BOUND('',#371,.T.);
#399=FACE_BOUND('',#372,.T.);
#400=FACE_BOUND('',#373,.T.);
#401=FACE_BOUND('',#374,.T.);
#402=FACE_BOUND('',#375,.T.);
#403=FACE_BOUND('',#376,.T.);
#404=FACE_BOUND('',#377,.T.);
#405=FACE_BOUND('',#378,.T.);
#406=FACE_BOUND('',#379,.T.);
#407=FACE_BOUND('',#380,.T.);
#408=FACE_BOUND('',#381,.T.);
#409=FACE_BOUND('',#382,.T.);
#410=FACE_BOUND('',#383,.T.);
#411=FACE_BOUND('',#384,.T.);
#412=FACE_BOUND('',#385,.T.);
#413=FACE_BOUND('',#386,.T.);
#414=FACE_BOUND('',#387,.T.);
#415=FACE_BOUND('',#388,.T.);
#416=FACE_BOUND('',#389,.T.);
#417=FACE_BOUND('',#390,.T.);
#418=FACE_BOUND('',#391,.T.);
#419=FACE_BOUND('',#392,.T.);
#420=FACE_BOUND('',#393,.T.);
#421=FACE_BOUND('',#394,.T.);
#422=FACE_BOUND('',#395,.T.);
#423=FACE_BOUND('',#396,.T.);
#424=FACE_BOUND('',#397,.T.);
#425=PLANE('',#476);
#426=PLANE('',#477);
#427=PLANE('',#484);
#428=PLANE('',#491);
#429=PLANE('',#495);
#430=PLANE('',#502);
#431=PLANE('',#503);
#432=PLANE('',#504);
#433=PLANE('',#505);
#434=PLANE('',#506);
#435=PLANE('',#507);
#436=PLANE('',#508);
#437=PLANE('',#518);
#438=PLANE('',#519);
#439=ADVANCED_FACE('',(#398),#425,.T.);
#440=ADVANCED_FACE('',(#399),#426,.T.);
#441=ADVANCED_FACE('',(#400),#32,.T.);
#442=ADVANCED_FACE('',(#401),#33,.F.);
#443=ADVANCED_FACE('',(#402),#427,.T.);
#444=ADVANCED_FACE('',(#403),#34,.T.);
#445=ADVANCED_FACE('',(#404),#35,.F.);
#446=ADVANCED_FACE('',(#405),#428,.T.);
#447=ADVANCED_FACE('',(#406,#407),#36,.F.);
#448=ADVANCED_FACE('',(#408),#429,.F.);
#449=ADVANCED_FACE('',(#409),#37,.F.);
#450=ADVANCED_FACE('',(#410),#38,.T.);
#451=ADVANCED_FACE('',(#411),#430,.T.);
#452=ADVANCED_FACE('',(#412),#431,.T.);
#453=ADVANCED_FACE('',(#413),#432,.T.);
#454=ADVANCED_FACE('',(#414),#433,.T.);
#455=ADVANCED_FACE('',(#415),#434,.T.);
#456=ADVANCED_FACE('',(#416),#435,.T.);
#457=ADVANCED_FACE('',(#417),#436,.T.);
#458=ADVANCED_FACE('',(#418),#39,.T.);
#459=ADVANCED_FACE('',(#419),#40,.T.);
#460=ADVANCED_FACE('',(#420),#41,.T.);
#461=ADVANCED_FACE('',(#421,#422),#437,.F.);
#462=ADVANCED_FACE('',(#423,#424),#438,.T.);
#463=CLOSED_SHELL('',(#439,#440,#441,#442,#443,#444,#445,#446,#447,#448,
#449,#450,#451,#452,#453,#454,#455,#456,#457,#458,#459,#460,#461,#462));
#464=STYLED_ITEM('',(#465),#472);
#465=PRESENTATION_STYLE_ASSIGNMENT((#466));
#466=SURFACE_STYLE_USAGE(.BOTH.,#467);
#467=SURFACE_SIDE_STYLE('',(#468));
#468=SURFACE_STYLE_FILL_AREA(#469);
#469=FILL_AREA_STYLE('',(#470));
#470=FILL_AREA_STYLE_COLOUR('',#471);
#471=COLOUR_RGB('',0.627450980392157,0.627450980392157,0.627450980392157);
#472=MANIFOLD_SOLID_BREP('D.E.S Style Blade MK2 (Mineee)',#463);
#473=SHAPE_DEFINITION_REPRESENTATION(#795,#474);
#474=SHAPE_REPRESENTATION('D.E.S Style Blade MK2 (Mineee)',(#475),#790);
#475=AXIS2_PLACEMENT_3D('',#655,#520,#521);
#476=AXIS2_PLACEMENT_3D('',#656,#522,#523);
#477=AXIS2_PLACEMENT_3D('',#665,#528,#529);
#478=AXIS2_PLACEMENT_3D('',#674,#534,#535);
#479=AXIS2_PLACEMENT_3D('',#678,#537,#538);
#480=AXIS2_PLACEMENT_3D('',#682,#540,#541);
#481=AXIS2_PLACEMENT_3D('',#683,#542,#543);
#482=AXIS2_PLACEMENT_3D('',#684,#544,#545);
#483=AXIS2_PLACEMENT_3D('',#689,#547,#548);
#484=AXIS2_PLACEMENT_3D('',#692,#550,#551);
#485=AXIS2_PLACEMENT_3D('',#698,#555,#556);
#486=AXIS2_PLACEMENT_3D('',#699,#557,#558);
#487=AXIS2_PLACEMENT_3D('',#703,#560,#561);
#488=AXIS2_PLACEMENT_3D('',#704,#562,#563);
#489=AXIS2_PLACEMENT_3D('',#705,#564,#565);
#490=AXIS2_PLACEMENT_3D('',#710,#567,#568);
#491=AXIS2_PLACEMENT_3D('',#713,#570,#571);
#492=AXIS2_PLACEMENT_3D('',#716,#574,#575);
#493=AXIS2_PLACEMENT_3D('',#717,#576,#577);
#494=AXIS2_PLACEMENT_3D('',#719,#578,#579);
#495=AXIS2_PLACEMENT_3D('',#721,#580,#581);
#496=AXIS2_PLACEMENT_3D('',#727,#585,#586);
#497=AXIS2_PLACEMENT_3D('',#728,#587,#588);
#498=AXIS2_PLACEMENT_3D('',#730,#589,#590);
#499=AXIS2_PLACEMENT_3D('',#733,#592,#593);
#500=AXIS2_PLACEMENT_3D('',#734,#594,#595);
#501=AXIS2_PLACEMENT_3D('',#735,#596,#597);
#502=AXIS2_PLACEMENT_3D('',#736,#598,#599);
#503=AXIS2_PLACEMENT_3D('',#742,#603,#604);
#504=AXIS2_PLACEMENT_3D('',#745,#607,#608);
#505=AXIS2_PLACEMENT_3D('',#751,#612,#613);
#506=AXIS2_PLACEMENT_3D('',#757,#617,#618);
#507=AXIS2_PLACEMENT_3D('',#760,#621,#622);
#508=AXIS2_PLACEMENT_3D('',#769,#627,#628);
#509=AXIS2_PLACEMENT_3D('',#772,#631,#632);
#510=AXIS2_PLACEMENT_3D('',#773,#633,#634);
#511=AXIS2_PLACEMENT_3D('',#777,#636,#637);
#512=AXIS2_PLACEMENT_3D('',#778,#638,#639);
#513=AXIS2_PLACEMENT_3D('',#779,#640,#641);
#514=AXIS2_PLACEMENT_3D('',#783,#643,#644);
#515=AXIS2_PLACEMENT_3D('',#784,#645,#646);
#516=AXIS2_PLACEMENT_3D('',#785,#647,#648);
#517=AXIS2_PLACEMENT_3D('',#786,#649,#650);
#518=AXIS2_PLACEMENT_3D('',#787,#651,#652);
#519=AXIS2_PLACEMENT_3D('',#788,#653,#654);
#520=DIRECTION('',(0.,0.,1.));
#521=DIRECTION('',(1.,0.,0.));
#522=DIRECTION('',(1.13462837408476E-16,-0.926494377705254,-0.376308607502611));
#523=DIRECTION('',(-4.6084513166967E-17,0.376308607502611,-0.926494377705254));
#524=DIRECTION('',(1.,1.22464679914735E-16,0.));
#525=DIRECTION('',(-4.6084513166967E-17,0.376308607502611,-0.926494377705254));
#526=DIRECTION('',(1.,1.22464679914735E-16,-6.12323399573676E-17));
#527=DIRECTION('',(-4.6084513166967E-17,0.376308607502611,-0.926494377705254));
#528=DIRECTION('',(6.26103520961495E-17,-0.0112841570987921,0.99993633187247));
#529=DIRECTION('',(1.21765927474271E-16,-0.99993633187247,-0.0112841570987921));
#530=DIRECTION('',(-1.,-1.22464679914735E-16,6.12323399573677E-17));
#531=DIRECTION('',(1.21765927474271E-16,-0.99993633187247,-0.0112841570987921));
#532=DIRECTION('',(1.,1.22464679914735E-16,-6.12323399573677E-17));
#533=DIRECTION('',(1.22456882817877E-16,-0.99993633187247,-0.0112841570987538));
#534=DIRECTION('',(1.,1.22464679914735E-16,-6.12323399573677E-17));
#535=DIRECTION('',(-1.00458317802588E-16,0.960112100658483,0.279615368263541));
#536=DIRECTION('',(1.,1.22464679914735E-16,-6.12323399573677E-17));
#537=DIRECTION('',(1.,1.22464679914735E-16,-6.12323399573677E-17));
#538=DIRECTION('',(6.12323399573677E-17,7.49879891330929E-33,1.));
#539=DIRECTION('',(1.,1.22464679914735E-16,-6.12323399573677E-17));
#540=DIRECTION('',(1.,1.22464679914735E-16,-6.12323399573677E-17));
#541=DIRECTION('',(6.12323399573677E-17,7.49879891330929E-33,1.));
#542=DIRECTION('',(-1.,-1.22464679914735E-16,0.));
#543=DIRECTION('',(1.18717027013619E-16,-0.969398091729585,-0.245494072741154));
#544=DIRECTION('',(-1.,-1.22464679914735E-16,0.));
#545=DIRECTION('',(0.,0.,-1.));
#546=DIRECTION('',(-1.,-1.22464679914735E-16,0.));
#547=DIRECTION('',(-1.,-1.22464679914735E-16,0.));
#548=DIRECTION('',(0.,0.,-1.));
#549=DIRECTION('',(-1.,-1.22464679914735E-16,0.));
#550=DIRECTION('',(1.18717027013619E-16,-0.969398091729585,-0.245494072741155));
#551=DIRECTION('',(-3.00643530392103E-17,0.245494072741155,-0.969398091729585));
#552=DIRECTION('',(1.,1.22464679914735E-16,-6.12323399573677E-17));
#553=DIRECTION('',(3.00643530392111E-17,-0.245494072741162,0.969398091729583));
#554=DIRECTION('',(-3.00643530392103E-17,0.245494072741155,-0.969398091729585));
#555=DIRECTION('',(1.,1.22464679914735E-16,0.));
#556=DIRECTION('',(1.22464679914735E-16,-1.,0.));
#557=DIRECTION('',(1.,1.22464679914735E-16,0.));
#558=DIRECTION('',(0.,0.,1.));
#559=DIRECTION('',(1.,1.22464679914735E-16,0.));
#560=DIRECTION('',(1.,1.22464679914735E-16,0.));
#561=DIRECTION('',(0.,0.,1.));
#562=DIRECTION('',(1.,1.22464679914735E-16,0.));
#563=DIRECTION('',(1.22464679914735E-16,-1.,0.));
#564=DIRECTION('',(1.,1.22464679914735E-16,0.));
#565=DIRECTION('',(0.,0.,1.));
#566=DIRECTION('',(1.,1.22464679914735E-16,0.));
#567=DIRECTION('',(1.,1.22464679914735E-16,0.));
#568=DIRECTION('',(0.,0.,1.));
#569=DIRECTION('',(1.,1.22464679914735E-16,0.));
#570=DIRECTION('',(-1.09826229250286E-16,0.896799218572667,0.442437748804794));
#571=DIRECTION('',(5.41829972895752E-17,-0.442437748804794,0.896799218572667));
#572=DIRECTION('',(-5.4182997289576E-17,0.442437748804801,-0.896799218572663));
#573=DIRECTION('',(5.41829972895761E-17,-0.442437748804802,0.896799218572663));
#574=DIRECTION('',(1.,1.22464679914735E-16,0.));
#575=DIRECTION('',(1.22464679914735E-16,-1.,0.));
#576=DIRECTION('',(1.,1.22464679914735E-16,0.));
#577=DIRECTION('',(0.,0.,1.));
#578=DIRECTION('',(1.,1.22464679914735E-16,0.));
#579=DIRECTION('',(0.,0.,1.));
#580=DIRECTION('',(1.11088238694168E-16,-0.987113903442345,-0.160019191445329));
#581=DIRECTION('',(-8.00399931727929E-17,0.160019191445329,-0.987113903442345));
#582=DIRECTION('',(-1.95966990605676E-17,0.160019191445334,-0.987113903442344));
#583=DIRECTION('',(1.95966990605676E-17,-0.160019191445334,0.987113903442344));
#584=DIRECTION('',(1.,1.22464679914735E-16,-6.12323399573677E-17));
#585=DIRECTION('',(1.,1.22464679914735E-16,-6.12323399573677E-17));
#586=DIRECTION('',(5.53127972291209E-18,-0.482981581955775,-0.875630510827197));
#587=DIRECTION('',(1.,1.22464679914735E-16,-6.12323399573677E-17));
#588=DIRECTION('',(6.12323399573677E-17,7.49879891330929E-33,1.));
#589=DIRECTION('',(1.,1.22464679914735E-16,-6.12323399573677E-17));
#590=DIRECTION('',(6.12323399573677E-17,7.49879891330929E-33,1.));
#591=DIRECTION('',(1.,1.22464679914735E-16,-6.12323399573677E-17));
#592=DIRECTION('',(1.,1.22464679914735E-16,-6.12323399573677E-17));
#593=DIRECTION('',(8.15835866011367E-17,-0.173789092250769,0.984782895573767));
#594=DIRECTION('',(1.,1.22464679914735E-16,-6.12323399573677E-17));
#595=DIRECTION('',(6.12323399573677E-17,7.49879891330929E-33,1.));
#596=DIRECTION('',(1.,1.22464679914735E-16,-6.12323399573677E-17));
#597=DIRECTION('',(6.12323399573677E-17,7.49879891330929E-33,1.));
#598=DIRECTION('',(-2.3257530369394E-17,0.189912147613392,0.981801087893505));
#599=DIRECTION('',(1.20235955968817E-16,-0.981801087893505,0.189912147613392));
#600=DIRECTION('',(-1.31864721153514E-16,0.981801087893505,-0.189912147613392));
#601=DIRECTION('',(1.20235955968817E-16,-0.981801087893505,0.189912147613392));
#602=DIRECTION('',(1.,1.22464679914735E-16,0.));
#603=DIRECTION('',(-1.1069609635032E-16,0.903902222480729,0.427739140358231));
#604=DIRECTION('',(5.23829369109748E-17,-0.427739140358231,0.903902222480729));
#605=DIRECTION('',(-1.35942389604284E-16,0.427739140358232,-0.903902222480729));
#606=DIRECTION('',(5.23829369109748E-17,-0.427739140358231,0.903902222480729));
#607=DIRECTION('',(8.1976727755256E-17,-0.66939078118141,0.742910480521942));
#608=DIRECTION('',(9.09802942024219E-17,-0.742910480521942,-0.66939078118141));
#609=DIRECTION('',(-9.09802942024219E-17,0.742910480521942,0.66939078118141));
#610=DIRECTION('',(1.,1.22464679914735E-16,0.));
#611=DIRECTION('',(9.09802942024219E-17,-0.742910480521942,-0.66939078118141));
#612=DIRECTION('',(-8.8318273034347E-17,0.9186775635905,0.39500827099622));
#613=DIRECTION('',(1.04627338356205E-16,-0.39500827099622,0.9186775635905));
#614=DIRECTION('',(-4.83745614711134E-17,0.395008270995308,-0.918677563590892));
#615=DIRECTION('',(1.,1.22464679914735E-16,-6.12323399573676E-17));
#616=DIRECTION('',(1.04627338356205E-16,-0.39500827099622,0.9186775635905));
#617=DIRECTION('',(3.68604476150113E-17,0.189912147613415,0.9818010878935));
#618=DIRECTION('',(1.31864721153515E-16,-0.9818010878935,0.189912147613415));
#619=DIRECTION('',(-1.20235955968817E-16,0.981801087893502,-0.189912147613408));
#620=DIRECTION('',(1.31864721153515E-16,-0.9818010878935,0.189912147613415));
#621=DIRECTION('',(-1.29711109111048E-16,0.704141986440626,-0.710059196779711));
#622=DIRECTION('',(4.38409107621528E-17,-0.710059196779711,-0.704141986440626));
#623=DIRECTION('',(8.6957172254141E-17,-0.710059196779708,-0.704141986440629));
#624=DIRECTION('',(-1.,-1.22464679914735E-16,6.12323399573677E-17));
#625=DIRECTION('',(4.38409107621528E-17,-0.710059196779711,-0.704141986440626));
#626=DIRECTION('',(1.,1.22464679914735E-16,0.));
#627=DIRECTION('',(-1.3209514843697E-16,0.98058067569092,-0.196116135138184));
#628=DIRECTION('',(-3.6025949573719E-17,-0.196116135138184,-0.98058067569092));
#629=DIRECTION('',(-6.05083002280461E-16,-0.196116135138199,-0.980580675690917));
#630=DIRECTION('',(-3.6025949573719E-17,-0.196116135138184,-0.98058067569092));
#631=DIRECTION('',(1.,1.22464679914735E-16,0.));
#632=DIRECTION('',(1.22109609506205E-16,-0.99710063008553,-0.0760942408007222));
#633=DIRECTION('',(1.,1.22464679914735E-16,0.));
#634=DIRECTION('',(0.,0.,1.));
#635=DIRECTION('',(1.,1.22464679914735E-16,0.));
#636=DIRECTION('',(1.,1.22464679914735E-16,0.));
#637=DIRECTION('',(0.,0.,1.));
#638=DIRECTION('',(1.,1.22464679914735E-16,0.));
#639=DIRECTION('',(1.2189477359887E-16,-0.995346361773352,-0.0963619224826465));
#640=DIRECTION('',(1.,1.22464679914735E-16,0.));
#641=DIRECTION('',(0.,0.,1.));
#642=DIRECTION('',(1.,1.22464679914735E-16,0.));
#643=DIRECTION('',(1.,1.22464679914735E-16,0.));
#644=DIRECTION('',(0.,0.,1.));
#645=DIRECTION('',(1.,1.22464679914735E-16,0.));
#646=DIRECTION('',(-8.62325229839774E-17,0.704141986440628,-0.710059196779709));
#647=DIRECTION('',(1.,1.22464679914735E-16,0.));
#648=DIRECTION('',(0.,0.,1.));
#649=DIRECTION('',(1.,1.22464679914735E-16,0.));
#650=DIRECTION('',(0.,0.,1.));
#651=DIRECTION('',(-1.,-1.22464679914735E-16,6.12323399573677E-17));
#652=DIRECTION('',(-6.12323399573677E-17,-7.49879891330929E-33,-1.));
#653=DIRECTION('',(-1.,-1.22464679914735E-16,6.12323399573677E-17));
#654=DIRECTION('',(-6.12323399573677E-17,-7.49879891330929E-33,-1.));
#655=CARTESIAN_POINT('',(0.,0.,0.));
#656=CARTESIAN_POINT('',(-0.0091875,0.050691990984589,0.0574498433504608));
#657=CARTESIAN_POINT('',(-0.0091875,0.0506919873014264,0.0574498524186281));
#658=CARTESIAN_POINT('',(-0.0086875,0.0506919873014264,0.0574498524186281));
#659=CARTESIAN_POINT('',(0.008655,0.0506919873014264,0.0574498524186281));
#660=CARTESIAN_POINT('',(-0.0086875,0.050691990984589,0.0574498433504608));
#661=CARTESIAN_POINT('',(-0.0086875,0.0507012754956488,0.0574269843269755));
#662=CARTESIAN_POINT('',(-0.002125,0.0507012754956482,0.0574269843269767));
#663=CARTESIAN_POINT('',(0.008655,0.0507012754956477,0.057426984326978));
#664=CARTESIAN_POINT('',(0.008655,0.050691990984589,0.0574498433504608));
#665=CARTESIAN_POINT('',(-0.00141875,0.0719700003483146,0.022144999930337));
#666=CARTESIAN_POINT('',(0.00138625,0.0719700003483146,0.022144999930337));
#667=CARTESIAN_POINT('',(-0.0086875,0.0719700003483146,0.022144999930337));
#668=CARTESIAN_POINT('',(0.008655,0.0719700003483146,0.022144999930337));
#669=CARTESIAN_POINT('',(-0.0086875,0.0719700003483146,0.022144999930337));
#670=CARTESIAN_POINT('',(-0.0086875,0.0703190836302129,0.0221263695405709));
#671=CARTESIAN_POINT('',(-0.00141875,0.0703190836302128,0.0221263695405709));
#672=CARTESIAN_POINT('',(0.008655,0.0703190836302128,0.0221263695405709));
#673=CARTESIAN_POINT('',(0.008655,0.0719700003483146,0.022144999930337));
#674=CARTESIAN_POINT('',(-0.00141875,0.0453925129526197,0.0259834428285536));
#675=CARTESIAN_POINT('',(-0.00141875,0.0638515429469916,0.0289758017085813));
#676=CARTESIAN_POINT('',(0.008655,0.0638515429469916,0.0289758017085813));
#677=CARTESIAN_POINT('',(-0.0086875,0.0638515429469916,0.0289758017085813));
#678=CARTESIAN_POINT('',(-0.0086875,0.0453925129526197,0.0259834428285536));
#679=CARTESIAN_POINT('',(-0.0086875,0.062571783391762,0.0333700974961831));
#680=CARTESIAN_POINT('',(-0.00141875,0.0625717833917621,0.0333700974961829));
#681=CARTESIAN_POINT('',(0.008655,0.062571783391762,0.0333700974961832));
#682=CARTESIAN_POINT('',(0.008655,0.0453925129526197,0.0259834428285536));
#683=CARTESIAN_POINT('',(-0.0091875,0.0363207882671374,0.0502572580617362));
#684=CARTESIAN_POINT('',(-0.0086875,0.0363207882671374,0.0502572580617362));
#685=CARTESIAN_POINT('',(-0.0086875,0.0460147691844332,0.0527121987891478));
#686=CARTESIAN_POINT('',(-0.0086875,0.0409601323532255,0.0413985625341272));
#687=CARTESIAN_POINT('',(-0.0091875,0.0409601323532255,0.0413985625341272));
#688=CARTESIAN_POINT('',(0.008655,0.0409601323532255,0.0413985625341272));
#689=CARTESIAN_POINT('',(0.008655,0.0363207882671374,0.0502572580617362));
#690=CARTESIAN_POINT('',(0.008655,0.0460147691844332,0.0527121987891477));
#691=CARTESIAN_POINT('',(-0.0091875,0.0460147691844333,0.0527121987891477));
#692=CARTESIAN_POINT('',(-0.0091875,0.0445122708176565,0.0586452098525792));
#693=CARTESIAN_POINT('',(-0.002125,0.0445122708176565,0.0586452098525793));
#694=CARTESIAN_POINT('',(-0.0086875,0.0445122708176565,0.0586452098525792));
#695=CARTESIAN_POINT('',(0.008655,0.0445122708176565,0.0586452098525793));
#696=CARTESIAN_POINT('',(-0.0086875,0.0460147691844332,0.0527121987891477));
#697=CARTESIAN_POINT('',(0.008655,0.0445122708176565,0.0586452098525792));
#698=CARTESIAN_POINT('',(-0.0091875,0.048595,0.02682));
#699=CARTESIAN_POINT('',(-0.0086875,0.048595,0.02682));
#700=CARTESIAN_POINT('',(-0.0086875,0.0363027213704278,0.0377619182796338));
#701=CARTESIAN_POINT('',(-0.0091875,0.0363027213704278,0.0377619182796338));
#702=CARTESIAN_POINT('',(0.008655,0.0363027213704279,0.0377619182796339));
#703=CARTESIAN_POINT('',(0.008655,0.048595,0.02682));
#704=CARTESIAN_POINT('',(-0.0091875,0.048595,0.02682));
#705=CARTESIAN_POINT('',(-0.0086875,0.048595,0.02682));
#706=CARTESIAN_POINT('',(-0.0086875,0.0599059755328439,0.0387735568782112));
#707=CARTESIAN_POINT('',(-0.0086875,0.0601057811660814,0.0385812757170218));
#708=CARTESIAN_POINT('',(-0.0091875,0.0601057811660814,0.0385812757170218));
#709=CARTESIAN_POINT('',(0.008655,0.0601057811660814,0.0385812757170218));
#710=CARTESIAN_POINT('',(0.008655,0.048595,0.02682));
#711=CARTESIAN_POINT('',(0.008655,0.0599059755328439,0.0387735568782112));
#712=CARTESIAN_POINT('',(-0.0091875,0.0599059755328439,0.0387735568782112));
#713=CARTESIAN_POINT('',(-0.0091875,0.0559277687797143,0.0468371832689629));
#714=CARTESIAN_POINT('',(-0.0086875,0.0599059755328438,0.0387735568782112));
#715=CARTESIAN_POINT('',(0.008655,0.0625717833917621,0.0333700974961829));
#716=CARTESIAN_POINT('',(-0.0091875,0.048595,0.02682));
#717=CARTESIAN_POINT('',(0.008655,0.048595,0.02682));
#718=CARTESIAN_POINT('',(0.008655,0.048595,0.03841));
#719=CARTESIAN_POINT('',(-0.0086875,0.048595,0.02682));
#720=CARTESIAN_POINT('',(-0.0086875,0.048595,0.03841));
#721=CARTESIAN_POINT('',(-0.00141875,0.0631653858843903,0.033208513862175));
#722=CARTESIAN_POINT('',(-0.0086875,0.0638515429469916,0.0289758017085813));
#723=CARTESIAN_POINT('',(-0.0086875,0.0646765457121992,0.023886589017533));
#724=CARTESIAN_POINT('',(0.008655,0.0646765457121992,0.023886589017533));
#725=CARTESIAN_POINT('',(0.008655,0.0646765457121992,0.023886589017533));
#726=CARTESIAN_POINT('',(-0.00141875,0.0646765457121992,0.023886589017533));
#727=CARTESIAN_POINT('',(-0.00141875,0.067445400211355,0.0243354428495371));
#728=CARTESIAN_POINT('',(-0.0086875,0.067445400211355,0.0243354428495371));
#729=CARTESIAN_POINT('',(-0.0086875,0.0685428140313406,0.0217540269768609));
#730=CARTESIAN_POINT('',(0.008655,0.067445400211355,0.0243354428495371));
#731=CARTESIAN_POINT('',(0.008655,0.0685428140313406,0.0217540269768609));
#732=CARTESIAN_POINT('',(-0.00141875,0.0685428140313406,0.0217540269768609));
#733=CARTESIAN_POINT('',(-0.00141875,0.0703718370646498,0.0174516671890671));
#734=CARTESIAN_POINT('',(-0.0086875,0.0703718370646498,0.0174516671890671));
#735=CARTESIAN_POINT('',(0.008655,0.0703718370646498,0.0174516671890671));
#736=CARTESIAN_POINT('',(-0.0091875,0.0512257669431905,0.0573466021377212));
#737=CARTESIAN_POINT('',(-0.0086875,0.0528999976611413,0.0570227516600969));
#738=CARTESIAN_POINT('',(-0.0086875,0.0512257669431906,0.0573466021377212));
#739=CARTESIAN_POINT('',(0.008655,0.0512257669431905,0.0573466021377212));
#740=CARTESIAN_POINT('',(0.008655,0.0512257669431906,0.0573466021377212));
#741=CARTESIAN_POINT('',(-0.0091875,0.0512257669431906,0.0573466021377212));
#742=CARTESIAN_POINT('',(-0.0091875,0.0601057811660814,0.0385812757170219));
#743=CARTESIAN_POINT('',(-0.0086875,0.0512257669431905,0.0573466021377212));
#744=CARTESIAN_POINT('',(0.008655,0.0601057811660814,0.0385812757170219));
#745=CARTESIAN_POINT('',(-0.0091875,0.0363027213704278,0.0377619182796338));
#746=CARTESIAN_POINT('',(-0.0086875,0.0292385489584737,0.0313968285235761));
#747=CARTESIAN_POINT('',(-0.0086875,0.0292385489584737,0.0313968285235761));
#748=CARTESIAN_POINT('',(-0.0091875,0.0292385489584737,0.0313968285235761));
#749=CARTESIAN_POINT('',(0.008655,0.0292385489584737,0.0313968285235761));
#750=CARTESIAN_POINT('',(0.008655,0.0363027213704278,0.0377619182796338));
#751=CARTESIAN_POINT('',(-0.002125,0.0614794528293567,0.032359991000722));
#752=CARTESIAN_POINT('',(-0.0086875,0.050691393394948,0.0574499672993878));
#753=CARTESIAN_POINT('',(-0.0086875,0.050691393394948,0.0574499672993878));
#754=CARTESIAN_POINT('',(-0.002125,0.050691393394948,0.0574499672993878));
#755=CARTESIAN_POINT('',(0.008655,0.050691393394948,0.0574499672993878));
#756=CARTESIAN_POINT('',(0.008655,0.0614794528293567,0.032359991000722));
#757=CARTESIAN_POINT('',(-0.002125,0.0521384804583191,0.0571700537656006));
#758=CARTESIAN_POINT('',(-0.0086875,0.0445122708176565,0.0586452098525792));
#759=CARTESIAN_POINT('',(0.008655,0.0521384804583191,0.0571700537656006));
#760=CARTESIAN_POINT('',(0.00138625,0.0702449530255956,0.0182666862794609));
#761=CARTESIAN_POINT('',(-0.0086875,0.0714292165296413,0.0194410808369707));
#762=CARTESIAN_POINT('',(-0.0086875,0.0714292165296413,0.0194410808369707));
#763=CARTESIAN_POINT('',(-0.0086875,0.0636058988669414,0.0116829580430501));
#764=CARTESIAN_POINT('',(0.00138625,0.0714292165296414,0.0194410808369707));
#765=CARTESIAN_POINT('',(0.008655,0.0714292165296414,0.0194410808369707));
#766=CARTESIAN_POINT('',(0.008655,0.0702449530255956,0.0182666862794609));
#767=CARTESIAN_POINT('',(0.008655,0.0636058988669414,0.0116829580430501));
#768=CARTESIAN_POINT('',(-0.0091875,0.0636058988669414,0.0116829580430501));
#769=CARTESIAN_POINT('',(0.00138625,0.0719700003483146,0.022144999930337));
#770=CARTESIAN_POINT('',(-0.0086875,0.0719700003483146,0.022144999930337));
#771=CARTESIAN_POINT('',(0.008655,0.0719700003483146,0.022144999930337));
#772=CARTESIAN_POINT('',(-0.0091875,0.0610077003407705,0.0266284796572302));
#773=CARTESIAN_POINT('',(-0.0086875,0.0610077003407705,0.0266284796572302));
#774=CARTESIAN_POINT('',(-0.0086875,0.0289758347549633,0.0241839515728646));
#775=CARTESIAN_POINT('',(-0.0091875,0.0289758347549633,0.0241839515728645));
#776=CARTESIAN_POINT('',(0.008655,0.0289758347549633,0.0241839515728647));
#777=CARTESIAN_POINT('',(0.008655,0.0610077003407705,0.0266284796572302));
#778=CARTESIAN_POINT('',(-0.0091875,0.0367513328000082,0.02375042597877));
#779=CARTESIAN_POINT('',(-0.0086875,0.0367513328000082,0.02375042597877));
#780=CARTESIAN_POINT('',(-0.0086875,0.0289999990016222,0.0230000003427266));
#781=CARTESIAN_POINT('',(-0.0091875,0.0289999990016222,0.0230000003427266));
#782=CARTESIAN_POINT('',(0.008655,0.0289999990016222,0.0230000003427266));
#783=CARTESIAN_POINT('',(0.008655,0.0367513328000082,0.02375042597877));
#784=CARTESIAN_POINT('',(-0.0091875,0.0492023776438314,0.0262075182985453));
#785=CARTESIAN_POINT('',(-0.0086875,0.0492023776438314,0.0262075182985453));
#786=CARTESIAN_POINT('',(0.008655,0.0492023776438314,0.0262075182985453));
#787=CARTESIAN_POINT('',(0.008655,0.0484401194116263,0.0339662311990667));
#788=CARTESIAN_POINT('',(-0.0086875,0.0484401194116263,0.0339662311990667));
#789=MECHANICAL_DESIGN_GEOMETRIC_PRESENTATION_REPRESENTATION('',(#464),
#790);
#790=(
GEOMETRIC_REPRESENTATION_CONTEXT(3)
GLOBAL_UNCERTAINTY_ASSIGNED_CONTEXT((#791))
GLOBAL_UNIT_ASSIGNED_CONTEXT((#794,#793,#792))
REPRESENTATION_CONTEXT('D.E.S Style Blade MK2 (Mineee)',
'TOP_LEVEL_ASSEMBLY_PART')
);
#791=UNCERTAINTY_MEASURE_WITH_UNIT(LENGTH_MEASURE(1.E-8),#794,
'DISTANCE_ACCURACY_VALUE','Maximum Tolerance applied to model');
#792=(
NAMED_UNIT(*)
SI_UNIT($,.STERADIAN.)
SOLID_ANGLE_UNIT()
);
#793=(
NAMED_UNIT(*)
PLANE_ANGLE_UNIT()
SI_UNIT($,.RADIAN.)
);
#794=(
LENGTH_UNIT()
NAMED_UNIT(*)
SI_UNIT($,.METRE.)
);
#795=PRODUCT_DEFINITION_SHAPE('','',#796);
#796=PRODUCT_DEFINITION('','',#798,#797);
#797=PRODUCT_DEFINITION_CONTEXT('',#804,'design');
#798=PRODUCT_DEFINITION_FORMATION_WITH_SPECIFIED_SOURCE('','',#800,
 .NOT_KNOWN.);
#799=PRODUCT_RELATED_PRODUCT_CATEGORY('','',(#800));
#800=PRODUCT('D.E.S Style Blade MK2 (Mineee)',
'D.E.S Style Blade MK2 (Mineee)','D.E.S Style Blade MK2 (Mineee)',(#802));
#801=PRODUCT_CATEGORY('','');
#802=PRODUCT_CONTEXT('',#804,'mechanical');
#803=APPLICATION_PROTOCOL_DEFINITION('international standard',
'ap242_managed_model_based_3d_engineering',2020,#804);
#804=APPLICATION_CONTEXT('managed model based 3d engineering');
ENDSEC;
END-ISO-10303-21;
