ISO-10303-21;
HEADER;
/* Generated by software containing ST-Developer
 * from STEP Tools, Inc. (www.steptools.com) 
 */
/* OPTION: using custom renumber hook */

FILE_DESCRIPTION(
/* description */ ('STEP AP242 Edition 2',
'CAx-IF Rec.Pracs.---Representation and Presentation of Product Manufa
cturing Information (PMI)---4.0---2014-10-13',
'CAx-IF Rec.Pracs.---3D Tessellated Geometry---0.4---2014-09-14','2;1',
'CAx-IF Rec.Pracs.---User Defined Attributes---1.5---2016-08-15'),
/* implementation_level */ '2;1');

FILE_NAME(
/* name */ 
'UNSW Antweight Battle Bot With Protruding back wheels MK2 - Chassis C
over',
/* time_stamp */ '2026-08-11T09:45:37Z',
/* author */ (''),
/* organization */ (''),
/* preprocessor_version */ 'ST-DEVELOPER v20',
/* originating_system */ 'ONSHAPE BY PTC INC, 1.219',
/* authorisation */ '  ');

FILE_SCHEMA (('AP242_MANAGED_MODEL_BASED_3D_ENGINEERING_MIM_LF { 1 0 10303 442 3 1 4 }'));
ENDSEC;

DATA;
#10=SHAPE_REPRESENTATION_RELATIONSHIP('','',#1369,#11);
#11=ADVANCED_BREP_SHAPE_REPRESENTATION('',(#1367),#2287);
#12=CYLINDRICAL_SURFACE('',#1440,0.00635194027563285);
#13=CYLINDRICAL_SURFACE('',#1442,0.00645016831473975);
#14=CYLINDRICAL_SURFACE('',#1452,0.003);
#15=CYLINDRICAL_SURFACE('',#1454,0.003);
#16=CYLINDRICAL_SURFACE('',#1467,0.0015);
#17=CYLINDRICAL_SURFACE('',#1468,0.0015);
#18=CYLINDRICAL_SURFACE('',#1469,0.0015);
#19=CYLINDRICAL_SURFACE('',#1470,0.0015);
#20=CYLINDRICAL_SURFACE('',#1471,0.0015);
#21=CYLINDRICAL_SURFACE('',#1472,0.0015);
#22=CYLINDRICAL_SURFACE('',#1473,0.0015);
#23=CYLINDRICAL_SURFACE('',#1474,0.0015);
#24=CYLINDRICAL_SURFACE('',#1475,0.003);
#25=CYLINDRICAL_SURFACE('',#1476,0.003);
#26=CYLINDRICAL_SURFACE('',#1477,0.003);
#27=CYLINDRICAL_SURFACE('',#1478,0.003);
#28=CYLINDRICAL_SURFACE('',#1479,0.003);
#29=CYLINDRICAL_SURFACE('',#1480,0.003);
#30=CYLINDRICAL_SURFACE('',#1481,0.0013);
#31=CYLINDRICAL_SURFACE('',#1482,0.0013);
#32=CYLINDRICAL_SURFACE('',#1483,0.0013);
#33=CYLINDRICAL_SURFACE('',#1484,0.0013);
#34=CYLINDRICAL_SURFACE('',#1491,0.002);
#35=CYLINDRICAL_SURFACE('',#1492,0.002);
#36=CYLINDRICAL_SURFACE('',#1493,0.002);
#37=CYLINDRICAL_SURFACE('',#1494,0.002);
#38=CYLINDRICAL_SURFACE('',#1495,0.002);
#39=CYLINDRICAL_SURFACE('',#1496,0.002);
#40=CYLINDRICAL_SURFACE('',#1497,0.002);
#41=CYLINDRICAL_SURFACE('',#1498,0.002);
#42=CIRCLE('',#1374,0.0013);
#43=CIRCLE('',#1375,0.0013);
#44=CIRCLE('',#1376,0.0013);
#45=CIRCLE('',#1377,0.0013);
#46=CIRCLE('',#1378,0.0015);
#47=CIRCLE('',#1379,0.0015);
#48=CIRCLE('',#1380,0.0015);
#49=CIRCLE('',#1381,0.0015);
#50=CIRCLE('',#1382,0.0015);
#51=CIRCLE('',#1383,0.0015);
#52=CIRCLE('',#1384,0.0015);
#53=CIRCLE('',#1385,0.0015);
#54=CIRCLE('',#1386,0.002);
#55=CIRCLE('',#1387,0.002);
#56=CIRCLE('',#1388,0.002);
#57=CIRCLE('',#1389,0.002);
#58=CIRCLE('',#1390,0.00645016831473975);
#59=CIRCLE('',#1391,0.003);
#60=CIRCLE('',#1392,0.003);
#61=CIRCLE('',#1393,0.003);
#62=CIRCLE('',#1394,0.003);
#63=CIRCLE('',#1395,0.003);
#64=CIRCLE('',#1396,0.003);
#65=CIRCLE('',#1397,0.003);
#66=CIRCLE('',#1398,0.003);
#67=CIRCLE('',#1399,0.00635194027563285);
#68=CIRCLE('',#1400,0.002);
#69=CIRCLE('',#1401,0.002);
#70=CIRCLE('',#1402,0.002);
#71=CIRCLE('',#1403,0.002);
#72=CIRCLE('',#1405,0.0013);
#73=CIRCLE('',#1406,0.0013);
#74=CIRCLE('',#1407,0.0013);
#75=CIRCLE('',#1408,0.0013);
#76=CIRCLE('',#1409,0.0015);
#77=CIRCLE('',#1410,0.0015);
#78=CIRCLE('',#1411,0.0015);
#79=CIRCLE('',#1412,0.0015);
#80=CIRCLE('',#1413,0.0015);
#81=CIRCLE('',#1414,0.0015);
#82=CIRCLE('',#1415,0.0015);
#83=CIRCLE('',#1416,0.0015);
#84=CIRCLE('',#1417,0.002);
#85=CIRCLE('',#1418,0.002);
#86=CIRCLE('',#1419,0.002);
#87=CIRCLE('',#1420,0.002);
#88=CIRCLE('',#1421,0.002);
#89=CIRCLE('',#1422,0.00635194027563285);
#90=CIRCLE('',#1423,0.003);
#91=CIRCLE('',#1424,0.003);
#92=CIRCLE('',#1425,0.003);
#93=CIRCLE('',#1426,0.003);
#94=CIRCLE('',#1427,0.003);
#95=CIRCLE('',#1428,0.003);
#96=CIRCLE('',#1429,0.003);
#97=CIRCLE('',#1430,0.003);
#98=CIRCLE('',#1431,0.00645016831473975);
#99=CIRCLE('',#1432,0.002);
#100=CIRCLE('',#1433,0.002);
#101=CIRCLE('',#1434,0.002);
#102=ORIENTED_EDGE('',*,*,#490,.F.);
#103=ORIENTED_EDGE('',*,*,#491,.T.);
#104=ORIENTED_EDGE('',*,*,#492,.T.);
#105=ORIENTED_EDGE('',*,*,#493,.T.);
#106=ORIENTED_EDGE('',*,*,#494,.T.);
#107=ORIENTED_EDGE('',*,*,#495,.T.);
#108=ORIENTED_EDGE('',*,*,#496,.F.);
#109=ORIENTED_EDGE('',*,*,#497,.F.);
#110=ORIENTED_EDGE('',*,*,#498,.T.);
#111=ORIENTED_EDGE('',*,*,#499,.T.);
#112=ORIENTED_EDGE('',*,*,#500,.T.);
#113=ORIENTED_EDGE('',*,*,#501,.T.);
#114=ORIENTED_EDGE('',*,*,#502,.F.);
#115=ORIENTED_EDGE('',*,*,#503,.T.);
#116=ORIENTED_EDGE('',*,*,#504,.F.);
#117=ORIENTED_EDGE('',*,*,#505,.T.);
#118=ORIENTED_EDGE('',*,*,#506,.F.);
#119=ORIENTED_EDGE('',*,*,#507,.T.);
#120=ORIENTED_EDGE('',*,*,#508,.F.);
#121=ORIENTED_EDGE('',*,*,#509,.T.);
#122=ORIENTED_EDGE('',*,*,#510,.F.);
#123=ORIENTED_EDGE('',*,*,#511,.T.);
#124=ORIENTED_EDGE('',*,*,#512,.F.);
#125=ORIENTED_EDGE('',*,*,#513,.T.);
#126=ORIENTED_EDGE('',*,*,#514,.F.);
#127=ORIENTED_EDGE('',*,*,#515,.T.);
#128=ORIENTED_EDGE('',*,*,#516,.T.);
#129=ORIENTED_EDGE('',*,*,#517,.T.);
#130=ORIENTED_EDGE('',*,*,#492,.F.);
#131=ORIENTED_EDGE('',*,*,#518,.T.);
#132=ORIENTED_EDGE('',*,*,#519,.F.);
#133=ORIENTED_EDGE('',*,*,#520,.T.);
#134=ORIENTED_EDGE('',*,*,#521,.T.);
#135=ORIENTED_EDGE('',*,*,#522,.T.);
#136=ORIENTED_EDGE('',*,*,#523,.F.);
#137=ORIENTED_EDGE('',*,*,#524,.T.);
#138=ORIENTED_EDGE('',*,*,#494,.F.);
#139=ORIENTED_EDGE('',*,*,#525,.T.);
#140=ORIENTED_EDGE('',*,*,#526,.T.);
#141=ORIENTED_EDGE('',*,*,#527,.T.);
#142=ORIENTED_EDGE('',*,*,#528,.T.);
#143=ORIENTED_EDGE('',*,*,#529,.T.);
#144=ORIENTED_EDGE('',*,*,#530,.T.);
#145=ORIENTED_EDGE('',*,*,#531,.T.);
#146=ORIENTED_EDGE('',*,*,#532,.F.);
#147=ORIENTED_EDGE('',*,*,#533,.T.);
#148=ORIENTED_EDGE('',*,*,#534,.F.);
#149=ORIENTED_EDGE('',*,*,#535,.F.);
#150=ORIENTED_EDGE('',*,*,#536,.F.);
#151=ORIENTED_EDGE('',*,*,#537,.F.);
#152=ORIENTED_EDGE('',*,*,#538,.F.);
#153=ORIENTED_EDGE('',*,*,#539,.F.);
#154=ORIENTED_EDGE('',*,*,#540,.F.);
#155=ORIENTED_EDGE('',*,*,#541,.F.);
#156=ORIENTED_EDGE('',*,*,#542,.F.);
#157=ORIENTED_EDGE('',*,*,#543,.F.);
#158=ORIENTED_EDGE('',*,*,#544,.T.);
#159=ORIENTED_EDGE('',*,*,#545,.T.);
#160=ORIENTED_EDGE('',*,*,#546,.T.);
#161=ORIENTED_EDGE('',*,*,#547,.T.);
#162=ORIENTED_EDGE('',*,*,#548,.F.);
#163=ORIENTED_EDGE('',*,*,#549,.F.);
#164=ORIENTED_EDGE('',*,*,#550,.T.);
#165=ORIENTED_EDGE('',*,*,#551,.F.);
#166=ORIENTED_EDGE('',*,*,#552,.T.);
#167=ORIENTED_EDGE('',*,*,#553,.T.);
#168=ORIENTED_EDGE('',*,*,#554,.F.);
#169=ORIENTED_EDGE('',*,*,#555,.T.);
#170=ORIENTED_EDGE('',*,*,#556,.T.);
#171=ORIENTED_EDGE('',*,*,#557,.T.);
#172=ORIENTED_EDGE('',*,*,#558,.F.);
#173=ORIENTED_EDGE('',*,*,#559,.T.);
#174=ORIENTED_EDGE('',*,*,#560,.F.);
#175=ORIENTED_EDGE('',*,*,#561,.T.);
#176=ORIENTED_EDGE('',*,*,#562,.T.);
#177=ORIENTED_EDGE('',*,*,#563,.T.);
#178=ORIENTED_EDGE('',*,*,#564,.T.);
#179=ORIENTED_EDGE('',*,*,#565,.T.);
#180=ORIENTED_EDGE('',*,*,#566,.T.);
#181=ORIENTED_EDGE('',*,*,#567,.T.);
#182=ORIENTED_EDGE('',*,*,#568,.T.);
#183=ORIENTED_EDGE('',*,*,#569,.T.);
#184=ORIENTED_EDGE('',*,*,#570,.T.);
#185=ORIENTED_EDGE('',*,*,#571,.T.);
#186=ORIENTED_EDGE('',*,*,#572,.T.);
#187=ORIENTED_EDGE('',*,*,#573,.T.);
#188=ORIENTED_EDGE('',*,*,#574,.T.);
#189=ORIENTED_EDGE('',*,*,#575,.T.);
#190=ORIENTED_EDGE('',*,*,#576,.T.);
#191=ORIENTED_EDGE('',*,*,#577,.T.);
#192=ORIENTED_EDGE('',*,*,#578,.T.);
#193=ORIENTED_EDGE('',*,*,#579,.T.);
#194=ORIENTED_EDGE('',*,*,#580,.F.);
#195=ORIENTED_EDGE('',*,*,#581,.T.);
#196=ORIENTED_EDGE('',*,*,#582,.F.);
#197=ORIENTED_EDGE('',*,*,#583,.T.);
#198=ORIENTED_EDGE('',*,*,#490,.T.);
#199=ORIENTED_EDGE('',*,*,#584,.T.);
#200=ORIENTED_EDGE('',*,*,#585,.F.);
#201=ORIENTED_EDGE('',*,*,#586,.T.);
#202=ORIENTED_EDGE('',*,*,#587,.F.);
#203=ORIENTED_EDGE('',*,*,#588,.T.);
#204=ORIENTED_EDGE('',*,*,#589,.T.);
#205=ORIENTED_EDGE('',*,*,#590,.T.);
#206=ORIENTED_EDGE('',*,*,#591,.T.);
#207=ORIENTED_EDGE('',*,*,#592,.F.);
#208=ORIENTED_EDGE('',*,*,#593,.F.);
#209=ORIENTED_EDGE('',*,*,#594,.T.);
#210=ORIENTED_EDGE('',*,*,#595,.T.);
#211=ORIENTED_EDGE('',*,*,#596,.T.);
#212=ORIENTED_EDGE('',*,*,#597,.T.);
#213=ORIENTED_EDGE('',*,*,#598,.T.);
#214=ORIENTED_EDGE('',*,*,#599,.F.);
#215=ORIENTED_EDGE('',*,*,#600,.T.);
#216=ORIENTED_EDGE('',*,*,#601,.F.);
#217=ORIENTED_EDGE('',*,*,#602,.T.);
#218=ORIENTED_EDGE('',*,*,#603,.T.);
#219=ORIENTED_EDGE('',*,*,#604,.T.);
#220=ORIENTED_EDGE('',*,*,#605,.T.);
#221=ORIENTED_EDGE('',*,*,#606,.T.);
#222=ORIENTED_EDGE('',*,*,#607,.T.);
#223=ORIENTED_EDGE('',*,*,#608,.T.);
#224=ORIENTED_EDGE('',*,*,#609,.T.);
#225=ORIENTED_EDGE('',*,*,#610,.T.);
#226=ORIENTED_EDGE('',*,*,#611,.T.);
#227=ORIENTED_EDGE('',*,*,#612,.T.);
#228=ORIENTED_EDGE('',*,*,#613,.T.);
#229=ORIENTED_EDGE('',*,*,#614,.T.);
#230=ORIENTED_EDGE('',*,*,#615,.F.);
#231=ORIENTED_EDGE('',*,*,#616,.F.);
#232=ORIENTED_EDGE('',*,*,#617,.T.);
#233=ORIENTED_EDGE('',*,*,#618,.F.);
#234=ORIENTED_EDGE('',*,*,#619,.F.);
#235=ORIENTED_EDGE('',*,*,#620,.F.);
#236=ORIENTED_EDGE('',*,*,#496,.T.);
#237=ORIENTED_EDGE('',*,*,#621,.T.);
#238=ORIENTED_EDGE('',*,*,#622,.F.);
#239=ORIENTED_EDGE('',*,*,#623,.T.);
#240=ORIENTED_EDGE('',*,*,#624,.T.);
#241=ORIENTED_EDGE('',*,*,#625,.T.);
#242=ORIENTED_EDGE('',*,*,#546,.F.);
#243=ORIENTED_EDGE('',*,*,#626,.T.);
#244=ORIENTED_EDGE('',*,*,#599,.T.);
#245=ORIENTED_EDGE('',*,*,#627,.T.);
#246=ORIENTED_EDGE('',*,*,#548,.T.);
#247=ORIENTED_EDGE('',*,*,#628,.T.);
#248=ORIENTED_EDGE('',*,*,#597,.F.);
#249=ORIENTED_EDGE('',*,*,#629,.F.);
#250=ORIENTED_EDGE('',*,*,#596,.F.);
#251=ORIENTED_EDGE('',*,*,#630,.T.);
#252=ORIENTED_EDGE('',*,*,#549,.T.);
#253=ORIENTED_EDGE('',*,*,#629,.T.);
#254=ORIENTED_EDGE('',*,*,#551,.T.);
#255=ORIENTED_EDGE('',*,*,#631,.T.);
#256=ORIENTED_EDGE('',*,*,#594,.F.);
#257=ORIENTED_EDGE('',*,*,#632,.F.);
#258=ORIENTED_EDGE('',*,*,#593,.T.);
#259=ORIENTED_EDGE('',*,*,#633,.F.);
#260=ORIENTED_EDGE('',*,*,#552,.F.);
#261=ORIENTED_EDGE('',*,*,#632,.T.);
#262=ORIENTED_EDGE('',*,*,#592,.T.);
#263=ORIENTED_EDGE('',*,*,#634,.F.);
#264=ORIENTED_EDGE('',*,*,#553,.F.);
#265=ORIENTED_EDGE('',*,*,#633,.T.);
#266=ORIENTED_EDGE('',*,*,#591,.F.);
#267=ORIENTED_EDGE('',*,*,#635,.T.);
#268=ORIENTED_EDGE('',*,*,#554,.T.);
#269=ORIENTED_EDGE('',*,*,#634,.T.);
#270=ORIENTED_EDGE('',*,*,#620,.T.);
#271=ORIENTED_EDGE('',*,*,#636,.F.);
#272=ORIENTED_EDGE('',*,*,#525,.F.);
#273=ORIENTED_EDGE('',*,*,#497,.T.);
#274=ORIENTED_EDGE('',*,*,#619,.T.);
#275=ORIENTED_EDGE('',*,*,#637,.F.);
#276=ORIENTED_EDGE('',*,*,#526,.F.);
#277=ORIENTED_EDGE('',*,*,#636,.T.);
#278=ORIENTED_EDGE('',*,*,#618,.T.);
#279=ORIENTED_EDGE('',*,*,#638,.T.);
#280=ORIENTED_EDGE('',*,*,#527,.F.);
#281=ORIENTED_EDGE('',*,*,#637,.T.);
#282=ORIENTED_EDGE('',*,*,#529,.F.);
#283=ORIENTED_EDGE('',*,*,#639,.T.);
#284=ORIENTED_EDGE('',*,*,#616,.T.);
#285=ORIENTED_EDGE('',*,*,#640,.F.);
#286=ORIENTED_EDGE('',*,*,#615,.T.);
#287=ORIENTED_EDGE('',*,*,#641,.T.);
#288=ORIENTED_EDGE('',*,*,#530,.F.);
#289=ORIENTED_EDGE('',*,*,#640,.T.);
#290=ORIENTED_EDGE('',*,*,#613,.F.);
#291=ORIENTED_EDGE('',*,*,#642,.T.);
#292=ORIENTED_EDGE('',*,*,#532,.T.);
#293=ORIENTED_EDGE('',*,*,#643,.T.);
#294=ORIENTED_EDGE('',*,*,#534,.T.);
#295=ORIENTED_EDGE('',*,*,#644,.T.);
#296=ORIENTED_EDGE('',*,*,#611,.F.);
#297=ORIENTED_EDGE('',*,*,#645,.F.);
#298=ORIENTED_EDGE('',*,*,#610,.F.);
#299=ORIENTED_EDGE('',*,*,#646,.F.);
#300=ORIENTED_EDGE('',*,*,#535,.T.);
#301=ORIENTED_EDGE('',*,*,#645,.T.);
#302=ORIENTED_EDGE('',*,*,#609,.F.);
#303=ORIENTED_EDGE('',*,*,#647,.F.);
#304=ORIENTED_EDGE('',*,*,#536,.T.);
#305=ORIENTED_EDGE('',*,*,#646,.T.);
#306=ORIENTED_EDGE('',*,*,#608,.F.);
#307=ORIENTED_EDGE('',*,*,#648,.F.);
#308=ORIENTED_EDGE('',*,*,#537,.T.);
#309=ORIENTED_EDGE('',*,*,#647,.T.);
#310=ORIENTED_EDGE('',*,*,#607,.F.);
#311=ORIENTED_EDGE('',*,*,#649,.F.);
#312=ORIENTED_EDGE('',*,*,#538,.T.);
#313=ORIENTED_EDGE('',*,*,#648,.T.);
#314=ORIENTED_EDGE('',*,*,#606,.F.);
#315=ORIENTED_EDGE('',*,*,#650,.F.);
#316=ORIENTED_EDGE('',*,*,#539,.T.);
#317=ORIENTED_EDGE('',*,*,#649,.T.);
#318=ORIENTED_EDGE('',*,*,#605,.F.);
#319=ORIENTED_EDGE('',*,*,#651,.F.);
#320=ORIENTED_EDGE('',*,*,#540,.T.);
#321=ORIENTED_EDGE('',*,*,#650,.T.);
#322=ORIENTED_EDGE('',*,*,#604,.F.);
#323=ORIENTED_EDGE('',*,*,#652,.F.);
#324=ORIENTED_EDGE('',*,*,#541,.T.);
#325=ORIENTED_EDGE('',*,*,#651,.T.);
#326=ORIENTED_EDGE('',*,*,#603,.F.);
#327=ORIENTED_EDGE('',*,*,#653,.F.);
#328=ORIENTED_EDGE('',*,*,#542,.T.);
#329=ORIENTED_EDGE('',*,*,#652,.T.);
#330=ORIENTED_EDGE('',*,*,#602,.F.);
#331=ORIENTED_EDGE('',*,*,#654,.F.);
#332=ORIENTED_EDGE('',*,*,#543,.T.);
#333=ORIENTED_EDGE('',*,*,#653,.T.);
#334=ORIENTED_EDGE('',*,*,#601,.T.);
#335=ORIENTED_EDGE('',*,*,#655,.T.);
#336=ORIENTED_EDGE('',*,*,#544,.F.);
#337=ORIENTED_EDGE('',*,*,#654,.T.);
#338=ORIENTED_EDGE('',*,*,#510,.T.);
#339=ORIENTED_EDGE('',*,*,#656,.T.);
#340=ORIENTED_EDGE('',*,*,#578,.F.);
#341=ORIENTED_EDGE('',*,*,#657,.T.);
#342=ORIENTED_EDGE('',*,*,#580,.T.);
#343=ORIENTED_EDGE('',*,*,#658,.T.);
#344=ORIENTED_EDGE('',*,*,#516,.F.);
#345=ORIENTED_EDGE('',*,*,#659,.T.);
#346=ORIENTED_EDGE('',*,*,#574,.F.);
#347=ORIENTED_EDGE('',*,*,#660,.T.);
#348=ORIENTED_EDGE('',*,*,#514,.T.);
#349=ORIENTED_EDGE('',*,*,#661,.T.);
#350=ORIENTED_EDGE('',*,*,#576,.F.);
#351=ORIENTED_EDGE('',*,*,#662,.T.);
#352=ORIENTED_EDGE('',*,*,#512,.T.);
#353=ORIENTED_EDGE('',*,*,#663,.T.);
#354=ORIENTED_EDGE('',*,*,#570,.F.);
#355=ORIENTED_EDGE('',*,*,#664,.T.);
#356=ORIENTED_EDGE('',*,*,#502,.T.);
#357=ORIENTED_EDGE('',*,*,#665,.T.);
#358=ORIENTED_EDGE('',*,*,#572,.F.);
#359=ORIENTED_EDGE('',*,*,#666,.T.);
#360=ORIENTED_EDGE('',*,*,#508,.T.);
#361=ORIENTED_EDGE('',*,*,#667,.T.);
#362=ORIENTED_EDGE('',*,*,#506,.T.);
#363=ORIENTED_EDGE('',*,*,#668,.T.);
#364=ORIENTED_EDGE('',*,*,#566,.F.);
#365=ORIENTED_EDGE('',*,*,#669,.T.);
#366=ORIENTED_EDGE('',*,*,#504,.T.);
#367=ORIENTED_EDGE('',*,*,#670,.T.);
#368=ORIENTED_EDGE('',*,*,#568,.F.);
#369=ORIENTED_EDGE('',*,*,#671,.T.);
#370=ORIENTED_EDGE('',*,*,#579,.F.);
#371=ORIENTED_EDGE('',*,*,#656,.F.);
#372=ORIENTED_EDGE('',*,*,#517,.F.);
#373=ORIENTED_EDGE('',*,*,#658,.F.);
#374=ORIENTED_EDGE('',*,*,#581,.F.);
#375=ORIENTED_EDGE('',*,*,#659,.F.);
#376=ORIENTED_EDGE('',*,*,#515,.F.);
#377=ORIENTED_EDGE('',*,*,#660,.F.);
#378=ORIENTED_EDGE('',*,*,#575,.F.);
#379=ORIENTED_EDGE('',*,*,#661,.F.);
#380=ORIENTED_EDGE('',*,*,#513,.F.);
#381=ORIENTED_EDGE('',*,*,#662,.F.);
#382=ORIENTED_EDGE('',*,*,#577,.F.);
#383=ORIENTED_EDGE('',*,*,#663,.F.);
#384=ORIENTED_EDGE('',*,*,#511,.F.);
#385=ORIENTED_EDGE('',*,*,#657,.F.);
#386=ORIENTED_EDGE('',*,*,#569,.F.);
#387=ORIENTED_EDGE('',*,*,#670,.F.);
#388=ORIENTED_EDGE('',*,*,#503,.F.);
#389=ORIENTED_EDGE('',*,*,#664,.F.);
#390=ORIENTED_EDGE('',*,*,#571,.F.);
#391=ORIENTED_EDGE('',*,*,#665,.F.);
#392=ORIENTED_EDGE('',*,*,#509,.F.);
#393=ORIENTED_EDGE('',*,*,#666,.F.);
#394=ORIENTED_EDGE('',*,*,#567,.F.);
#395=ORIENTED_EDGE('',*,*,#668,.F.);
#396=ORIENTED_EDGE('',*,*,#505,.F.);
#397=ORIENTED_EDGE('',*,*,#671,.F.);
#398=ORIENTED_EDGE('',*,*,#573,.F.);
#399=ORIENTED_EDGE('',*,*,#667,.F.);
#400=ORIENTED_EDGE('',*,*,#507,.F.);
#401=ORIENTED_EDGE('',*,*,#669,.F.);
#402=ORIENTED_EDGE('',*,*,#533,.F.);
#403=ORIENTED_EDGE('',*,*,#642,.F.);
#404=ORIENTED_EDGE('',*,*,#612,.F.);
#405=ORIENTED_EDGE('',*,*,#644,.F.);
#406=ORIENTED_EDGE('',*,*,#545,.F.);
#407=ORIENTED_EDGE('',*,*,#655,.F.);
#408=ORIENTED_EDGE('',*,*,#600,.F.);
#409=ORIENTED_EDGE('',*,*,#626,.F.);
#410=ORIENTED_EDGE('',*,*,#550,.F.);
#411=ORIENTED_EDGE('',*,*,#630,.F.);
#412=ORIENTED_EDGE('',*,*,#595,.F.);
#413=ORIENTED_EDGE('',*,*,#631,.F.);
#414=ORIENTED_EDGE('',*,*,#528,.F.);
#415=ORIENTED_EDGE('',*,*,#638,.F.);
#416=ORIENTED_EDGE('',*,*,#617,.F.);
#417=ORIENTED_EDGE('',*,*,#639,.F.);
#418=ORIENTED_EDGE('',*,*,#531,.F.);
#419=ORIENTED_EDGE('',*,*,#641,.F.);
#420=ORIENTED_EDGE('',*,*,#614,.F.);
#421=ORIENTED_EDGE('',*,*,#643,.F.);
#422=ORIENTED_EDGE('',*,*,#547,.F.);
#423=ORIENTED_EDGE('',*,*,#627,.F.);
#424=ORIENTED_EDGE('',*,*,#598,.F.);
#425=ORIENTED_EDGE('',*,*,#628,.F.);
#426=ORIENTED_EDGE('',*,*,#501,.F.);
#427=ORIENTED_EDGE('',*,*,#565,.F.);
#428=ORIENTED_EDGE('',*,*,#500,.F.);
#429=ORIENTED_EDGE('',*,*,#564,.F.);
#430=ORIENTED_EDGE('',*,*,#499,.F.);
#431=ORIENTED_EDGE('',*,*,#563,.F.);
#432=ORIENTED_EDGE('',*,*,#498,.F.);
#433=ORIENTED_EDGE('',*,*,#562,.F.);
#434=ORIENTED_EDGE('',*,*,#582,.T.);
#435=ORIENTED_EDGE('',*,*,#672,.T.);
#436=ORIENTED_EDGE('',*,*,#519,.T.);
#437=ORIENTED_EDGE('',*,*,#673,.T.);
#438=ORIENTED_EDGE('',*,*,#523,.T.);
#439=ORIENTED_EDGE('',*,*,#674,.T.);
#440=ORIENTED_EDGE('',*,*,#622,.T.);
#441=ORIENTED_EDGE('',*,*,#675,.T.);
#442=ORIENTED_EDGE('',*,*,#624,.F.);
#443=ORIENTED_EDGE('',*,*,#676,.T.);
#444=ORIENTED_EDGE('',*,*,#521,.F.);
#445=ORIENTED_EDGE('',*,*,#677,.T.);
#446=ORIENTED_EDGE('',*,*,#587,.T.);
#447=ORIENTED_EDGE('',*,*,#678,.T.);
#448=ORIENTED_EDGE('',*,*,#558,.T.);
#449=ORIENTED_EDGE('',*,*,#679,.T.);
#450=ORIENTED_EDGE('',*,*,#589,.F.);
#451=ORIENTED_EDGE('',*,*,#680,.T.);
#452=ORIENTED_EDGE('',*,*,#556,.F.);
#453=ORIENTED_EDGE('',*,*,#681,.T.);
#454=ORIENTED_EDGE('',*,*,#560,.T.);
#455=ORIENTED_EDGE('',*,*,#682,.T.);
#456=ORIENTED_EDGE('',*,*,#585,.T.);
#457=ORIENTED_EDGE('',*,*,#683,.T.);
#458=ORIENTED_EDGE('',*,*,#518,.F.);
#459=ORIENTED_EDGE('',*,*,#491,.F.);
#460=ORIENTED_EDGE('',*,*,#583,.F.);
#461=ORIENTED_EDGE('',*,*,#673,.F.);
#462=ORIENTED_EDGE('',*,*,#524,.F.);
#463=ORIENTED_EDGE('',*,*,#675,.F.);
#464=ORIENTED_EDGE('',*,*,#621,.F.);
#465=ORIENTED_EDGE('',*,*,#495,.F.);
#466=ORIENTED_EDGE('',*,*,#561,.F.);
#467=ORIENTED_EDGE('',*,*,#683,.F.);
#468=ORIENTED_EDGE('',*,*,#584,.F.);
#469=ORIENTED_EDGE('',*,*,#493,.F.);
#470=ORIENTED_EDGE('',*,*,#555,.F.);
#471=ORIENTED_EDGE('',*,*,#635,.F.);
#472=ORIENTED_EDGE('',*,*,#590,.F.);
#473=ORIENTED_EDGE('',*,*,#681,.F.);
#474=ORIENTED_EDGE('',*,*,#522,.F.);
#475=ORIENTED_EDGE('',*,*,#676,.F.);
#476=ORIENTED_EDGE('',*,*,#623,.F.);
#477=ORIENTED_EDGE('',*,*,#674,.F.);
#478=ORIENTED_EDGE('',*,*,#520,.F.);
#479=ORIENTED_EDGE('',*,*,#672,.F.);
#480=ORIENTED_EDGE('',*,*,#625,.F.);
#481=ORIENTED_EDGE('',*,*,#677,.F.);
#482=ORIENTED_EDGE('',*,*,#559,.F.);
#483=ORIENTED_EDGE('',*,*,#678,.F.);
#484=ORIENTED_EDGE('',*,*,#586,.F.);
#485=ORIENTED_EDGE('',*,*,#682,.F.);
#486=ORIENTED_EDGE('',*,*,#557,.F.);
#487=ORIENTED_EDGE('',*,*,#680,.F.);
#488=ORIENTED_EDGE('',*,*,#588,.F.);
#489=ORIENTED_EDGE('',*,*,#679,.F.);
#490=EDGE_CURVE('',#684,#685,#816,.T.);
#491=EDGE_CURVE('',#684,#686,#817,.F.);
#492=EDGE_CURVE('',#686,#687,#818,.T.);
#493=EDGE_CURVE('',#687,#685,#819,.T.);
#494=EDGE_CURVE('',#688,#689,#820,.T.);
#495=EDGE_CURVE('',#689,#690,#821,.T.);
#496=EDGE_CURVE('',#691,#690,#822,.T.);
#497=EDGE_CURVE('',#688,#691,#823,.T.);
#498=EDGE_CURVE('',#692,#692,#42,.F.);
#499=EDGE_CURVE('',#693,#693,#43,.F.);
#500=EDGE_CURVE('',#694,#694,#44,.F.);
#501=EDGE_CURVE('',#695,#695,#45,.F.);
#502=EDGE_CURVE('',#696,#697,#824,.T.);
#503=EDGE_CURVE('',#696,#698,#46,.F.);
#504=EDGE_CURVE('',#699,#698,#825,.T.);
#505=EDGE_CURVE('',#699,#700,#47,.F.);
#506=EDGE_CURVE('',#701,#700,#826,.T.);
#507=EDGE_CURVE('',#701,#702,#48,.F.);
#508=EDGE_CURVE('',#703,#702,#827,.T.);
#509=EDGE_CURVE('',#703,#697,#49,.F.);
#510=EDGE_CURVE('',#704,#705,#828,.T.);
#511=EDGE_CURVE('',#704,#706,#50,.F.);
#512=EDGE_CURVE('',#707,#706,#829,.T.);
#513=EDGE_CURVE('',#707,#708,#51,.F.);
#514=EDGE_CURVE('',#709,#708,#830,.T.);
#515=EDGE_CURVE('',#709,#710,#52,.F.);
#516=EDGE_CURVE('',#710,#711,#831,.T.);
#517=EDGE_CURVE('',#711,#705,#53,.F.);
#518=EDGE_CURVE('',#686,#712,#54,.T.);
#519=EDGE_CURVE('',#713,#712,#832,.T.);
#520=EDGE_CURVE('',#713,#714,#55,.F.);
#521=EDGE_CURVE('',#714,#715,#833,.T.);
#522=EDGE_CURVE('',#715,#716,#56,.F.);
#523=EDGE_CURVE('',#717,#716,#834,.T.);
#524=EDGE_CURVE('',#717,#689,#57,.T.);
#525=EDGE_CURVE('',#688,#718,#58,.T.);
#526=EDGE_CURVE('',#718,#719,#835,.T.);
#527=EDGE_CURVE('',#719,#720,#836,.T.);
#528=EDGE_CURVE('',#720,#721,#59,.T.);
#529=EDGE_CURVE('',#721,#722,#837,.T.);
#530=EDGE_CURVE('',#722,#723,#838,.T.);
#531=EDGE_CURVE('',#723,#724,#60,.T.);
#532=EDGE_CURVE('',#725,#724,#839,.T.);
#533=EDGE_CURVE('',#725,#726,#61,.F.);
#534=EDGE_CURVE('',#727,#726,#840,.T.);
#535=EDGE_CURVE('',#728,#727,#841,.T.);
#536=EDGE_CURVE('',#729,#728,#842,.T.);
#537=EDGE_CURVE('',#730,#729,#843,.T.);
#538=EDGE_CURVE('',#731,#730,#62,.T.);
#539=EDGE_CURVE('',#732,#731,#844,.T.);
#540=EDGE_CURVE('',#733,#732,#63,.T.);
#541=EDGE_CURVE('',#734,#733,#845,.T.);
#542=EDGE_CURVE('',#735,#734,#846,.T.);
#543=EDGE_CURVE('',#736,#735,#847,.T.);
#544=EDGE_CURVE('',#736,#737,#848,.T.);
#545=EDGE_CURVE('',#737,#738,#64,.F.);
#546=EDGE_CURVE('',#738,#739,#849,.T.);
#547=EDGE_CURVE('',#739,#740,#65,.T.);
#548=EDGE_CURVE('',#741,#740,#850,.T.);
#549=EDGE_CURVE('',#742,#741,#851,.T.);
#550=EDGE_CURVE('',#742,#743,#66,.T.);
#551=EDGE_CURVE('',#744,#743,#852,.T.);
#552=EDGE_CURVE('',#744,#745,#853,.T.);
#553=EDGE_CURVE('',#745,#746,#67,.T.);
#554=EDGE_CURVE('',#747,#746,#854,.T.);
#555=EDGE_CURVE('',#747,#748,#68,.T.);
#556=EDGE_CURVE('',#748,#749,#855,.T.);
#557=EDGE_CURVE('',#749,#750,#69,.F.);
#558=EDGE_CURVE('',#751,#750,#856,.T.);
#559=EDGE_CURVE('',#751,#752,#70,.F.);
#560=EDGE_CURVE('',#753,#752,#857,.T.);
#561=EDGE_CURVE('',#753,#687,#71,.T.);
#562=EDGE_CURVE('',#754,#754,#72,.T.);
#563=EDGE_CURVE('',#755,#755,#73,.T.);
#564=EDGE_CURVE('',#756,#756,#74,.T.);
#565=EDGE_CURVE('',#757,#757,#75,.T.);
#566=EDGE_CURVE('',#758,#759,#858,.T.);
#567=EDGE_CURVE('',#759,#760,#76,.T.);
#568=EDGE_CURVE('',#760,#761,#859,.T.);
#569=EDGE_CURVE('',#761,#762,#77,.T.);
#570=EDGE_CURVE('',#762,#763,#860,.T.);
#571=EDGE_CURVE('',#763,#764,#78,.T.);
#572=EDGE_CURVE('',#764,#765,#861,.T.);
#573=EDGE_CURVE('',#765,#758,#79,.T.);
#574=EDGE_CURVE('',#766,#767,#862,.T.);
#575=EDGE_CURVE('',#767,#768,#80,.T.);
#576=EDGE_CURVE('',#768,#769,#863,.T.);
#577=EDGE_CURVE('',#769,#770,#81,.T.);
#578=EDGE_CURVE('',#770,#771,#864,.T.);
#579=EDGE_CURVE('',#771,#772,#82,.T.);
#580=EDGE_CURVE('',#773,#772,#865,.T.);
#581=EDGE_CURVE('',#773,#766,#83,.T.);
#582=EDGE_CURVE('',#774,#775,#866,.T.);
#583=EDGE_CURVE('',#774,#684,#84,.F.);
#584=EDGE_CURVE('',#685,#776,#85,.F.);
#585=EDGE_CURVE('',#777,#776,#867,.T.);
#586=EDGE_CURVE('',#777,#778,#86,.T.);
#587=EDGE_CURVE('',#779,#778,#868,.T.);
#588=EDGE_CURVE('',#779,#780,#87,.T.);
#589=EDGE_CURVE('',#780,#781,#869,.T.);
#590=EDGE_CURVE('',#781,#782,#88,.F.);
#591=EDGE_CURVE('',#782,#783,#870,.T.);
#592=EDGE_CURVE('',#784,#783,#89,.T.);
#593=EDGE_CURVE('',#785,#784,#871,.T.);
#594=EDGE_CURVE('',#785,#786,#872,.T.);
#595=EDGE_CURVE('',#786,#787,#90,.F.);
#596=EDGE_CURVE('',#787,#788,#873,.T.);
#597=EDGE_CURVE('',#788,#789,#874,.T.);
#598=EDGE_CURVE('',#789,#790,#91,.F.);
#599=EDGE_CURVE('',#791,#790,#875,.T.);
#600=EDGE_CURVE('',#791,#792,#92,.T.);
#601=EDGE_CURVE('',#793,#792,#876,.T.);
#602=EDGE_CURVE('',#793,#794,#877,.T.);
#603=EDGE_CURVE('',#794,#795,#878,.T.);
#604=EDGE_CURVE('',#795,#796,#879,.T.);
#605=EDGE_CURVE('',#796,#797,#93,.T.);
#606=EDGE_CURVE('',#797,#798,#880,.T.);
#607=EDGE_CURVE('',#798,#799,#94,.T.);
#608=EDGE_CURVE('',#799,#800,#881,.T.);
#609=EDGE_CURVE('',#800,#801,#882,.T.);
#610=EDGE_CURVE('',#801,#802,#883,.T.);
#611=EDGE_CURVE('',#802,#803,#884,.T.);
#612=EDGE_CURVE('',#803,#804,#95,.T.);
#613=EDGE_CURVE('',#804,#805,#885,.T.);
#614=EDGE_CURVE('',#805,#806,#96,.F.);
#615=EDGE_CURVE('',#807,#806,#886,.T.);
#616=EDGE_CURVE('',#808,#807,#887,.T.);
#617=EDGE_CURVE('',#808,#809,#97,.F.);
#618=EDGE_CURVE('',#810,#809,#888,.T.);
#619=EDGE_CURVE('',#811,#810,#889,.T.);
#620=EDGE_CURVE('',#691,#811,#98,.T.);
#621=EDGE_CURVE('',#690,#812,#99,.F.);
#622=EDGE_CURVE('',#813,#812,#890,.T.);
#623=EDGE_CURVE('',#813,#814,#100,.T.);
#624=EDGE_CURVE('',#814,#815,#891,.T.);
#625=EDGE_CURVE('',#815,#775,#101,.T.);
#626=EDGE_CURVE('',#738,#791,#892,.T.);
#627=EDGE_CURVE('',#790,#739,#893,.F.);
#628=EDGE_CURVE('',#740,#789,#894,.T.);
#629=EDGE_CURVE('',#741,#788,#895,.T.);
#630=EDGE_CURVE('',#787,#742,#896,.F.);
#631=EDGE_CURVE('',#743,#786,#897,.T.);
#632=EDGE_CURVE('',#744,#785,#898,.T.);
#633=EDGE_CURVE('',#745,#784,#899,.T.);
#634=EDGE_CURVE('',#746,#783,#900,.T.);
#635=EDGE_CURVE('',#782,#747,#901,.F.);
#636=EDGE_CURVE('',#718,#811,#902,.T.);
#637=EDGE_CURVE('',#719,#810,#903,.T.);
#638=EDGE_CURVE('',#809,#720,#904,.F.);
#639=EDGE_CURVE('',#721,#808,#905,.T.);
#640=EDGE_CURVE('',#722,#807,#906,.T.);
#641=EDGE_CURVE('',#806,#723,#907,.F.);
#642=EDGE_CURVE('',#804,#725,#908,.F.);
#643=EDGE_CURVE('',#724,#805,#909,.T.);
#644=EDGE_CURVE('',#726,#803,#910,.T.);
#645=EDGE_CURVE('',#727,#802,#911,.T.);
#646=EDGE_CURVE('',#728,#801,#912,.T.);
#647=EDGE_CURVE('',#729,#800,#913,.T.);
#648=EDGE_CURVE('',#730,#799,#914,.T.);
#649=EDGE_CURVE('',#731,#798,#915,.T.);
#650=EDGE_CURVE('',#732,#797,#916,.T.);
#651=EDGE_CURVE('',#733,#796,#917,.T.);
#652=EDGE_CURVE('',#734,#795,#918,.T.);
#653=EDGE_CURVE('',#735,#794,#919,.T.);
#654=EDGE_CURVE('',#736,#793,#920,.T.);
#655=EDGE_CURVE('',#792,#737,#921,.F.);
#656=EDGE_CURVE('',#705,#771,#922,.F.);
#657=EDGE_CURVE('',#770,#704,#923,.T.);
#658=EDGE_CURVE('',#772,#711,#924,.T.);
#659=EDGE_CURVE('',#710,#773,#925,.F.);
#660=EDGE_CURVE('',#766,#709,#926,.T.);
#661=EDGE_CURVE('',#708,#767,#927,.F.);
#662=EDGE_CURVE('',#768,#707,#928,.T.);
#663=EDGE_CURVE('',#706,#769,#929,.F.);
#664=EDGE_CURVE('',#762,#696,#930,.T.);
#665=EDGE_CURVE('',#697,#763,#931,.F.);
#666=EDGE_CURVE('',#764,#703,#932,.T.);
#667=EDGE_CURVE('',#702,#765,#933,.F.);
#668=EDGE_CURVE('',#700,#759,#934,.F.);
#669=EDGE_CURVE('',#758,#701,#935,.T.);
#670=EDGE_CURVE('',#698,#761,#936,.F.);
#671=EDGE_CURVE('',#760,#699,#937,.T.);
#672=EDGE_CURVE('',#775,#713,#938,.F.);
#673=EDGE_CURVE('',#712,#774,#939,.T.);
#674=EDGE_CURVE('',#716,#813,#940,.T.);
#675=EDGE_CURVE('',#812,#717,#941,.F.);
#676=EDGE_CURVE('',#814,#715,#942,.F.);
#677=EDGE_CURVE('',#714,#815,#943,.T.);
#678=EDGE_CURVE('',#778,#751,#944,.F.);
#679=EDGE_CURVE('',#750,#779,#945,.T.);
#680=EDGE_CURVE('',#780,#749,#946,.F.);
#681=EDGE_CURVE('',#748,#781,#947,.T.);
#682=EDGE_CURVE('',#752,#777,#948,.T.);
#683=EDGE_CURVE('',#776,#753,#949,.F.);
#684=VERTEX_POINT('',#1894);
#685=VERTEX_POINT('',#1895);
#686=VERTEX_POINT('',#1897);
#687=VERTEX_POINT('',#1899);
#688=VERTEX_POINT('',#1903);
#689=VERTEX_POINT('',#1904);
#690=VERTEX_POINT('',#1906);
#691=VERTEX_POINT('',#1908);
#692=VERTEX_POINT('',#1912);
#693=VERTEX_POINT('',#1914);
#694=VERTEX_POINT('',#1916);
#695=VERTEX_POINT('',#1918);
#696=VERTEX_POINT('',#1920);
#697=VERTEX_POINT('',#1921);
#698=VERTEX_POINT('',#1923);
#699=VERTEX_POINT('',#1925);
#700=VERTEX_POINT('',#1927);
#701=VERTEX_POINT('',#1929);
#702=VERTEX_POINT('',#1931);
#703=VERTEX_POINT('',#1933);
#704=VERTEX_POINT('',#1936);
#705=VERTEX_POINT('',#1937);
#706=VERTEX_POINT('',#1939);
#707=VERTEX_POINT('',#1941);
#708=VERTEX_POINT('',#1943);
#709=VERTEX_POINT('',#1945);
#710=VERTEX_POINT('',#1947);
#711=VERTEX_POINT('',#1949);
#712=VERTEX_POINT('',#1952);
#713=VERTEX_POINT('',#1954);
#714=VERTEX_POINT('',#1956);
#715=VERTEX_POINT('',#1958);
#716=VERTEX_POINT('',#1960);
#717=VERTEX_POINT('',#1962);
#718=VERTEX_POINT('',#1965);
#719=VERTEX_POINT('',#1967);
#720=VERTEX_POINT('',#1969);
#721=VERTEX_POINT('',#1971);
#722=VERTEX_POINT('',#1973);
#723=VERTEX_POINT('',#1975);
#724=VERTEX_POINT('',#1977);
#725=VERTEX_POINT('',#1979);
#726=VERTEX_POINT('',#1981);
#727=VERTEX_POINT('',#1983);
#728=VERTEX_POINT('',#1985);
#729=VERTEX_POINT('',#1987);
#730=VERTEX_POINT('',#1989);
#731=VERTEX_POINT('',#1991);
#732=VERTEX_POINT('',#1993);
#733=VERTEX_POINT('',#1995);
#734=VERTEX_POINT('',#1997);
#735=VERTEX_POINT('',#1999);
#736=VERTEX_POINT('',#2001);
#737=VERTEX_POINT('',#2003);
#738=VERTEX_POINT('',#2005);
#739=VERTEX_POINT('',#2007);
#740=VERTEX_POINT('',#2009);
#741=VERTEX_POINT('',#2011);
#742=VERTEX_POINT('',#2013);
#743=VERTEX_POINT('',#2015);
#744=VERTEX_POINT('',#2017);
#745=VERTEX_POINT('',#2019);
#746=VERTEX_POINT('',#2021);
#747=VERTEX_POINT('',#2023);
#748=VERTEX_POINT('',#2025);
#749=VERTEX_POINT('',#2027);
#750=VERTEX_POINT('',#2029);
#751=VERTEX_POINT('',#2031);
#752=VERTEX_POINT('',#2033);
#753=VERTEX_POINT('',#2035);
#754=VERTEX_POINT('',#2039);
#755=VERTEX_POINT('',#2041);
#756=VERTEX_POINT('',#2043);
#757=VERTEX_POINT('',#2045);
#758=VERTEX_POINT('',#2047);
#759=VERTEX_POINT('',#2048);
#760=VERTEX_POINT('',#2050);
#761=VERTEX_POINT('',#2052);
#762=VERTEX_POINT('',#2054);
#763=VERTEX_POINT('',#2056);
#764=VERTEX_POINT('',#2058);
#765=VERTEX_POINT('',#2060);
#766=VERTEX_POINT('',#2063);
#767=VERTEX_POINT('',#2064);
#768=VERTEX_POINT('',#2066);
#769=VERTEX_POINT('',#2068);
#770=VERTEX_POINT('',#2070);
#771=VERTEX_POINT('',#2072);
#772=VERTEX_POINT('',#2074);
#773=VERTEX_POINT('',#2076);
#774=VERTEX_POINT('',#2079);
#775=VERTEX_POINT('',#2080);
#776=VERTEX_POINT('',#2083);
#777=VERTEX_POINT('',#2085);
#778=VERTEX_POINT('',#2087);
#779=VERTEX_POINT('',#2089);
#780=VERTEX_POINT('',#2091);
#781=VERTEX_POINT('',#2093);
#782=VERTEX_POINT('',#2095);
#783=VERTEX_POINT('',#2097);
#784=VERTEX_POINT('',#2099);
#785=VERTEX_POINT('',#2101);
#786=VERTEX_POINT('',#2103);
#787=VERTEX_POINT('',#2105);
#788=VERTEX_POINT('',#2107);
#789=VERTEX_POINT('',#2109);
#790=VERTEX_POINT('',#2111);
#791=VERTEX_POINT('',#2113);
#792=VERTEX_POINT('',#2115);
#793=VERTEX_POINT('',#2117);
#794=VERTEX_POINT('',#2119);
#795=VERTEX_POINT('',#2121);
#796=VERTEX_POINT('',#2123);
#797=VERTEX_POINT('',#2125);
#798=VERTEX_POINT('',#2127);
#799=VERTEX_POINT('',#2129);
#800=VERTEX_POINT('',#2131);
#801=VERTEX_POINT('',#2133);
#802=VERTEX_POINT('',#2135);
#803=VERTEX_POINT('',#2137);
#804=VERTEX_POINT('',#2139);
#805=VERTEX_POINT('',#2141);
#806=VERTEX_POINT('',#2143);
#807=VERTEX_POINT('',#2145);
#808=VERTEX_POINT('',#2147);
#809=VERTEX_POINT('',#2149);
#810=VERTEX_POINT('',#2151);
#811=VERTEX_POINT('',#2153);
#812=VERTEX_POINT('',#2156);
#813=VERTEX_POINT('',#2158);
#814=VERTEX_POINT('',#2160);
#815=VERTEX_POINT('',#2162);
#816=LINE('',#1893,#950);
#817=LINE('',#1896,#951);
#818=LINE('',#1898,#952);
#819=LINE('',#1900,#953);
#820=LINE('',#1902,#954);
#821=LINE('',#1905,#955);
#822=LINE('',#1907,#956);
#823=LINE('',#1909,#957);
#824=LINE('',#1919,#958);
#825=LINE('',#1924,#959);
#826=LINE('',#1928,#960);
#827=LINE('',#1932,#961);
#828=LINE('',#1935,#962);
#829=LINE('',#1940,#963);
#830=LINE('',#1944,#964);
#831=LINE('',#1948,#965);
#832=LINE('',#1953,#966);
#833=LINE('',#1957,#967);
#834=LINE('',#1961,#968);
#835=LINE('',#1966,#969);
#836=LINE('',#1968,#970);
#837=LINE('',#1972,#971);
#838=LINE('',#1974,#972);
#839=LINE('',#1978,#973);
#840=LINE('',#1982,#974);
#841=LINE('',#1984,#975);
#842=LINE('',#1986,#976);
#843=LINE('',#1988,#977);
#844=LINE('',#1992,#978);
#845=LINE('',#1996,#979);
#846=LINE('',#1998,#980);
#847=LINE('',#2000,#981);
#848=LINE('',#2002,#982);
#849=LINE('',#2006,#983);
#850=LINE('',#2010,#984);
#851=LINE('',#2012,#985);
#852=LINE('',#2016,#986);
#853=LINE('',#2018,#987);
#854=LINE('',#2022,#988);
#855=LINE('',#2026,#989);
#856=LINE('',#2030,#990);
#857=LINE('',#2034,#991);
#858=LINE('',#2046,#992);
#859=LINE('',#2051,#993);
#860=LINE('',#2055,#994);
#861=LINE('',#2059,#995);
#862=LINE('',#2062,#996);
#863=LINE('',#2067,#997);
#864=LINE('',#2071,#998);
#865=LINE('',#2075,#999);
#866=LINE('',#2078,#1000);
#867=LINE('',#2084,#1001);
#868=LINE('',#2088,#1002);
#869=LINE('',#2092,#1003);
#870=LINE('',#2096,#1004);
#871=LINE('',#2100,#1005);
#872=LINE('',#2102,#1006);
#873=LINE('',#2106,#1007);
#874=LINE('',#2108,#1008);
#875=LINE('',#2112,#1009);
#876=LINE('',#2116,#1010);
#877=LINE('',#2118,#1011);
#878=LINE('',#2120,#1012);
#879=LINE('',#2122,#1013);
#880=LINE('',#2126,#1014);
#881=LINE('',#2130,#1015);
#882=LINE('',#2132,#1016);
#883=LINE('',#2134,#1017);
#884=LINE('',#2136,#1018);
#885=LINE('',#2140,#1019);
#886=LINE('',#2144,#1020);
#887=LINE('',#2146,#1021);
#888=LINE('',#2150,#1022);
#889=LINE('',#2152,#1023);
#890=LINE('',#2157,#1024);
#891=LINE('',#2161,#1025);
#892=LINE('',#2165,#1026);
#893=LINE('',#2166,#1027);
#894=LINE('',#2168,#1028);
#895=LINE('',#2169,#1029);
#896=LINE('',#2171,#1030);
#897=LINE('',#2173,#1031);
#898=LINE('',#2174,#1032);
#899=LINE('',#2176,#1033);
#900=LINE('',#2178,#1034);
#901=LINE('',#2180,#1035);
#902=LINE('',#2182,#1036);
#903=LINE('',#2184,#1037);
#904=LINE('',#2186,#1038);
#905=LINE('',#2188,#1039);
#906=LINE('',#2189,#1040);
#907=LINE('',#2191,#1041);
#908=LINE('',#2193,#1042);
#909=LINE('',#2194,#1043);
#910=LINE('',#2196,#1044);
#911=LINE('',#2197,#1045);
#912=LINE('',#2199,#1046);
#913=LINE('',#2201,#1047);
#914=LINE('',#2203,#1048);
#915=LINE('',#2205,#1049);
#916=LINE('',#2207,#1050);
#917=LINE('',#2209,#1051);
#918=LINE('',#2211,#1052);
#919=LINE('',#2213,#1053);
#920=LINE('',#2215,#1054);
#921=LINE('',#2217,#1055);
#922=LINE('',#2219,#1056);
#923=LINE('',#2220,#1057);
#924=LINE('',#2222,#1058);
#925=LINE('',#2223,#1059);
#926=LINE('',#2225,#1060);
#927=LINE('',#2226,#1061);
#928=LINE('',#2228,#1062);
#929=LINE('',#2229,#1063);
#930=LINE('',#2231,#1064);
#931=LINE('',#2232,#1065);
#932=LINE('',#2234,#1066);
#933=LINE('',#2235,#1067);
#934=LINE('',#2237,#1068);
#935=LINE('',#2238,#1069);
#936=LINE('',#2240,#1070);
#937=LINE('',#2241,#1071);
#938=LINE('',#2261,#1072);
#939=LINE('',#2262,#1073);
#940=LINE('',#2264,#1074);
#941=LINE('',#2265,#1075);
#942=LINE('',#2267,#1076);
#943=LINE('',#2268,#1077);
#944=LINE('',#2270,#1078);
#945=LINE('',#2271,#1079);
#946=LINE('',#2273,#1080);
#947=LINE('',#2274,#1081);
#948=LINE('',#2276,#1082);
#949=LINE('',#2277,#1083);
#950=VECTOR('',#1503,1.);
#951=VECTOR('',#1504,1.);
#952=VECTOR('',#1505,1.);
#953=VECTOR('',#1506,1.);
#954=VECTOR('',#1509,1.);
#955=VECTOR('',#1510,1.);
#956=VECTOR('',#1511,1.);
#957=VECTOR('',#1512,1.);
#958=VECTOR('',#1523,1.);
#959=VECTOR('',#1526,1.);
#960=VECTOR('',#1529,1.);
#961=VECTOR('',#1532,1.);
#962=VECTOR('',#1535,1.);
#963=VECTOR('',#1538,1.);
#964=VECTOR('',#1541,1.);
#965=VECTOR('',#1544,1.);
#966=VECTOR('',#1549,1.);
#967=VECTOR('',#1552,1.);
#968=VECTOR('',#1555,1.);
#969=VECTOR('',#1560,1.);
#970=VECTOR('',#1561,1.);
#971=VECTOR('',#1564,1.);
#972=VECTOR('',#1565,1.);
#973=VECTOR('',#1568,1.);
#974=VECTOR('',#1571,1.);
#975=VECTOR('',#1572,1.);
#976=VECTOR('',#1573,1.);
#977=VECTOR('',#1574,1.);
#978=VECTOR('',#1577,1.);
#979=VECTOR('',#1580,1.);
#980=VECTOR('',#1581,1.);
#981=VECTOR('',#1582,1.);
#982=VECTOR('',#1583,1.);
#983=VECTOR('',#1586,1.);
#984=VECTOR('',#1589,1.);
#985=VECTOR('',#1590,1.);
#986=VECTOR('',#1593,1.);
#987=VECTOR('',#1594,1.);
#988=VECTOR('',#1597,1.);
#989=VECTOR('',#1600,1.);
#990=VECTOR('',#1603,1.);
#991=VECTOR('',#1606,1.);
#992=VECTOR('',#1619,1.);
#993=VECTOR('',#1622,1.);
#994=VECTOR('',#1625,1.);
#995=VECTOR('',#1628,1.);
#996=VECTOR('',#1631,1.);
#997=VECTOR('',#1634,1.);
#998=VECTOR('',#1637,1.);
#999=VECTOR('',#1640,1.);
#1000=VECTOR('',#1643,1.);
#1001=VECTOR('',#1648,1.);
#1002=VECTOR('',#1651,1.);
#1003=VECTOR('',#1654,1.);
#1004=VECTOR('',#1657,1.);
#1005=VECTOR('',#1660,1.);
#1006=VECTOR('',#1661,1.);
#1007=VECTOR('',#1664,1.);
#1008=VECTOR('',#1665,1.);
#1009=VECTOR('',#1668,1.);
#1010=VECTOR('',#1671,1.);
#1011=VECTOR('',#1672,1.);
#1012=VECTOR('',#1673,1.);
#1013=VECTOR('',#1674,1.);
#1014=VECTOR('',#1677,1.);
#1015=VECTOR('',#1680,1.);
#1016=VECTOR('',#1681,1.);
#1017=VECTOR('',#1682,1.);
#1018=VECTOR('',#1683,1.);
#1019=VECTOR('',#1686,1.);
#1020=VECTOR('',#1689,1.);
#1021=VECTOR('',#1690,1.);
#1022=VECTOR('',#1693,1.);
#1023=VECTOR('',#1694,1.);
#1024=VECTOR('',#1699,1.);
#1025=VECTOR('',#1702,1.);
#1026=VECTOR('',#1707,1.);
#1027=VECTOR('',#1708,1.);
#1028=VECTOR('',#1711,1.);
#1029=VECTOR('',#1712,1.);
#1030=VECTOR('',#1715,1.);
#1031=VECTOR('',#1718,1.);
#1032=VECTOR('',#1719,1.);
#1033=VECTOR('',#1722,1.);
#1034=VECTOR('',#1725,1.);
#1035=VECTOR('',#1728,1.);
#1036=VECTOR('',#1731,1.);
#1037=VECTOR('',#1734,1.);
#1038=VECTOR('',#1737,1.);
#1039=VECTOR('',#1740,1.);
#1040=VECTOR('',#1741,1.);
#1041=VECTOR('',#1744,1.);
#1042=VECTOR('',#1747,1.);
#1043=VECTOR('',#1748,1.);
#1044=VECTOR('',#1751,1.);
#1045=VECTOR('',#1752,1.);
#1046=VECTOR('',#1755,1.);
#1047=VECTOR('',#1758,1.);
#1048=VECTOR('',#1761,1.);
#1049=VECTOR('',#1764,1.);
#1050=VECTOR('',#1767,1.);
#1051=VECTOR('',#1770,1.);
#1052=VECTOR('',#1773,1.);
#1053=VECTOR('',#1776,1.);
#1054=VECTOR('',#1779,1.);
#1055=VECTOR('',#1782,1.);
#1056=VECTOR('',#1785,1.);
#1057=VECTOR('',#1786,1.);
#1058=VECTOR('',#1789,1.);
#1059=VECTOR('',#1790,1.);
#1060=VECTOR('',#1793,1.);
#1061=VECTOR('',#1794,1.);
#1062=VECTOR('',#1797,1.);
#1063=VECTOR('',#1798,1.);
#1064=VECTOR('',#1801,1.);
#1065=VECTOR('',#1802,1.);
#1066=VECTOR('',#1805,1.);
#1067=VECTOR('',#1806,1.);
#1068=VECTOR('',#1809,1.);
#1069=VECTOR('',#1810,1.);
#1070=VECTOR('',#1813,1.);
#1071=VECTOR('',#1814,1.);
#1072=VECTOR('',#1853,1.);
#1073=VECTOR('',#1854,1.);
#1074=VECTOR('',#1857,1.);
#1075=VECTOR('',#1858,1.);
#1076=VECTOR('',#1861,1.);
#1077=VECTOR('',#1862,1.);
#1078=VECTOR('',#1865,1.);
#1079=VECTOR('',#1866,1.);
#1080=VECTOR('',#1869,1.);
#1081=VECTOR('',#1870,1.);
#1082=VECTOR('',#1873,1.);
#1083=VECTOR('',#1874,1.);
#1084=EDGE_LOOP('',(#102,#103,#104,#105));
#1085=EDGE_LOOP('',(#106,#107,#108,#109));
#1086=EDGE_LOOP('',(#110));
#1087=EDGE_LOOP('',(#111));
#1088=EDGE_LOOP('',(#112));
#1089=EDGE_LOOP('',(#113));
#1090=EDGE_LOOP('',(#114,#115,#116,#117,#118,#119,#120,#121));
#1091=EDGE_LOOP('',(#122,#123,#124,#125,#126,#127,#128,#129));
#1092=EDGE_LOOP('',(#130,#131,#132,#133,#134,#135,#136,#137,#138,#139,#140,
#141,#142,#143,#144,#145,#146,#147,#148,#149,#150,#151,#152,#153,#154,#155,
#156,#157,#158,#159,#160,#161,#162,#163,#164,#165,#166,#167,#168,#169,#170,
#171,#172,#173,#174,#175));
#1093=EDGE_LOOP('',(#176));
#1094=EDGE_LOOP('',(#177));
#1095=EDGE_LOOP('',(#178));
#1096=EDGE_LOOP('',(#179));
#1097=EDGE_LOOP('',(#180,#181,#182,#183,#184,#185,#186,#187));
#1098=EDGE_LOOP('',(#188,#189,#190,#191,#192,#193,#194,#195));
#1099=EDGE_LOOP('',(#196,#197,#198,#199,#200,#201,#202,#203,#204,#205,#206,
#207,#208,#209,#210,#211,#212,#213,#214,#215,#216,#217,#218,#219,#220,#221,
#222,#223,#224,#225,#226,#227,#228,#229,#230,#231,#232,#233,#234,#235,#236,
#237,#238,#239,#240,#241));
#1100=EDGE_LOOP('',(#242,#243,#244,#245));
#1101=EDGE_LOOP('',(#246,#247,#248,#249));
#1102=EDGE_LOOP('',(#250,#251,#252,#253));
#1103=EDGE_LOOP('',(#254,#255,#256,#257));
#1104=EDGE_LOOP('',(#258,#259,#260,#261));
#1105=EDGE_LOOP('',(#262,#263,#264,#265));
#1106=EDGE_LOOP('',(#266,#267,#268,#269));
#1107=EDGE_LOOP('',(#270,#271,#272,#273));
#1108=EDGE_LOOP('',(#274,#275,#276,#277));
#1109=EDGE_LOOP('',(#278,#279,#280,#281));
#1110=EDGE_LOOP('',(#282,#283,#284,#285));
#1111=EDGE_LOOP('',(#286,#287,#288,#289));
#1112=EDGE_LOOP('',(#290,#291,#292,#293));
#1113=EDGE_LOOP('',(#294,#295,#296,#297));
#1114=EDGE_LOOP('',(#298,#299,#300,#301));
#1115=EDGE_LOOP('',(#302,#303,#304,#305));
#1116=EDGE_LOOP('',(#306,#307,#308,#309));
#1117=EDGE_LOOP('',(#310,#311,#312,#313));
#1118=EDGE_LOOP('',(#314,#315,#316,#317));
#1119=EDGE_LOOP('',(#318,#319,#320,#321));
#1120=EDGE_LOOP('',(#322,#323,#324,#325));
#1121=EDGE_LOOP('',(#326,#327,#328,#329));
#1122=EDGE_LOOP('',(#330,#331,#332,#333));
#1123=EDGE_LOOP('',(#334,#335,#336,#337));
#1124=EDGE_LOOP('',(#338,#339,#340,#341));
#1125=EDGE_LOOP('',(#342,#343,#344,#345));
#1126=EDGE_LOOP('',(#346,#347,#348,#349));
#1127=EDGE_LOOP('',(#350,#351,#352,#353));
#1128=EDGE_LOOP('',(#354,#355,#356,#357));
#1129=EDGE_LOOP('',(#358,#359,#360,#361));
#1130=EDGE_LOOP('',(#362,#363,#364,#365));
#1131=EDGE_LOOP('',(#366,#367,#368,#369));
#1132=EDGE_LOOP('',(#370,#371,#372,#373));
#1133=EDGE_LOOP('',(#374,#375,#376,#377));
#1134=EDGE_LOOP('',(#378,#379,#380,#381));
#1135=EDGE_LOOP('',(#382,#383,#384,#385));
#1136=EDGE_LOOP('',(#386,#387,#388,#389));
#1137=EDGE_LOOP('',(#390,#391,#392,#393));
#1138=EDGE_LOOP('',(#394,#395,#396,#397));
#1139=EDGE_LOOP('',(#398,#399,#400,#401));
#1140=EDGE_LOOP('',(#402,#403,#404,#405));
#1141=EDGE_LOOP('',(#406,#407,#408,#409));
#1142=EDGE_LOOP('',(#410,#411,#412,#413));
#1143=EDGE_LOOP('',(#414,#415,#416,#417));
#1144=EDGE_LOOP('',(#418,#419,#420,#421));
#1145=EDGE_LOOP('',(#422,#423,#424,#425));
#1146=EDGE_LOOP('',(#426));
#1147=EDGE_LOOP('',(#427));
#1148=EDGE_LOOP('',(#428));
#1149=EDGE_LOOP('',(#429));
#1150=EDGE_LOOP('',(#430));
#1151=EDGE_LOOP('',(#431));
#1152=EDGE_LOOP('',(#432));
#1153=EDGE_LOOP('',(#433));
#1154=EDGE_LOOP('',(#434,#435,#436,#437));
#1155=EDGE_LOOP('',(#438,#439,#440,#441));
#1156=EDGE_LOOP('',(#442,#443,#444,#445));
#1157=EDGE_LOOP('',(#446,#447,#448,#449));
#1158=EDGE_LOOP('',(#450,#451,#452,#453));
#1159=EDGE_LOOP('',(#454,#455,#456,#457));
#1160=EDGE_LOOP('',(#458,#459,#460,#461));
#1161=EDGE_LOOP('',(#462,#463,#464,#465));
#1162=EDGE_LOOP('',(#466,#467,#468,#469));
#1163=EDGE_LOOP('',(#470,#471,#472,#473));
#1164=EDGE_LOOP('',(#474,#475,#476,#477));
#1165=EDGE_LOOP('',(#478,#479,#480,#481));
#1166=EDGE_LOOP('',(#482,#483,#484,#485));
#1167=EDGE_LOOP('',(#486,#487,#488,#489));
#1168=FACE_BOUND('',#1084,.T.);
#1169=FACE_BOUND('',#1085,.T.);
#1170=FACE_BOUND('',#1086,.T.);
#1171=FACE_BOUND('',#1087,.T.);
#1172=FACE_BOUND('',#1088,.T.);
#1173=FACE_BOUND('',#1089,.T.);
#1174=FACE_BOUND('',#1090,.T.);
#1175=FACE_BOUND('',#1091,.T.);
#1176=FACE_BOUND('',#1092,.T.);
#1177=FACE_BOUND('',#1093,.T.);
#1178=FACE_BOUND('',#1094,.T.);
#1179=FACE_BOUND('',#1095,.T.);
#1180=FACE_BOUND('',#1096,.T.);
#1181=FACE_BOUND('',#1097,.T.);
#1182=FACE_BOUND('',#1098,.T.);
#1183=FACE_BOUND('',#1099,.T.);
#1184=FACE_BOUND('',#1100,.T.);
#1185=FACE_BOUND('',#1101,.T.);
#1186=FACE_BOUND('',#1102,.T.);
#1187=FACE_BOUND('',#1103,.T.);
#1188=FACE_BOUND('',#1104,.T.);
#1189=FACE_BOUND('',#1105,.T.);
#1190=FACE_BOUND('',#1106,.T.);
#1191=FACE_BOUND('',#1107,.T.);
#1192=FACE_BOUND('',#1108,.T.);
#1193=FACE_BOUND('',#1109,.T.);
#1194=FACE_BOUND('',#1110,.T.);
#1195=FACE_BOUND('',#1111,.T.);
#1196=FACE_BOUND('',#1112,.T.);
#1197=FACE_BOUND('',#1113,.T.);
#1198=FACE_BOUND('',#1114,.T.);
#1199=FACE_BOUND('',#1115,.T.);
#1200=FACE_BOUND('',#1116,.T.);
#1201=FACE_BOUND('',#1117,.T.);
#1202=FACE_BOUND('',#1118,.T.);
#1203=FACE_BOUND('',#1119,.T.);
#1204=FACE_BOUND('',#1120,.T.);
#1205=FACE_BOUND('',#1121,.T.);
#1206=FACE_BOUND('',#1122,.T.);
#1207=FACE_BOUND('',#1123,.T.);
#1208=FACE_BOUND('',#1124,.T.);
#1209=FACE_BOUND('',#1125,.T.);
#1210=FACE_BOUND('',#1126,.T.);
#1211=FACE_BOUND('',#1127,.T.);
#1212=FACE_BOUND('',#1128,.T.);
#1213=FACE_BOUND('',#1129,.T.);
#1214=FACE_BOUND('',#1130,.T.);
#1215=FACE_BOUND('',#1131,.T.);
#1216=FACE_BOUND('',#1132,.T.);
#1217=FACE_BOUND('',#1133,.T.);
#1218=FACE_BOUND('',#1134,.T.);
#1219=FACE_BOUND('',#1135,.T.);
#1220=FACE_BOUND('',#1136,.T.);
#1221=FACE_BOUND('',#1137,.T.);
#1222=FACE_BOUND('',#1138,.T.);
#1223=FACE_BOUND('',#1139,.T.);
#1224=FACE_BOUND('',#1140,.T.);
#1225=FACE_BOUND('',#1141,.T.);
#1226=FACE_BOUND('',#1142,.T.);
#1227=FACE_BOUND('',#1143,.T.);
#1228=FACE_BOUND('',#1144,.T.);
#1229=FACE_BOUND('',#1145,.T.);
#1230=FACE_BOUND('',#1146,.T.);
#1231=FACE_BOUND('',#1147,.T.);
#1232=FACE_BOUND('',#1148,.T.);
#1233=FACE_BOUND('',#1149,.T.);
#1234=FACE_BOUND('',#1150,.T.);
#1235=FACE_BOUND('',#1151,.T.);
#1236=FACE_BOUND('',#1152,.T.);
#1237=FACE_BOUND('',#1153,.T.);
#1238=FACE_BOUND('',#1154,.T.);
#1239=FACE_BOUND('',#1155,.T.);
#1240=FACE_BOUND('',#1156,.T.);
#1241=FACE_BOUND('',#1157,.T.);
#1242=FACE_BOUND('',#1158,.T.);
#1243=FACE_BOUND('',#1159,.T.);
#1244=FACE_BOUND('',#1160,.T.);
#1245=FACE_BOUND('',#1161,.T.);
#1246=FACE_BOUND('',#1162,.T.);
#1247=FACE_BOUND('',#1163,.T.);
#1248=FACE_BOUND('',#1164,.T.);
#1249=FACE_BOUND('',#1165,.T.);
#1250=FACE_BOUND('',#1166,.T.);
#1251=FACE_BOUND('',#1167,.T.);
#1252=PLANE('',#1371);
#1253=PLANE('',#1372);
#1254=PLANE('',#1373);
#1255=PLANE('',#1404);
#1256=PLANE('',#1435);
#1257=PLANE('',#1436);
#1258=PLANE('',#1437);
#1259=PLANE('',#1438);
#1260=PLANE('',#1439);
#1261=PLANE('',#1441);
#1262=PLANE('',#1443);
#1263=PLANE('',#1444);
#1264=PLANE('',#1445);
#1265=PLANE('',#1446);
#1266=PLANE('',#1447);
#1267=PLANE('',#1448);
#1268=PLANE('',#1449);
#1269=PLANE('',#1450);
#1270=PLANE('',#1451);
#1271=PLANE('',#1453);
#1272=PLANE('',#1455);
#1273=PLANE('',#1456);
#1274=PLANE('',#1457);
#1275=PLANE('',#1458);
#1276=PLANE('',#1459);
#1277=PLANE('',#1460);
#1278=PLANE('',#1461);
#1279=PLANE('',#1462);
#1280=PLANE('',#1463);
#1281=PLANE('',#1464);
#1282=PLANE('',#1465);
#1283=PLANE('',#1466);
#1284=PLANE('',#1485);
#1285=PLANE('',#1486);
#1286=PLANE('',#1487);
#1287=PLANE('',#1488);
#1288=PLANE('',#1489);
#1289=PLANE('',#1490);
#1290=ADVANCED_FACE('',(#1168),#1252,.T.);
#1291=ADVANCED_FACE('',(#1169),#1253,.T.);
#1292=ADVANCED_FACE('',(#1170,#1171,#1172,#1173,#1174,#1175,#1176),#1254,
 .T.);
#1293=ADVANCED_FACE('',(#1177,#1178,#1179,#1180,#1181,#1182,#1183),#1255,
 .F.);
#1294=ADVANCED_FACE('',(#1184),#1256,.F.);
#1295=ADVANCED_FACE('',(#1185),#1257,.T.);
#1296=ADVANCED_FACE('',(#1186),#1258,.T.);
#1297=ADVANCED_FACE('',(#1187),#1259,.T.);
#1298=ADVANCED_FACE('',(#1188),#1260,.F.);
#1299=ADVANCED_FACE('',(#1189),#12,.T.);
#1300=ADVANCED_FACE('',(#1190),#1261,.T.);
#1301=ADVANCED_FACE('',(#1191),#13,.T.);
#1302=ADVANCED_FACE('',(#1192),#1262,.F.);
#1303=ADVANCED_FACE('',(#1193),#1263,.F.);
#1304=ADVANCED_FACE('',(#1194),#1264,.F.);
#1305=ADVANCED_FACE('',(#1195),#1265,.F.);
#1306=ADVANCED_FACE('',(#1196),#1266,.T.);
#1307=ADVANCED_FACE('',(#1197),#1267,.T.);
#1308=ADVANCED_FACE('',(#1198),#1268,.T.);
#1309=ADVANCED_FACE('',(#1199),#1269,.T.);
#1310=ADVANCED_FACE('',(#1200),#1270,.T.);
#1311=ADVANCED_FACE('',(#1201),#14,.F.);
#1312=ADVANCED_FACE('',(#1202),#1271,.T.);
#1313=ADVANCED_FACE('',(#1203),#15,.F.);
#1314=ADVANCED_FACE('',(#1204),#1272,.T.);
#1315=ADVANCED_FACE('',(#1205),#1273,.T.);
#1316=ADVANCED_FACE('',(#1206),#1274,.T.);
#1317=ADVANCED_FACE('',(#1207),#1275,.F.);
#1318=ADVANCED_FACE('',(#1208),#1276,.F.);
#1319=ADVANCED_FACE('',(#1209),#1277,.T.);
#1320=ADVANCED_FACE('',(#1210),#1278,.F.);
#1321=ADVANCED_FACE('',(#1211),#1279,.F.);
#1322=ADVANCED_FACE('',(#1212),#1280,.F.);
#1323=ADVANCED_FACE('',(#1213),#1281,.F.);
#1324=ADVANCED_FACE('',(#1214),#1282,.F.);
#1325=ADVANCED_FACE('',(#1215),#1283,.F.);
#1326=ADVANCED_FACE('',(#1216),#16,.F.);
#1327=ADVANCED_FACE('',(#1217),#17,.F.);
#1328=ADVANCED_FACE('',(#1218),#18,.F.);
#1329=ADVANCED_FACE('',(#1219),#19,.F.);
#1330=ADVANCED_FACE('',(#1220),#20,.F.);
#1331=ADVANCED_FACE('',(#1221),#21,.F.);
#1332=ADVANCED_FACE('',(#1222),#22,.F.);
#1333=ADVANCED_FACE('',(#1223),#23,.F.);
#1334=ADVANCED_FACE('',(#1224),#24,.F.);
#1335=ADVANCED_FACE('',(#1225),#25,.F.);
#1336=ADVANCED_FACE('',(#1226),#26,.T.);
#1337=ADVANCED_FACE('',(#1227),#27,.T.);
#1338=ADVANCED_FACE('',(#1228),#28,.T.);
#1339=ADVANCED_FACE('',(#1229),#29,.T.);
#1340=ADVANCED_FACE('',(#1230,#1231),#30,.F.);
#1341=ADVANCED_FACE('',(#1232,#1233),#31,.F.);
#1342=ADVANCED_FACE('',(#1234,#1235),#32,.F.);
#1343=ADVANCED_FACE('',(#1236,#1237),#33,.F.);
#1344=ADVANCED_FACE('',(#1238),#1284,.F.);
#1345=ADVANCED_FACE('',(#1239),#1285,.F.);
#1346=ADVANCED_FACE('',(#1240),#1286,.T.);
#1347=ADVANCED_FACE('',(#1241),#1287,.F.);
#1348=ADVANCED_FACE('',(#1242),#1288,.T.);
#1349=ADVANCED_FACE('',(#1243),#1289,.F.);
#1350=ADVANCED_FACE('',(#1244),#34,.T.);
#1351=ADVANCED_FACE('',(#1245),#35,.T.);
#1352=ADVANCED_FACE('',(#1246),#36,.T.);
#1353=ADVANCED_FACE('',(#1247),#37,.T.);
#1354=ADVANCED_FACE('',(#1248),#38,.F.);
#1355=ADVANCED_FACE('',(#1249),#39,.F.);
#1356=ADVANCED_FACE('',(#1250),#40,.F.);
#1357=ADVANCED_FACE('',(#1251),#41,.F.);
#1358=CLOSED_SHELL('',(#1290,#1291,#1292,#1293,#1294,#1295,#1296,#1297,
#1298,#1299,#1300,#1301,#1302,#1303,#1304,#1305,#1306,#1307,#1308,#1309,
#1310,#1311,#1312,#1313,#1314,#1315,#1316,#1317,#1318,#1319,#1320,#1321,
#1322,#1323,#1324,#1325,#1326,#1327,#1328,#1329,#1330,#1331,#1332,#1333,
#1334,#1335,#1336,#1337,#1338,#1339,#1340,#1341,#1342,#1343,#1344,#1345,
#1346,#1347,#1348,#1349,#1350,#1351,#1352,#1353,#1354,#1355,#1356,#1357));
#1359=STYLED_ITEM('',(#1360),#1367);
#1360=PRESENTATION_STYLE_ASSIGNMENT((#1361));
#1361=SURFACE_STYLE_USAGE(.BOTH.,#1362);
#1362=SURFACE_SIDE_STYLE('',(#1363));
#1363=SURFACE_STYLE_FILL_AREA(#1364);
#1364=FILL_AREA_STYLE('',(#1365));
#1365=FILL_AREA_STYLE_COLOUR('',#1366);
#1366=COLOUR_RGB('',0.6,0.6,0.6);
#1367=MANIFOLD_SOLID_BREP('Chassis Cover',#1358);
#1368=SHAPE_DEFINITION_REPRESENTATION(#2292,#1369);
#1369=SHAPE_REPRESENTATION('Chassis Cover',(#1370),#2287);
#1370=AXIS2_PLACEMENT_3D('',#1891,#1499,#1500);
#1371=AXIS2_PLACEMENT_3D('',#1892,#1501,#1502);
#1372=AXIS2_PLACEMENT_3D('',#1901,#1507,#1508);
#1373=AXIS2_PLACEMENT_3D('',#1910,#1513,#1514);
#1374=AXIS2_PLACEMENT_3D('',#1911,#1515,#1516);
#1375=AXIS2_PLACEMENT_3D('',#1913,#1517,#1518);
#1376=AXIS2_PLACEMENT_3D('',#1915,#1519,#1520);
#1377=AXIS2_PLACEMENT_3D('',#1917,#1521,#1522);
#1378=AXIS2_PLACEMENT_3D('',#1922,#1524,#1525);
#1379=AXIS2_PLACEMENT_3D('',#1926,#1527,#1528);
#1380=AXIS2_PLACEMENT_3D('',#1930,#1530,#1531);
#1381=AXIS2_PLACEMENT_3D('',#1934,#1533,#1534);
#1382=AXIS2_PLACEMENT_3D('',#1938,#1536,#1537);
#1383=AXIS2_PLACEMENT_3D('',#1942,#1539,#1540);
#1384=AXIS2_PLACEMENT_3D('',#1946,#1542,#1543);
#1385=AXIS2_PLACEMENT_3D('',#1950,#1545,#1546);
#1386=AXIS2_PLACEMENT_3D('',#1951,#1547,#1548);
#1387=AXIS2_PLACEMENT_3D('',#1955,#1550,#1551);
#1388=AXIS2_PLACEMENT_3D('',#1959,#1553,#1554);
#1389=AXIS2_PLACEMENT_3D('',#1963,#1556,#1557);
#1390=AXIS2_PLACEMENT_3D('',#1964,#1558,#1559);
#1391=AXIS2_PLACEMENT_3D('',#1970,#1562,#1563);
#1392=AXIS2_PLACEMENT_3D('',#1976,#1566,#1567);
#1393=AXIS2_PLACEMENT_3D('',#1980,#1569,#1570);
#1394=AXIS2_PLACEMENT_3D('',#1990,#1575,#1576);
#1395=AXIS2_PLACEMENT_3D('',#1994,#1578,#1579);
#1396=AXIS2_PLACEMENT_3D('',#2004,#1584,#1585);
#1397=AXIS2_PLACEMENT_3D('',#2008,#1587,#1588);
#1398=AXIS2_PLACEMENT_3D('',#2014,#1591,#1592);
#1399=AXIS2_PLACEMENT_3D('',#2020,#1595,#1596);
#1400=AXIS2_PLACEMENT_3D('',#2024,#1598,#1599);
#1401=AXIS2_PLACEMENT_3D('',#2028,#1601,#1602);
#1402=AXIS2_PLACEMENT_3D('',#2032,#1604,#1605);
#1403=AXIS2_PLACEMENT_3D('',#2036,#1607,#1608);
#1404=AXIS2_PLACEMENT_3D('',#2037,#1609,#1610);
#1405=AXIS2_PLACEMENT_3D('',#2038,#1611,#1612);
#1406=AXIS2_PLACEMENT_3D('',#2040,#1613,#1614);
#1407=AXIS2_PLACEMENT_3D('',#2042,#1615,#1616);
#1408=AXIS2_PLACEMENT_3D('',#2044,#1617,#1618);
#1409=AXIS2_PLACEMENT_3D('',#2049,#1620,#1621);
#1410=AXIS2_PLACEMENT_3D('',#2053,#1623,#1624);
#1411=AXIS2_PLACEMENT_3D('',#2057,#1626,#1627);
#1412=AXIS2_PLACEMENT_3D('',#2061,#1629,#1630);
#1413=AXIS2_PLACEMENT_3D('',#2065,#1632,#1633);
#1414=AXIS2_PLACEMENT_3D('',#2069,#1635,#1636);
#1415=AXIS2_PLACEMENT_3D('',#2073,#1638,#1639);
#1416=AXIS2_PLACEMENT_3D('',#2077,#1641,#1642);
#1417=AXIS2_PLACEMENT_3D('',#2081,#1644,#1645);
#1418=AXIS2_PLACEMENT_3D('',#2082,#1646,#1647);
#1419=AXIS2_PLACEMENT_3D('',#2086,#1649,#1650);
#1420=AXIS2_PLACEMENT_3D('',#2090,#1652,#1653);
#1421=AXIS2_PLACEMENT_3D('',#2094,#1655,#1656);
#1422=AXIS2_PLACEMENT_3D('',#2098,#1658,#1659);
#1423=AXIS2_PLACEMENT_3D('',#2104,#1662,#1663);
#1424=AXIS2_PLACEMENT_3D('',#2110,#1666,#1667);
#1425=AXIS2_PLACEMENT_3D('',#2114,#1669,#1670);
#1426=AXIS2_PLACEMENT_3D('',#2124,#1675,#1676);
#1427=AXIS2_PLACEMENT_3D('',#2128,#1678,#1679);
#1428=AXIS2_PLACEMENT_3D('',#2138,#1684,#1685);
#1429=AXIS2_PLACEMENT_3D('',#2142,#1687,#1688);
#1430=AXIS2_PLACEMENT_3D('',#2148,#1691,#1692);
#1431=AXIS2_PLACEMENT_3D('',#2154,#1695,#1696);
#1432=AXIS2_PLACEMENT_3D('',#2155,#1697,#1698);
#1433=AXIS2_PLACEMENT_3D('',#2159,#1700,#1701);
#1434=AXIS2_PLACEMENT_3D('',#2163,#1703,#1704);
#1435=AXIS2_PLACEMENT_3D('',#2164,#1705,#1706);
#1436=AXIS2_PLACEMENT_3D('',#2167,#1709,#1710);
#1437=AXIS2_PLACEMENT_3D('',#2170,#1713,#1714);
#1438=AXIS2_PLACEMENT_3D('',#2172,#1716,#1717);
#1439=AXIS2_PLACEMENT_3D('',#2175,#1720,#1721);
#1440=AXIS2_PLACEMENT_3D('',#2177,#1723,#1724);
#1441=AXIS2_PLACEMENT_3D('',#2179,#1726,#1727);
#1442=AXIS2_PLACEMENT_3D('',#2181,#1729,#1730);
#1443=AXIS2_PLACEMENT_3D('',#2183,#1732,#1733);
#1444=AXIS2_PLACEMENT_3D('',#2185,#1735,#1736);
#1445=AXIS2_PLACEMENT_3D('',#2187,#1738,#1739);
#1446=AXIS2_PLACEMENT_3D('',#2190,#1742,#1743);
#1447=AXIS2_PLACEMENT_3D('',#2192,#1745,#1746);
#1448=AXIS2_PLACEMENT_3D('',#2195,#1749,#1750);
#1449=AXIS2_PLACEMENT_3D('',#2198,#1753,#1754);
#1450=AXIS2_PLACEMENT_3D('',#2200,#1756,#1757);
#1451=AXIS2_PLACEMENT_3D('',#2202,#1759,#1760);
#1452=AXIS2_PLACEMENT_3D('',#2204,#1762,#1763);
#1453=AXIS2_PLACEMENT_3D('',#2206,#1765,#1766);
#1454=AXIS2_PLACEMENT_3D('',#2208,#1768,#1769);
#1455=AXIS2_PLACEMENT_3D('',#2210,#1771,#1772);
#1456=AXIS2_PLACEMENT_3D('',#2212,#1774,#1775);
#1457=AXIS2_PLACEMENT_3D('',#2214,#1777,#1778);
#1458=AXIS2_PLACEMENT_3D('',#2216,#1780,#1781);
#1459=AXIS2_PLACEMENT_3D('',#2218,#1783,#1784);
#1460=AXIS2_PLACEMENT_3D('',#2221,#1787,#1788);
#1461=AXIS2_PLACEMENT_3D('',#2224,#1791,#1792);
#1462=AXIS2_PLACEMENT_3D('',#2227,#1795,#1796);
#1463=AXIS2_PLACEMENT_3D('',#2230,#1799,#1800);
#1464=AXIS2_PLACEMENT_3D('',#2233,#1803,#1804);
#1465=AXIS2_PLACEMENT_3D('',#2236,#1807,#1808);
#1466=AXIS2_PLACEMENT_3D('',#2239,#1811,#1812);
#1467=AXIS2_PLACEMENT_3D('',#2242,#1815,#1816);
#1468=AXIS2_PLACEMENT_3D('',#2243,#1817,#1818);
#1469=AXIS2_PLACEMENT_3D('',#2244,#1819,#1820);
#1470=AXIS2_PLACEMENT_3D('',#2245,#1821,#1822);
#1471=AXIS2_PLACEMENT_3D('',#2246,#1823,#1824);
#1472=AXIS2_PLACEMENT_3D('',#2247,#1825,#1826);
#1473=AXIS2_PLACEMENT_3D('',#2248,#1827,#1828);
#1474=AXIS2_PLACEMENT_3D('',#2249,#1829,#1830);
#1475=AXIS2_PLACEMENT_3D('',#2250,#1831,#1832);
#1476=AXIS2_PLACEMENT_3D('',#2251,#1833,#1834);
#1477=AXIS2_PLACEMENT_3D('',#2252,#1835,#1836);
#1478=AXIS2_PLACEMENT_3D('',#2253,#1837,#1838);
#1479=AXIS2_PLACEMENT_3D('',#2254,#1839,#1840);
#1480=AXIS2_PLACEMENT_3D('',#2255,#1841,#1842);
#1481=AXIS2_PLACEMENT_3D('',#2256,#1843,#1844);
#1482=AXIS2_PLACEMENT_3D('',#2257,#1845,#1846);
#1483=AXIS2_PLACEMENT_3D('',#2258,#1847,#1848);
#1484=AXIS2_PLACEMENT_3D('',#2259,#1849,#1850);
#1485=AXIS2_PLACEMENT_3D('',#2260,#1851,#1852);
#1486=AXIS2_PLACEMENT_3D('',#2263,#1855,#1856);
#1487=AXIS2_PLACEMENT_3D('',#2266,#1859,#1860);
#1488=AXIS2_PLACEMENT_3D('',#2269,#1863,#1864);
#1489=AXIS2_PLACEMENT_3D('',#2272,#1867,#1868);
#1490=AXIS2_PLACEMENT_3D('',#2275,#1871,#1872);
#1491=AXIS2_PLACEMENT_3D('',#2278,#1875,#1876);
#1492=AXIS2_PLACEMENT_3D('',#2279,#1877,#1878);
#1493=AXIS2_PLACEMENT_3D('',#2280,#1879,#1880);
#1494=AXIS2_PLACEMENT_3D('',#2281,#1881,#1882);
#1495=AXIS2_PLACEMENT_3D('',#2282,#1883,#1884);
#1496=AXIS2_PLACEMENT_3D('',#2283,#1885,#1886);
#1497=AXIS2_PLACEMENT_3D('',#2284,#1887,#1888);
#1498=AXIS2_PLACEMENT_3D('',#2285,#1889,#1890);
#1499=DIRECTION('',(0.,0.,1.));
#1500=DIRECTION('',(1.,0.,0.));
#1501=DIRECTION('',(-0.00142618467996928,-0.999998982998112,0.));
#1502=DIRECTION('',(0.999998982998112,-0.00142618467996928,0.));
#1503=DIRECTION('',(-0.999998982998112,0.00142618467996928,0.));
#1504=DIRECTION('',(0.,0.,-1.));
#1505=DIRECTION('',(-0.999998982998112,0.00142618467996928,0.));
#1506=DIRECTION('',(0.,0.,-1.));
#1507=DIRECTION('',(-0.00142618467996928,-0.999998982998112,0.));
#1508=DIRECTION('',(0.999998982998112,-0.00142618467996928,0.));
#1509=DIRECTION('',(-0.999998982998112,0.00142618467996928,0.));
#1510=DIRECTION('',(0.,0.,-1.));
#1511=DIRECTION('',(-0.999998982998112,0.00142618467996928,0.));
#1512=DIRECTION('',(0.,0.,-1.));
#1513=DIRECTION('',(0.,0.,1.));
#1514=DIRECTION('',(1.,0.,0.));
#1515=DIRECTION('',(0.,0.,1.));
#1516=DIRECTION('',(1.,0.,0.));
#1517=DIRECTION('',(0.,0.,1.));
#1518=DIRECTION('',(1.,0.,0.));
#1519=DIRECTION('',(0.,0.,1.));
#1520=DIRECTION('',(1.,0.,0.));
#1521=DIRECTION('',(0.,0.,1.));
#1522=DIRECTION('',(1.,0.,0.));
#1523=DIRECTION('',(1.,5.10212787052002E-16,0.));
#1524=DIRECTION('',(0.,0.,1.));
#1525=DIRECTION('',(1.,0.,0.));
#1526=DIRECTION('',(0.,-1.,0.));
#1527=DIRECTION('',(0.,0.,1.));
#1528=DIRECTION('',(1.,0.,0.));
#1529=DIRECTION('',(-1.,0.,0.));
#1530=DIRECTION('',(0.,0.,1.));
#1531=DIRECTION('',(1.,0.,0.));
#1532=DIRECTION('',(0.,1.,0.));
#1533=DIRECTION('',(0.,0.,1.));
#1534=DIRECTION('',(1.,0.,0.));
#1535=DIRECTION('',(0.,-1.,0.));
#1536=DIRECTION('',(0.,0.,1.));
#1537=DIRECTION('',(1.,0.,0.));
#1538=DIRECTION('',(-1.,0.,0.));
#1539=DIRECTION('',(0.,0.,1.));
#1540=DIRECTION('',(1.,0.,0.));
#1541=DIRECTION('',(0.,1.,0.));
#1542=DIRECTION('',(0.,0.,1.));
#1543=DIRECTION('',(1.,0.,0.));
#1544=DIRECTION('',(-1.,-5.10212787052002E-16,0.));
#1545=DIRECTION('',(0.,0.,1.));
#1546=DIRECTION('',(1.,0.,0.));
#1547=DIRECTION('',(0.,0.,1.));
#1548=DIRECTION('',(1.,0.,0.));
#1549=DIRECTION('',(-0.651339320388065,-0.758786590364124,0.));
#1550=DIRECTION('',(0.,0.,1.));
#1551=DIRECTION('',(1.,0.,0.));
#1552=DIRECTION('',(1.,0.,0.));
#1553=DIRECTION('',(0.,0.,1.));
#1554=DIRECTION('',(1.,0.,0.));
#1555=DIRECTION('',(-0.648424890828,0.761278635556454,0.));
#1556=DIRECTION('',(0.,0.,1.));
#1557=DIRECTION('',(1.,0.,0.));
#1558=DIRECTION('',(0.,0.,1.));
#1559=DIRECTION('',(1.,0.,0.));
#1560=DIRECTION('',(0.196116135138184,0.98058067569092,0.));
#1561=DIRECTION('',(0.,1.,0.));
#1562=DIRECTION('',(0.,0.,1.));
#1563=DIRECTION('',(1.,0.,0.));
#1564=DIRECTION('',(-0.481918749772156,0.876215908676647,0.));
#1565=DIRECTION('',(-0.55470019622523,0.832050294337843,0.));
#1566=DIRECTION('',(0.,0.,1.));
#1567=DIRECTION('',(1.,0.,0.));
#1568=DIRECTION('',(1.,0.,0.));
#1569=DIRECTION('',(0.,0.,1.));
#1570=DIRECTION('',(1.,0.,0.));
#1571=DIRECTION('',(0.,-1.,0.));
#1572=DIRECTION('',(1.,0.,0.));
#1573=DIRECTION('',(-1.04817128457813E-16,1.,0.));
#1574=DIRECTION('',(1.,0.,0.));
#1575=DIRECTION('',(0.,0.,1.));
#1576=DIRECTION('',(1.,0.,0.));
#1577=DIRECTION('',(1.,0.,0.));
#1578=DIRECTION('',(0.,0.,1.));
#1579=DIRECTION('',(1.,0.,0.));
#1580=DIRECTION('',(1.,0.,0.));
#1581=DIRECTION('',(0.,-1.,0.));
#1582=DIRECTION('',(1.,0.,0.));
#1583=DIRECTION('',(0.,-1.,0.));
#1584=DIRECTION('',(0.,0.,1.));
#1585=DIRECTION('',(1.,0.,0.));
#1586=DIRECTION('',(-1.,0.,0.));
#1587=DIRECTION('',(0.,0.,1.));
#1588=DIRECTION('',(1.,0.,0.));
#1589=DIRECTION('',(0.55470019622523,0.832050294337843,0.));
#1590=DIRECTION('',(0.481918749772156,0.876215908676647,0.));
#1591=DIRECTION('',(0.,0.,1.));
#1592=DIRECTION('',(1.,0.,0.));
#1593=DIRECTION('',(0.,1.,0.));
#1594=DIRECTION('',(0.196116135138184,-0.98058067569092,0.));
#1595=DIRECTION('',(0.,0.,1.));
#1596=DIRECTION('',(1.,0.,0.));
#1597=DIRECTION('',(-0.999998982998112,0.00142618467996928,0.));
#1598=DIRECTION('',(0.,0.,1.));
#1599=DIRECTION('',(1.,0.,0.));
#1600=DIRECTION('',(0.650338872925562,0.759644226175589,0.));
#1601=DIRECTION('',(0.,0.,1.));
#1602=DIRECTION('',(1.,0.,0.));
#1603=DIRECTION('',(-0.999998982998112,0.00142618467997041,0.));
#1604=DIRECTION('',(0.,0.,1.));
#1605=DIRECTION('',(1.,0.,0.));
#1606=DIRECTION('',(-0.649423268463752,0.760427128907076,0.));
#1607=DIRECTION('',(0.,0.,1.));
#1608=DIRECTION('',(1.,0.,0.));
#1609=DIRECTION('',(0.,0.,1.));
#1610=DIRECTION('',(1.,0.,0.));
#1611=DIRECTION('',(0.,0.,1.));
#1612=DIRECTION('',(1.,0.,0.));
#1613=DIRECTION('',(0.,0.,1.));
#1614=DIRECTION('',(1.,0.,0.));
#1615=DIRECTION('',(0.,0.,1.));
#1616=DIRECTION('',(1.,0.,0.));
#1617=DIRECTION('',(0.,0.,1.));
#1618=DIRECTION('',(1.,0.,0.));
#1619=DIRECTION('',(-1.,0.,0.));
#1620=DIRECTION('',(0.,0.,1.));
#1621=DIRECTION('',(1.,0.,0.));
#1622=DIRECTION('',(0.,-1.,0.));
#1623=DIRECTION('',(0.,0.,1.));
#1624=DIRECTION('',(1.,0.,0.));
#1625=DIRECTION('',(1.,5.10212787052002E-16,0.));
#1626=DIRECTION('',(0.,0.,1.));
#1627=DIRECTION('',(1.,0.,0.));
#1628=DIRECTION('',(0.,1.,0.));
#1629=DIRECTION('',(0.,0.,1.));
#1630=DIRECTION('',(1.,0.,0.));
#1631=DIRECTION('',(0.,1.,0.));
#1632=DIRECTION('',(0.,0.,1.));
#1633=DIRECTION('',(1.,0.,0.));
#1634=DIRECTION('',(-1.,0.,0.));
#1635=DIRECTION('',(0.,0.,1.));
#1636=DIRECTION('',(1.,0.,0.));
#1637=DIRECTION('',(0.,-1.,0.));
#1638=DIRECTION('',(0.,0.,1.));
#1639=DIRECTION('',(1.,0.,0.));
#1640=DIRECTION('',(-1.,-5.10212787052002E-16,0.));
#1641=DIRECTION('',(0.,0.,1.));
#1642=DIRECTION('',(1.,0.,0.));
#1643=DIRECTION('',(0.651339320388065,0.758786590364124,0.));
#1644=DIRECTION('',(0.,0.,1.));
#1645=DIRECTION('',(1.,0.,0.));
#1646=DIRECTION('',(0.,0.,1.));
#1647=DIRECTION('',(1.,0.,0.));
#1648=DIRECTION('',(0.649423268463752,-0.760427128907076,0.));
#1649=DIRECTION('',(0.,0.,1.));
#1650=DIRECTION('',(1.,0.,0.));
#1651=DIRECTION('',(0.999998982998112,-0.00142618467997041,0.));
#1652=DIRECTION('',(0.,0.,1.));
#1653=DIRECTION('',(1.,0.,0.));
#1654=DIRECTION('',(-0.650338872925562,-0.759644226175589,0.));
#1655=DIRECTION('',(0.,0.,1.));
#1656=DIRECTION('',(1.,0.,0.));
#1657=DIRECTION('',(-0.999998982998112,0.00142618467996928,0.));
#1658=DIRECTION('',(0.,0.,1.));
#1659=DIRECTION('',(1.,0.,0.));
#1660=DIRECTION('',(0.196116135138184,-0.98058067569092,0.));
#1661=DIRECTION('',(0.,1.,0.));
#1662=DIRECTION('',(0.,0.,1.));
#1663=DIRECTION('',(1.,0.,0.));
#1664=DIRECTION('',(0.481918749772156,0.876215908676647,0.));
#1665=DIRECTION('',(0.55470019622523,0.832050294337843,0.));
#1666=DIRECTION('',(0.,0.,1.));
#1667=DIRECTION('',(1.,0.,0.));
#1668=DIRECTION('',(-1.,0.,0.));
#1669=DIRECTION('',(0.,0.,1.));
#1670=DIRECTION('',(1.,0.,0.));
#1671=DIRECTION('',(0.,-1.,0.));
#1672=DIRECTION('',(1.,0.,0.));
#1673=DIRECTION('',(0.,-1.,0.));
#1674=DIRECTION('',(1.,0.,0.));
#1675=DIRECTION('',(0.,0.,1.));
#1676=DIRECTION('',(1.,0.,0.));
#1677=DIRECTION('',(1.,0.,0.));
#1678=DIRECTION('',(0.,0.,1.));
#1679=DIRECTION('',(1.,0.,0.));
#1680=DIRECTION('',(1.,0.,0.));
#1681=DIRECTION('',(-1.04817128457813E-16,1.,0.));
#1682=DIRECTION('',(1.,0.,0.));
#1683=DIRECTION('',(0.,-1.,0.));
#1684=DIRECTION('',(0.,0.,1.));
#1685=DIRECTION('',(1.,0.,0.));
#1686=DIRECTION('',(1.,0.,0.));
#1687=DIRECTION('',(0.,0.,1.));
#1688=DIRECTION('',(1.,0.,0.));
#1689=DIRECTION('',(-0.55470019622523,0.832050294337843,0.));
#1690=DIRECTION('',(-0.481918749772156,0.876215908676647,0.));
#1691=DIRECTION('',(0.,0.,1.));
#1692=DIRECTION('',(1.,0.,0.));
#1693=DIRECTION('',(0.,1.,0.));
#1694=DIRECTION('',(0.196116135138184,0.98058067569092,0.));
#1695=DIRECTION('',(0.,0.,1.));
#1696=DIRECTION('',(1.,0.,0.));
#1697=DIRECTION('',(0.,0.,1.));
#1698=DIRECTION('',(1.,0.,0.));
#1699=DIRECTION('',(0.648424890828,-0.761278635556454,0.));
#1700=DIRECTION('',(0.,0.,1.));
#1701=DIRECTION('',(1.,0.,0.));
#1702=DIRECTION('',(-1.,0.,0.));
#1703=DIRECTION('',(0.,0.,1.));
#1704=DIRECTION('',(1.,0.,0.));
#1705=DIRECTION('',(0.,-1.,0.));
#1706=DIRECTION('',(0.,0.,-1.));
#1707=DIRECTION('',(0.,0.,-1.));
#1708=DIRECTION('',(0.,0.,-1.));
#1709=DIRECTION('',(-0.832050294337843,0.55470019622523,0.));
#1710=DIRECTION('',(-0.55470019622523,-0.832050294337843,0.));
#1711=DIRECTION('',(0.,0.,-1.));
#1712=DIRECTION('',(0.,0.,-1.));
#1713=DIRECTION('',(-0.876215908676647,0.481918749772156,0.));
#1714=DIRECTION('',(-0.481918749772156,-0.876215908676647,0.));
#1715=DIRECTION('',(0.,0.,-1.));
#1716=DIRECTION('',(-1.,0.,0.));
#1717=DIRECTION('',(0.,0.,1.));
#1718=DIRECTION('',(0.,0.,-1.));
#1719=DIRECTION('',(0.,0.,-1.));
#1720=DIRECTION('',(0.98058067569092,0.196116135138184,0.));
#1721=DIRECTION('',(-0.196116135138184,0.98058067569092,0.));
#1722=DIRECTION('',(0.,0.,-1.));
#1723=DIRECTION('',(0.,0.,-1.));
#1724=DIRECTION('',(-1.,0.,0.));
#1725=DIRECTION('',(0.,0.,-1.));
#1726=DIRECTION('',(-0.00142618467996928,-0.999998982998112,0.));
#1727=DIRECTION('',(0.999998982998112,-0.00142618467996928,0.));
#1728=DIRECTION('',(0.,0.,-1.));
#1729=DIRECTION('',(0.,0.,-1.));
#1730=DIRECTION('',(-1.,0.,0.));
#1731=DIRECTION('',(0.,0.,-1.));
#1732=DIRECTION('',(-0.98058067569092,0.196116135138184,0.));
#1733=DIRECTION('',(-0.196116135138184,-0.98058067569092,0.));
#1734=DIRECTION('',(0.,0.,-1.));
#1735=DIRECTION('',(-1.,0.,0.));
#1736=DIRECTION('',(0.,0.,1.));
#1737=DIRECTION('',(0.,0.,-1.));
#1738=DIRECTION('',(-0.876215908676647,-0.481918749772156,0.));
#1739=DIRECTION('',(0.481918749772156,-0.876215908676647,0.));
#1740=DIRECTION('',(0.,0.,-1.));
#1741=DIRECTION('',(0.,0.,-1.));
#1742=DIRECTION('',(-0.832050294337843,-0.55470019622523,0.));
#1743=DIRECTION('',(0.55470019622523,-0.832050294337843,0.));
#1744=DIRECTION('',(0.,0.,-1.));
#1745=DIRECTION('',(0.,1.,0.));
#1746=DIRECTION('',(0.,0.,1.));
#1747=DIRECTION('',(0.,0.,-1.));
#1748=DIRECTION('',(0.,0.,-1.));
#1749=DIRECTION('',(1.,0.,0.));
#1750=DIRECTION('',(0.,0.,-1.));
#1751=DIRECTION('',(0.,0.,-1.));
#1752=DIRECTION('',(0.,0.,-1.));
#1753=DIRECTION('',(0.,1.,0.));
#1754=DIRECTION('',(0.,0.,1.));
#1755=DIRECTION('',(0.,0.,-1.));
#1756=DIRECTION('',(-1.,-1.04817128457813E-16,0.));
#1757=DIRECTION('',(1.04817128457813E-16,-1.,0.));
#1758=DIRECTION('',(0.,0.,-1.));
#1759=DIRECTION('',(0.,1.,0.));
#1760=DIRECTION('',(0.,0.,1.));
#1761=DIRECTION('',(0.,0.,-1.));
#1762=DIRECTION('',(0.,0.,-1.));
#1763=DIRECTION('',(-1.,0.,0.));
#1764=DIRECTION('',(0.,0.,-1.));
#1765=DIRECTION('',(0.,1.,0.));
#1766=DIRECTION('',(0.,0.,1.));
#1767=DIRECTION('',(0.,0.,-1.));
#1768=DIRECTION('',(0.,0.,-1.));
#1769=DIRECTION('',(-1.,0.,0.));
#1770=DIRECTION('',(0.,0.,-1.));
#1771=DIRECTION('',(0.,1.,0.));
#1772=DIRECTION('',(0.,0.,1.));
#1773=DIRECTION('',(0.,0.,-1.));
#1774=DIRECTION('',(1.,0.,0.));
#1775=DIRECTION('',(0.,0.,-1.));
#1776=DIRECTION('',(0.,0.,-1.));
#1777=DIRECTION('',(0.,1.,0.));
#1778=DIRECTION('',(0.,0.,1.));
#1779=DIRECTION('',(0.,0.,-1.));
#1780=DIRECTION('',(1.,0.,0.));
#1781=DIRECTION('',(0.,0.,-1.));
#1782=DIRECTION('',(0.,0.,-1.));
#1783=DIRECTION('',(-1.,0.,0.));
#1784=DIRECTION('',(0.,0.,1.));
#1785=DIRECTION('',(0.,0.,1.));
#1786=DIRECTION('',(0.,0.,1.));
#1787=DIRECTION('',(-5.10212787052002E-16,1.,0.));
#1788=DIRECTION('',(-1.,-5.10212787052002E-16,0.));
#1789=DIRECTION('',(0.,0.,1.));
#1790=DIRECTION('',(0.,0.,1.));
#1791=DIRECTION('',(1.,0.,0.));
#1792=DIRECTION('',(0.,0.,-1.));
#1793=DIRECTION('',(0.,0.,1.));
#1794=DIRECTION('',(0.,0.,1.));
#1795=DIRECTION('',(0.,1.,0.));
#1796=DIRECTION('',(0.,0.,1.));
#1797=DIRECTION('',(0.,0.,1.));
#1798=DIRECTION('',(0.,0.,1.));
#1799=DIRECTION('',(5.10212787052002E-16,-1.,0.));
#1800=DIRECTION('',(1.,5.10212787052002E-16,0.));
#1801=DIRECTION('',(0.,0.,1.));
#1802=DIRECTION('',(0.,0.,1.));
#1803=DIRECTION('',(1.,0.,0.));
#1804=DIRECTION('',(0.,0.,-1.));
#1805=DIRECTION('',(0.,0.,1.));
#1806=DIRECTION('',(0.,0.,1.));
#1807=DIRECTION('',(0.,1.,0.));
#1808=DIRECTION('',(0.,0.,1.));
#1809=DIRECTION('',(0.,0.,1.));
#1810=DIRECTION('',(0.,0.,1.));
#1811=DIRECTION('',(-1.,0.,0.));
#1812=DIRECTION('',(0.,0.,1.));
#1813=DIRECTION('',(0.,0.,1.));
#1814=DIRECTION('',(0.,0.,1.));
#1815=DIRECTION('',(0.,0.,1.));
#1816=DIRECTION('',(1.,0.,0.));
#1817=DIRECTION('',(0.,0.,1.));
#1818=DIRECTION('',(1.,0.,0.));
#1819=DIRECTION('',(0.,0.,-1.));
#1820=DIRECTION('',(-1.,0.,0.));
#1821=DIRECTION('',(0.,0.,-1.));
#1822=DIRECTION('',(-1.,0.,0.));
#1823=DIRECTION('',(0.,0.,-1.));
#1824=DIRECTION('',(-1.,0.,0.));
#1825=DIRECTION('',(0.,0.,-1.));
#1826=DIRECTION('',(-1.,0.,0.));
#1827=DIRECTION('',(0.,0.,-1.));
#1828=DIRECTION('',(-1.,0.,0.));
#1829=DIRECTION('',(0.,0.,-1.));
#1830=DIRECTION('',(-1.,0.,0.));
#1831=DIRECTION('',(0.,0.,1.));
#1832=DIRECTION('',(1.,0.,0.));
#1833=DIRECTION('',(0.,0.,1.));
#1834=DIRECTION('',(1.,0.,0.));
#1835=DIRECTION('',(0.,0.,-1.));
#1836=DIRECTION('',(-1.,0.,0.));
#1837=DIRECTION('',(0.,0.,-1.));
#1838=DIRECTION('',(-1.,0.,0.));
#1839=DIRECTION('',(0.,0.,1.));
#1840=DIRECTION('',(1.,0.,0.));
#1841=DIRECTION('',(0.,0.,1.));
#1842=DIRECTION('',(1.,0.,0.));
#1843=DIRECTION('',(0.,0.,-1.));
#1844=DIRECTION('',(-1.,0.,0.));
#1845=DIRECTION('',(0.,0.,-1.));
#1846=DIRECTION('',(-1.,0.,0.));
#1847=DIRECTION('',(0.,0.,-1.));
#1848=DIRECTION('',(-1.,0.,0.));
#1849=DIRECTION('',(0.,0.,-1.));
#1850=DIRECTION('',(-1.,0.,0.));
#1851=DIRECTION('',(-0.758786590364124,0.651339320388065,0.));
#1852=DIRECTION('',(-0.651339320388065,-0.758786590364124,0.));
#1853=DIRECTION('',(0.,0.,-1.));
#1854=DIRECTION('',(0.,0.,-1.));
#1855=DIRECTION('',(0.761278635556454,0.648424890828,0.));
#1856=DIRECTION('',(-0.648424890828,0.761278635556454,0.));
#1857=DIRECTION('',(0.,0.,-1.));
#1858=DIRECTION('',(0.,0.,-1.));
#1859=DIRECTION('',(0.,-1.,0.));
#1860=DIRECTION('',(0.,0.,-1.));
#1861=DIRECTION('',(0.,0.,-1.));
#1862=DIRECTION('',(0.,0.,-1.));
#1863=DIRECTION('',(0.00142618467997041,0.999998982998112,0.));
#1864=DIRECTION('',(-0.999998982998112,0.00142618467997041,0.));
#1865=DIRECTION('',(0.,0.,-1.));
#1866=DIRECTION('',(0.,0.,-1.));
#1867=DIRECTION('',(0.759644226175589,-0.650338872925562,0.));
#1868=DIRECTION('',(0.650338872925562,0.759644226175589,0.));
#1869=DIRECTION('',(0.,0.,-1.));
#1870=DIRECTION('',(0.,0.,-1.));
#1871=DIRECTION('',(0.760427128907076,0.649423268463752,0.));
#1872=DIRECTION('',(-0.649423268463752,0.760427128907076,0.));
#1873=DIRECTION('',(0.,0.,-1.));
#1874=DIRECTION('',(0.,0.,-1.));
#1875=DIRECTION('',(0.,0.,1.));
#1876=DIRECTION('',(1.,0.,0.));
#1877=DIRECTION('',(0.,0.,1.));
#1878=DIRECTION('',(1.,0.,0.));
#1879=DIRECTION('',(0.,0.,1.));
#1880=DIRECTION('',(1.,0.,0.));
#1881=DIRECTION('',(0.,0.,-1.));
#1882=DIRECTION('',(-1.,0.,0.));
#1883=DIRECTION('',(0.,0.,-1.));
#1884=DIRECTION('',(-1.,0.,0.));
#1885=DIRECTION('',(0.,0.,-1.));
#1886=DIRECTION('',(-1.,0.,0.));
#1887=DIRECTION('',(0.,0.,1.));
#1888=DIRECTION('',(1.,0.,0.));
#1889=DIRECTION('',(0.,0.,-1.));
#1890=DIRECTION('',(-1.,0.,0.));
#1891=CARTESIAN_POINT('',(0.,0.,0.));
#1892=CARTESIAN_POINT('',(-1.50770007380612E-5,-0.014562672503187,0.0152));
#1893=CARTESIAN_POINT('',(-1.50770007380612E-5,-0.014562672503187,0.014));
#1894=CARTESIAN_POINT('',(0.022353144881134,-0.0145945737509967,0.014));
#1895=CARTESIAN_POINT('',(-0.0223592348119398,-0.0145308055752211,0.014));
#1896=CARTESIAN_POINT('',(0.022353144881134,-0.0145945737509967,0.0152));
#1897=CARTESIAN_POINT('',(0.022353144881134,-0.0145945737509967,0.0152));
#1898=CARTESIAN_POINT('',(-1.50770007380612E-5,-0.014562672503187,0.0152));
#1899=CARTESIAN_POINT('',(-0.0223592348119398,-0.0145308055752211,0.0152));
#1900=CARTESIAN_POINT('',(-0.0223592348119398,-0.0145308055752211,0.014));
#1901=CARTESIAN_POINT('',(-1.50770007380612E-5,-0.014562672503187,0.0152));
#1902=CARTESIAN_POINT('',(-1.50770007380612E-5,-0.014562672503187,0.0152));
#1903=CARTESIAN_POINT('',(0.0498426856955524,-0.0146337789528373,0.0152));
#1904=CARTESIAN_POINT('',(0.043226780331251,-0.0146243434403667,0.0152));
#1905=CARTESIAN_POINT('',(0.043226780331251,-0.0146243434403667,0.014));
#1906=CARTESIAN_POINT('',(0.043226780331251,-0.0146243434403667,0.014));
#1907=CARTESIAN_POINT('',(-1.50770007380612E-5,-0.014562672503187,0.014));
#1908=CARTESIAN_POINT('',(0.0498426856955524,-0.0146337789528373,0.014));
#1909=CARTESIAN_POINT('',(0.0498426856955524,-0.0146337789528373,0.0152));
#1910=CARTESIAN_POINT('',(6.93889390390723E-18,0.0104331105235813,0.0152));
#1911=CARTESIAN_POINT('',(-0.0482479601356593,0.0241638782413885,0.0152));
#1912=CARTESIAN_POINT('',(-0.0469479601356593,0.0241638782413885,0.0152));
#1913=CARTESIAN_POINT('',(0.0482480946772456,0.0241754766673517,0.0152));
#1914=CARTESIAN_POINT('',(0.0495480946772456,0.0241754766673517,0.0152));
#1915=CARTESIAN_POINT('',(0.0181999814905657,-0.0124886505669718,0.0152));
#1916=CARTESIAN_POINT('',(0.0194999814905657,-0.0124886505669718,0.0152));
#1917=CARTESIAN_POINT('',(-0.0181999814905657,-0.0124367374446209,0.0152));
#1918=CARTESIAN_POINT('',(-0.0168999814905657,-0.0124367374446209,0.0152));
#1919=CARTESIAN_POINT('',(0.047,-0.00965,0.0152));
#1920=CARTESIAN_POINT('',(0.0451,-0.00965,0.0152));
#1921=CARTESIAN_POINT('',(0.0489,-0.00965,0.0152));
#1922=CARTESIAN_POINT('',(0.0451,-0.00815,0.0152));
#1923=CARTESIAN_POINT('',(0.0436,-0.00815,0.0152));
#1924=CARTESIAN_POINT('',(0.0436,0.008725,0.0152));
#1925=CARTESIAN_POINT('',(0.0436,0.00935,0.0152));
#1926=CARTESIAN_POINT('',(0.0451,0.00935,0.0152));
#1927=CARTESIAN_POINT('',(0.0451,0.01085,0.0152));
#1928=CARTESIAN_POINT('',(0.047,0.01085,0.0152));
#1929=CARTESIAN_POINT('',(0.0489,0.01085,0.0152));
#1930=CARTESIAN_POINT('',(0.0489,0.00935,0.0152));
#1931=CARTESIAN_POINT('',(0.0504,0.00935,0.0152));
#1932=CARTESIAN_POINT('',(0.0504,0.008725,0.0152));
#1933=CARTESIAN_POINT('',(0.0504,-0.00815,0.0152));
#1934=CARTESIAN_POINT('',(0.0489,-0.00815,0.0152));
#1935=CARTESIAN_POINT('',(-0.0504,0.0036,0.0152));
#1936=CARTESIAN_POINT('',(-0.0504,0.00935,0.0152));
#1937=CARTESIAN_POINT('',(-0.0504,-0.00815,0.0152));
#1938=CARTESIAN_POINT('',(-0.0489,0.00935,0.0152));
#1939=CARTESIAN_POINT('',(-0.0489,0.01085,0.0152));
#1940=CARTESIAN_POINT('',(-0.047,0.01085,0.0152));
#1941=CARTESIAN_POINT('',(-0.0451,0.01085,0.0152));
#1942=CARTESIAN_POINT('',(-0.0451,0.00935,0.0152));
#1943=CARTESIAN_POINT('',(-0.0436,0.00935,0.0152));
#1944=CARTESIAN_POINT('',(-0.0436,0.0036,0.0152));
#1945=CARTESIAN_POINT('',(-0.0436,-0.00815,0.0152));
#1946=CARTESIAN_POINT('',(-0.0451,-0.00815,0.0152));
#1947=CARTESIAN_POINT('',(-0.0451,-0.00965,0.0152));
#1948=CARTESIAN_POINT('',(-0.047,-0.00965,0.0152));
#1949=CARTESIAN_POINT('',(-0.0489,-0.00965,0.0152));
#1950=CARTESIAN_POINT('',(-0.0489,-0.00815,0.0152));
#1951=CARTESIAN_POINT('',(0.022355997250494,-0.0125945757850004,0.0152));
#1952=CARTESIAN_POINT('',(0.0238735704312222,-0.0138972544257766,0.0152));
#1953=CARTESIAN_POINT('',(0.0257701138996296,-0.0116878503458681,0.0152));
#1954=CARTESIAN_POINT('',(0.0258826217529251,-0.0115567827936429,0.0152));
#1955=CARTESIAN_POINT('',(0.0274001949336534,-0.012859461434419,0.0152));
#1956=CARTESIAN_POINT('',(0.0274001949336534,-0.010859461434419,0.0152));
#1957=CARTESIAN_POINT('',(6.93889390390723E-18,-0.010859461434419,0.0152));
#1958=CARTESIAN_POINT('',(0.0381755765645665,-0.010859461434419,0.0152));
#1959=CARTESIAN_POINT('',(0.0381755765645665,-0.012859461434419,0.0152));
#1960=CARTESIAN_POINT('',(0.0396981338356793,-0.011562611652763,0.0152));
#1961=CARTESIAN_POINT('',(0.0121490686788073,0.0207811725389553,0.0152));
#1962=CARTESIAN_POINT('',(0.041707075429498,-0.0139211952560265,0.0152));
#1963=CARTESIAN_POINT('',(0.0432296327006109,-0.0126243454743705,0.0152));
#1964=CARTESIAN_POINT('',(0.0487673161892166,-0.00827388495110148,0.0152));
#1965=CARTESIAN_POINT('',(0.0550922265936042,-0.00953886703197904,0.0152));
#1966=CARTESIAN_POINT('',(0.0545,-0.0125,0.0152));
#1967=CARTESIAN_POINT('',(0.056,-0.005,0.0152));
#1968=CARTESIAN_POINT('',(0.056,0.00454545454545457,0.0152));
#1969=CARTESIAN_POINT('',(0.056,0.0133203387942655,0.0152));
#1970=CARTESIAN_POINT('',(0.053,0.0133203387942655,0.0152));
#1971=CARTESIAN_POINT('',(0.05562864772603,0.014766095043582,0.0152));
#1972=CARTESIAN_POINT('',(0.053,0.0195454545454546,0.0152));
#1973=CARTESIAN_POINT('',(0.05,0.025,0.0152));
#1974=CARTESIAN_POINT('',(0.045,0.0325,0.0152));
#1975=CARTESIAN_POINT('',(0.0462254843146159,0.0306617735280762,0.0152));
#1976=CARTESIAN_POINT('',(0.0437293334316023,0.0289976729394005,0.0152));
#1977=CARTESIAN_POINT('',(0.0437293334316023,0.0319976729394006,0.0152));
#1978=CARTESIAN_POINT('',(0.0354174423535331,0.0319976729394006,0.0152));
#1979=CARTESIAN_POINT('',(0.0285,0.0319976729394006,0.0152));
#1980=CARTESIAN_POINT('',(0.0285,0.0349976729394006,0.0152));
#1981=CARTESIAN_POINT('',(0.0255,0.0349976729394006,0.0152));
#1982=CARTESIAN_POINT('',(0.0255,0.0336488364697003,0.0152));
#1983=CARTESIAN_POINT('',(0.0255,0.0353,0.0152));
#1984=CARTESIAN_POINT('',(0.02035,0.0353,0.0152));
#1985=CARTESIAN_POINT('',(0.0152,0.0353,0.0152));
#1986=CARTESIAN_POINT('',(0.0152,0.027025,0.0152));
#1987=CARTESIAN_POINT('',(0.0152,0.01875,0.0152));
#1988=CARTESIAN_POINT('',(0.0151,0.01875,0.0152));
#1989=CARTESIAN_POINT('',(0.00922717802865894,0.01875,0.0152));
#1990=CARTESIAN_POINT('',(0.0065,0.02,0.0152));
#1991=CARTESIAN_POINT('',(0.0065,0.017,0.0152));
#1992=CARTESIAN_POINT('',(7.80625564189563E-18,0.017,0.0152));
#1993=CARTESIAN_POINT('',(-0.0065,0.017,0.0152));
#1994=CARTESIAN_POINT('',(-0.0065,0.02,0.0152));
#1995=CARTESIAN_POINT('',(-0.00922717802865892,0.01875,0.0152));
#1996=CARTESIAN_POINT('',(-0.0122135890143295,0.01875,0.0152));
#1997=CARTESIAN_POINT('',(-0.0152,0.01875,0.0152));
#1998=CARTESIAN_POINT('',(-0.0152,0.01885,0.0152));
#1999=CARTESIAN_POINT('',(-0.0152,0.0353,0.0152));
#2000=CARTESIAN_POINT('',(-0.02035,0.0353,0.0152));
#2001=CARTESIAN_POINT('',(-0.0255,0.0353,0.0152));
#2002=CARTESIAN_POINT('',(-0.0255,0.0336488364697003,0.0152));
#2003=CARTESIAN_POINT('',(-0.0255,0.0349976729394006,0.0152));
#2004=CARTESIAN_POINT('',(-0.0285,0.0349976729394006,0.0152));
#2005=CARTESIAN_POINT('',(-0.0285,0.0319976729394005,0.0152));
#2006=CARTESIAN_POINT('',(-0.0354174423535331,0.0319976729394005,0.0152));
#2007=CARTESIAN_POINT('',(-0.0437293334316024,0.0319976729394005,0.0152));
#2008=CARTESIAN_POINT('',(-0.0437293334316024,0.0289976729394005,0.0152));
#2009=CARTESIAN_POINT('',(-0.0462254843146159,0.0306617735280762,0.0152));
#2010=CARTESIAN_POINT('',(-0.045,0.0325,0.0152));
#2011=CARTESIAN_POINT('',(-0.05,0.025,0.0152));
#2012=CARTESIAN_POINT('',(-0.053,0.0195454545454545,0.0152));
#2013=CARTESIAN_POINT('',(-0.0556286477260299,0.0147660950435819,0.0152));
#2014=CARTESIAN_POINT('',(-0.053,0.0133203387942655,0.0152));
#2015=CARTESIAN_POINT('',(-0.056,0.0133203387942655,0.0152));
#2016=CARTESIAN_POINT('',(-0.056,0.00454545454545455,0.0152));
#2017=CARTESIAN_POINT('',(-0.056,-0.005,0.0152));
#2018=CARTESIAN_POINT('',(-0.0545,-0.0125,0.0152));
#2019=CARTESIAN_POINT('',(-0.0551072750706173,-0.00946362464691338,0.0152));
#2020=CARTESIAN_POINT('',(-0.048878685183189,-0.00821790666942759,0.0152));
#2021=CARTESIAN_POINT('',(-0.0498728396970285,-0.0144915660535366,0.0152));
#2022=CARTESIAN_POINT('',(-1.50770007380612E-5,-0.014562672503187,0.0152));
#2023=CARTESIAN_POINT('',(-0.0432328720070191,-0.0145010358833624,0.0152));
#2024=CARTESIAN_POINT('',(-0.0432300196376592,-0.0125010379173662,0.0152));
#2025=CARTESIAN_POINT('',(-0.0417107311853081,-0.0138017156632173,0.0152));
#2026=CARTESIAN_POINT('',(-0.0120969290822529,0.0207894101624525,0.0152));
#2027=CARTESIAN_POINT('',(-0.0397038764988564,-0.0114575599640839,0.0152));
#2028=CARTESIAN_POINT('',(-0.0381845880465052,-0.0127582377099351,0.0152));
#2029=CARTESIAN_POINT('',(-0.0381817356771453,-0.0107582397439388,0.0152));
#2030=CARTESIAN_POINT('',(-3.03004101178319E-5,-0.0108126507917717,0.0152));
#2031=CARTESIAN_POINT('',(-0.0274063764716499,-0.0107736074117878,0.0152));
#2032=CARTESIAN_POINT('',(-0.0274092288410098,-0.0127736053777841,0.0152));
#2033=CARTESIAN_POINT('',(-0.0258883745831957,-0.0114747588408566,0.0152));
#2034=CARTESIAN_POINT('',(-0.0257888994105933,-0.0115912369893505,0.0152));
#2035=CARTESIAN_POINT('',(-0.023877236700394,-0.0138296541461524,0.0152));
#2036=CARTESIAN_POINT('',(-0.0223563824425798,-0.0125308076092249,0.0152));
#2037=CARTESIAN_POINT('',(6.93889390390723E-18,0.0104331105235813,0.014));
#2038=CARTESIAN_POINT('',(-0.0482479601356593,0.0241638782413885,0.014));
#2039=CARTESIAN_POINT('',(-0.0469479601356593,0.0241638782413885,0.014));
#2040=CARTESIAN_POINT('',(0.0482480946772456,0.0241754766673517,0.014));
#2041=CARTESIAN_POINT('',(0.0495480946772456,0.0241754766673517,0.014));
#2042=CARTESIAN_POINT('',(0.0181999814905657,-0.0124886505669718,0.014));
#2043=CARTESIAN_POINT('',(0.0194999814905657,-0.0124886505669718,0.014));
#2044=CARTESIAN_POINT('',(-0.0181999814905657,-0.0124367374446209,0.014));
#2045=CARTESIAN_POINT('',(-0.0168999814905657,-0.0124367374446209,0.014));
#2046=CARTESIAN_POINT('',(6.93889390390723E-18,0.01085,0.014));
#2047=CARTESIAN_POINT('',(0.0489,0.01085,0.014));
#2048=CARTESIAN_POINT('',(0.0451,0.01085,0.014));
#2049=CARTESIAN_POINT('',(0.0451,0.00935,0.014));
#2050=CARTESIAN_POINT('',(0.0436,0.00935,0.014));
#2051=CARTESIAN_POINT('',(0.0436,0.0104331105235813,0.014));
#2052=CARTESIAN_POINT('',(0.0436,-0.00815,0.014));
#2053=CARTESIAN_POINT('',(0.0451,-0.00815,0.014));
#2054=CARTESIAN_POINT('',(0.0451,-0.00965,0.014));
#2055=CARTESIAN_POINT('',(1.7185553696817E-17,-0.00965,0.014));
#2056=CARTESIAN_POINT('',(0.0489,-0.00965,0.014));
#2057=CARTESIAN_POINT('',(0.0489,-0.00815,0.014));
#2058=CARTESIAN_POINT('',(0.0504,-0.00815,0.014));
#2059=CARTESIAN_POINT('',(0.0504,0.0104331105235813,0.014));
#2060=CARTESIAN_POINT('',(0.0504,0.00935,0.014));
#2061=CARTESIAN_POINT('',(0.0489,0.00935,0.014));
#2062=CARTESIAN_POINT('',(-0.0436,0.0104331105235813,0.014));
#2063=CARTESIAN_POINT('',(-0.0436,-0.00815,0.014));
#2064=CARTESIAN_POINT('',(-0.0436,0.00935,0.014));
#2065=CARTESIAN_POINT('',(-0.0451,0.00935,0.014));
#2066=CARTESIAN_POINT('',(-0.0451,0.01085,0.014));
#2067=CARTESIAN_POINT('',(6.93889390390723E-18,0.01085,0.014));
#2068=CARTESIAN_POINT('',(-0.0489,0.01085,0.014));
#2069=CARTESIAN_POINT('',(-0.0489,0.00935,0.014));
#2070=CARTESIAN_POINT('',(-0.0504,0.00935,0.014));
#2071=CARTESIAN_POINT('',(-0.0504,0.0104331105235813,0.014));
#2072=CARTESIAN_POINT('',(-0.0504,-0.00815,0.014));
#2073=CARTESIAN_POINT('',(-0.0489,-0.00815,0.014));
#2074=CARTESIAN_POINT('',(-0.0489,-0.00965,0.014));
#2075=CARTESIAN_POINT('',(1.7185553696817E-17,-0.00965,0.014));
#2076=CARTESIAN_POINT('',(-0.0451,-0.00965,0.014));
#2077=CARTESIAN_POINT('',(-0.0451,-0.00815,0.014));
#2078=CARTESIAN_POINT('',(0.0259040438451839,-0.011531826836226,0.014));
#2079=CARTESIAN_POINT('',(0.0238735704312222,-0.0138972544257766,0.014));
#2080=CARTESIAN_POINT('',(0.0258826217529251,-0.0115567827936429,0.014));
#2081=CARTESIAN_POINT('',(0.022355997250494,-0.0125945757850004,0.014));
#2082=CARTESIAN_POINT('',(-0.0223563824425798,-0.0125308076092249,0.014));
#2083=CARTESIAN_POINT('',(-0.023877236700394,-0.0138296541461524,0.014));
#2084=CARTESIAN_POINT('',(-0.0239208566200998,-0.0137785784118574,0.014));
#2085=CARTESIAN_POINT('',(-0.0258883745831957,-0.0114747588408566,0.014));
#2086=CARTESIAN_POINT('',(-0.0274092288410098,-0.0127736053777841,0.014));
#2087=CARTESIAN_POINT('',(-0.0274063764716499,-0.0107736074117878,0.014));
#2088=CARTESIAN_POINT('',(-0.0296398592384305,-0.0107704220496434,0.014));
#2089=CARTESIAN_POINT('',(-0.0381817356771453,-0.0107582397439388,0.014));
#2090=CARTESIAN_POINT('',(-0.0381845880465052,-0.0127582377099351,0.014));
#2091=CARTESIAN_POINT('',(-0.0397038764988564,-0.0114575599640839,0.014));
#2092=CARTESIAN_POINT('',(-0.0416692528637772,-0.0137532658952977,0.014));
#2093=CARTESIAN_POINT('',(-0.0417107311853081,-0.0138017156632173,0.014));
#2094=CARTESIAN_POINT('',(-0.0432300196376592,-0.0125010379173662,0.014));
#2095=CARTESIAN_POINT('',(-0.0432328720070191,-0.0145010358833624,0.014));
#2096=CARTESIAN_POINT('',(-1.50770007380612E-5,-0.014562672503187,0.014));
#2097=CARTESIAN_POINT('',(-0.0498728396970285,-0.0144915660535366,0.014));
#2098=CARTESIAN_POINT('',(-0.048878685183189,-0.00821790666942759,0.014));
#2099=CARTESIAN_POINT('',(-0.0551072750706173,-0.00946362464691338,0.014));
#2100=CARTESIAN_POINT('',(-0.0545,-0.0125,0.014));
#2101=CARTESIAN_POINT('',(-0.056,-0.005,0.014));
#2102=CARTESIAN_POINT('',(-0.056,0.00454545454545455,0.014));
#2103=CARTESIAN_POINT('',(-0.056,0.0133203387942655,0.014));
#2104=CARTESIAN_POINT('',(-0.053,0.0133203387942655,0.014));
#2105=CARTESIAN_POINT('',(-0.0556286477260299,0.0147660950435819,0.014));
#2106=CARTESIAN_POINT('',(-0.053,0.0195454545454545,0.014));
#2107=CARTESIAN_POINT('',(-0.05,0.025,0.014));
#2108=CARTESIAN_POINT('',(-0.045,0.0325,0.014));
#2109=CARTESIAN_POINT('',(-0.0462254843146159,0.0306617735280762,0.014));
#2110=CARTESIAN_POINT('',(-0.0437293334316024,0.0289976729394005,0.014));
#2111=CARTESIAN_POINT('',(-0.0437293334316024,0.0319976729394005,0.014));
#2112=CARTESIAN_POINT('',(-0.0354174423535331,0.0319976729394005,0.014));
#2113=CARTESIAN_POINT('',(-0.0285,0.0319976729394005,0.014));
#2114=CARTESIAN_POINT('',(-0.0285,0.0349976729394006,0.014));
#2115=CARTESIAN_POINT('',(-0.0255,0.0349976729394006,0.014));
#2116=CARTESIAN_POINT('',(-0.0255,0.0336488364697003,0.014));
#2117=CARTESIAN_POINT('',(-0.0255,0.0353,0.014));
#2118=CARTESIAN_POINT('',(-0.02035,0.0353,0.014));
#2119=CARTESIAN_POINT('',(-0.0152,0.0353,0.014));
#2120=CARTESIAN_POINT('',(-0.0152,0.01885,0.014));
#2121=CARTESIAN_POINT('',(-0.0152,0.01875,0.014));
#2122=CARTESIAN_POINT('',(-0.0122135890143295,0.01875,0.014));
#2123=CARTESIAN_POINT('',(-0.00922717802865892,0.01875,0.014));
#2124=CARTESIAN_POINT('',(-0.0065,0.02,0.014));
#2125=CARTESIAN_POINT('',(-0.0065,0.017,0.014));
#2126=CARTESIAN_POINT('',(7.80625564189563E-18,0.017,0.014));
#2127=CARTESIAN_POINT('',(0.0065,0.017,0.014));
#2128=CARTESIAN_POINT('',(0.0065,0.02,0.014));
#2129=CARTESIAN_POINT('',(0.00922717802865894,0.01875,0.014));
#2130=CARTESIAN_POINT('',(0.0151,0.01875,0.014));
#2131=CARTESIAN_POINT('',(0.0152,0.01875,0.014));
#2132=CARTESIAN_POINT('',(0.0152,0.027025,0.014));
#2133=CARTESIAN_POINT('',(0.0152,0.0353,0.014));
#2134=CARTESIAN_POINT('',(0.02035,0.0353,0.014));
#2135=CARTESIAN_POINT('',(0.0255,0.0353,0.014));
#2136=CARTESIAN_POINT('',(0.0255,0.0336488364697003,0.014));
#2137=CARTESIAN_POINT('',(0.0255,0.0349976729394006,0.014));
#2138=CARTESIAN_POINT('',(0.0285,0.0349976729394006,0.014));
#2139=CARTESIAN_POINT('',(0.0285,0.0319976729394006,0.014));
#2140=CARTESIAN_POINT('',(0.0354174423535331,0.0319976729394006,0.014));
#2141=CARTESIAN_POINT('',(0.0437293334316023,0.0319976729394006,0.014));
#2142=CARTESIAN_POINT('',(0.0437293334316023,0.0289976729394005,0.014));
#2143=CARTESIAN_POINT('',(0.0462254843146159,0.0306617735280762,0.014));
#2144=CARTESIAN_POINT('',(0.045,0.0325,0.014));
#2145=CARTESIAN_POINT('',(0.05,0.025,0.014));
#2146=CARTESIAN_POINT('',(0.053,0.0195454545454546,0.014));
#2147=CARTESIAN_POINT('',(0.05562864772603,0.014766095043582,0.014));
#2148=CARTESIAN_POINT('',(0.053,0.0133203387942655,0.014));
#2149=CARTESIAN_POINT('',(0.056,0.0133203387942655,0.014));
#2150=CARTESIAN_POINT('',(0.056,0.00454545454545457,0.014));
#2151=CARTESIAN_POINT('',(0.056,-0.005,0.014));
#2152=CARTESIAN_POINT('',(0.0545,-0.0125,0.014));
#2153=CARTESIAN_POINT('',(0.0550922265936042,-0.00953886703197904,0.014));
#2154=CARTESIAN_POINT('',(0.0487673161892166,-0.00827388495110148,0.014));
#2155=CARTESIAN_POINT('',(0.0432296327006109,-0.0126243454743705,0.014));
#2156=CARTESIAN_POINT('',(0.041707075429498,-0.0139211952560265,0.014));
#2157=CARTESIAN_POINT('',(0.040639478445047,-0.0126677906024679,0.014));
#2158=CARTESIAN_POINT('',(0.0396981338356793,-0.011562611652763,0.014));
#2159=CARTESIAN_POINT('',(0.0381755765645665,-0.012859461434419,0.014));
#2160=CARTESIAN_POINT('',(0.0381755765645665,-0.010859461434419,0.014));
#2161=CARTESIAN_POINT('',(0.0296365763074034,-0.010859461434419,0.014));
#2162=CARTESIAN_POINT('',(0.0274001949336534,-0.010859461434419,0.014));
#2163=CARTESIAN_POINT('',(0.0274001949336534,-0.012859461434419,0.014));
#2164=CARTESIAN_POINT('',(-0.0354174423535331,0.0319976729394005,0.0152));
#2165=CARTESIAN_POINT('',(-0.0285,0.0319976729394005,0.014));
#2166=CARTESIAN_POINT('',(-0.0437293334316024,0.0319976729394005,0.0152));
#2167=CARTESIAN_POINT('',(-0.045,0.0325,0.0152));
#2168=CARTESIAN_POINT('',(-0.0462254843146159,0.0306617735280762,0.014));
#2169=CARTESIAN_POINT('',(-0.05,0.025,0.0152));
#2170=CARTESIAN_POINT('',(-0.053,0.0195454545454545,0.0152));
#2171=CARTESIAN_POINT('',(-0.0556286477260299,0.0147660950435819,0.0152));
#2172=CARTESIAN_POINT('',(-0.056,0.00454545454545455,0.0152));
#2173=CARTESIAN_POINT('',(-0.056,0.0133203387942655,0.0152));
#2174=CARTESIAN_POINT('',(-0.056,-0.005,0.0152));
#2175=CARTESIAN_POINT('',(-0.0545,-0.0125,0.0152));
#2176=CARTESIAN_POINT('',(-0.0551072750706173,-0.00946362464691338,0.0152));
#2177=CARTESIAN_POINT('',(-0.048878685183189,-0.00821790666942759,0.0152));
#2178=CARTESIAN_POINT('',(-0.0498728396970285,-0.0144915660535366,0.0152));
#2179=CARTESIAN_POINT('',(-1.50770007380612E-5,-0.014562672503187,0.0152));
#2180=CARTESIAN_POINT('',(-0.0432328720070191,-0.0145010358833624,0.0152));
#2181=CARTESIAN_POINT('',(0.0487673161892166,-0.00827388495110148,0.0152));
#2182=CARTESIAN_POINT('',(0.0550922265936042,-0.00953886703197904,0.0152));
#2183=CARTESIAN_POINT('',(0.0545,-0.0125,0.0152));
#2184=CARTESIAN_POINT('',(0.056,-0.005,0.0152));
#2185=CARTESIAN_POINT('',(0.056,0.00454545454545457,0.0152));
#2186=CARTESIAN_POINT('',(0.056,0.0133203387942655,0.0152));
#2187=CARTESIAN_POINT('',(0.053,0.0195454545454546,0.0152));
#2188=CARTESIAN_POINT('',(0.05562864772603,0.014766095043582,0.0152));
#2189=CARTESIAN_POINT('',(0.05,0.025,0.0152));
#2190=CARTESIAN_POINT('',(0.045,0.0325,0.0152));
#2191=CARTESIAN_POINT('',(0.0462254843146159,0.0306617735280762,0.0152));
#2192=CARTESIAN_POINT('',(0.0354174423535331,0.0319976729394006,0.0152));
#2193=CARTESIAN_POINT('',(0.0285,0.0319976729394006,0.0152));
#2194=CARTESIAN_POINT('',(0.0437293334316023,0.0319976729394006,0.014));
#2195=CARTESIAN_POINT('',(0.0255,0.0336488364697003,0.0152));
#2196=CARTESIAN_POINT('',(0.0255,0.0349976729394006,0.014));
#2197=CARTESIAN_POINT('',(0.0255,0.0353,0.0152));
#2198=CARTESIAN_POINT('',(0.02035,0.0353,0.0152));
#2199=CARTESIAN_POINT('',(0.0152,0.0353,0.0152));
#2200=CARTESIAN_POINT('',(0.0152,0.027025,0.0152));
#2201=CARTESIAN_POINT('',(0.0152,0.01875,0.0152));
#2202=CARTESIAN_POINT('',(0.0151,0.01875,0.0152));
#2203=CARTESIAN_POINT('',(0.00922717802865894,0.01875,0.0152));
#2204=CARTESIAN_POINT('',(0.0065,0.02,0.0152));
#2205=CARTESIAN_POINT('',(0.0065,0.017,0.0152));
#2206=CARTESIAN_POINT('',(7.80625564189563E-18,0.017,0.0152));
#2207=CARTESIAN_POINT('',(-0.0065,0.017,0.0152));
#2208=CARTESIAN_POINT('',(-0.0065,0.02,0.0152));
#2209=CARTESIAN_POINT('',(-0.00922717802865892,0.01875,0.0152));
#2210=CARTESIAN_POINT('',(-0.0122135890143295,0.01875,0.0152));
#2211=CARTESIAN_POINT('',(-0.0152,0.01875,0.0152));
#2212=CARTESIAN_POINT('',(-0.0152,0.01885,0.0152));
#2213=CARTESIAN_POINT('',(-0.0152,0.0353,0.0152));
#2214=CARTESIAN_POINT('',(-0.02035,0.0353,0.0152));
#2215=CARTESIAN_POINT('',(-0.0255,0.0353,0.0152));
#2216=CARTESIAN_POINT('',(-0.0255,0.0336488364697003,0.0152));
#2217=CARTESIAN_POINT('',(-0.0255,0.0349976729394006,0.0152));
#2218=CARTESIAN_POINT('',(-0.0504,0.0036,-0.0098));
#2219=CARTESIAN_POINT('',(-0.0504,-0.00815,-0.0098));
#2220=CARTESIAN_POINT('',(-0.0504,0.00935,0.0152));
#2221=CARTESIAN_POINT('',(-0.047,-0.00965,-0.0098));
#2222=CARTESIAN_POINT('',(-0.0489,-0.00965,-0.0098));
#2223=CARTESIAN_POINT('',(-0.0451,-0.00965,-0.0098));
#2224=CARTESIAN_POINT('',(-0.0436,0.0036,-0.0098));
#2225=CARTESIAN_POINT('',(-0.0436,-0.00815,-0.0098));
#2226=CARTESIAN_POINT('',(-0.0436,0.00935,0.014));
#2227=CARTESIAN_POINT('',(-0.047,0.01085,-0.0098));
#2228=CARTESIAN_POINT('',(-0.0451,0.01085,0.0152));
#2229=CARTESIAN_POINT('',(-0.0489,0.01085,0.014));
#2230=CARTESIAN_POINT('',(0.047,-0.00965,-0.0098));
#2231=CARTESIAN_POINT('',(0.0451,-0.00965,0.0152));
#2232=CARTESIAN_POINT('',(0.0489,-0.00965,0.014));
#2233=CARTESIAN_POINT('',(0.0504,0.008725,-0.0098));
#2234=CARTESIAN_POINT('',(0.0504,-0.00815,0.0152));
#2235=CARTESIAN_POINT('',(0.0504,0.00935,0.014));
#2236=CARTESIAN_POINT('',(0.047,0.01085,-0.0098));
#2237=CARTESIAN_POINT('',(0.0451,0.01085,0.014));
#2238=CARTESIAN_POINT('',(0.0489,0.01085,0.0152));
#2239=CARTESIAN_POINT('',(0.0436,0.008725,-0.0098));
#2240=CARTESIAN_POINT('',(0.0436,-0.00815,0.014));
#2241=CARTESIAN_POINT('',(0.0436,0.00935,0.0152));
#2242=CARTESIAN_POINT('',(-0.0489,-0.00815,-0.0098));
#2243=CARTESIAN_POINT('',(-0.0451,-0.00815,-0.0098));
#2244=CARTESIAN_POINT('',(-0.0451,0.00935,-0.0098));
#2245=CARTESIAN_POINT('',(-0.0489,0.00935,-0.0098));
#2246=CARTESIAN_POINT('',(0.0451,-0.00815,-0.0098));
#2247=CARTESIAN_POINT('',(0.0489,-0.00815,-0.0098));
#2248=CARTESIAN_POINT('',(0.0451,0.00935,-0.0098));
#2249=CARTESIAN_POINT('',(0.0489,0.00935,-0.0098));
#2250=CARTESIAN_POINT('',(0.0285,0.0349976729394006,0.0152));
#2251=CARTESIAN_POINT('',(-0.0285,0.0349976729394006,0.0152));
#2252=CARTESIAN_POINT('',(-0.053,0.0133203387942655,0.0152));
#2253=CARTESIAN_POINT('',(0.053,0.0133203387942655,0.0152));
#2254=CARTESIAN_POINT('',(0.0437293334316023,0.0289976729394005,0.0152));
#2255=CARTESIAN_POINT('',(-0.0437293334316024,0.0289976729394005,0.0152));
#2256=CARTESIAN_POINT('',(-0.0181999814905657,-0.0124367374446209,0.039));
#2257=CARTESIAN_POINT('',(0.0181999814905657,-0.0124886505669718,0.039));
#2258=CARTESIAN_POINT('',(0.0482480946772456,0.0241754766673517,0.039));
#2259=CARTESIAN_POINT('',(-0.0482479601356593,0.0241638782413885,0.039));
#2260=CARTESIAN_POINT('',(0.0259040438451839,-0.011531826836226,0.039));
#2261=CARTESIAN_POINT('',(0.0258826217529251,-0.0115567827936429,0.039));
#2262=CARTESIAN_POINT('',(0.0238735704312222,-0.0138972544257766,0.014));
#2263=CARTESIAN_POINT('',(0.040639478445047,-0.0126677906024679,0.039));
#2264=CARTESIAN_POINT('',(0.0396981338356793,-0.011562611652763,0.039));
#2265=CARTESIAN_POINT('',(0.041707075429498,-0.0139211952560265,0.0152));
#2266=CARTESIAN_POINT('',(0.0296365763074034,-0.010859461434419,0.039));
#2267=CARTESIAN_POINT('',(0.0381755765645665,-0.010859461434419,0.039));
#2268=CARTESIAN_POINT('',(0.0274001949336534,-0.010859461434419,0.039));
#2269=CARTESIAN_POINT('',(-0.0296398592384305,-0.0107704220496434,0.039));
#2270=CARTESIAN_POINT('',(-0.0274063764716499,-0.0107736074117878,0.0152));
#2271=CARTESIAN_POINT('',(-0.0381817356771453,-0.0107582397439388,0.039));
#2272=CARTESIAN_POINT('',(-0.0416692528637772,-0.0137532658952977,0.039));
#2273=CARTESIAN_POINT('',(-0.0397038764988564,-0.0114575599640839,0.039));
#2274=CARTESIAN_POINT('',(-0.0417107311853081,-0.0138017156632173,0.039));
#2275=CARTESIAN_POINT('',(-0.0239208566200998,-0.0137785784118574,0.039));
#2276=CARTESIAN_POINT('',(-0.0258883745831957,-0.0114747588408566,0.014));
#2277=CARTESIAN_POINT('',(-0.023877236700394,-0.0138296541461524,0.0152));
#2278=CARTESIAN_POINT('',(0.022355997250494,-0.0125945757850004,0.039));
#2279=CARTESIAN_POINT('',(0.0432296327006109,-0.0126243454743705,0.0152));
#2280=CARTESIAN_POINT('',(-0.0223563824425798,-0.0125308076092249,0.0152));
#2281=CARTESIAN_POINT('',(-0.0432300196376592,-0.0125010379173662,0.039));
#2282=CARTESIAN_POINT('',(0.0381755765645665,-0.012859461434419,0.039));
#2283=CARTESIAN_POINT('',(0.0274001949336534,-0.012859461434419,0.039));
#2284=CARTESIAN_POINT('',(-0.0274092288410098,-0.0127736053777841,0.039));
#2285=CARTESIAN_POINT('',(-0.0381845880465052,-0.0127582377099351,0.039));
#2286=MECHANICAL_DESIGN_GEOMETRIC_PRESENTATION_REPRESENTATION('',(#1359),
#2287);
#2287=(
GEOMETRIC_REPRESENTATION_CONTEXT(3)
GLOBAL_UNCERTAINTY_ASSIGNED_CONTEXT((#2288))
GLOBAL_UNIT_ASSIGNED_CONTEXT((#2291,#2290,#2289))
REPRESENTATION_CONTEXT('Chassis Cover','TOP_LEVEL_ASSEMBLY_PART')
);
#2288=UNCERTAINTY_MEASURE_WITH_UNIT(LENGTH_MEASURE(1.E-8),#2291,
'DISTANCE_ACCURACY_VALUE','Maximum Tolerance applied to model');
#2289=(
NAMED_UNIT(*)
SI_UNIT($,.STERADIAN.)
SOLID_ANGLE_UNIT()
);
#2290=(
NAMED_UNIT(*)
PLANE_ANGLE_UNIT()
SI_UNIT($,.RADIAN.)
);
#2291=(
LENGTH_UNIT()
NAMED_UNIT(*)
SI_UNIT($,.METRE.)
);
#2292=PRODUCT_DEFINITION_SHAPE('','',#2293);
#2293=PRODUCT_DEFINITION('','',#2295,#2294);
#2294=PRODUCT_DEFINITION_CONTEXT('',#2301,'design');
#2295=PRODUCT_DEFINITION_FORMATION_WITH_SPECIFIED_SOURCE('','',#2297,
 .NOT_KNOWN.);
#2296=PRODUCT_RELATED_PRODUCT_CATEGORY('','',(#2297));
#2297=PRODUCT('Chassis Cover','Chassis Cover','Chassis Cover',(#2299));
#2298=PRODUCT_CATEGORY('','');
#2299=PRODUCT_CONTEXT('',#2301,'mechanical');
#2300=APPLICATION_PROTOCOL_DEFINITION('international standard',
'ap242_managed_model_based_3d_engineering',2020,#2301);
#2301=APPLICATION_CONTEXT('managed model based 3d engineering');
ENDSEC;
END-ISO-10303-21;
