ISO-10303-21;
HEADER;
/* Generated by software containing ST-Developer
 * from STEP Tools, Inc. (www.steptools.com) 
 */
/* OPTION: using custom renumber hook */

FILE_DESCRIPTION(
/* description */ ('STEP AP242 Edition 2',
'CAx-IF Rec.Pracs.---Representation and Presentation of Product Manufa
cturing Information (PMI)---4.0---2014-10-13',
'CAx-IF Rec.Pracs.---3D Tessellated Geometry---0.4---2014-09-14','2;1',
'CAx-IF Rec.Pracs.---User Defined Attributes---1.5---2016-08-15'),
/* implementation_level */ '2;1');

FILE_NAME(
/* name */ 
'UNSW Antweight Battle Bot With Protruding back wheels MK2 - Right Whe
el Spike',
/* time_stamp */ '2026-08-11T09:45:18Z',
/* author */ (''),
/* organization */ (''),
/* preprocessor_version */ 'ST-DEVELOPER v20',
/* originating_system */ 'ONSHAPE BY PTC INC, 1.219',
/* authorisation */ '  ');

FILE_SCHEMA (('AP242_MANAGED_MODEL_BASED_3D_ENGINEERING_MIM_LF { 1 0 10303 442 3 1 4 }'));
ENDSEC;

DATA;
#10=SHAPE_REPRESENTATION_RELATIONSHIP('','',#336,#11);
#11=ADVANCED_BREP_SHAPE_REPRESENTATION('',(#334),#541);
#12=CIRCLE('',#340,0.0016);
#13=CIRCLE('',#341,0.0016);
#14=CIRCLE('',#343,0.002);
#15=CIRCLE('',#344,0.002);
#16=CYLINDRICAL_SURFACE('',#339,0.0016);
#17=CYLINDRICAL_SURFACE('',#342,0.002);
#18=ORIENTED_EDGE('',*,*,#98,.F.);
#19=ORIENTED_EDGE('',*,*,#99,.T.);
#20=ORIENTED_EDGE('',*,*,#100,.T.);
#21=ORIENTED_EDGE('',*,*,#101,.T.);
#22=ORIENTED_EDGE('',*,*,#100,.F.);
#23=ORIENTED_EDGE('',*,*,#102,.F.);
#24=ORIENTED_EDGE('',*,*,#98,.T.);
#25=ORIENTED_EDGE('',*,*,#103,.F.);
#26=ORIENTED_EDGE('',*,*,#104,.T.);
#27=ORIENTED_EDGE('',*,*,#105,.T.);
#28=ORIENTED_EDGE('',*,*,#103,.T.);
#29=ORIENTED_EDGE('',*,*,#101,.F.);
#30=ORIENTED_EDGE('',*,*,#104,.F.);
#31=ORIENTED_EDGE('',*,*,#106,.F.);
#32=ORIENTED_EDGE('',*,*,#107,.F.);
#33=ORIENTED_EDGE('',*,*,#108,.T.);
#34=ORIENTED_EDGE('',*,*,#109,.T.);
#35=ORIENTED_EDGE('',*,*,#107,.T.);
#36=ORIENTED_EDGE('',*,*,#110,.F.);
#37=ORIENTED_EDGE('',*,*,#111,.F.);
#38=ORIENTED_EDGE('',*,*,#112,.T.);
#39=ORIENTED_EDGE('',*,*,#111,.T.);
#40=ORIENTED_EDGE('',*,*,#113,.F.);
#41=ORIENTED_EDGE('',*,*,#114,.F.);
#42=ORIENTED_EDGE('',*,*,#115,.T.);
#43=ORIENTED_EDGE('',*,*,#114,.T.);
#44=ORIENTED_EDGE('',*,*,#116,.F.);
#45=ORIENTED_EDGE('',*,*,#117,.F.);
#46=ORIENTED_EDGE('',*,*,#118,.T.);
#47=ORIENTED_EDGE('',*,*,#117,.T.);
#48=ORIENTED_EDGE('',*,*,#119,.F.);
#49=ORIENTED_EDGE('',*,*,#120,.F.);
#50=ORIENTED_EDGE('',*,*,#121,.T.);
#51=ORIENTED_EDGE('',*,*,#120,.T.);
#52=ORIENTED_EDGE('',*,*,#122,.F.);
#53=ORIENTED_EDGE('',*,*,#123,.F.);
#54=ORIENTED_EDGE('',*,*,#124,.T.);
#55=ORIENTED_EDGE('',*,*,#123,.T.);
#56=ORIENTED_EDGE('',*,*,#125,.F.);
#57=ORIENTED_EDGE('',*,*,#126,.F.);
#58=ORIENTED_EDGE('',*,*,#127,.T.);
#59=ORIENTED_EDGE('',*,*,#126,.T.);
#60=ORIENTED_EDGE('',*,*,#128,.F.);
#61=ORIENTED_EDGE('',*,*,#109,.F.);
#62=ORIENTED_EDGE('',*,*,#129,.T.);
#63=ORIENTED_EDGE('',*,*,#105,.F.);
#64=ORIENTED_EDGE('',*,*,#128,.T.);
#65=ORIENTED_EDGE('',*,*,#125,.T.);
#66=ORIENTED_EDGE('',*,*,#122,.T.);
#67=ORIENTED_EDGE('',*,*,#119,.T.);
#68=ORIENTED_EDGE('',*,*,#116,.T.);
#69=ORIENTED_EDGE('',*,*,#113,.T.);
#70=ORIENTED_EDGE('',*,*,#110,.T.);
#71=ORIENTED_EDGE('',*,*,#106,.T.);
#72=ORIENTED_EDGE('',*,*,#99,.F.);
#73=ORIENTED_EDGE('',*,*,#102,.T.);
#74=ORIENTED_EDGE('',*,*,#124,.F.);
#75=ORIENTED_EDGE('',*,*,#130,.F.);
#76=ORIENTED_EDGE('',*,*,#131,.T.);
#77=ORIENTED_EDGE('',*,*,#130,.T.);
#78=ORIENTED_EDGE('',*,*,#127,.F.);
#79=ORIENTED_EDGE('',*,*,#132,.F.);
#80=ORIENTED_EDGE('',*,*,#132,.T.);
#81=ORIENTED_EDGE('',*,*,#129,.F.);
#82=ORIENTED_EDGE('',*,*,#133,.F.);
#83=ORIENTED_EDGE('',*,*,#133,.T.);
#84=ORIENTED_EDGE('',*,*,#108,.F.);
#85=ORIENTED_EDGE('',*,*,#134,.F.);
#86=ORIENTED_EDGE('',*,*,#134,.T.);
#87=ORIENTED_EDGE('',*,*,#112,.F.);
#88=ORIENTED_EDGE('',*,*,#135,.F.);
#89=ORIENTED_EDGE('',*,*,#135,.T.);
#90=ORIENTED_EDGE('',*,*,#115,.F.);
#91=ORIENTED_EDGE('',*,*,#136,.F.);
#92=ORIENTED_EDGE('',*,*,#136,.T.);
#93=ORIENTED_EDGE('',*,*,#118,.F.);
#94=ORIENTED_EDGE('',*,*,#137,.F.);
#95=ORIENTED_EDGE('',*,*,#137,.T.);
#96=ORIENTED_EDGE('',*,*,#121,.F.);
#97=ORIENTED_EDGE('',*,*,#131,.F.);
#98=EDGE_CURVE('',#138,#139,#161,.T.);
#99=EDGE_CURVE('',#138,#140,#162,.T.);
#100=EDGE_CURVE('',#140,#141,#163,.T.);
#101=EDGE_CURVE('',#141,#139,#164,.T.);
#102=EDGE_CURVE('',#138,#140,#12,.T.);
#103=EDGE_CURVE('',#141,#139,#13,.T.);
#104=EDGE_CURVE('',#142,#142,#14,.T.);
#105=EDGE_CURVE('',#143,#143,#15,.T.);
#106=EDGE_CURVE('',#144,#145,#165,.F.);
#107=EDGE_CURVE('',#146,#144,#166,.T.);
#108=EDGE_CURVE('',#146,#147,#167,.F.);
#109=EDGE_CURVE('',#147,#145,#168,.T.);
#110=EDGE_CURVE('',#148,#144,#169,.F.);
#111=EDGE_CURVE('',#149,#148,#170,.T.);
#112=EDGE_CURVE('',#149,#146,#171,.F.);
#113=EDGE_CURVE('',#150,#148,#172,.F.);
#114=EDGE_CURVE('',#151,#150,#173,.T.);
#115=EDGE_CURVE('',#151,#149,#174,.F.);
#116=EDGE_CURVE('',#152,#150,#175,.F.);
#117=EDGE_CURVE('',#153,#152,#176,.T.);
#118=EDGE_CURVE('',#153,#151,#177,.F.);
#119=EDGE_CURVE('',#154,#152,#178,.F.);
#120=EDGE_CURVE('',#155,#154,#179,.T.);
#121=EDGE_CURVE('',#155,#153,#180,.F.);
#122=EDGE_CURVE('',#156,#154,#181,.F.);
#123=EDGE_CURVE('',#157,#156,#182,.T.);
#124=EDGE_CURVE('',#157,#155,#183,.F.);
#125=EDGE_CURVE('',#158,#156,#184,.F.);
#126=EDGE_CURVE('',#159,#158,#185,.T.);
#127=EDGE_CURVE('',#159,#157,#186,.F.);
#128=EDGE_CURVE('',#145,#158,#187,.F.);
#129=EDGE_CURVE('',#147,#159,#188,.F.);
#130=EDGE_CURVE('',#160,#157,#189,.T.);
#131=EDGE_CURVE('',#160,#155,#190,.T.);
#132=EDGE_CURVE('',#160,#159,#191,.T.);
#133=EDGE_CURVE('',#160,#147,#192,.T.);
#134=EDGE_CURVE('',#160,#146,#193,.T.);
#135=EDGE_CURVE('',#160,#149,#194,.T.);
#136=EDGE_CURVE('',#160,#151,#195,.T.);
#137=EDGE_CURVE('',#160,#153,#196,.T.);
#138=VERTEX_POINT('',#457);
#139=VERTEX_POINT('',#458);
#140=VERTEX_POINT('',#460);
#141=VERTEX_POINT('',#462);
#142=VERTEX_POINT('',#469);
#143=VERTEX_POINT('',#471);
#144=VERTEX_POINT('',#475);
#145=VERTEX_POINT('',#476);
#146=VERTEX_POINT('',#478);
#147=VERTEX_POINT('',#480);
#148=VERTEX_POINT('',#484);
#149=VERTEX_POINT('',#486);
#150=VERTEX_POINT('',#490);
#151=VERTEX_POINT('',#492);
#152=VERTEX_POINT('',#496);
#153=VERTEX_POINT('',#498);
#154=VERTEX_POINT('',#502);
#155=VERTEX_POINT('',#504);
#156=VERTEX_POINT('',#508);
#157=VERTEX_POINT('',#510);
#158=VERTEX_POINT('',#514);
#159=VERTEX_POINT('',#516);
#160=VERTEX_POINT('',#525);
#161=LINE('',#456,#197);
#162=LINE('',#459,#198);
#163=LINE('',#461,#199);
#164=LINE('',#463,#200);
#165=LINE('',#474,#201);
#166=LINE('',#477,#202);
#167=LINE('',#479,#203);
#168=LINE('',#481,#204);
#169=LINE('',#483,#205);
#170=LINE('',#485,#206);
#171=LINE('',#487,#207);
#172=LINE('',#489,#208);
#173=LINE('',#491,#209);
#174=LINE('',#493,#210);
#175=LINE('',#495,#211);
#176=LINE('',#497,#212);
#177=LINE('',#499,#213);
#178=LINE('',#501,#214);
#179=LINE('',#503,#215);
#180=LINE('',#505,#216);
#181=LINE('',#507,#217);
#182=LINE('',#509,#218);
#183=LINE('',#511,#219);
#184=LINE('',#513,#220);
#185=LINE('',#515,#221);
#186=LINE('',#517,#222);
#187=LINE('',#519,#223);
#188=LINE('',#520,#224);
#189=LINE('',#524,#225);
#190=LINE('',#526,#226);
#191=LINE('',#528,#227);
#192=LINE('',#530,#228);
#193=LINE('',#532,#229);
#194=LINE('',#534,#230);
#195=LINE('',#536,#231);
#196=LINE('',#538,#232);
#197=VECTOR('',#368,1.);
#198=VECTOR('',#369,1.);
#199=VECTOR('',#370,1.);
#200=VECTOR('',#371,1.);
#201=VECTOR('',#388,1.);
#202=VECTOR('',#389,1.);
#203=VECTOR('',#390,1.);
#204=VECTOR('',#391,1.);
#205=VECTOR('',#394,1.);
#206=VECTOR('',#395,1.);
#207=VECTOR('',#396,1.);
#208=VECTOR('',#399,1.);
#209=VECTOR('',#400,1.);
#210=VECTOR('',#401,1.);
#211=VECTOR('',#404,1.);
#212=VECTOR('',#405,1.);
#213=VECTOR('',#406,1.);
#214=VECTOR('',#409,1.);
#215=VECTOR('',#410,1.);
#216=VECTOR('',#411,1.);
#217=VECTOR('',#414,1.);
#218=VECTOR('',#415,1.);
#219=VECTOR('',#416,1.);
#220=VECTOR('',#419,1.);
#221=VECTOR('',#420,1.);
#222=VECTOR('',#421,1.);
#223=VECTOR('',#424,1.);
#224=VECTOR('',#425,1.);
#225=VECTOR('',#432,1.);
#226=VECTOR('',#433,1.);
#227=VECTOR('',#436,1.);
#228=VECTOR('',#439,1.);
#229=VECTOR('',#442,1.);
#230=VECTOR('',#445,1.);
#231=VECTOR('',#448,1.);
#232=VECTOR('',#451,1.);
#233=EDGE_LOOP('',(#18,#19,#20,#21));
#234=EDGE_LOOP('',(#22,#23,#24,#25));
#235=EDGE_LOOP('',(#26));
#236=EDGE_LOOP('',(#27));
#237=EDGE_LOOP('',(#28,#29));
#238=EDGE_LOOP('',(#30));
#239=EDGE_LOOP('',(#31,#32,#33,#34));
#240=EDGE_LOOP('',(#35,#36,#37,#38));
#241=EDGE_LOOP('',(#39,#40,#41,#42));
#242=EDGE_LOOP('',(#43,#44,#45,#46));
#243=EDGE_LOOP('',(#47,#48,#49,#50));
#244=EDGE_LOOP('',(#51,#52,#53,#54));
#245=EDGE_LOOP('',(#55,#56,#57,#58));
#246=EDGE_LOOP('',(#59,#60,#61,#62));
#247=EDGE_LOOP('',(#63));
#248=EDGE_LOOP('',(#64,#65,#66,#67,#68,#69,#70,#71));
#249=EDGE_LOOP('',(#72,#73));
#250=EDGE_LOOP('',(#74,#75,#76));
#251=EDGE_LOOP('',(#77,#78,#79));
#252=EDGE_LOOP('',(#80,#81,#82));
#253=EDGE_LOOP('',(#83,#84,#85));
#254=EDGE_LOOP('',(#86,#87,#88));
#255=EDGE_LOOP('',(#89,#90,#91));
#256=EDGE_LOOP('',(#92,#93,#94));
#257=EDGE_LOOP('',(#95,#96,#97));
#258=FACE_BOUND('',#233,.T.);
#259=FACE_BOUND('',#234,.T.);
#260=FACE_BOUND('',#235,.T.);
#261=FACE_BOUND('',#236,.T.);
#262=FACE_BOUND('',#237,.T.);
#263=FACE_BOUND('',#238,.T.);
#264=FACE_BOUND('',#239,.T.);
#265=FACE_BOUND('',#240,.T.);
#266=FACE_BOUND('',#241,.T.);
#267=FACE_BOUND('',#242,.T.);
#268=FACE_BOUND('',#243,.T.);
#269=FACE_BOUND('',#244,.T.);
#270=FACE_BOUND('',#245,.T.);
#271=FACE_BOUND('',#246,.T.);
#272=FACE_BOUND('',#247,.T.);
#273=FACE_BOUND('',#248,.T.);
#274=FACE_BOUND('',#249,.T.);
#275=FACE_BOUND('',#250,.T.);
#276=FACE_BOUND('',#251,.T.);
#277=FACE_BOUND('',#252,.T.);
#278=FACE_BOUND('',#253,.T.);
#279=FACE_BOUND('',#254,.T.);
#280=FACE_BOUND('',#255,.T.);
#281=FACE_BOUND('',#256,.T.);
#282=FACE_BOUND('',#257,.T.);
#283=PLANE('',#338);
#284=PLANE('',#345);
#285=PLANE('',#346);
#286=PLANE('',#347);
#287=PLANE('',#348);
#288=PLANE('',#349);
#289=PLANE('',#350);
#290=PLANE('',#351);
#291=PLANE('',#352);
#292=PLANE('',#353);
#293=PLANE('',#354);
#294=PLANE('',#355);
#295=PLANE('',#356);
#296=PLANE('',#357);
#297=PLANE('',#358);
#298=PLANE('',#359);
#299=PLANE('',#360);
#300=PLANE('',#361);
#301=PLANE('',#362);
#302=PLANE('',#363);
#303=ADVANCED_FACE('',(#258),#283,.F.);
#304=ADVANCED_FACE('',(#259),#16,.F.);
#305=ADVANCED_FACE('',(#260,#261),#17,.T.);
#306=ADVANCED_FACE('',(#262,#263),#284,.F.);
#307=ADVANCED_FACE('',(#264),#285,.F.);
#308=ADVANCED_FACE('',(#265),#286,.F.);
#309=ADVANCED_FACE('',(#266),#287,.F.);
#310=ADVANCED_FACE('',(#267),#288,.F.);
#311=ADVANCED_FACE('',(#268),#289,.F.);
#312=ADVANCED_FACE('',(#269),#290,.F.);
#313=ADVANCED_FACE('',(#270),#291,.F.);
#314=ADVANCED_FACE('',(#271),#292,.F.);
#315=ADVANCED_FACE('',(#272,#273),#293,.F.);
#316=ADVANCED_FACE('',(#274),#294,.F.);
#317=ADVANCED_FACE('',(#275),#295,.F.);
#318=ADVANCED_FACE('',(#276),#296,.F.);
#319=ADVANCED_FACE('',(#277),#297,.F.);
#320=ADVANCED_FACE('',(#278),#298,.F.);
#321=ADVANCED_FACE('',(#279),#299,.F.);
#322=ADVANCED_FACE('',(#280),#300,.F.);
#323=ADVANCED_FACE('',(#281),#301,.F.);
#324=ADVANCED_FACE('',(#282),#302,.F.);
#325=CLOSED_SHELL('',(#303,#304,#305,#306,#307,#308,#309,#310,#311,#312,
#313,#314,#315,#316,#317,#318,#319,#320,#321,#322,#323,#324));
#326=STYLED_ITEM('',(#327),#334);
#327=PRESENTATION_STYLE_ASSIGNMENT((#328));
#328=SURFACE_STYLE_USAGE(.BOTH.,#329);
#329=SURFACE_SIDE_STYLE('',(#330));
#330=SURFACE_STYLE_FILL_AREA(#331);
#331=FILL_AREA_STYLE('',(#332));
#332=FILL_AREA_STYLE_COLOUR('',#333);
#333=COLOUR_RGB('',0.768627450980392,0.886274509803922,0.952941176470588);
#334=MANIFOLD_SOLID_BREP('Right Wheel Spike',#325);
#335=SHAPE_DEFINITION_REPRESENTATION(#546,#336);
#336=SHAPE_REPRESENTATION('Right Wheel Spike',(#337),#541);
#337=AXIS2_PLACEMENT_3D('',#454,#364,#365);
#338=AXIS2_PLACEMENT_3D('',#455,#366,#367);
#339=AXIS2_PLACEMENT_3D('',#464,#372,#373);
#340=AXIS2_PLACEMENT_3D('',#465,#374,#375);
#341=AXIS2_PLACEMENT_3D('',#466,#376,#377);
#342=AXIS2_PLACEMENT_3D('',#467,#378,#379);
#343=AXIS2_PLACEMENT_3D('',#468,#380,#381);
#344=AXIS2_PLACEMENT_3D('',#470,#382,#383);
#345=AXIS2_PLACEMENT_3D('',#472,#384,#385);
#346=AXIS2_PLACEMENT_3D('',#473,#386,#387);
#347=AXIS2_PLACEMENT_3D('',#482,#392,#393);
#348=AXIS2_PLACEMENT_3D('',#488,#397,#398);
#349=AXIS2_PLACEMENT_3D('',#494,#402,#403);
#350=AXIS2_PLACEMENT_3D('',#500,#407,#408);
#351=AXIS2_PLACEMENT_3D('',#506,#412,#413);
#352=AXIS2_PLACEMENT_3D('',#512,#417,#418);
#353=AXIS2_PLACEMENT_3D('',#518,#422,#423);
#354=AXIS2_PLACEMENT_3D('',#521,#426,#427);
#355=AXIS2_PLACEMENT_3D('',#522,#428,#429);
#356=AXIS2_PLACEMENT_3D('',#523,#430,#431);
#357=AXIS2_PLACEMENT_3D('',#527,#434,#435);
#358=AXIS2_PLACEMENT_3D('',#529,#437,#438);
#359=AXIS2_PLACEMENT_3D('',#531,#440,#441);
#360=AXIS2_PLACEMENT_3D('',#533,#443,#444);
#361=AXIS2_PLACEMENT_3D('',#535,#446,#447);
#362=AXIS2_PLACEMENT_3D('',#537,#449,#450);
#363=AXIS2_PLACEMENT_3D('',#539,#452,#453);
#364=DIRECTION('',(0.,0.,1.));
#365=DIRECTION('',(1.,0.,0.));
#366=DIRECTION('',(0.,-1.,7.01801395951689E-16));
#367=DIRECTION('',(0.,-7.01801395951689E-16,-1.));
#368=DIRECTION('',(1.,0.,0.));
#369=DIRECTION('',(0.,7.01801395951689E-16,1.));
#370=DIRECTION('',(1.,0.,0.));
#371=DIRECTION('',(0.,-7.01801395951689E-16,-1.));
#372=DIRECTION('',(1.,0.,0.));
#373=DIRECTION('',(0.,0.,-1.));
#374=DIRECTION('',(1.,0.,0.));
#375=DIRECTION('',(0.,0.,-1.));
#376=DIRECTION('',(-1.,0.,0.));
#377=DIRECTION('',(0.,0.,1.));
#378=DIRECTION('',(1.,0.,0.));
#379=DIRECTION('',(0.,0.,-1.));
#380=DIRECTION('',(-1.,0.,0.));
#381=DIRECTION('',(0.,0.,1.));
#382=DIRECTION('',(1.,0.,0.));
#383=DIRECTION('',(0.,0.,-1.));
#384=DIRECTION('',(-1.,0.,0.));
#385=DIRECTION('',(0.,-1.,0.));
#386=DIRECTION('',(-0.554700196225229,-0.832050294337844,0.));
#387=DIRECTION('',(0.832050294337844,-0.554700196225229,0.));
#388=DIRECTION('',(0.,0.,-1.));
#389=DIRECTION('',(0.810920653838994,-0.540613769225996,0.223929555219046));
#390=DIRECTION('',(0.,0.,-1.));
#391=DIRECTION('',(0.810920653838994,-0.540613769225996,-0.223929555219046));
#392=DIRECTION('',(-0.554700196225229,-0.588348405414552,0.588348405414552));
#393=DIRECTION('',(0.,-0.707106781186548,-0.707106781186548));
#394=DIRECTION('',(0.,-0.707106781186547,-0.707106781186548));
#395=DIRECTION('',(0.810920653838994,-0.223929555219046,0.540613769225996));
#396=DIRECTION('',(0.,-0.707106781186548,-0.707106781186548));
#397=DIRECTION('',(-0.554700196225229,-1.58391852756071E-16,0.832050294337844));
#398=DIRECTION('',(0.832050294337844,0.,0.554700196225229));
#399=DIRECTION('',(0.,-1.,-2.99142353047872E-16));
#400=DIRECTION('',(0.810920653838994,0.223929555219046,0.540613769225996));
#401=DIRECTION('',(0.,-1.,-1.90363315575918E-16));
#402=DIRECTION('',(-0.554700196225229,0.588348405414552,0.588348405414552));
#403=DIRECTION('',(0.,-0.707106781186548,0.707106781186547));
#404=DIRECTION('',(0.,-0.707106781186548,0.707106781186547));
#405=DIRECTION('',(0.810920653838994,0.540613769225996,0.223929555219046));
#406=DIRECTION('',(0.,-0.707106781186548,0.707106781186547));
#407=DIRECTION('',(-0.554700196225228,0.832050294337844,1.58391852756071E-16));
#408=DIRECTION('',(-0.832050294337844,-0.554700196225228,0.));
#409=DIRECTION('',(0.,-2.99142353047872E-16,1.));
#410=DIRECTION('',(0.810920653838995,0.540613769225995,-0.223929555219047));
#411=DIRECTION('',(0.,-1.90363315575918E-16,1.));
#412=DIRECTION('',(-0.554700196225229,0.588348405414552,-0.588348405414552));
#413=DIRECTION('',(0.,0.707106781186547,0.707106781186548));
#414=DIRECTION('',(0.,0.707106781186547,0.707106781186548));
#415=DIRECTION('',(0.810920653838994,0.223929555219046,-0.540613769225996));
#416=DIRECTION('',(0.,0.707106781186547,0.707106781186548));
#417=DIRECTION('',(-0.554700196225229,1.58391852756071E-16,-0.832050294337844));
#418=DIRECTION('',(-0.832050294337844,0.,0.554700196225229));
#419=DIRECTION('',(0.,1.,2.99142353047872E-16));
#420=DIRECTION('',(0.810920653838994,-0.223929555219046,-0.540613769225996));
#421=DIRECTION('',(0.,1.,1.90363315575918E-16));
#422=DIRECTION('',(-0.554700196225229,-0.588348405414552,-0.588348405414552));
#423=DIRECTION('',(0.,0.707106781186548,-0.707106781186548));
#424=DIRECTION('',(0.,0.707106781186548,-0.707106781186547));
#425=DIRECTION('',(0.,0.707106781186548,-0.707106781186548));
#426=DIRECTION('',(-1.,0.,0.));
#427=DIRECTION('',(0.,-1.,0.));
#428=DIRECTION('',(-1.,0.,0.));
#429=DIRECTION('',(0.,-1.,0.));
#430=DIRECTION('',(0.344254649158423,0.663885809658864,-0.663885809658864));
#431=DIRECTION('',(0.,0.707106781186547,0.707106781186548));
#432=DIRECTION('',(0.929474221750836,-0.141166970459304,0.340807214641973));
#433=DIRECTION('',(0.929474221750836,-0.340807214641973,0.141166970459304));
#434=DIRECTION('',(0.344254649158423,1.78727608407878E-16,-0.938876315886609));
#435=DIRECTION('',(-0.938876315886609,0.,-0.344254649158423));
#436=DIRECTION('',(0.929474221750836,0.141166970459304,0.340807214641973));
#437=DIRECTION('',(0.344254649158423,-0.663885809658864,-0.663885809658864));
#438=DIRECTION('',(0.,0.707106781186548,-0.707106781186547));
#439=DIRECTION('',(0.929474221750836,0.340807214641973,0.141166970459304));
#440=DIRECTION('',(0.344254649158423,-0.938876315886609,0.));
#441=DIRECTION('',(0.938876315886609,0.344254649158423,0.));
#442=DIRECTION('',(0.929474221750836,0.340807214641973,-0.141166970459304));
#443=DIRECTION('',(0.344254649158423,-0.663885809658864,0.663885809658864));
#444=DIRECTION('',(0.,-0.707106781186547,-0.707106781186548));
#445=DIRECTION('',(0.929474221750836,0.141166970459304,-0.340807214641973));
#446=DIRECTION('',(0.344254649158423,-1.78727608407878E-16,0.938876315886609));
#447=DIRECTION('',(0.938876315886609,0.,-0.344254649158424));
#448=DIRECTION('',(0.929474221750836,-0.141166970459304,-0.340807214641973));
#449=DIRECTION('',(0.344254649158423,0.663885809658864,0.663885809658864));
#450=DIRECTION('',(0.,-0.707106781186548,0.707106781186547));
#451=DIRECTION('',(0.929474221750836,-0.340807214641973,-0.141166970459304));
#452=DIRECTION('',(0.344254649158423,0.938876315886609,1.78727608407878E-16));
#453=DIRECTION('',(-0.938876315886609,0.344254649158424,0.));
#454=CARTESIAN_POINT('',(0.,0.,0.));
#455=CARTESIAN_POINT('',(-0.056002,-0.00058,-0.00100331118248121));
#456=CARTESIAN_POINT('',(-0.056002,-0.00058,-0.00108055541273921));
#457=CARTESIAN_POINT('',(-0.057,-0.00058,-0.00108055541273921));
#458=CARTESIAN_POINT('',(-0.051,-0.00058,-0.00108055541273921));
#459=CARTESIAN_POINT('',(-0.057,-0.00058,-0.00100331118248121));
#460=CARTESIAN_POINT('',(-0.057,-0.00058,0.00108055541273921));
#461=CARTESIAN_POINT('',(-0.056002,-0.00058,0.00108055541273921));
#462=CARTESIAN_POINT('',(-0.051,-0.00058,0.00108055541273921));
#463=CARTESIAN_POINT('',(-0.051,-0.00058,-0.00100331118248121));
#464=CARTESIAN_POINT('',(-0.056002,0.0006,-3.96424446721602E-19));
#465=CARTESIAN_POINT('',(-0.057,0.0006,-3.96424446721602E-19));
#466=CARTESIAN_POINT('',(-0.051,0.0006,-3.96424446721602E-19));
#467=CARTESIAN_POINT('',(-0.056002,0.0006,-4.32646832397842E-19));
#468=CARTESIAN_POINT('',(-0.051,0.0006,-4.32646832397842E-19));
#469=CARTESIAN_POINT('',(-0.051,0.0006,0.002));
#470=CARTESIAN_POINT('',(-0.057,0.0006,-4.32646832397842E-19));
#471=CARTESIAN_POINT('',(-0.057,0.0006,-0.002));
#472=CARTESIAN_POINT('',(-0.051,0.0006,-8.67361737988404E-19));
#473=CARTESIAN_POINT('',(-0.0156461538461538,-0.0234692307692307,0.));
#474=CARTESIAN_POINT('',(-0.057,0.0041,2.16840434497101E-19));
#475=CARTESIAN_POINT('',(-0.057,0.0041,-0.00144974746830583));
#476=CARTESIAN_POINT('',(-0.057,0.0041,0.00144974746830583));
#477=CARTESIAN_POINT('',(-0.06,0.0061,-0.00227817459305202));
#478=CARTESIAN_POINT('',(-0.06,0.0061,-0.00227817459305202));
#479=CARTESIAN_POINT('',(-0.06,0.0061,0.));
#480=CARTESIAN_POINT('',(-0.06,0.0061,0.00227817459305203));
#481=CARTESIAN_POINT('',(-0.06,0.0061,0.00227817459305203));
#482=CARTESIAN_POINT('',(-0.0157272627375175,-0.0166812811968018,0.0166812811968018));
#483=CARTESIAN_POINT('',(-0.057,0.00307487373415291,-0.00247487373415291));
#484=CARTESIAN_POINT('',(-0.057,0.00204974746830583,-0.0035));
#485=CARTESIAN_POINT('',(-0.06,0.00287817459305203,-0.0055));
#486=CARTESIAN_POINT('',(-0.06,0.00287817459305203,-0.0055));
#487=CARTESIAN_POINT('',(-0.06,0.00448908729652601,-0.00388908729652601));
#488=CARTESIAN_POINT('',(-0.0159230769230769,-4.54675457587097E-18,0.0238846153846153));
#489=CARTESIAN_POINT('',(-0.057,0.0006,-0.0035));
#490=CARTESIAN_POINT('',(-0.057,-0.000849747468305832,-0.0035));
#491=CARTESIAN_POINT('',(-0.06,-0.00167817459305202,-0.0055));
#492=CARTESIAN_POINT('',(-0.06,-0.00167817459305202,-0.0055));
#493=CARTESIAN_POINT('',(-0.06,0.0006,-0.0055));
#494=CARTESIAN_POINT('',(-0.0161188911086363,0.0170966658121863,0.0170966658121864));
#495=CARTESIAN_POINT('',(-0.057,-0.00187487373415292,-0.00247487373415291));
#496=CARTESIAN_POINT('',(-0.057,-0.0029,-0.00144974746830583));
#497=CARTESIAN_POINT('',(-0.06,-0.0049,-0.00227817459305203));
#498=CARTESIAN_POINT('',(-0.06,-0.0049,-0.00227817459305203));
#499=CARTESIAN_POINT('',(-0.06,-0.00328908729652601,-0.00388908729652601));
#500=CARTESIAN_POINT('',(-0.0162,0.0243,4.62582856849481E-18));
#501=CARTESIAN_POINT('',(-0.057,-0.0029,-4.33680868994202E-19));
#502=CARTESIAN_POINT('',(-0.057,-0.0029,0.00144974746830583));
#503=CARTESIAN_POINT('',(-0.06,-0.0049,0.00227817459305202));
#504=CARTESIAN_POINT('',(-0.06,-0.0049,0.00227817459305202));
#505=CARTESIAN_POINT('',(-0.06,-0.0049,-1.3010426069826E-18));
#506=CARTESIAN_POINT('',(-0.0161188911086363,0.0170966658121863,-0.0170966658121863));
#507=CARTESIAN_POINT('',(-0.057,-0.00187487373415292,0.00247487373415291));
#508=CARTESIAN_POINT('',(-0.057,-0.000849747468305833,0.0035));
#509=CARTESIAN_POINT('',(-0.06,-0.00167817459305202,0.0055));
#510=CARTESIAN_POINT('',(-0.06,-0.00167817459305202,0.0055));
#511=CARTESIAN_POINT('',(-0.06,-0.00328908729652601,0.00388908729652601));
#512=CARTESIAN_POINT('',(-0.0159230769230769,4.54675457587098E-18,-0.0238846153846154));
#513=CARTESIAN_POINT('',(-0.057,0.0006,0.0035));
#514=CARTESIAN_POINT('',(-0.057,0.00204974746830583,0.0035));
#515=CARTESIAN_POINT('',(-0.06,0.00287817459305203,0.0055));
#516=CARTESIAN_POINT('',(-0.06,0.00287817459305203,0.0055));
#517=CARTESIAN_POINT('',(-0.06,0.0006,0.0055));
#518=CARTESIAN_POINT('',(-0.0157272627375175,-0.0166812811968018,-0.0166812811968018));
#519=CARTESIAN_POINT('',(-0.057,0.00307487373415291,0.00247487373415291));
#520=CARTESIAN_POINT('',(-0.06,0.00448908729652601,0.00388908729652601));
#521=CARTESIAN_POINT('',(-0.057,0.0006,0.));
#522=CARTESIAN_POINT('',(-0.057,0.0006,0.));
#523=CARTESIAN_POINT('',(-0.00875121729414796,-0.0168764866154428,0.0168764866154428));
#524=CARTESIAN_POINT('',(-0.075,0.0006,0.));
#525=CARTESIAN_POINT('',(-0.075,0.0006,0.));
#526=CARTESIAN_POINT('',(-0.075,0.0006,0.));
#527=CARTESIAN_POINT('',(-0.00888834476003918,-4.61458575955336E-18,0.0242409402546523));
#528=CARTESIAN_POINT('',(-0.075,0.0006,0.));
#529=CARTESIAN_POINT('',(-0.0090254722259304,0.0174053798573625,0.0174053798573625));
#530=CARTESIAN_POINT('',(-0.075,0.0006,0.));
#531=CARTESIAN_POINT('',(-0.0090822722820764,0.024769833496572,0.));
#532=CARTESIAN_POINT('',(-0.075,0.0006,0.));
#533=CARTESIAN_POINT('',(-0.0090254722259304,0.0174053798573625,-0.0174053798573625));
#534=CARTESIAN_POINT('',(-0.075,0.0006,0.));
#535=CARTESIAN_POINT('',(-0.00888834476003918,4.61458575955336E-18,-0.0242409402546523));
#536=CARTESIAN_POINT('',(-0.075,0.0006,0.));
#537=CARTESIAN_POINT('',(-0.00875121729414796,-0.0168764866154428,-0.0168764866154428));
#538=CARTESIAN_POINT('',(-0.075,0.0006,0.));
#539=CARTESIAN_POINT('',(-0.00869441723800196,-0.0237120470127326,-4.51390388843583E-18));
#540=MECHANICAL_DESIGN_GEOMETRIC_PRESENTATION_REPRESENTATION('',(#326),
#541);
#541=(
GEOMETRIC_REPRESENTATION_CONTEXT(3)
GLOBAL_UNCERTAINTY_ASSIGNED_CONTEXT((#542))
GLOBAL_UNIT_ASSIGNED_CONTEXT((#545,#544,#543))
REPRESENTATION_CONTEXT('Right Wheel Spike','TOP_LEVEL_ASSEMBLY_PART')
);
#542=UNCERTAINTY_MEASURE_WITH_UNIT(LENGTH_MEASURE(1.E-8),#545,
'DISTANCE_ACCURACY_VALUE','Maximum Tolerance applied to model');
#543=(
NAMED_UNIT(*)
SI_UNIT($,.STERADIAN.)
SOLID_ANGLE_UNIT()
);
#544=(
NAMED_UNIT(*)
PLANE_ANGLE_UNIT()
SI_UNIT($,.RADIAN.)
);
#545=(
LENGTH_UNIT()
NAMED_UNIT(*)
SI_UNIT($,.METRE.)
);
#546=PRODUCT_DEFINITION_SHAPE('','',#547);
#547=PRODUCT_DEFINITION('','',#549,#548);
#548=PRODUCT_DEFINITION_CONTEXT('',#555,'design');
#549=PRODUCT_DEFINITION_FORMATION_WITH_SPECIFIED_SOURCE('','',#551,
 .NOT_KNOWN.);
#550=PRODUCT_RELATED_PRODUCT_CATEGORY('','',(#551));
#551=PRODUCT('Right Wheel Spike','Right Wheel Spike',
'Right Wheel Spike',(#553));
#552=PRODUCT_CATEGORY('','');
#553=PRODUCT_CONTEXT('',#555,'mechanical');
#554=APPLICATION_PROTOCOL_DEFINITION('international standard',
'ap242_managed_model_based_3d_engineering',2020,#555);
#555=APPLICATION_CONTEXT('managed model based 3d engineering');
ENDSEC;
END-ISO-10303-21;
