ISO-10303-21;
HEADER;
/* Generated by software containing ST-Developer
 * from STEP Tools, Inc. (www.steptools.com) 
 */
/* OPTION: using custom renumber hook */

FILE_DESCRIPTION(
/* description */ ('STEP AP242 Edition 2',
'CAx-IF Rec.Pracs.---Representation and Presentation of Product Manufa
cturing Information (PMI)---4.0---2014-10-13',
'CAx-IF Rec.Pracs.---3D Tessellated Geometry---0.4---2014-09-14','2;1',
'CAx-IF Rec.Pracs.---User Defined Attributes---1.5---2016-08-15'),
/* implementation_level */ '2;1');

FILE_NAME(
/* name */ 
'UNSW Antweight Battle Bot With Protruding back wheels MK2 - Left Whee
l Spike',
/* time_stamp */ '2026-08-11T09:45:27Z',
/* author */ (''),
/* organization */ (''),
/* preprocessor_version */ 'ST-DEVELOPER v20',
/* originating_system */ 'ONSHAPE BY PTC INC, 1.219',
/* authorisation */ '  ');

FILE_SCHEMA (('AP242_MANAGED_MODEL_BASED_3D_ENGINEERING_MIM_LF { 1 0 10303 442 3 1 4 }'));
ENDSEC;

DATA;
#10=SHAPE_REPRESENTATION_RELATIONSHIP('','',#336,#11);
#11=ADVANCED_BREP_SHAPE_REPRESENTATION('',(#334),#541);
#12=CYLINDRICAL_SURFACE('',#341,0.002);
#13=CYLINDRICAL_SURFACE('',#343,0.0016);
#14=LINE('',#459,#50);
#15=LINE('',#466,#51);
#16=LINE('',#468,#52);
#17=LINE('',#472,#53);
#18=LINE('',#474,#54);
#19=LINE('',#477,#55);
#20=LINE('',#479,#56);
#21=LINE('',#481,#57);
#22=LINE('',#483,#58);
#23=LINE('',#485,#59);
#24=LINE('',#487,#60);
#25=LINE('',#489,#61);
#26=LINE('',#491,#62);
#27=LINE('',#493,#63);
#28=LINE('',#495,#64);
#29=LINE('',#497,#65);
#30=LINE('',#499,#66);
#31=LINE('',#501,#67);
#32=LINE('',#503,#68);
#33=LINE('',#505,#69);
#34=LINE('',#507,#70);
#35=LINE('',#509,#71);
#36=LINE('',#511,#72);
#37=LINE('',#513,#73);
#38=LINE('',#515,#74);
#39=LINE('',#517,#75);
#40=LINE('',#519,#76);
#41=LINE('',#520,#77);
#42=LINE('',#524,#78);
#43=LINE('',#526,#79);
#44=LINE('',#528,#80);
#45=LINE('',#530,#81);
#46=LINE('',#532,#82);
#47=LINE('',#534,#83);
#48=LINE('',#536,#84);
#49=LINE('',#538,#85);
#50=VECTOR('',#370,1.);
#51=VECTOR('',#379,1.);
#52=VECTOR('',#380,1.);
#53=VECTOR('',#385,1.);
#54=VECTOR('',#388,1.);
#55=VECTOR('',#389,1.);
#56=VECTOR('',#390,1.);
#57=VECTOR('',#391,1.);
#58=VECTOR('',#394,1.);
#59=VECTOR('',#395,1.);
#60=VECTOR('',#396,1.);
#61=VECTOR('',#399,1.);
#62=VECTOR('',#400,1.);
#63=VECTOR('',#401,1.);
#64=VECTOR('',#404,1.);
#65=VECTOR('',#405,1.);
#66=VECTOR('',#406,1.);
#67=VECTOR('',#409,1.);
#68=VECTOR('',#410,1.);
#69=VECTOR('',#411,1.);
#70=VECTOR('',#414,1.);
#71=VECTOR('',#415,1.);
#72=VECTOR('',#416,1.);
#73=VECTOR('',#419,1.);
#74=VECTOR('',#420,1.);
#75=VECTOR('',#421,1.);
#76=VECTOR('',#424,1.);
#77=VECTOR('',#425,1.);
#78=VECTOR('',#432,1.);
#79=VECTOR('',#433,1.);
#80=VECTOR('',#436,1.);
#81=VECTOR('',#439,1.);
#82=VECTOR('',#442,1.);
#83=VECTOR('',#445,1.);
#84=VECTOR('',#448,1.);
#85=VECTOR('',#451,1.);
#86=ORIENTED_EDGE('',*,*,#166,.F.);
#87=ORIENTED_EDGE('',*,*,#167,.T.);
#88=ORIENTED_EDGE('',*,*,#168,.T.);
#89=ORIENTED_EDGE('',*,*,#168,.F.);
#90=ORIENTED_EDGE('',*,*,#169,.F.);
#91=ORIENTED_EDGE('',*,*,#170,.T.);
#92=ORIENTED_EDGE('',*,*,#166,.T.);
#93=ORIENTED_EDGE('',*,*,#171,.F.);
#94=ORIENTED_EDGE('',*,*,#172,.T.);
#95=ORIENTED_EDGE('',*,*,#171,.T.);
#96=ORIENTED_EDGE('',*,*,#167,.F.);
#97=ORIENTED_EDGE('',*,*,#170,.F.);
#98=ORIENTED_EDGE('',*,*,#173,.F.);
#99=ORIENTED_EDGE('',*,*,#174,.T.);
#100=ORIENTED_EDGE('',*,*,#175,.F.);
#101=ORIENTED_EDGE('',*,*,#176,.F.);
#102=ORIENTED_EDGE('',*,*,#177,.T.);
#103=ORIENTED_EDGE('',*,*,#177,.F.);
#104=ORIENTED_EDGE('',*,*,#178,.F.);
#105=ORIENTED_EDGE('',*,*,#179,.T.);
#106=ORIENTED_EDGE('',*,*,#180,.T.);
#107=ORIENTED_EDGE('',*,*,#179,.F.);
#108=ORIENTED_EDGE('',*,*,#181,.F.);
#109=ORIENTED_EDGE('',*,*,#182,.T.);
#110=ORIENTED_EDGE('',*,*,#183,.T.);
#111=ORIENTED_EDGE('',*,*,#182,.F.);
#112=ORIENTED_EDGE('',*,*,#184,.F.);
#113=ORIENTED_EDGE('',*,*,#185,.T.);
#114=ORIENTED_EDGE('',*,*,#186,.T.);
#115=ORIENTED_EDGE('',*,*,#185,.F.);
#116=ORIENTED_EDGE('',*,*,#187,.F.);
#117=ORIENTED_EDGE('',*,*,#188,.T.);
#118=ORIENTED_EDGE('',*,*,#189,.T.);
#119=ORIENTED_EDGE('',*,*,#188,.F.);
#120=ORIENTED_EDGE('',*,*,#190,.F.);
#121=ORIENTED_EDGE('',*,*,#191,.T.);
#122=ORIENTED_EDGE('',*,*,#192,.T.);
#123=ORIENTED_EDGE('',*,*,#191,.F.);
#124=ORIENTED_EDGE('',*,*,#193,.F.);
#125=ORIENTED_EDGE('',*,*,#194,.T.);
#126=ORIENTED_EDGE('',*,*,#195,.T.);
#127=ORIENTED_EDGE('',*,*,#194,.F.);
#128=ORIENTED_EDGE('',*,*,#196,.F.);
#129=ORIENTED_EDGE('',*,*,#175,.T.);
#130=ORIENTED_EDGE('',*,*,#197,.T.);
#131=ORIENTED_EDGE('',*,*,#169,.T.);
#132=ORIENTED_EDGE('',*,*,#197,.F.);
#133=ORIENTED_EDGE('',*,*,#174,.F.);
#134=ORIENTED_EDGE('',*,*,#180,.F.);
#135=ORIENTED_EDGE('',*,*,#183,.F.);
#136=ORIENTED_EDGE('',*,*,#186,.F.);
#137=ORIENTED_EDGE('',*,*,#189,.F.);
#138=ORIENTED_EDGE('',*,*,#192,.F.);
#139=ORIENTED_EDGE('',*,*,#195,.F.);
#140=ORIENTED_EDGE('',*,*,#173,.T.);
#141=ORIENTED_EDGE('',*,*,#172,.F.);
#142=ORIENTED_EDGE('',*,*,#198,.F.);
#143=ORIENTED_EDGE('',*,*,#199,.T.);
#144=ORIENTED_EDGE('',*,*,#187,.T.);
#145=ORIENTED_EDGE('',*,*,#200,.F.);
#146=ORIENTED_EDGE('',*,*,#198,.T.);
#147=ORIENTED_EDGE('',*,*,#184,.T.);
#148=ORIENTED_EDGE('',*,*,#201,.F.);
#149=ORIENTED_EDGE('',*,*,#200,.T.);
#150=ORIENTED_EDGE('',*,*,#181,.T.);
#151=ORIENTED_EDGE('',*,*,#202,.F.);
#152=ORIENTED_EDGE('',*,*,#201,.T.);
#153=ORIENTED_EDGE('',*,*,#178,.T.);
#154=ORIENTED_EDGE('',*,*,#203,.F.);
#155=ORIENTED_EDGE('',*,*,#202,.T.);
#156=ORIENTED_EDGE('',*,*,#176,.T.);
#157=ORIENTED_EDGE('',*,*,#204,.F.);
#158=ORIENTED_EDGE('',*,*,#203,.T.);
#159=ORIENTED_EDGE('',*,*,#196,.T.);
#160=ORIENTED_EDGE('',*,*,#205,.F.);
#161=ORIENTED_EDGE('',*,*,#204,.T.);
#162=ORIENTED_EDGE('',*,*,#193,.T.);
#163=ORIENTED_EDGE('',*,*,#190,.T.);
#164=ORIENTED_EDGE('',*,*,#199,.F.);
#165=ORIENTED_EDGE('',*,*,#205,.T.);
#166=EDGE_CURVE('',#206,#207,#229,.T.);
#167=EDGE_CURVE('',#206,#207,#14,.T.);
#168=EDGE_CURVE('',#208,#208,#230,.T.);
#169=EDGE_CURVE('',#209,#209,#231,.T.);
#170=EDGE_CURVE('',#210,#206,#15,.T.);
#171=EDGE_CURVE('',#211,#207,#16,.T.);
#172=EDGE_CURVE('',#211,#210,#232,.T.);
#173=EDGE_CURVE('',#211,#210,#17,.T.);
#174=EDGE_CURVE('',#212,#213,#18,.F.);
#175=EDGE_CURVE('',#214,#213,#19,.T.);
#176=EDGE_CURVE('',#215,#214,#20,.F.);
#177=EDGE_CURVE('',#215,#212,#21,.T.);
#178=EDGE_CURVE('',#216,#215,#22,.F.);
#179=EDGE_CURVE('',#216,#217,#23,.T.);
#180=EDGE_CURVE('',#217,#212,#24,.F.);
#181=EDGE_CURVE('',#218,#216,#25,.F.);
#182=EDGE_CURVE('',#218,#219,#26,.T.);
#183=EDGE_CURVE('',#219,#217,#27,.F.);
#184=EDGE_CURVE('',#220,#218,#28,.F.);
#185=EDGE_CURVE('',#220,#221,#29,.T.);
#186=EDGE_CURVE('',#221,#219,#30,.F.);
#187=EDGE_CURVE('',#222,#220,#31,.F.);
#188=EDGE_CURVE('',#222,#223,#32,.T.);
#189=EDGE_CURVE('',#223,#221,#33,.F.);
#190=EDGE_CURVE('',#224,#222,#34,.F.);
#191=EDGE_CURVE('',#224,#225,#35,.T.);
#192=EDGE_CURVE('',#225,#223,#36,.F.);
#193=EDGE_CURVE('',#226,#224,#37,.F.);
#194=EDGE_CURVE('',#226,#227,#38,.T.);
#195=EDGE_CURVE('',#227,#225,#39,.F.);
#196=EDGE_CURVE('',#214,#226,#40,.F.);
#197=EDGE_CURVE('',#213,#227,#41,.F.);
#198=EDGE_CURVE('',#228,#220,#42,.T.);
#199=EDGE_CURVE('',#228,#222,#43,.T.);
#200=EDGE_CURVE('',#228,#218,#44,.T.);
#201=EDGE_CURVE('',#228,#216,#45,.T.);
#202=EDGE_CURVE('',#228,#215,#46,.T.);
#203=EDGE_CURVE('',#228,#214,#47,.T.);
#204=EDGE_CURVE('',#228,#226,#48,.T.);
#205=EDGE_CURVE('',#228,#224,#49,.T.);
#206=VERTEX_POINT('',#457);
#207=VERTEX_POINT('',#458);
#208=VERTEX_POINT('',#461);
#209=VERTEX_POINT('',#464);
#210=VERTEX_POINT('',#467);
#211=VERTEX_POINT('',#469);
#212=VERTEX_POINT('',#475);
#213=VERTEX_POINT('',#476);
#214=VERTEX_POINT('',#478);
#215=VERTEX_POINT('',#480);
#216=VERTEX_POINT('',#484);
#217=VERTEX_POINT('',#486);
#218=VERTEX_POINT('',#490);
#219=VERTEX_POINT('',#492);
#220=VERTEX_POINT('',#496);
#221=VERTEX_POINT('',#498);
#222=VERTEX_POINT('',#502);
#223=VERTEX_POINT('',#504);
#224=VERTEX_POINT('',#508);
#225=VERTEX_POINT('',#510);
#226=VERTEX_POINT('',#514);
#227=VERTEX_POINT('',#516);
#228=VERTEX_POINT('',#525);
#229=CIRCLE('',#339,0.0016);
#230=CIRCLE('',#340,0.002);
#231=CIRCLE('',#342,0.002);
#232=CIRCLE('',#344,0.0016);
#233=EDGE_LOOP('',(#86,#87));
#234=EDGE_LOOP('',(#88));
#235=EDGE_LOOP('',(#89));
#236=EDGE_LOOP('',(#90));
#237=EDGE_LOOP('',(#91,#92,#93,#94));
#238=EDGE_LOOP('',(#95,#96,#97,#98));
#239=EDGE_LOOP('',(#99,#100,#101,#102));
#240=EDGE_LOOP('',(#103,#104,#105,#106));
#241=EDGE_LOOP('',(#107,#108,#109,#110));
#242=EDGE_LOOP('',(#111,#112,#113,#114));
#243=EDGE_LOOP('',(#115,#116,#117,#118));
#244=EDGE_LOOP('',(#119,#120,#121,#122));
#245=EDGE_LOOP('',(#123,#124,#125,#126));
#246=EDGE_LOOP('',(#127,#128,#129,#130));
#247=EDGE_LOOP('',(#131));
#248=EDGE_LOOP('',(#132,#133,#134,#135,#136,#137,#138,#139));
#249=EDGE_LOOP('',(#140,#141));
#250=EDGE_LOOP('',(#142,#143,#144));
#251=EDGE_LOOP('',(#145,#146,#147));
#252=EDGE_LOOP('',(#148,#149,#150));
#253=EDGE_LOOP('',(#151,#152,#153));
#254=EDGE_LOOP('',(#154,#155,#156));
#255=EDGE_LOOP('',(#157,#158,#159));
#256=EDGE_LOOP('',(#160,#161,#162));
#257=EDGE_LOOP('',(#163,#164,#165));
#258=FACE_BOUND('',#233,.T.);
#259=FACE_BOUND('',#234,.T.);
#260=FACE_BOUND('',#235,.T.);
#261=FACE_BOUND('',#236,.T.);
#262=FACE_BOUND('',#237,.T.);
#263=FACE_BOUND('',#238,.T.);
#264=FACE_BOUND('',#239,.T.);
#265=FACE_BOUND('',#240,.T.);
#266=FACE_BOUND('',#241,.T.);
#267=FACE_BOUND('',#242,.T.);
#268=FACE_BOUND('',#243,.T.);
#269=FACE_BOUND('',#244,.T.);
#270=FACE_BOUND('',#245,.T.);
#271=FACE_BOUND('',#246,.T.);
#272=FACE_BOUND('',#247,.T.);
#273=FACE_BOUND('',#248,.T.);
#274=FACE_BOUND('',#249,.T.);
#275=FACE_BOUND('',#250,.T.);
#276=FACE_BOUND('',#251,.T.);
#277=FACE_BOUND('',#252,.T.);
#278=FACE_BOUND('',#253,.T.);
#279=FACE_BOUND('',#254,.T.);
#280=FACE_BOUND('',#255,.T.);
#281=FACE_BOUND('',#256,.T.);
#282=FACE_BOUND('',#257,.T.);
#283=PLANE('',#338);
#284=PLANE('',#345);
#285=PLANE('',#346);
#286=PLANE('',#347);
#287=PLANE('',#348);
#288=PLANE('',#349);
#289=PLANE('',#350);
#290=PLANE('',#351);
#291=PLANE('',#352);
#292=PLANE('',#353);
#293=PLANE('',#354);
#294=PLANE('',#355);
#295=PLANE('',#356);
#296=PLANE('',#357);
#297=PLANE('',#358);
#298=PLANE('',#359);
#299=PLANE('',#360);
#300=PLANE('',#361);
#301=PLANE('',#362);
#302=PLANE('',#363);
#303=ADVANCED_FACE('',(#258,#259),#283,.F.);
#304=ADVANCED_FACE('',(#260,#261),#12,.T.);
#305=ADVANCED_FACE('',(#262),#13,.F.);
#306=ADVANCED_FACE('',(#263),#284,.F.);
#307=ADVANCED_FACE('',(#264),#285,.F.);
#308=ADVANCED_FACE('',(#265),#286,.F.);
#309=ADVANCED_FACE('',(#266),#287,.F.);
#310=ADVANCED_FACE('',(#267),#288,.F.);
#311=ADVANCED_FACE('',(#268),#289,.F.);
#312=ADVANCED_FACE('',(#269),#290,.F.);
#313=ADVANCED_FACE('',(#270),#291,.F.);
#314=ADVANCED_FACE('',(#271),#292,.F.);
#315=ADVANCED_FACE('',(#272,#273),#293,.F.);
#316=ADVANCED_FACE('',(#274),#294,.F.);
#317=ADVANCED_FACE('',(#275),#295,.F.);
#318=ADVANCED_FACE('',(#276),#296,.F.);
#319=ADVANCED_FACE('',(#277),#297,.F.);
#320=ADVANCED_FACE('',(#278),#298,.F.);
#321=ADVANCED_FACE('',(#279),#299,.F.);
#322=ADVANCED_FACE('',(#280),#300,.F.);
#323=ADVANCED_FACE('',(#281),#301,.F.);
#324=ADVANCED_FACE('',(#282),#302,.F.);
#325=CLOSED_SHELL('',(#303,#304,#305,#306,#307,#308,#309,#310,#311,#312,
#313,#314,#315,#316,#317,#318,#319,#320,#321,#322,#323,#324));
#326=STYLED_ITEM('',(#327),#334);
#327=PRESENTATION_STYLE_ASSIGNMENT((#328));
#328=SURFACE_STYLE_USAGE(.BOTH.,#329);
#329=SURFACE_SIDE_STYLE('',(#330));
#330=SURFACE_STYLE_FILL_AREA(#331);
#331=FILL_AREA_STYLE('',(#332));
#332=FILL_AREA_STYLE_COLOUR('',#333);
#333=COLOUR_RGB('',0.768627450980392,0.886274509803922,0.952941176470588);
#334=MANIFOLD_SOLID_BREP('Left Wheel Spike',#325);
#335=SHAPE_DEFINITION_REPRESENTATION(#546,#336);
#336=SHAPE_REPRESENTATION('Left Wheel Spike',(#337),#541);
#337=AXIS2_PLACEMENT_3D('',#454,#364,#365);
#338=AXIS2_PLACEMENT_3D('',#455,#366,#367);
#339=AXIS2_PLACEMENT_3D('',#456,#368,#369);
#340=AXIS2_PLACEMENT_3D('',#460,#371,#372);
#341=AXIS2_PLACEMENT_3D('',#462,#373,#374);
#342=AXIS2_PLACEMENT_3D('',#463,#375,#376);
#343=AXIS2_PLACEMENT_3D('',#465,#377,#378);
#344=AXIS2_PLACEMENT_3D('',#470,#381,#382);
#345=AXIS2_PLACEMENT_3D('',#471,#383,#384);
#346=AXIS2_PLACEMENT_3D('',#473,#386,#387);
#347=AXIS2_PLACEMENT_3D('',#482,#392,#393);
#348=AXIS2_PLACEMENT_3D('',#488,#397,#398);
#349=AXIS2_PLACEMENT_3D('',#494,#402,#403);
#350=AXIS2_PLACEMENT_3D('',#500,#407,#408);
#351=AXIS2_PLACEMENT_3D('',#506,#412,#413);
#352=AXIS2_PLACEMENT_3D('',#512,#417,#418);
#353=AXIS2_PLACEMENT_3D('',#518,#422,#423);
#354=AXIS2_PLACEMENT_3D('',#521,#426,#427);
#355=AXIS2_PLACEMENT_3D('',#522,#428,#429);
#356=AXIS2_PLACEMENT_3D('',#523,#430,#431);
#357=AXIS2_PLACEMENT_3D('',#527,#434,#435);
#358=AXIS2_PLACEMENT_3D('',#529,#437,#438);
#359=AXIS2_PLACEMENT_3D('',#531,#440,#441);
#360=AXIS2_PLACEMENT_3D('',#533,#443,#444);
#361=AXIS2_PLACEMENT_3D('',#535,#446,#447);
#362=AXIS2_PLACEMENT_3D('',#537,#449,#450);
#363=AXIS2_PLACEMENT_3D('',#539,#452,#453);
#364=DIRECTION('',(0.,0.,1.));
#365=DIRECTION('',(1.,0.,0.));
#366=DIRECTION('',(1.,0.,0.));
#367=DIRECTION('',(0.,-1.,0.));
#368=DIRECTION('',(-1.,0.,0.));
#369=DIRECTION('',(0.,0.,1.));
#370=DIRECTION('',(0.,-7.01801395951689E-16,-1.));
#371=DIRECTION('',(-1.,0.,0.));
#372=DIRECTION('',(0.,0.,1.));
#373=DIRECTION('',(-1.,0.,0.));
#374=DIRECTION('',(0.,0.,-1.));
#375=DIRECTION('',(1.,0.,0.));
#376=DIRECTION('',(0.,0.,-1.));
#377=DIRECTION('',(-1.,0.,0.));
#378=DIRECTION('',(0.,0.,-1.));
#379=DIRECTION('',(-1.,0.,0.));
#380=DIRECTION('',(-1.,0.,0.));
#381=DIRECTION('',(1.,0.,0.));
#382=DIRECTION('',(0.,0.,-1.));
#383=DIRECTION('',(0.,-1.,7.01801395951689E-16));
#384=DIRECTION('',(0.,-7.01801395951689E-16,-1.));
#385=DIRECTION('',(0.,7.01801395951689E-16,1.));
#386=DIRECTION('',(0.554700196225229,-0.832050294337844,0.));
#387=DIRECTION('',(-0.832050294337844,-0.554700196225229,0.));
#388=DIRECTION('',(0.,0.,-1.));
#389=DIRECTION('',(-0.810920653838994,-0.540613769225996,-0.223929555219046));
#390=DIRECTION('',(0.,0.,-1.));
#391=DIRECTION('',(-0.810920653838994,-0.540613769225996,0.223929555219046));
#392=DIRECTION('',(0.554700196225229,-0.588348405414552,0.588348405414552));
#393=DIRECTION('',(0.,-0.707106781186548,-0.707106781186548));
#394=DIRECTION('',(0.,-0.707106781186548,-0.707106781186548));
#395=DIRECTION('',(-0.810920653838994,-0.223929555219046,0.540613769225996));
#396=DIRECTION('',(0.,-0.707106781186547,-0.707106781186548));
#397=DIRECTION('',(0.554700196225229,-1.58391852756071E-16,0.832050294337844));
#398=DIRECTION('',(-0.832050294337844,0.,0.554700196225229));
#399=DIRECTION('',(0.,-1.,-1.90363315575918E-16));
#400=DIRECTION('',(-0.810920653838994,0.223929555219046,0.540613769225996));
#401=DIRECTION('',(0.,-1.,-2.99142353047872E-16));
#402=DIRECTION('',(0.554700196225229,0.588348405414552,0.588348405414552));
#403=DIRECTION('',(0.,-0.707106781186548,0.707106781186547));
#404=DIRECTION('',(0.,-0.707106781186548,0.707106781186547));
#405=DIRECTION('',(-0.810920653838994,0.540613769225996,0.223929555219046));
#406=DIRECTION('',(0.,-0.707106781186548,0.707106781186547));
#407=DIRECTION('',(0.554700196225228,0.832050294337844,1.58391852756071E-16));
#408=DIRECTION('',(0.832050294337844,-0.554700196225228,0.));
#409=DIRECTION('',(0.,-1.90363315575918E-16,1.));
#410=DIRECTION('',(-0.810920653838995,0.540613769225995,-0.223929555219047));
#411=DIRECTION('',(0.,-2.99142353047872E-16,1.));
#412=DIRECTION('',(0.554700196225229,0.588348405414552,-0.588348405414552));
#413=DIRECTION('',(0.,0.707106781186547,0.707106781186548));
#414=DIRECTION('',(0.,0.707106781186547,0.707106781186548));
#415=DIRECTION('',(-0.810920653838994,0.223929555219046,-0.540613769225996));
#416=DIRECTION('',(0.,0.707106781186547,0.707106781186548));
#417=DIRECTION('',(0.554700196225229,1.58391852756071E-16,-0.832050294337844));
#418=DIRECTION('',(0.832050294337844,0.,0.554700196225229));
#419=DIRECTION('',(0.,1.,1.90363315575918E-16));
#420=DIRECTION('',(-0.810920653838994,-0.223929555219046,-0.540613769225996));
#421=DIRECTION('',(0.,1.,2.99142353047872E-16));
#422=DIRECTION('',(0.554700196225229,-0.588348405414552,-0.588348405414552));
#423=DIRECTION('',(0.,0.707106781186548,-0.707106781186548));
#424=DIRECTION('',(0.,0.707106781186548,-0.707106781186548));
#425=DIRECTION('',(0.,0.707106781186548,-0.707106781186547));
#426=DIRECTION('',(1.,0.,0.));
#427=DIRECTION('',(0.,-1.,0.));
#428=DIRECTION('',(1.,0.,0.));
#429=DIRECTION('',(0.,-1.,0.));
#430=DIRECTION('',(-0.344254649158423,0.938876315886609,1.78727608407878E-16));
#431=DIRECTION('',(0.938876315886609,0.344254649158424,0.));
#432=DIRECTION('',(-0.929474221750836,-0.340807214641973,-0.141166970459304));
#433=DIRECTION('',(-0.929474221750836,-0.340807214641973,0.141166970459304));
#434=DIRECTION('',(-0.344254649158423,0.663885809658864,0.663885809658864));
#435=DIRECTION('',(0.,-0.707106781186548,0.707106781186547));
#436=DIRECTION('',(-0.929474221750836,-0.141166970459304,-0.340807214641973));
#437=DIRECTION('',(-0.344254649158423,-1.78727608407878E-16,0.938876315886609));
#438=DIRECTION('',(-0.938876315886609,0.,-0.344254649158424));
#439=DIRECTION('',(-0.929474221750836,0.141166970459304,-0.340807214641973));
#440=DIRECTION('',(-0.344254649158423,-0.663885809658864,0.663885809658864));
#441=DIRECTION('',(0.,-0.707106781186547,-0.707106781186548));
#442=DIRECTION('',(-0.929474221750836,0.340807214641973,-0.141166970459304));
#443=DIRECTION('',(-0.344254649158423,-0.938876315886609,0.));
#444=DIRECTION('',(-0.938876315886609,0.344254649158423,0.));
#445=DIRECTION('',(-0.929474221750836,0.340807214641973,0.141166970459304));
#446=DIRECTION('',(-0.344254649158423,-0.663885809658864,-0.663885809658864));
#447=DIRECTION('',(0.,0.707106781186548,-0.707106781186547));
#448=DIRECTION('',(-0.929474221750836,0.141166970459304,0.340807214641973));
#449=DIRECTION('',(-0.344254649158423,1.78727608407878E-16,-0.938876315886609));
#450=DIRECTION('',(0.938876315886609,0.,-0.344254649158423));
#451=DIRECTION('',(-0.929474221750836,-0.141166970459304,0.340807214641973));
#452=DIRECTION('',(-0.344254649158423,0.663885809658864,-0.663885809658864));
#453=DIRECTION('',(0.,0.707106781186547,0.707106781186548));
#454=CARTESIAN_POINT('',(0.,0.,0.));
#455=CARTESIAN_POINT('',(0.051,0.0006,-8.67361737988404E-19));
#456=CARTESIAN_POINT('',(0.051,0.0006,-3.96424446721602E-19));
#457=CARTESIAN_POINT('',(0.051,-0.00058,0.00108055541273921));
#458=CARTESIAN_POINT('',(0.051,-0.00058,-0.00108055541273921));
#459=CARTESIAN_POINT('',(0.051,-0.00058,-0.00100331118248121));
#460=CARTESIAN_POINT('',(0.051,0.0006,-4.32646832397842E-19));
#461=CARTESIAN_POINT('',(0.051,0.0006,0.002));
#462=CARTESIAN_POINT('',(0.056002,0.0006,-4.32646832397842E-19));
#463=CARTESIAN_POINT('',(0.057,0.0006,-4.32646832397842E-19));
#464=CARTESIAN_POINT('',(0.057,0.0006,-0.002));
#465=CARTESIAN_POINT('',(0.056002,0.0006,-3.96424446721602E-19));
#466=CARTESIAN_POINT('',(0.056002,-0.00058,0.00108055541273921));
#467=CARTESIAN_POINT('',(0.057,-0.00058,0.00108055541273921));
#468=CARTESIAN_POINT('',(0.056002,-0.00058,-0.00108055541273921));
#469=CARTESIAN_POINT('',(0.057,-0.00058,-0.00108055541273921));
#470=CARTESIAN_POINT('',(0.057,0.0006,-3.96424446721602E-19));
#471=CARTESIAN_POINT('',(0.056002,-0.00058,-0.00100331118248121));
#472=CARTESIAN_POINT('',(0.057,-0.00058,-0.00100331118248121));
#473=CARTESIAN_POINT('',(0.0156461538461538,-0.0234692307692307,0.));
#474=CARTESIAN_POINT('',(0.057,0.0041,2.16840434497101E-19));
#475=CARTESIAN_POINT('',(0.057,0.0041,-0.00144974746830583));
#476=CARTESIAN_POINT('',(0.057,0.0041,0.00144974746830583));
#477=CARTESIAN_POINT('',(0.06,0.0061,0.00227817459305203));
#478=CARTESIAN_POINT('',(0.06,0.0061,0.00227817459305203));
#479=CARTESIAN_POINT('',(0.06,0.0061,0.));
#480=CARTESIAN_POINT('',(0.06,0.0061,-0.00227817459305202));
#481=CARTESIAN_POINT('',(0.06,0.0061,-0.00227817459305202));
#482=CARTESIAN_POINT('',(0.0157272627375175,-0.0166812811968018,0.0166812811968018));
#483=CARTESIAN_POINT('',(0.06,0.00448908729652601,-0.00388908729652601));
#484=CARTESIAN_POINT('',(0.06,0.00287817459305203,-0.0055));
#485=CARTESIAN_POINT('',(0.06,0.00287817459305203,-0.0055));
#486=CARTESIAN_POINT('',(0.057,0.00204974746830583,-0.0035));
#487=CARTESIAN_POINT('',(0.057,0.00307487373415291,-0.00247487373415291));
#488=CARTESIAN_POINT('',(0.0159230769230769,-4.54675457587097E-18,0.0238846153846153));
#489=CARTESIAN_POINT('',(0.06,0.0006,-0.0055));
#490=CARTESIAN_POINT('',(0.06,-0.00167817459305202,-0.0055));
#491=CARTESIAN_POINT('',(0.06,-0.00167817459305202,-0.0055));
#492=CARTESIAN_POINT('',(0.057,-0.000849747468305832,-0.0035));
#493=CARTESIAN_POINT('',(0.057,0.0006,-0.0035));
#494=CARTESIAN_POINT('',(0.0161188911086363,0.0170966658121863,0.0170966658121864));
#495=CARTESIAN_POINT('',(0.06,-0.00328908729652601,-0.00388908729652601));
#496=CARTESIAN_POINT('',(0.06,-0.0049,-0.00227817459305203));
#497=CARTESIAN_POINT('',(0.06,-0.0049,-0.00227817459305203));
#498=CARTESIAN_POINT('',(0.057,-0.0029,-0.00144974746830583));
#499=CARTESIAN_POINT('',(0.057,-0.00187487373415292,-0.00247487373415291));
#500=CARTESIAN_POINT('',(0.0162,0.0243,4.62582856849481E-18));
#501=CARTESIAN_POINT('',(0.06,-0.0049,-1.3010426069826E-18));
#502=CARTESIAN_POINT('',(0.06,-0.0049,0.00227817459305202));
#503=CARTESIAN_POINT('',(0.06,-0.0049,0.00227817459305202));
#504=CARTESIAN_POINT('',(0.057,-0.0029,0.00144974746830583));
#505=CARTESIAN_POINT('',(0.057,-0.0029,-4.33680868994202E-19));
#506=CARTESIAN_POINT('',(0.0161188911086363,0.0170966658121863,-0.0170966658121863));
#507=CARTESIAN_POINT('',(0.06,-0.00328908729652601,0.00388908729652601));
#508=CARTESIAN_POINT('',(0.06,-0.00167817459305202,0.0055));
#509=CARTESIAN_POINT('',(0.06,-0.00167817459305202,0.0055));
#510=CARTESIAN_POINT('',(0.057,-0.000849747468305833,0.0035));
#511=CARTESIAN_POINT('',(0.057,-0.00187487373415292,0.00247487373415291));
#512=CARTESIAN_POINT('',(0.0159230769230769,4.54675457587098E-18,-0.0238846153846154));
#513=CARTESIAN_POINT('',(0.06,0.0006,0.0055));
#514=CARTESIAN_POINT('',(0.06,0.00287817459305203,0.0055));
#515=CARTESIAN_POINT('',(0.06,0.00287817459305203,0.0055));
#516=CARTESIAN_POINT('',(0.057,0.00204974746830583,0.0035));
#517=CARTESIAN_POINT('',(0.057,0.0006,0.0035));
#518=CARTESIAN_POINT('',(0.0157272627375175,-0.0166812811968018,-0.0166812811968018));
#519=CARTESIAN_POINT('',(0.06,0.00448908729652601,0.00388908729652601));
#520=CARTESIAN_POINT('',(0.057,0.00307487373415291,0.00247487373415291));
#521=CARTESIAN_POINT('',(0.057,0.0006,0.));
#522=CARTESIAN_POINT('',(0.057,0.0006,0.));
#523=CARTESIAN_POINT('',(0.00869441723800196,-0.0237120470127326,-4.51390388843583E-18));
#524=CARTESIAN_POINT('',(0.075,0.0006,0.));
#525=CARTESIAN_POINT('',(0.075,0.0006,0.));
#526=CARTESIAN_POINT('',(0.075,0.0006,0.));
#527=CARTESIAN_POINT('',(0.00875121729414796,-0.0168764866154428,-0.0168764866154428));
#528=CARTESIAN_POINT('',(0.075,0.0006,0.));
#529=CARTESIAN_POINT('',(0.00888834476003918,4.61458575955336E-18,-0.0242409402546523));
#530=CARTESIAN_POINT('',(0.075,0.0006,0.));
#531=CARTESIAN_POINT('',(0.0090254722259304,0.0174053798573625,-0.0174053798573625));
#532=CARTESIAN_POINT('',(0.075,0.0006,0.));
#533=CARTESIAN_POINT('',(0.0090822722820764,0.024769833496572,0.));
#534=CARTESIAN_POINT('',(0.075,0.0006,0.));
#535=CARTESIAN_POINT('',(0.0090254722259304,0.0174053798573625,0.0174053798573625));
#536=CARTESIAN_POINT('',(0.075,0.0006,0.));
#537=CARTESIAN_POINT('',(0.00888834476003918,-4.61458575955336E-18,0.0242409402546523));
#538=CARTESIAN_POINT('',(0.075,0.0006,0.));
#539=CARTESIAN_POINT('',(0.00875121729414796,-0.0168764866154428,0.0168764866154428));
#540=MECHANICAL_DESIGN_GEOMETRIC_PRESENTATION_REPRESENTATION('',(#326),
#541);
#541=(
GEOMETRIC_REPRESENTATION_CONTEXT(3)
GLOBAL_UNCERTAINTY_ASSIGNED_CONTEXT((#542))
GLOBAL_UNIT_ASSIGNED_CONTEXT((#545,#544,#543))
REPRESENTATION_CONTEXT('Left Wheel Spike','TOP_LEVEL_ASSEMBLY_PART')
);
#542=UNCERTAINTY_MEASURE_WITH_UNIT(LENGTH_MEASURE(1.E-8),#545,
'DISTANCE_ACCURACY_VALUE','Maximum Tolerance applied to model');
#543=(
NAMED_UNIT(*)
SI_UNIT($,.STERADIAN.)
SOLID_ANGLE_UNIT()
);
#544=(
NAMED_UNIT(*)
PLANE_ANGLE_UNIT()
SI_UNIT($,.RADIAN.)
);
#545=(
LENGTH_UNIT()
NAMED_UNIT(*)
SI_UNIT($,.METRE.)
);
#546=PRODUCT_DEFINITION_SHAPE('','',#547);
#547=PRODUCT_DEFINITION('','',#549,#548);
#548=PRODUCT_DEFINITION_CONTEXT('',#555,'design');
#549=PRODUCT_DEFINITION_FORMATION_WITH_SPECIFIED_SOURCE('','',#551,
 .NOT_KNOWN.);
#550=PRODUCT_RELATED_PRODUCT_CATEGORY('','',(#551));
#551=PRODUCT('Left Wheel Spike','Left Wheel Spike','Left Wheel Spike',(#553));
#552=PRODUCT_CATEGORY('','');
#553=PRODUCT_CONTEXT('',#555,'mechanical');
#554=APPLICATION_PROTOCOL_DEFINITION('international standard',
'ap242_managed_model_based_3d_engineering',2020,#555);
#555=APPLICATION_CONTEXT('managed model based 3d engineering');
ENDSEC;
END-ISO-10303-21;
